<svg xmlns="http://www.w3.org/2000/svg" id="color" enable-background="new 0 0 24 24" height="512px" viewBox="0 0 24 24" width="512px" class=""><g><path d="m24 3v16c0 1.65-1.35 3-3 3h-4.03l.03-.25v-1.75h4c.55 0 1-.45 1-1v-14h-20v5.01c-.73.04-1.42.28-2 .65v-7.66c0-1.65 1.35-3 3-3h18c1.65 0 3 1.35 3 3z" fill="#607d8b" data-original="#607D8B" class="" style="fill:#45A735" data-old_color="#607d8b"/><path d="m2 5v5.01l.25-.01h10.5c2.34 0 4.25 1.91 4.25 4.25v5.75h4c.55 0 1-.45 1-1v-14zm19 4.25c0 .3-.18.58-.46.69-.1.04-.19.06-.29.06-.19 0-.39-.08-.53-.22l-.72-.72-1.72 1.721c-.29.29-.771.29-1.061 0s-.29-.77 0-1.061l1.721-1.72-.72-.72c-.21-.21-.28-.54-.16-.82.11-.28.39-.46.69-.46h2.5c.41 0 .75.34.75.75z" fill="#fff" data-original="#FFF" class="active-path" data-old_color="#fff" style="fill:#DEDEDE"/><path d="m12 0h-9c-1.65 0-3 1.35-3 3v7.66c.58-.37 1.27-.61 2-.65v-5.01h10z" fill="#546d79" data-original="#546D79" class="" style="fill:#45A735" data-old_color="#546d79"/><path d="m12 5h-10v5.01l.25-.01h9.75z" fill="#dedede" data-original="#DEDEDE" class=""/><path d="m17.28 10.78c-.29.29-.77.29-1.06 0s-.29-.77 0-1.06l1.72-1.72-.72-.72c-.21-.21-.28-.54-.16-.82.11-.28.39-.46.69-.46h2.5c.41 0 .75.34.75.75v2.5c0 .3-.18.58-.46.69-.1.04-.19.06-.29.06-.19 0-.39-.08-.53-.22l-.72-.72z" fill="#607d8b" data-original="#607D8B" class="" style="fill:#45A735" data-old_color="#607d8b"/><path d="m2 10.01c.08-.01.17-.01.25-.01-.09 0-.17.02-.25.03z" fill="#fff" data-original="#FFF" class="active-path" data-old_color="#fff" style="fill:#DEDEDE"/><path d="m21 6.75v2.5c0 .3-.18.58-.46.69-.1.04-.19.06-.29.06-.19 0-.39-.08-.53-.22l-.72-.72-1.72 1.72c-.29.29-.77.29-1.06 0s-.29-.77 0-1.06l1.72-1.72-.72-.72c-.21-.21-.28-.54-.16-.82.11-.28.39-.46.69-.46h2.5c.41 0 .75.34.75.75z" fill="#fff" data-original="#FFF" class="active-path" data-old_color="#fff" style="fill:#DEDEDE"/><path d="m12.75 24h-10.5c-1.241 0-2.25-1.01-2.25-2.25v-7.5c0-1.24 1.009-2.25 2.25-2.25h10.5c1.241 0 2.25 1.01 2.25 2.25v7.5c0 1.24-1.009 2.25-2.25 2.25z" fill="#607d8b" data-original="#607D8B" class="" style="fill:#45A735" data-old_color="#607d8b"/><path d="m12 22h-9c-.551 0-1-.448-1-1v-6h11v6c0 .552-.449 1-1 1z" fill="#fff" data-original="#FFF" class="active-path" data-old_color="#fff" style="fill:#DEDEDE"/><path d="m7.261 12h-5.011c-1.241 0-2.25 1.01-2.25 2.25v7.5c0 1.24 1.009 2.25 2.25 2.25h5.011v-2h-4.261c-.551 0-1-.448-1-1v-6h5.261z" fill="#546d79" data-original="#546D79" class="" style="fill:#45A735" data-old_color="#546d79"/><path d="m7.261 15h-5.261v6c0 .552.449 1 1 1h4.261z" fill="#dedede" data-original="#DEDEDE" class=""/><path d="m20.78 7.28-3.5 3.5c-.29.29-.771.29-1.061 0s-.29-.771 0-1.061l1.721-1.719 1.78-1.78c.15-.15 1.35.77 1.06 1.06z" fill="#2196f3" data-original="#2196F3" class="" style="fill:#04458F" data-old_color="#2196f3"/><path d="m21 6.75v2.5c0 .3-.18.58-.46.69-.1.04-.19.06-.29.06-.19 0-.39-.08-.53-.22l-2.5-2.5c-.21-.21-.28-.54-.16-.82.11-.28.39-.46.69-.46h2.5c.41 0 .75.34.75.75z" fill="#2196f3" data-original="#2196F3" class="" style="fill:#04458F" data-old_color="#2196f3"/><g fill="#1d83d4"><path d="m17.94 8-1.72 1.72c-.282.283-.289.746-.022 1.038l2.25-2.249z" data-original="#1D83D4" class="" style="fill:#04458F" data-old_color="#1D83D4"/><path d="m20.25 6h-2.5c-.3 0-.58.18-.69.46-.12.28-.05.61.16.82l.72.72.508.508 2.309-2.309c-.135-.123-.313-.199-.507-.199z" data-original="#1D83D4" class="" style="fill:#04458F" data-old_color="#1D83D4"/></g></g> </svg>
