<svg xmlns="http://www.w3.org/2000/svg" xmlns:xlink="http://www.w3.org/1999/xlink" width="207.488" height="75.739" viewBox="0 0 207.488 75.739">
  <defs>
    <filter id="Tracé_10" x="20.416" y="19.771" width="51.721" height="49.354" filterUnits="userSpaceOnUse">
      <feOffset dy="3" input="SourceAlpha"/>
      <feGaussianBlur stdDeviation="3" result="blur"/>
      <feFlood flood-color="#1c449b" flood-opacity="0.329"/>
      <feComposite operator="in" in2="blur"/>
      <feComposite in="SourceGraphic"/>
    </filter>
    <filter id="Tracé_11" x="35.195" y="0.201" width="30.793" height="30.875" filterUnits="userSpaceOnUse">
      <feOffset dy="3" input="SourceAlpha"/>
      <feGaussianBlur stdDeviation="3" result="blur-2"/>
      <feFlood flood-color="#1c449b" flood-opacity="0.329"/>
      <feComposite operator="in" in2="blur-2"/>
      <feComposite in="SourceGraphic"/>
    </filter>
    <filter id="Tracé_12" x="8.193" y="8.991" width="26.01" height="26.008" filterUnits="userSpaceOnUse">
      <feOffset dy="3" input="SourceAlpha"/>
      <feGaussianBlur stdDeviation="3" result="blur-3"/>
      <feFlood flood-color="#1c449b" flood-opacity="0.329"/>
      <feComposite operator="in" in2="blur-3"/>
      <feComposite in="SourceGraphic"/>
    </filter>
    <filter id="Rectangle_1" x="26.67" y="50.66" width="33.459" height="20.125" filterUnits="userSpaceOnUse">
      <feOffset dy="3" input="SourceAlpha"/>
      <feGaussianBlur stdDeviation="3" result="blur-4"/>
      <feFlood flood-color="#1c449b" flood-opacity="0.329"/>
      <feComposite operator="in" in2="blur-4"/>
      <feComposite in="SourceGraphic"/>
    </filter>
    <filter id="Rectangle_2" x="20.48" y="52.784" width="45.871" height="20.463" filterUnits="userSpaceOnUse">
      <feOffset dy="3" input="SourceAlpha"/>
      <feGaussianBlur stdDeviation="3" result="blur-5"/>
      <feFlood flood-color="#1c449b" flood-opacity="0.329"/>
      <feComposite operator="in" in2="blur-5"/>
      <feComposite in="SourceGraphic"/>
    </filter>
    <filter id="Ellipse_3" x="29.443" y="15.922" width="27.486" height="27.301" filterUnits="userSpaceOnUse">
      <feOffset dy="3" input="SourceAlpha"/>
      <feGaussianBlur stdDeviation="3" result="blur-6"/>
      <feFlood flood-color="#1c449b" flood-opacity="0.329"/>
      <feComposite operator="in" in2="blur-6"/>
      <feComposite in="SourceGraphic"/>
    </filter>
    <filter id="Rectangle_7" x="22.883" y="15.953" width="25.268" height="36.662" filterUnits="userSpaceOnUse">
      <feOffset dy="3" input="SourceAlpha"/>
      <feGaussianBlur stdDeviation="3" result="blur-7"/>
      <feFlood flood-color="#1c449b" flood-opacity="0.329"/>
      <feComposite operator="in" in2="blur-7"/>
      <feComposite in="SourceGraphic"/>
    </filter>
    <filter id="Tracé_16" x="32.244" y="18.632" width="21.971" height="22.004" filterUnits="userSpaceOnUse">
      <feOffset dy="3" input="SourceAlpha"/>
      <feGaussianBlur stdDeviation="3" result="blur-8"/>
      <feFlood flood-color="#1c449b" flood-opacity="0.329"/>
      <feComposite operator="in" in2="blur-8"/>
      <feComposite in="SourceGraphic"/>
    </filter>
    <filter id="Ellipse_4" x="18.633" y="6.56" width="20.217" height="20.217" filterUnits="userSpaceOnUse">
      <feOffset dy="3" input="SourceAlpha"/>
      <feGaussianBlur stdDeviation="3" result="blur-9"/>
      <feFlood flood-color="#1c449b" flood-opacity="0.329"/>
      <feComposite operator="in" in2="blur-9"/>
      <feComposite in="SourceGraphic"/>
    </filter>
    <filter id="Ellipse_5" x="10.41" y="41.39" width="21.51" height="21.51" filterUnits="userSpaceOnUse">
      <feOffset dy="3" input="SourceAlpha"/>
      <feGaussianBlur stdDeviation="3" result="blur-10"/>
      <feFlood flood-color="#1c449b" flood-opacity="0.329"/>
      <feComposite operator="in" in2="blur-10"/>
      <feComposite in="SourceGraphic"/>
    </filter>
    <filter id="Rectangle_22" x="0" y="18.047" width="38.604" height="33.152" filterUnits="userSpaceOnUse">
      <feOffset dy="3" input="SourceAlpha"/>
      <feGaussianBlur stdDeviation="3" result="blur-11"/>
      <feFlood flood-color="#1c449b" flood-opacity="0.329"/>
      <feComposite operator="in" in2="blur-11"/>
      <feComposite in="SourceGraphic"/>
    </filter>
    <filter id="Tracé_19" x="56.385" y="0" width="30.938" height="34.503" filterUnits="userSpaceOnUse">
      <feOffset dy="3" input="SourceAlpha"/>
      <feGaussianBlur stdDeviation="3" result="blur-12"/>
      <feFlood flood-color="#54b848" flood-opacity="0.329"/>
      <feComposite operator="in" in2="blur-12"/>
      <feComposite in="SourceGraphic"/>
    </filter>
    <filter id="Tracé_20" x="71.57" y="0.339" width="25.514" height="33.919" filterUnits="userSpaceOnUse">
      <feOffset dy="3" input="SourceAlpha"/>
      <feGaussianBlur stdDeviation="3" result="blur-13"/>
      <feFlood flood-color="#54b848" flood-opacity="0.329"/>
      <feComposite operator="in" in2="blur-13"/>
      <feComposite in="SourceGraphic"/>
    </filter>
    <filter id="Tracé_21" x="82.072" y="0.339" width="25.514" height="33.922" filterUnits="userSpaceOnUse">
      <feOffset dy="3" input="SourceAlpha"/>
      <feGaussianBlur stdDeviation="3" result="blur-14"/>
      <feFlood flood-color="#54b848" flood-opacity="0.329"/>
      <feComposite operator="in" in2="blur-14"/>
      <feComposite in="SourceGraphic"/>
    </filter>
    <filter id="Tracé_22" x="91.805" y="0.339" width="25.512" height="33.922" filterUnits="userSpaceOnUse">
      <feOffset dy="3" input="SourceAlpha"/>
      <feGaussianBlur stdDeviation="3" result="blur-15"/>
      <feFlood flood-color="#54b848" flood-opacity="0.329"/>
      <feComposite operator="in" in2="blur-15"/>
      <feComposite in="SourceGraphic"/>
    </filter>
    <filter id="Tracé_23" x="101.436" y="0.339" width="28.852" height="34.26" filterUnits="userSpaceOnUse">
      <feOffset dy="3" input="SourceAlpha"/>
      <feGaussianBlur stdDeviation="3" result="blur-16"/>
      <feFlood flood-color="#54b848" flood-opacity="0.329"/>
      <feComposite operator="in" in2="blur-16"/>
      <feComposite in="SourceGraphic"/>
    </filter>
    <filter id="Tracé_24" x="115.764" y="0.339" width="25.514" height="33.922" filterUnits="userSpaceOnUse">
      <feOffset dy="3" input="SourceAlpha"/>
      <feGaussianBlur stdDeviation="3" result="blur-17"/>
      <feFlood flood-color="#54b848" flood-opacity="0.329"/>
      <feComposite operator="in" in2="blur-17"/>
      <feComposite in="SourceGraphic"/>
    </filter>
    <filter id="Tracé_25" x="125.494" y="0.339" width="25.514" height="33.919" filterUnits="userSpaceOnUse">
      <feOffset dy="3" input="SourceAlpha"/>
      <feGaussianBlur stdDeviation="3" result="blur-18"/>
      <feFlood flood-color="#54b848" flood-opacity="0.329"/>
      <feComposite operator="in" in2="blur-18"/>
      <feComposite in="SourceGraphic"/>
    </filter>
    <filter id="Tracé_26" x="57.59" y="20.037" width="27.795" height="33.938" filterUnits="userSpaceOnUse">
      <feOffset dy="3" input="SourceAlpha"/>
      <feGaussianBlur stdDeviation="3" result="blur-19"/>
      <feFlood flood-color="#54b848" flood-opacity="0.329"/>
      <feComposite operator="in" in2="blur-19"/>
      <feComposite in="SourceGraphic"/>
    </filter>
    <filter id="Tracé_27" x="70.148" y="20.048" width="28.852" height="34.493" filterUnits="userSpaceOnUse">
      <feOffset dy="3" input="SourceAlpha"/>
      <feGaussianBlur stdDeviation="3" result="blur-20"/>
      <feFlood flood-color="#54b848" flood-opacity="0.329"/>
      <feComposite operator="in" in2="blur-20"/>
      <feComposite in="SourceGraphic"/>
    </filter>
    <filter id="Tracé_28" x="83.059" y="19.735" width="28.902" height="34.608" filterUnits="userSpaceOnUse">
      <feOffset dy="3" input="SourceAlpha"/>
      <feGaussianBlur stdDeviation="3" result="blur-21"/>
      <feFlood flood-color="#54b848" flood-opacity="0.329"/>
      <feComposite operator="in" in2="blur-21"/>
      <feComposite in="SourceGraphic"/>
    </filter>
    <filter id="Tracé_29" x="96.609" y="20.048" width="20.463" height="33.922" filterUnits="userSpaceOnUse">
      <feOffset dy="3" input="SourceAlpha"/>
      <feGaussianBlur stdDeviation="3" result="blur-22"/>
      <feFlood flood-color="#54b848" flood-opacity="0.329"/>
      <feComposite operator="in" in2="blur-22"/>
      <feComposite in="SourceGraphic"/>
    </filter>
    <filter id="Tracé_30" x="102.613" y="19.34" width="28.871" height="35.334" filterUnits="userSpaceOnUse">
      <feOffset dy="3" input="SourceAlpha"/>
      <feGaussianBlur stdDeviation="3" result="blur-23"/>
      <feFlood flood-color="#54b848" flood-opacity="0.329"/>
      <feComposite operator="in" in2="blur-23"/>
      <feComposite in="SourceGraphic"/>
    </filter>
    <filter id="Tracé_31" x="117.025" y="20.048" width="25.514" height="33.951" filterUnits="userSpaceOnUse">
      <feOffset dy="3" input="SourceAlpha"/>
      <feGaussianBlur stdDeviation="3" result="blur-24"/>
      <feFlood flood-color="#54b848" flood-opacity="0.329"/>
      <feComposite operator="in" in2="blur-24"/>
      <feComposite in="SourceGraphic"/>
    </filter>
    <filter id="Tracé_32" x="126.109" y="19.735" width="28.902" height="34.608" filterUnits="userSpaceOnUse">
      <feOffset dy="3" input="SourceAlpha"/>
      <feGaussianBlur stdDeviation="3" result="blur-25"/>
      <feFlood flood-color="#54b848" flood-opacity="0.329"/>
      <feComposite operator="in" in2="blur-25"/>
      <feComposite in="SourceGraphic"/>
    </filter>
    <filter id="Tracé_33" x="138.215" y="19.735" width="28.902" height="34.608" filterUnits="userSpaceOnUse">
      <feOffset dy="3" input="SourceAlpha"/>
      <feGaussianBlur stdDeviation="3" result="blur-26"/>
      <feFlood flood-color="#54b848" flood-opacity="0.329"/>
      <feComposite operator="in" in2="blur-26"/>
      <feComposite in="SourceGraphic"/>
    </filter>
    <filter id="Tracé_34" x="57.59" y="41.113" width="20.465" height="33.922" filterUnits="userSpaceOnUse">
      <feOffset dy="3" input="SourceAlpha"/>
      <feGaussianBlur stdDeviation="3" result="blur-27"/>
      <feFlood flood-color="#54b848" flood-opacity="0.329"/>
      <feComposite operator="in" in2="blur-27"/>
      <feComposite in="SourceGraphic"/>
    </filter>
    <filter id="Tracé_35" x="63.627" y="40.436" width="28.871" height="35.303" filterUnits="userSpaceOnUse">
      <feOffset dy="3" input="SourceAlpha"/>
      <feGaussianBlur stdDeviation="3" result="blur-28"/>
      <feFlood flood-color="#54b848" flood-opacity="0.329"/>
      <feComposite operator="in" in2="blur-28"/>
      <feComposite in="SourceGraphic"/>
    </filter>
    <filter id="Tracé_36" x="76.715" y="41.082" width="27.146" height="33.92" filterUnits="userSpaceOnUse">
      <feOffset dy="3" input="SourceAlpha"/>
      <feGaussianBlur stdDeviation="3" result="blur-29"/>
      <feFlood flood-color="#54b848" flood-opacity="0.329"/>
      <feComposite operator="in" in2="blur-29"/>
      <feComposite in="SourceGraphic"/>
    </filter>
    <filter id="Tracé_37" x="88.076" y="41.113" width="25.514" height="33.951" filterUnits="userSpaceOnUse">
      <feOffset dy="3" input="SourceAlpha"/>
      <feGaussianBlur stdDeviation="3" result="blur-30"/>
      <feFlood flood-color="#54b848" flood-opacity="0.329"/>
      <feComposite operator="in" in2="blur-30"/>
      <feComposite in="SourceGraphic"/>
    </filter>
    <filter id="Tracé_38" x="98.58" y="41.113" width="25.512" height="33.922" filterUnits="userSpaceOnUse">
      <feOffset dy="3" input="SourceAlpha"/>
      <feGaussianBlur stdDeviation="3" result="blur-31"/>
      <feFlood flood-color="#54b848" flood-opacity="0.329"/>
      <feComposite operator="in" in2="blur-31"/>
      <feComposite in="SourceGraphic"/>
    </filter>
    <filter id="Tracé_39" x="108.311" y="41.113" width="25.545" height="33.922" filterUnits="userSpaceOnUse">
      <feOffset dy="3" input="SourceAlpha"/>
      <feGaussianBlur stdDeviation="3" result="blur-32"/>
      <feFlood flood-color="#54b848" flood-opacity="0.329"/>
      <feComposite operator="in" in2="blur-32"/>
      <feComposite in="SourceGraphic"/>
    </filter>
    <filter id="Tracé_40" x="118.072" y="41.113" width="20.463" height="33.922" filterUnits="userSpaceOnUse">
      <feOffset dy="3" input="SourceAlpha"/>
      <feGaussianBlur stdDeviation="3" result="blur-33"/>
      <feFlood flood-color="#54b848" flood-opacity="0.329"/>
      <feComposite operator="in" in2="blur-33"/>
      <feComposite in="SourceGraphic"/>
    </filter>
    <filter id="Tracé_41" x="123.553" y="40.833" width="34.172" height="34.606" filterUnits="userSpaceOnUse">
      <feOffset dy="3" input="SourceAlpha"/>
      <feGaussianBlur stdDeviation="3" result="blur-34"/>
      <feFlood flood-color="#54b848" flood-opacity="0.329"/>
      <feComposite operator="in" in2="blur-34"/>
      <feComposite in="SourceGraphic"/>
    </filter>
    <filter id="Tracé_42" x="142.465" y="41.113" width="25.512" height="33.951" filterUnits="userSpaceOnUse">
      <feOffset dy="3" input="SourceAlpha"/>
      <feGaussianBlur stdDeviation="3" result="blur-35"/>
      <feFlood flood-color="#54b848" flood-opacity="0.329"/>
      <feComposite operator="in" in2="blur-35"/>
      <feComposite in="SourceGraphic"/>
    </filter>
    <filter id="Tracé_43" x="152.996" y="40.436" width="28.871" height="35.303" filterUnits="userSpaceOnUse">
      <feOffset dy="3" input="SourceAlpha"/>
      <feGaussianBlur stdDeviation="3" result="blur-36"/>
      <feFlood flood-color="#54b848" flood-opacity="0.329"/>
      <feComposite operator="in" in2="blur-36"/>
      <feComposite in="SourceGraphic"/>
    </filter>
    <filter id="Tracé_44" x="166.818" y="40.806" width="30.939" height="34.503" filterUnits="userSpaceOnUse">
      <feOffset dy="3" input="SourceAlpha"/>
      <feGaussianBlur stdDeviation="3" result="blur-37"/>
      <feFlood flood-color="#54b848" flood-opacity="0.329"/>
      <feComposite operator="in" in2="blur-37"/>
      <feComposite in="SourceGraphic"/>
    </filter>
    <filter id="Tracé_45" x="181.975" y="41.113" width="25.514" height="33.951" filterUnits="userSpaceOnUse">
      <feOffset dy="3" input="SourceAlpha"/>
      <feGaussianBlur stdDeviation="3" result="blur-38"/>
      <feFlood flood-color="#54b848" flood-opacity="0.329"/>
      <feComposite operator="in" in2="blur-38"/>
      <feComposite in="SourceGraphic"/>
    </filter>
  </defs>
  <g id="LOGO_CBI_2.0" data-name="LOGO CBI 2.0" transform="translate(8.662 5.998)">
    <g transform="matrix(1, 0, 0, 1, -8.66, -6)" filter="url(#Tracé_10)">
      <path id="Tracé_10-2" data-name="Tracé 10" d="M68.531,86.615c.277-.493.77-.277,1.139-.277,4.466,0,8.931.031,13.4.031a8.239,8.239,0,0,0,7.668-7.114A8.435,8.435,0,0,0,84.39,69.9c-.523-.123-1.078-.062-1.6-.185a.281.281,0,0,1,.092-.308c1.94-.554,3.48-1.478,3.788-3.695.062-.523-.123-1.108.339-1.509.062,1.847,1.6,2.063,2.926,2.679.031-.339.062-.554.062-.77.031-1.909.031-1.909,1.878-1.909h9.36c.523,0,.985-.031.985.739-.031,2.371,0,4.774-.031,7.143,0,.123-.123.277-.185.4a2.225,2.225,0,0,1-.369-1.539c0-1.663-.031-3.3,0-4.958,0-.893-.339-1.232-1.232-1.232-2.833.031-5.7.031-8.531,0-.924,0-1.355.277-1.324,1.262.031,1.663.031,3.3,0,4.958,0,.831.339,1.139,1.17,1.17.954.062,2-.339,2.865.4a14.926,14.926,0,0,1,1.17,5.02c0,.154.154.308.246.493,0,.216-.154.339-.308.462-1.016.893-1.078,1.416-.369,2.555a.985.985,0,0,1,.246.616.924.924,0,0,0-.523.585,13.217,13.217,0,0,1-9.455,8.744.89.89,0,0,0-.739.985c.031,1.047.031,2.063.031,3.111a6.963,6.963,0,0,1-4.866,0c0-1.663-.031-3.3.031-4.958.031-.831-.277-1.047-1.047-1.047q-4.665.047-9.332,0c-.4,0-.862.185-1.17-.246a2.431,2.431,0,0,1,1.663-.308h7.852a6.158,6.158,0,0,0,1.047-.062.767.767,0,0,0-.031-1.478,7.084,7.084,0,0,0-1.139-.062H70.163A2.241,2.241,0,0,1,68.531,86.615Z" transform="translate(-39.08 -38.43)" fill="#bfbfbf"/>
    </g>
    <g transform="matrix(1, 0, 0, 1, -8.66, -6)" filter="url(#Tracé_11)">
      <path id="Tracé_11-2" data-name="Tracé 11" d="M116.736,13.088c.031-2.833-.708-5.636.216-8.375a6.2,6.2,0,0,1,6.281-4.1,6.368,6.368,0,0,1,6.035,6.1,6.4,6.4,0,0,1-6.867,6.744,5.173,5.173,0,0,1-3.079-1.139c-.831-.739-1.416-.585-2,.246a3.222,3.222,0,0,1-.585.523Z" transform="translate(-72.29 5.6)" fill="#fefefe"/>
    </g>
    <g transform="matrix(1, 0, 0, 1, -8.66, -6)" filter="url(#Tracé_12)">
      <path id="Tracé_12-2" data-name="Tracé 12" d="M28.8,33.141A4,4,0,1,1,29.939,36,4,4,0,0,1,28.8,33.141Z" transform="translate(-11.61 -14.21)" fill="#fefefe"/>
    </g>
    <path id="Tracé_13" data-name="Tracé 13" d="M130.458,14.813a4.272,4.272,0,0,1-5.389.647,4.333,4.333,0,0,1-2-4.866,4.389,4.389,0,0,1,4.31-3.3c.616.647.339,1.447.4,2.186.031.585,0,1.139,0,1.724-.062.677.493.954.831,1.416C129.226,13.335,130.211,13.767,130.458,14.813Z" transform="translate(-85.403 -5.05)" fill="#414e58"/>
    <path id="Tracé_14" data-name="Tracé 14" d="M137.562,11.6c-.031-1.478-.062-2.926-.062-4.4a4.434,4.434,0,0,1,4.434,4.4,6.281,6.281,0,0,1-4.372,0Z" transform="translate(-95.494 -4.98)" fill="#fefefe"/>
    <path id="Tracé_15" data-name="Tracé 15" d="M137.7,21.5h4.342a3.86,3.86,0,0,1-1.355,3.111A28.519,28.519,0,0,1,137.7,21.5Z" transform="translate(-95.632 -14.876)" fill="#414e58"/>
    <g transform="matrix(1, 0, 0, 1, -8.66, -6)" filter="url(#Rectangle_1)">
      <rect id="Rectangle_1-2" data-name="Rectangle 1" width="15.46" height="2.124" transform="translate(35.67 56.66)" fill="#fefefe"/>
    </g>
    <g transform="matrix(1, 0, 0, 1, -8.66, -6)" filter="url(#Rectangle_2)">
      <rect id="Rectangle_2-2" data-name="Rectangle 2" width="27.87" height="2.463" transform="translate(29.48 58.78)" fill="#fefefe"/>
    </g>
    <rect id="Rectangle_3" data-name="Rectangle 3" width="11.518" height="2.988" transform="translate(20.726 41.916)" fill="#fefefe"/>
    <circle id="Ellipse_1" data-name="Ellipse 1" cx="1.108" cy="1.108" r="1.108" transform="translate(33.475 43.179)" fill="#fefefe"/>
    <circle id="Ellipse_2" data-name="Ellipse 2" cx="2.063" cy="2.063" r="2.063" transform="translate(45.947 33.448)" fill="#fefefe"/>
    <g transform="matrix(1, 0, 0, 1, -8.66, -6)" filter="url(#Ellipse_3)">
      <ellipse id="Ellipse_3-2" data-name="Ellipse 3" cx="4.743" cy="4.65" rx="4.743" ry="4.65" transform="translate(38.44 21.92)" fill="#fefefe"/>
    </g>
    <rect id="Rectangle_4" data-name="Rectangle 4" width="7.329" height="2.988" transform="translate(23.189 13.091)" fill="#bfbfbf"/>
    <rect id="Rectangle_5" data-name="Rectangle 5" width="4.281" height="2.988" transform="translate(24.73 10.103)" fill="#fefefe"/>
    <rect id="Rectangle_6" data-name="Rectangle 6" width="4.281" height="3.388" transform="translate(24.73 34.771)" fill="#bfbfbf"/>
    <g transform="matrix(1, 0, 0, 1, -8.66, -6)" filter="url(#Rectangle_7)">
      <rect id="Rectangle_7-2" data-name="Rectangle 7" width="7.267" height="18.662" transform="translate(31.88 21.95)" fill="#fefefe"/>
    </g>
    <rect id="Rectangle_8" data-name="Rectangle 8" width="10.563" height="9.239" transform="translate(23.528 15.956)" fill="#fefefe"/>
    <g transform="matrix(1, 0, 0, 1, -8.66, -6)" filter="url(#Tracé_16)">
      <path id="Tracé_16-2" data-name="Tracé 16" d="M108.9,64.5a2,2,0,1,1,0-4,2.075,2.075,0,0,1,1.971,2A2.032,2.032,0,0,1,108.9,64.5Z" transform="translate(-65.66 -35.87)" fill="#414e58"/>
    </g>
    <g transform="matrix(1, 0, 0, 1, -8.66, -6)" filter="url(#Ellipse_4)">
      <circle id="Ellipse_4-2" data-name="Ellipse 4" cx="1.108" cy="1.108" r="1.108" transform="translate(27.63 12.56)" fill="#fefefe"/>
    </g>
    <g transform="matrix(1, 0, 0, 1, -8.66, -6)" filter="url(#Ellipse_5)">
      <circle id="Ellipse_5-2" data-name="Ellipse 5" cx="1.755" cy="1.755" r="1.755" transform="translate(19.41 47.39)" fill="#bfbfbf"/>
    </g>
    <rect id="Rectangle_9" data-name="Rectangle 9" width="12.441" height="8.285" transform="translate(42.068 19.773)" fill="#fefefe"/>
    <rect id="Rectangle_10" data-name="Rectangle 10" width="0.585" height="0.369" transform="translate(43.669 26.425)" fill="#414e58"/>
    <rect id="Rectangle_11" data-name="Rectangle 11" width="0.585" height="0.585" transform="translate(44.5 26.21)" fill="#414e58"/>
    <rect id="Rectangle_12" data-name="Rectangle 12" width="0.585" height="1.293" transform="translate(45.331 25.532)" fill="#414e58"/>
    <rect id="Rectangle_13" data-name="Rectangle 13" width="0.585" height="1.817" transform="translate(46.224 25.009)" fill="#414e58"/>
    <rect id="Rectangle_14" data-name="Rectangle 14" width="0.585" height="1.324" transform="translate(47.118 25.471)" fill="#414e58"/>
    <rect id="Rectangle_15" data-name="Rectangle 15" width="0.585" height="3.265" transform="translate(47.981 23.531)" fill="#414e58"/>
    <rect id="Rectangle_16" data-name="Rectangle 16" width="0.585" height="2.679" transform="translate(48.904 24.147)" fill="#414e58"/>
    <rect id="Rectangle_17" data-name="Rectangle 17" width="0.585" height="5.051" transform="translate(49.797 21.776)" fill="#414e58"/>
    <rect id="Rectangle_18" data-name="Rectangle 18" width="0.585" height="2.555" transform="translate(50.659 24.27)" fill="#414e58"/>
    <rect id="Rectangle_19" data-name="Rectangle 19" width="0.585" height="4.589" transform="translate(51.584 22.207)" fill="#414e58"/>
    <rect id="Rectangle_20" data-name="Rectangle 20" width="0.585" height="6.251" transform="translate(52.477 20.574)" fill="#414e58"/>
    <g transform="matrix(1, 0, 0, 1, -8.66, -6)" filter="url(#Rectangle_22)">
      <rect id="Rectangle_22-2" data-name="Rectangle 22" width="20.603" height="15.152" transform="translate(9 24.05)" fill="#fefefe"/>
    </g>
    <line id="Ligne_1" data-name="Ligne 1" x2="21.034" transform="translate(0 31.599)" fill="none"/>
    <path id="Tracé_18" data-name="Tracé 18" d="M22.225,78.8H3.1v-.739l1.909-1.509,1.909-1.139,1.909-.4,1.909-1.139,1.909-1.139,1.909-1.108,1.94-.4L18.4,68.951l1.909.77,1.909-1.509Z" transform="translate(-2.146 -47.205)" fill="#414e58"/>
    <g id="Groupe_4193" data-name="Groupe 4193" transform="translate(56.723 0.002)">
      <g transform="matrix(1, 0, 0, 1, -65.38, -6)" filter="url(#Tracé_19)">
        <path id="Tracé_19-2" data-name="Tracé 19" d="M196.892,13.143l1.324,1.971c-.123.092-.339.246-.585.4a8.8,8.8,0,0,1-9.976-1.324,8.537,8.537,0,0,1,0-11.823A7.715,7.715,0,0,1,193.443,0a8.385,8.385,0,0,1,2.465.37,9.236,9.236,0,0,1,1.722.708l.523.369-1.293,1.94a4.5,4.5,0,0,0-.4-.277,5.206,5.206,0,0,0-1.139-.462,6.079,6.079,0,0,0-1.817-.308,5.49,5.49,0,0,0-4.127,1.724,6.325,6.325,0,0,0,0,8.5,5.49,5.49,0,0,0,4.127,1.724A5.851,5.851,0,0,0,195.291,14a6.157,6.157,0,0,0,1.232-.523Z" transform="translate(-119.89 6.01)" fill="#fefefe"/>
      </g>
      <g transform="matrix(1, 0, 0, 1, -65.38, -6)" filter="url(#Tracé_20)">
        <path id="Tracé_20-2" data-name="Tracé 20" d="M234.6,16.987V1.1h7.513V3.44h-5.049V7.659h4.712V9.967h-4.712v4.712h5.049v2.34H234.6Z" transform="translate(-154.03 5.24)" fill="#fefefe"/>
      </g>
      <g transform="matrix(1, 0, 0, 1, -65.38, -6)" filter="url(#Tracé_21)">
        <path id="Tracé_21-2" data-name="Tracé 21" d="M268.7,16.987V1.1h2.463V14.682h5.049v2.34H268.7Z" transform="translate(-177.63 5.24)" fill="#fefefe"/>
      </g>
      <g transform="matrix(1, 0, 0, 1, -65.38, -6)" filter="url(#Tracé_22)">
        <path id="Tracé_22-2" data-name="Tracé 22" d="M300.3,16.987V1.1h2.463V14.682h5.049v2.34H300.3Z" transform="translate(-199.5 5.24)" fill="#fefefe"/>
      </g>
      <g transform="matrix(1, 0, 0, 1, -65.38, -6)" filter="url(#Tracé_23)">
        <path id="Tracé_23-2" data-name="Tracé 23" d="M342.439,1.1V11.909a5.368,5.368,0,0,1-1.478,3.973,6,6,0,0,1-7.882,0,5.368,5.368,0,0,1-1.478-3.973V1.1h2.463V11.909A3.3,3.3,0,0,0,334.8,14.1a3.2,3.2,0,0,0,4.434,0,3.3,3.3,0,0,0,.739-2.186V1.1Z" transform="translate(-221.16 5.24)" fill="#fefefe"/>
      </g>
      <g transform="matrix(1, 0, 0, 1, -65.38, -6)" filter="url(#Tracé_24)">
        <path id="Tracé_24-2" data-name="Tracé 24" d="M378.1,16.987V1.1h2.463V14.682h5.049v2.34H378.1Z" transform="translate(-253.34 5.24)" fill="#fefefe"/>
      </g>
      <g transform="matrix(1, 0, 0, 1, -65.38, -6)" filter="url(#Tracé_25)">
        <path id="Tracé_25-2" data-name="Tracé 25" d="M409.7,16.987V1.1h7.513V3.44h-5.049V7.659h4.712V9.967h-4.712v4.712h5.049v2.34H409.7Z" transform="translate(-275.21 5.24)" fill="#fefefe"/>
      </g>
      <g transform="matrix(1, 0, 0, 1, -65.38, -6)" filter="url(#Tracé_26)">
        <path id="Tracé_26-2" data-name="Tracé 26" d="M189.2,81.024V65.1h4a6,6,0,0,1,3.973,1.2,3.926,3.926,0,0,1,1.447,3.173,3.8,3.8,0,0,1-1.786,3.325,4.234,4.234,0,0,1,.647,6.929,5.789,5.789,0,0,1-3.941,1.293Zm2.463-9.3H193.2q2.956,0,2.956-2.124a1.847,1.847,0,0,0-.739-1.57,3.7,3.7,0,0,0-2.246-.586h-1.539Zm4.127,6.313a2.241,2.241,0,0,0,.154-3.173c-.062-.062-.092-.123-.154-.154a3.325,3.325,0,0,0-2.248-.647h-1.879v4.62h1.878a3.325,3.325,0,0,0,2.249-.649Z" transform="translate(-122.61 -39.05)" fill="#fefefe"/>
      </g>
      <g transform="matrix(1, 0, 0, 1, -65.38, -6)" filter="url(#Tracé_27)">
        <path id="Tracé_27-2" data-name="Tracé 27" d="M240.839,65.1V75.909a5.425,5.425,0,1,1-10.838,0V65.1h2.463V75.909A3.3,3.3,0,0,0,233.2,78.1a3.2,3.2,0,0,0,4.434,0,3.3,3.3,0,0,0,.739-2.186V65.1Z" transform="translate(-150.85 -39.05)" fill="#fefefe"/>
      </g>
      <g transform="matrix(1, 0, 0, 1, -65.38, -6)" filter="url(#Tracé_28)">
        <path id="Tracé_28-2" data-name="Tracé 28" d="M271.9,77.806l1.878-1.693c.062.092.092.154.154.246s.246.277.493.554a5.489,5.489,0,0,0,.8.677,6.215,6.215,0,0,0,1.108.554,4.234,4.234,0,0,0,1.385.246,2.9,2.9,0,0,0,1.94-.585,2.124,2.124,0,0,0,.708-1.663,2.192,2.192,0,0,0-.8-1.724,7.918,7.918,0,0,0-1.909-1.108q-1.108-.416-2.217-.924a4.983,4.983,0,0,1-1.878-1.512,4.311,4.311,0,0,1,.462-5.542,4.461,4.461,0,0,1,3.3-1.232,6.9,6.9,0,0,1,1.755.246,6.159,6.159,0,0,1,1.416.554,11.14,11.14,0,0,1,.985.677c.216.185.431.369.647.585l.185.216-1.724,1.663a2.853,2.853,0,0,0-.431-.431,5.216,5.216,0,0,0-1.108-.708,3.337,3.337,0,0,0-1.693-.462,2.445,2.445,0,0,0-1.57.493,1.576,1.576,0,0,0-.585,1.324,1.814,1.814,0,0,0,.8,1.478,8.957,8.957,0,0,0,1.909,1.078c.739.308,1.478.647,2.217.985a4.573,4.573,0,0,1,1.909,1.6,4.706,4.706,0,0,1,.77,2.709,4.373,4.373,0,0,1-1.386,3.325,5.078,5.078,0,0,1-3.634,1.262,7.512,7.512,0,0,1-2.186-.308,6.6,6.6,0,0,1-1.663-.708,9.78,9.78,0,0,1-1.139-.831,2.464,2.464,0,0,1-.677-.708Z" transform="translate(-179.84 -38.36)" fill="#fefefe"/>
      </g>
      <g transform="matrix(1, 0, 0, 1, -65.38, -6)" filter="url(#Tracé_29)">
        <path id="Tracé_29-2" data-name="Tracé 29" d="M315.9,81.022V65.1h2.463V81.022Z" transform="translate(-210.29 -39.05)" fill="#fefefe"/>
      </g>
      <g transform="matrix(1, 0, 0, 1, -65.38, -6)" filter="url(#Tracé_30)">
        <path id="Tracé_30-2" data-name="Tracé 30" d="M346.271,63.508V80.134L337.8,69.7v9.729h-2.4V62.8l8.469,10.44V63.511Z" transform="translate(-223.79 -37.46)" fill="#fefefe"/>
      </g>
      <g transform="matrix(1, 0, 0, 1, -65.38, -6)" filter="url(#Tracé_31)">
        <path id="Tracé_31-2" data-name="Tracé 31" d="M382.2,81.022V65.1h7.513v2.34h-5.049v4.219h4.712V74h-4.712v4.712h5.049v2.34H382.2Z" transform="translate(-256.17 -39.05)" fill="#fefefe"/>
      </g>
      <g transform="matrix(1, 0, 0, 1, -65.38, -6)" filter="url(#Tracé_32)">
        <path id="Tracé_32-2" data-name="Tracé 32" d="M411.7,77.806l1.878-1.693c.062.092.092.154.154.246s.246.277.493.554a5.489,5.489,0,0,0,.8.677,6.214,6.214,0,0,0,1.108.554,4.234,4.234,0,0,0,1.386.246,2.9,2.9,0,0,0,1.94-.585,2.126,2.126,0,0,0,.708-1.663,2.192,2.192,0,0,0-.8-1.724,7.918,7.918,0,0,0-1.909-1.108q-1.109-.416-2.217-.924a4.983,4.983,0,0,1-1.878-1.512,4.31,4.31,0,0,1,.462-5.542,4.461,4.461,0,0,1,3.3-1.232,6.9,6.9,0,0,1,1.755.246,6.157,6.157,0,0,1,1.416.554,11.124,11.124,0,0,1,.985.677c.215.185.431.369.647.585l.185.216-1.724,1.663a2.856,2.856,0,0,0-.431-.431,5.219,5.219,0,0,0-1.108-.708,3.338,3.338,0,0,0-1.693-.462,2.445,2.445,0,0,0-1.57.493A1.576,1.576,0,0,0,415,68.257a1.814,1.814,0,0,0,.8,1.478,8.963,8.963,0,0,0,1.909,1.078c.739.308,1.478.647,2.217.985a4.574,4.574,0,0,1,1.909,1.6,4.706,4.706,0,0,1,.77,2.709,4.373,4.373,0,0,1-1.385,3.325,5.078,5.078,0,0,1-3.634,1.262,7.513,7.513,0,0,1-2.186-.308,6.6,6.6,0,0,1-1.663-.708,9.779,9.779,0,0,1-1.139-.831,2.463,2.463,0,0,1-.677-.708Z" transform="translate(-276.59 -38.36)" fill="#fefefe"/>
      </g>
      <g transform="matrix(1, 0, 0, 1, -65.38, -6)" filter="url(#Tracé_33)">
        <path id="Tracé_33-2" data-name="Tracé 33" d="M451,77.806l1.878-1.693c.062.092.092.154.154.246s.246.277.493.554a5.5,5.5,0,0,0,.8.677,6.211,6.211,0,0,0,1.108.554,4.234,4.234,0,0,0,1.386.246,2.9,2.9,0,0,0,1.94-.585,1.993,1.993,0,0,0,.708-1.663,2.193,2.193,0,0,0-.8-1.724,7.921,7.921,0,0,0-1.909-1.108q-1.108-.416-2.217-.924a4.983,4.983,0,0,1-1.878-1.512,4.311,4.311,0,0,1,.462-5.542,4.461,4.461,0,0,1,3.3-1.232,6.9,6.9,0,0,1,1.755.246,6.158,6.158,0,0,1,1.416.554,11.128,11.128,0,0,1,.985.677c.216.185.431.369.647.585l.185.216-1.724,1.663a2.855,2.855,0,0,0-.431-.431,5.22,5.22,0,0,0-1.108-.708,3.338,3.338,0,0,0-1.693-.462,2.445,2.445,0,0,0-1.57.493,1.576,1.576,0,0,0-.585,1.324,1.814,1.814,0,0,0,.8,1.478,8.963,8.963,0,0,0,1.909,1.078c.739.308,1.478.647,2.217.985a4.573,4.573,0,0,1,1.909,1.6,4.706,4.706,0,0,1,.77,2.709,4.373,4.373,0,0,1-1.385,3.325,5.078,5.078,0,0,1-3.634,1.262,7.514,7.514,0,0,1-2.186-.308,6.6,6.6,0,0,1-1.663-.708,9.785,9.785,0,0,1-1.139-.831,2.464,2.464,0,0,1-.677-.708Z" transform="translate(-303.79 -38.36)" fill="#fefefe"/>
      </g>
      <g transform="matrix(1, 0, 0, 1, -65.38, -6)" filter="url(#Tracé_34)">
        <path id="Tracé_34-2" data-name="Tracé 34" d="M189.2,149.422V133.5h2.463v15.922Z" transform="translate(-122.61 -86.39)" fill="#fefefe"/>
      </g>
      <g transform="matrix(1, 0, 0, 1, -65.38, -6)" filter="url(#Tracé_35)">
        <path id="Tracé_35-2" data-name="Tracé 35" d="M219.671,131.977V148.6l-8.469-10.44v9.729h-2.4V131.3l8.469,10.44v-9.763Z" transform="translate(-136.17 -84.86)" fill="#fefefe"/>
      </g>
      <g transform="matrix(1, 0, 0, 1, -65.38, -6)" filter="url(#Tracé_36)">
        <path id="Tracé_36-2" data-name="Tracé 36" d="M251.3,135.74V133.4h9.147v2.34h-3.358v13.58h-2.463V135.74Z" transform="translate(-165.59 -86.32)" fill="#fefefe"/>
      </g>
      <g transform="matrix(1, 0, 0, 1, -65.38, -6)" filter="url(#Tracé_37)">
        <path id="Tracé_37-2" data-name="Tracé 37" d="M288.2,149.422V133.5h7.513v2.34h-5.049v4.219h4.712v2.34h-4.712v4.712h5.049v2.34H288.2Z" transform="translate(-191.12 -86.39)" fill="#fefefe"/>
      </g>
      <g transform="matrix(1, 0, 0, 1, -65.38, -6)" filter="url(#Tracé_38)">
        <path id="Tracé_38-2" data-name="Tracé 38" d="M322.3,149.422V133.5h2.463v13.58h5.049v2.34Z" transform="translate(-214.72 -86.39)" fill="#fefefe"/>
      </g>
      <g transform="matrix(1, 0, 0, 1, -65.38, -6)" filter="url(#Tracé_39)">
        <path id="Tracé_39-2" data-name="Tracé 39" d="M353.9,149.422V133.5h2.463v13.58h5.081v2.34Z" transform="translate(-236.59 -86.39)" fill="#fefefe"/>
      </g>
      <g transform="matrix(1, 0, 0, 1, -65.38, -6)" filter="url(#Tracé_40)">
        <path id="Tracé_40-2" data-name="Tracé 40" d="M385.6,149.422V133.5h2.463v15.922Z" transform="translate(-258.53 -86.39)" fill="#fefefe"/>
      </g>
      <g transform="matrix(1, 0, 0, 1, -65.38, -6)" filter="url(#Tracé_41)">
        <path id="Tracé_41-2" data-name="Tracé 41" d="M416.672,134.294l-1.385,1.94-.462-.369a6.155,6.155,0,0,0-1.293-.585,5.665,5.665,0,0,0-2.032-.369,5.235,5.235,0,0,0-4.064,1.693,6.434,6.434,0,0,0,.031,8.531,5.4,5.4,0,0,0,4.127,1.693,5.236,5.236,0,0,0,3.631-1.262,5.51,5.51,0,0,0,1.755-3.325h-5.511v-2.25h8.067a8.667,8.667,0,0,1,.031.893,8.415,8.415,0,0,1-2.217,5.944,7.5,7.5,0,0,1-5.788,2.371,8.05,8.05,0,0,1-8.162-8.251,8.463,8.463,0,0,1,2.309-5.911,7.67,7.67,0,0,1,5.851-2.432,8.793,8.793,0,0,1,1.786.185,7.828,7.828,0,0,1,1.447.431c.369.185.739.339,1.047.523s.554.339.677.431Z" transform="translate(-270.84 -85.76)" fill="#fefefe"/>
      </g>
      <g transform="matrix(1, 0, 0, 1, -65.38, -6)" filter="url(#Tracé_42)">
        <path id="Tracé_42-2" data-name="Tracé 42" d="M464.8,149.422V133.5h7.513v2.34h-5.049v4.219h4.712v2.34h-4.712v4.712h5.049v2.34H464.8Z" transform="translate(-313.34 -86.39)" fill="#fefefe"/>
      </g>
      <g transform="matrix(1, 0, 0, 1, -65.38, -6)" filter="url(#Tracé_43)">
        <path id="Tracé_43-2" data-name="Tracé 43" d="M509.871,131.977V148.6l-8.469-10.44v9.729H499V131.3l8.47,10.44v-9.763Z" transform="translate(-337 -84.86)" fill="#fefefe"/>
      </g>
      <g transform="matrix(1, 0, 0, 1, -65.38, -6)" filter="url(#Tracé_44)">
        <path id="Tracé_44-2" data-name="Tracé 44" d="M555.492,145.643l1.324,1.971c-.123.092-.339.246-.585.4a8.8,8.8,0,0,1-9.976-1.324,8.537,8.537,0,0,1,0-11.823,7.714,7.714,0,0,1,5.788-2.371,8.381,8.381,0,0,1,2.463.369,9.238,9.238,0,0,1,1.724.708l.523.369-1.293,1.94a4.494,4.494,0,0,0-.4-.277,5.2,5.2,0,0,0-1.139-.462,6.078,6.078,0,0,0-1.817-.308,5.491,5.491,0,0,0-4.127,1.724,6.325,6.325,0,0,0,0,8.5,5.491,5.491,0,0,0,4.127,1.724,5.853,5.853,0,0,0,1.786-.277,6.156,6.156,0,0,0,1.232-.523Z" transform="translate(-368.06 -85.69)" fill="#fefefe"/>
      </g>
      <g transform="matrix(1, 0, 0, 1, -65.38, -6)" filter="url(#Tracé_45)">
        <path id="Tracé_45-2" data-name="Tracé 45" d="M593.1,149.422V133.5h7.513v2.34h-5.049v4.219h4.712v2.34h-4.712v4.712h5.049v2.34H593.1Z" transform="translate(-402.12 -86.39)" fill="#fefefe"/>
      </g>
    </g>
    <path id="Tracé_7575" data-name="Tracé 7575" d="M.615,9.864,2.31,9.526l1.927-4.51L5.523,6.781,7.1,1.7,8.971,5.718l1.515-2.094L11.9,4.61l1.676-3.8,1.294,2.41L16.62-.23,17.788,1.7,19.483.577" transform="translate(0.394 20.948)" fill="none" stroke="#707070" stroke-width="0.4"/>
  </g>
</svg>
