<svg xmlns="http://www.w3.org/2000/svg" width="785.596" height="862.686" viewBox="0 0 785.596 862.686">
  <g id="Figure" transform="translate(-205.8 -236.668)">
    <circle id="Ellipse_1" data-name="Ellipse 1" cx="100.976" cy="100.976" r="100.976" transform="translate(501.87 273.373)" fill="#bdbdbd"/>
    <g id="Groupe_1" data-name="Groupe 1" transform="translate(205.8 273.373)" opacity="0.77">
      <path id="Tracé_3" data-name="Tracé 3" d="M205.8,1078.812c1.829-.953,3.645-2.7,5.488-2.733,13.772-.212,27.549-.086,41.324-.066,2.234,0,4.467,0,7.8,0q9.428-205.945,18.82-411.08c-6.346,4.117-9.946,9.032-10.863,15.816-3.921,29.049-8.259,58.046-11.814,87.14-.644,5.269.935,11.171,2.794,16.306,3.085,8.517,5.346,16.973,1.933,25.659-1.8,4.594-5.014,8.634-8.548,14.524-8.368-8.835-15.475-16.227-22.4-23.789a7.041,7.041,0,0,1-1.339-4.4c-.115-44.472-1.4-89,.325-133.4.881-22.779,7.123-45.355,10.988-68.017,1.933-11.338,4.18-22.626,5.8-34.006.348-2.451-1.468-5.181-2.166-7.814-.917-3.46-3.431-7.695-2.3-10.319,11.864-27.493,27.522-52.407,53.039-69.357,5.143-3.415,12.067-5.125,18.317-5.576,4.831-.35,8-2.155,11.984-4.3,10.231-5.524,10.9-13.838,11.026-24.1.138-11.173-3.322-18.093-11.85-25.98-37.893-35.034-29.7-85.932,4.607-109.434,12.04-8.248,25.121-15.055,38.054-21.908,14.265-7.555,28.042-15.527,37.728-28.961.151-.208.748-.093,2.36,1.019-4.684,4.822-8.7,10.68-14.193,14.258-12.81,8.338-26.477,15.351-39.528,23.337-10.545,6.45-21.646,12.46-30.84,20.55-23.624,20.792-27.655,58.1-9.33,84.428,5.813,8.347,14.179,14.895,21.149,22.474,1.606,1.746,3.135,4.318,3.223,6.568.359,9.2.149,18.425.149,27.524,8.77-1.134,16.677-2.959,24.6-3.015,18.748-.135,34.591,7.107,47.643,20.645a12.956,12.956,0,0,0,6.832,3.494c24.457,3.921,46.476,14.12,67.746,26.174,1.685.953,2.694,3.765,3.225,5.908.547,2.2.122,4.648.122,6.988l2.037.589c1.152-1.949,2.4-3.844,3.442-5.852q21.621-41.754,43.174-83.545c2.683-5.208,5.563-10.376,7.546-15.852.973-2.694.707-6.215-.047-9.086-1.705-6.484-.8-12.108,4.061-16.776,13.364-12.821,14.744-17.524,22.761-21.094,2.652-1.181,6.457-2.828,8.307-1.226,1.922,1.662.7,5.949-.036,8.551a32.53,32.53,0,0,1-8.323,13.919c6.62.3,11.525,2.97,13.675,9.041a118.857,118.857,0,0,1,4.768,16.139c.339,1.692-1.2,4.675-2.771,5.689-12.53,8.095-16.494,21.37-21.6,34.133-15.475,38.709-31.009,77.4-46.92,115.929-5.694,13.788-9.678,15.38-24.128,11.8a119.515,119.515,0,0,1-15.36-5.17c-5.007-1.992-9.825-4.465-15.367-7.022-4.689,6.078-10.685,8.409-18.985,3.087.666,9.594,1.488,17.587,1.723,25.6.63,21.427,1.414,42.86,1.421,64.291q.057,164.628-.26,329.257-.041,40.985-.1,81.972c0,2.448,0,4.9,0,8.372H602.846c-.452.9-.743,2.417-1.387,2.586a18.889,18.889,0,0,1-4.711.124ZM398.715,537.005l1.125-1.482c1.147.779,2.367,1.473,3.433,2.351a201.012,201.012,0,0,0,44.96,28.423c4.454,2.019,7.844,1.411,10.843-2.006,14.15-16.124,23.7-34.5,26.307-55.986.257-2.137-1.744-5.739-3.695-6.771-27.96-14.793-56.061-29.372-89.7-25.88l15.1-3.024c-14.649-21.14-59.507-30.506-83.888-5.045-15.859,16.562-23.676,37.051-29.216,58.608-11.832,46.047-13.355,93.136-13.21,140.326.007,2.342,2.62,5.818,4.876,6.8a167.576,167.576,0,0,0,23.477,8.384c28.735,7.659,58.06,7.017,87.393,5.339,15.934-.91,30.264-6.561,43.433-15.45,3.255-2.2,5.009-4.653,4.854-8.835-1.154-30.862-2.035-61.734-3.34-92.588-.1-2.3-2.347-5.192-4.415-6.615-6.857-4.718-14.256-8.643-21.128-13.339C409.962,546.138,404.436,541.432,398.715,537.005ZM295.074,1075.739h116.34Q383.039,958.63,354.9,842.48h-1.572C333.968,920,314.61,997.51,295.074,1075.739ZM251.955,820.976c2.715-4.04,5.177-6.7,6.482-9.84a28.558,28.558,0,0,0-.517-23.638c-3.648-7.878-4.33-15.934-3.117-24.417,3.794-26.553,7.566-53.111,11.024-79.707a38.935,38.935,0,0,1,8.04-18.965c2.08-2.753,4.244-6.256,4.409-9.52,1.319-26.09,2.17-52.205,3.171-78.488l-32.324-17.4c-.422,1.938-.967,4.079-1.348,6.247-3.239,18.427-6.545,36.843-9.635,55.3-2.713,16.209-7.06,32.428-7.37,48.707-.786,41.514.266,83.061.646,124.6.018,1.956.014,4.465,1.129,5.764C238.512,806.569,244.834,813.218,251.955,820.976ZM282.8,573.812c5.3-36.818,11.4-72.71,34.754-104.122-3.858,0-6.8-.806-8.955.149-6.913,3.058-14.421,5.7-20.117,10.418-20.166,16.706-34.04,38.232-44.689,61.967-1.6,3.559-1.127,6.331,1.662,9.129C255.873,561.794,268.81,567.854,282.8,573.812Z" transform="translate(-205.8 -252.919)"/>
      <path id="Tracé_4" data-name="Tracé 4" d="M281.2,374.623c2.654-1.956,5.387-3.81,7.948-5.881,10.254-8.291,16.1-19.161,18.682-31.974,2.182-10.823,2.245-10.811,8.711-19.3-6.755-7.747-17.063-13.352-17.122-25.772a15.158,15.158,0,0,1,1.484,2.764c2.311,7.772,7.814,12.989,13.933,17.777,4.176,3.268,4.75,6.464.506,10.579a15.677,15.677,0,0,0-4.212,8.492c-2.365,16.546-8.932,30.6-22.7,40.692-1.949,1.43-4.108,2.575-6.17,3.851Z" transform="translate(-110.91 -204.114)"/>
      <path id="Tracé_5" data-name="Tracé 5" d="M311.448,265.048q-9.5,20.52-19,41.039l-1.915-.881,19.026-41.028Z" transform="translate(-99.164 -238.751)"/>
      <path id="Tracé_6" data-name="Tracé 6" d="M310.237,260.523l-22.488,36.622-1.832-1.1q11.264-18.338,22.526-36.676Z" transform="translate(-104.972 -244.805)"/>
      <path id="Tracé_10" data-name="Tracé 10" d="M421.305,324.632c.251.208.68.831,1.222.958,4.221.992,10.479.5,12.28,3.1,3.684,5.337,5.208,12.257,7.067,18.687.391,1.353-1.147,4.144-2.566,5-11.841,7.135-15.258,19.48-19.913,31.145-15.437,38.666-30.84,77.349-46.519,115.918-6.807,16.742-9.506,17.761-27.226,12.451a125.689,125.689,0,0,1-12.04-4.354c-4.359-1.807-8.591-3.912-12.907-5.9,4.289-7.44,8.607-14.486,12.458-21.781,2.408-4.56,4.081-9.5,6.134-14.253,1.784-4.129,1.062-9.942,7.684-10.884,1.012-.144,1.82-2.426,2.539-3.815,17.246-33.412,34.551-66.8,51.544-100.336a16.8,16.8,0,0,0,.991-10.29c-.958-4.56-.955-8.668.6-12.368.958-2.277,2.175-3.749,4.429-6.069a253.656,253.656,0,0,1,20.729-18.748h0l4.723-2.037.777.93.718.858a32.607,32.607,0,0,1-1.369,5.569,20.877,20.877,0,0,1-1.8,3.675A34.84,34.84,0,0,1,427,317.353c-3.781,4.406-6.2,5.933-5.691,7.279.215.569.881.741,1.222.958,5.181,3.275,8.792,1.1,12.28,3.1,1.868,1.073,3.2,4.8,5.874,12.255,1.244,3.469,1.488,4.872,1.193,6.432-.725,3.828-4.226,6.089-5.154,6.735-5.235,3.652-9.269,12.246-17.325,29.408-37.083,78.991-46.519,115.918-46.519,115.918-.865,3.32-2.963,11.735-9.339,14.412-4.363,1.829-9.409.416-17.887-1.96-3.975-1.113-2.873-1.15-12.04-4.354-9.872-3.451-12.3-3.812-12.907-5.9-.639-2.218,1.617-3.523,6.394-10.945a106.719,106.719,0,0,0,6.064-10.836c3.51-7.038,5.264-10.556,6.134-14.253.982-4.181,1.161-7.975,3.871-9.31,1.184-.583,2.342-.449,3.812-1.574a7.742,7.742,0,0,0,2.539-3.815c1.174-3.428,21.6-42.973,51.544-100.336a34.638,34.638,0,0,0,.991-10.29,19.38,19.38,0,0,1,.6-12.368c.126-.294.246-.637.463-1.082a15.068,15.068,0,0,1,3.966-4.987c7.126-6,13.508-12.86,20.729-18.748h0s3.943-2.557,4.723-2.037C433.278,301.559,431.778,306.1,421.305,324.632Z" transform="translate(-61.328 -192.425)" fill="#f2f2f2"/>
      <path id="Tracé_12" data-name="Tracé 12" d="M366.6,302.851" transform="translate(-3.437 -190.08)" fill="#fff"/>
    </g>
    <path id="Tracé_13" data-name="Tracé 13" d="M424.66,236.668l66.928,45.144L380.061,374.971Z" transform="translate(219.309 0)" fill="#45a735"/>
    <path id="Tracé_14" data-name="Tracé 14" d="M388.021,465.246l47.207-47.207,19.914,19.913,56.3-56.3,22.733,22.733,11.245-11.245,57.113,57.113,76.974-76.974,18.452,18.452" transform="translate(229.327 171.928)" fill="none" stroke="#030504" stroke-miterlimit="10" stroke-width="0.5"/>
    <rect id="Rectangle_1" data-name="Rectangle 1" width="233.732" height="157.177" transform="translate(757.664 287.935)" fill="#d8d8d7"/>
    <rect id="Rectangle_2" data-name="Rectangle 2" width="21.484" height="137.318" transform="translate(772.317 298.801)" fill="#1c232a"/>
    <rect id="Rectangle_3" data-name="Rectangle 3" width="21.484" height="102.31" transform="translate(836.031 333.809)" fill="#1c232a"/>
    <rect id="Rectangle_4" data-name="Rectangle 4" width="21.484" height="119.814" transform="translate(804.174 316.305)" fill="#b2b1b1"/>
    <rect id="Rectangle_5" data-name="Rectangle 5" width="21.484" height="76.947" transform="translate(865.973 359.172)" fill="#b2b1b1"/>
    <rect id="Rectangle_6" data-name="Rectangle 6" width="21.484" height="127.249" transform="translate(929.687 308.87)" fill="#b2b1b1"/>
    <rect id="Rectangle_7" data-name="Rectangle 7" width="21.484" height="114.709" transform="translate(959.625 321.41)" fill="#1c232a"/>
    <rect id="Rectangle_8" data-name="Rectangle 8" width="21.484" height="107.832" transform="translate(897.83 328.287)" fill="#1c232a"/>
    <circle id="Ellipse_2" data-name="Ellipse 2" cx="2.307" cy="2.307" r="2.307" transform="translate(615.042 634.868)" fill="#53a1d9"/>
    <circle id="Ellipse_3" data-name="Ellipse 3" cx="2.307" cy="2.307" r="2.307" transform="translate(662.182 587.872)" fill="#53a1d9"/>
    <circle id="Ellipse_4" data-name="Ellipse 4" cx="2.307" cy="2.307" r="2.307" transform="translate(682.365 607.381)" fill="#53a1d9"/>
    <circle id="Ellipse_5" data-name="Ellipse 5" cx="2.307" cy="2.307" r="2.307" transform="translate(738.366 551.617)" fill="#53a1d9"/>
    <circle id="Ellipse_6" data-name="Ellipse 6" cx="2.307" cy="2.307" r="2.307" transform="translate(761.166 573.46)" fill="#53a1d9"/>
    <circle id="Ellipse_7" data-name="Ellipse 7" cx="2.307" cy="2.307" r="2.307" transform="translate(772.317 562.788)" fill="#53a1d9"/>
    <circle id="Ellipse_8" data-name="Ellipse 8" cx="2.307" cy="2.307" r="2.307" transform="translate(829.208 619.598)" fill="#53a1d9"/>
    <circle id="Ellipse_9" data-name="Ellipse 9" cx="2.307" cy="2.307" r="2.307" transform="translate(906.534 542.901)" fill="#53a1d9"/>
    <circle id="Ellipse_10" data-name="Ellipse 10" cx="2.307" cy="2.307" r="2.307" transform="translate(924.978 560.481)" fill="#53a1d9"/>
  </g>
</svg>
