<svg xmlns="http://www.w3.org/2000/svg" xmlns:xlink="http://www.w3.org/1999/xlink" width="1540.531" height="954.781" viewBox="0 0 1540.531 954.781">
  <defs>
    <filter id="Ellipse_174" x="909.419" y="231.268" width="109.585" height="109.585" filterUnits="userSpaceOnUse">
      <feOffset dy="3" input="SourceAlpha"/>
      <feGaussianBlur stdDeviation="3" result="blur"/>
      <feFlood flood-opacity="0.161"/>
      <feComposite operator="in" in2="blur"/>
      <feComposite in="SourceGraphic"/>
    </filter>
    <filter id="Ellipse_175" x="909.64" y="308.466" width="39.044" height="35.452" filterUnits="userSpaceOnUse">
      <feOffset dy="3" input="SourceAlpha"/>
      <feGaussianBlur stdDeviation="3" result="blur-2"/>
      <feFlood flood-opacity="0.161"/>
      <feComposite operator="in" in2="blur-2"/>
      <feComposite in="SourceGraphic"/>
    </filter>
    <filter id="Rectangle_268" x="964.96" y="303.285" width="42.855" height="38.57" filterUnits="userSpaceOnUse">
      <feOffset dy="3" input="SourceAlpha"/>
      <feGaussianBlur stdDeviation="3" result="blur-3"/>
      <feFlood flood-opacity="0.161"/>
      <feComposite operator="in" in2="blur-3"/>
      <feComposite in="SourceGraphic"/>
    </filter>
    <filter id="Ellipse_176" x="979.739" y="308.467" width="39.044" height="35.452" filterUnits="userSpaceOnUse">
      <feOffset dy="3" input="SourceAlpha"/>
      <feGaussianBlur stdDeviation="3" result="blur-4"/>
      <feFlood flood-opacity="0.161"/>
      <feComposite operator="in" in2="blur-4"/>
      <feComposite in="SourceGraphic"/>
    </filter>
    <filter id="Tracé_8080" x="927.611" y="205.656" width="77.108" height="62.481" filterUnits="userSpaceOnUse">
      <feOffset dy="3" input="SourceAlpha"/>
      <feGaussianBlur stdDeviation="3" result="blur-5"/>
      <feFlood flood-opacity="0.161"/>
      <feComposite operator="in" in2="blur-5"/>
      <feComposite in="SourceGraphic"/>
    </filter>
    <filter id="Ellipse_180" x="896.075" y="263.595" width="53.506" height="56.447" filterUnits="userSpaceOnUse">
      <feOffset dy="3" input="SourceAlpha"/>
      <feGaussianBlur stdDeviation="3" result="blur-6"/>
      <feFlood flood-opacity="0.161"/>
      <feComposite operator="in" in2="blur-6"/>
      <feComposite in="SourceGraphic"/>
    </filter>
    <filter id="Ellipse_182" x="1430.456" y="749.155" width="97.191" height="97.19" filterUnits="userSpaceOnUse">
      <feOffset dy="3" input="SourceAlpha"/>
      <feGaussianBlur stdDeviation="3" result="blur-7"/>
      <feFlood flood-opacity="0.161"/>
      <feComposite operator="in" in2="blur-7"/>
      <feComposite in="SourceGraphic"/>
    </filter>
    <filter id="Rectangle_269" x="1474.782" y="819.825" width="30.029" height="39.552" filterUnits="userSpaceOnUse">
      <feOffset dy="3" input="SourceAlpha"/>
      <feGaussianBlur stdDeviation="3" result="blur-8"/>
      <feFlood flood-opacity="0.161"/>
      <feComposite operator="in" in2="blur-8"/>
      <feComposite in="SourceGraphic"/>
    </filter>
    <filter id="Rectangle_270" x="1450.724" y="819.825" width="30.029" height="39.552" filterUnits="userSpaceOnUse">
      <feOffset dy="3" input="SourceAlpha"/>
      <feGaussianBlur stdDeviation="3" result="blur-9"/>
      <feFlood flood-opacity="0.161"/>
      <feComposite operator="in" in2="blur-9"/>
      <feComposite in="SourceGraphic"/>
    </filter>
    <filter id="Ellipse_183" x="1467.763" y="837.868" width="38.048" height="25.518" filterUnits="userSpaceOnUse">
      <feOffset dy="3" input="SourceAlpha"/>
      <feGaussianBlur stdDeviation="3" result="blur-10"/>
      <feFlood flood-opacity="0.161"/>
      <feComposite operator="in" in2="blur-10"/>
      <feComposite in="SourceGraphic"/>
    </filter>
    <filter id="Ellipse_184" x="1443.705" y="837.367" width="38.048" height="25.518" filterUnits="userSpaceOnUse">
      <feOffset dy="3" input="SourceAlpha"/>
      <feGaussianBlur stdDeviation="3" result="blur-11"/>
      <feFlood flood-opacity="0.161"/>
      <feComposite operator="in" in2="blur-11"/>
      <feComposite in="SourceGraphic"/>
    </filter>
    <filter id="Tracé_8082" x="1457.059" y="719.305" width="76.19" height="64.395" filterUnits="userSpaceOnUse">
      <feOffset dy="3" input="SourceAlpha"/>
      <feGaussianBlur stdDeviation="3" result="blur-12"/>
      <feFlood flood-opacity="0.161"/>
      <feComposite operator="in" in2="blur-12"/>
      <feComposite in="SourceGraphic"/>
    </filter>
    <filter id="Ellipse_185" x="1404.903" y="756.278" width="59.102" height="46.199" filterUnits="userSpaceOnUse">
      <feOffset dy="3" input="SourceAlpha"/>
      <feGaussianBlur stdDeviation="3" result="blur-13"/>
      <feFlood flood-opacity="0.161"/>
      <feComposite operator="in" in2="blur-13"/>
      <feComposite in="SourceGraphic"/>
    </filter>
    <filter id="_Alone_we_can_do_so_little_together_we_can_do_so_much._Helen_Keller" x="145.25" y="324.25" width="322" height="423" filterUnits="userSpaceOnUse">
      <feOffset dy="3" input="SourceAlpha"/>
      <feGaussianBlur stdDeviation="3" result="blur-14"/>
      <feFlood flood-opacity="0.161"/>
      <feComposite operator="in" in2="blur-14"/>
      <feComposite in="SourceGraphic"/>
    </filter>
    <filter id="Team_Cbi" x="16.25" y="214.25" width="462" height="116" filterUnits="userSpaceOnUse">
      <feOffset dy="3" input="SourceAlpha"/>
      <feGaussianBlur stdDeviation="3" result="blur-15"/>
      <feFlood flood-opacity="0.161"/>
      <feComposite operator="in" in2="blur-15"/>
      <feComposite in="SourceGraphic"/>
    </filter>
    <linearGradient id="linear-gradient" x1="-7.284" y1="0.668" x2="-7.284" y2="1.668" gradientUnits="objectBoundingBox">
      <stop offset="0" stop-color="gray" stop-opacity="0.251"/>
      <stop offset="0.535" stop-color="gray" stop-opacity="0.122"/>
      <stop offset="1" stop-color="gray" stop-opacity="0.102"/>
    </linearGradient>
    <linearGradient id="linear-gradient-2" x1="0.639" y1="-2.269" x2="0.639" y2="-1.269" xlink:href="#linear-gradient"/>
  </defs>
  <g id="Groupe_4540" data-name="Groupe 4540" transform="translate(-358.75 -53.75)">
    <g id="Groupe_4502" data-name="Groupe 4502">
      <g id="Groupe_4493" data-name="Groupe 4493" transform="translate(40 33)">
        <g id="Groupe_4490" data-name="Groupe 4490">
          <g id="Groupe_4484" data-name="Groupe 4484" transform="translate(44 -2)">
            <g id="Groupe_4450" data-name="Groupe 4450" transform="translate(249.661 206.209)">
              <path id="Tracé_8066" data-name="Tracé 8066" d="M1069.745,581.769H297.7a2.14,2.14,0,0,1-2.139-2.139V74.915a2.138,2.138,0,0,1,4.277,0V577.49h769.905a2.139,2.139,0,0,1,0,4.279Z" transform="translate(332.81 62.138)" fill="#3f3d56"/>
              <path id="Tracé_8067" data-name="Tracé 8067" d="M1069.745,295.1H297.7a2.139,2.139,0,1,1,0-4.278h772.042a2.139,2.139,0,0,1,0,4.278Z" transform="translate(332.81 248.29)" fill="#3f3d56"/>
              <path id="Tracé_8068" data-name="Tracé 8068" d="M1070.322,251.261H298.277a2.138,2.138,0,0,1,0-4.277h772.044a2.138,2.138,0,1,1,0,4.277Z" transform="translate(333.302 210.863)" fill="#3f3d56"/>
              <path id="Tracé_8069" data-name="Tracé 8069" d="M1070.318,207.422H298.274a2.139,2.139,0,0,1,0-4.278h772.044a2.139,2.139,0,0,1,0,4.278Z" transform="translate(333.306 173.434)" fill="#3f3d56"/>
              <path id="Tracé_8070" data-name="Tracé 8070" d="M1070.322,163.582H298.277a2.138,2.138,0,0,1,0-4.277h772.044a2.138,2.138,0,1,1,0,4.277Z" transform="translate(333.302 136.007)" fill="#3f3d56"/>
              <path id="Tracé_8071" data-name="Tracé 8071" d="M1070.322,119.742H298.277a2.138,2.138,0,0,1,0-4.277h772.044a2.138,2.138,0,1,1,0,4.277Z" transform="translate(333.302 98.578)" fill="#3f3d56"/>
              <path id="Tracé_8072" data-name="Tracé 8072" d="M1070.318,75.9H298.274a2.139,2.139,0,0,1,0-4.278h772.044a2.139,2.139,0,0,1,0,4.278Z" transform="translate(333.306 61.15)" fill="#3f3d56"/>
              <path id="Tracé_8073" data-name="Tracé 8073" d="M355.756,391.166H328.8a12.516,12.516,0,0,1-12.5-12.5V304.309a12.516,12.516,0,0,1,12.5-12.5h26.959a12.516,12.516,0,0,1,12.5,12.5v74.354A12.516,12.516,0,0,1,355.756,391.166Z" transform="translate(350.508 249.128)" fill="#3f3d56"/>
              <path id="Tracé_8074" data-name="Tracé 8074" d="M416.324,420.162H389.365a12.516,12.516,0,0,1-12.5-12.5V270.346a12.517,12.517,0,0,1,12.5-12.5h26.959a12.518,12.518,0,0,1,12.5,12.5V407.658A12.517,12.517,0,0,1,416.324,420.162Z" transform="translate(402.218 220.133)" fill="#3f3d56"/>
              <path id="Tracé_8075" data-name="Tracé 8075" d="M537.46,488.389H510.5a12.516,12.516,0,0,1-12.5-12.5V190.431a12.517,12.517,0,0,1,12.5-12.5H537.46a12.518,12.518,0,0,1,12.5,12.5V475.886A12.517,12.517,0,0,1,537.46,488.389Z" transform="translate(505.638 151.905)" fill="#e6e6e6"/>
              <path id="Tracé_8076" data-name="Tracé 8076" d="M476.315,443.369H449.356a12.516,12.516,0,0,1-12.5-12.5v-187.7a12.516,12.516,0,0,1,12.5-12.5h26.959a12.517,12.517,0,0,1,12.5,12.5v187.7A12.517,12.517,0,0,1,476.315,443.369Z" transform="translate(453.435 196.926)" fill="#3f3d56"/>
              <path id="Tracé_8077" data-name="Tracé 8077" d="M598.028,522.99H571.068a12.517,12.517,0,0,1-12.5-12.5V149.9a12.518,12.518,0,0,1,12.5-12.5h26.961a12.518,12.518,0,0,1,12.5,12.5V510.487A12.517,12.517,0,0,1,598.028,522.99Z" transform="translate(557.347 117.304)" fill="#3f3d56"/>
              <path id="Tracé_8078" data-name="Tracé 8078" d="M658.6,488.389H631.636a12.517,12.517,0,0,1-12.5-12.5V190.431a12.52,12.52,0,0,1,12.5-12.5H658.6a12.518,12.518,0,0,1,12.5,12.5V475.886A12.517,12.517,0,0,1,658.6,488.389Z" transform="translate(609.057 151.905)" fill="#3f3d56"/>
              <path id="Tracé_8079" data-name="Tracé 8079" d="M719.165,579.292H692.2a12.518,12.518,0,0,1-12.5-12.5V83.957a12.518,12.518,0,0,1,12.5-12.5h26.961a12.518,12.518,0,0,1,12.5,12.5V566.788A12.518,12.518,0,0,1,719.165,579.292Z" transform="translate(660.767 61.003)" fill="#e6e6e6"/>
              <g id="Groupe_4495" data-name="Groupe 4495" transform="translate(102.303 28.197)">
                <g transform="matrix(1, 0, 0, 1, -77.21, -211.66)" filter="url(#Ellipse_174)">
                  <circle id="Ellipse_174-2" data-name="Ellipse 174" cx="39.914" cy="39.914" r="39.914" transform="translate(918.42 316.07) rotate(-80.78)" fill="#1c1d22"/>
                </g>
                <rect id="Rectangle_267" data-name="Rectangle 267" width="21.726" height="12.126" transform="translate(852.394 107.357) rotate(-26.601)" fill="#1c1d22"/>
                <g transform="matrix(1, 0, 0, 1, -77.21, -211.66)" filter="url(#Ellipse_175)">
                  <ellipse id="Ellipse_175-2" data-name="Ellipse 175" cx="3.789" cy="10.105" rx="3.789" ry="10.105" transform="translate(918.64 320.79) rotate(-56.6)" fill="#1c1d22"/>
                </g>
                <g transform="matrix(1, 0, 0, 1, -77.21, -211.66)" filter="url(#Rectangle_268)">
                  <rect id="Rectangle_268-2" data-name="Rectangle 268" width="12.126" height="21.726" transform="translate(973.96 320.13) rotate(-63.4)" fill="#1c1d22"/>
                </g>
                <g transform="matrix(1, 0, 0, 1, -77.21, -211.66)" filter="url(#Ellipse_176)">
                  <ellipse id="Ellipse_176-2" data-name="Ellipse 176" cx="10.105" cy="3.789" rx="10.105" ry="3.789" transform="translate(988.74 325.59) rotate(-33.4)" fill="#1c1d22"/>
                </g>
                <circle id="Ellipse_177" data-name="Ellipse 177" cx="13.642" cy="13.642" r="13.642" transform="translate(868.48 72.821) rotate(-80.41)" fill="#fff"/>
                <ellipse id="Ellipse_178" data-name="Ellipse 178" cx="4.528" cy="4.56" rx="4.528" ry="4.56" transform="translate(877.87 67.18) rotate(-45)" fill="#1c1d22"/>
                <g transform="matrix(1, 0, 0, 1, -77.21, -211.66)" filter="url(#Tracé_8080)">
                  <path id="Tracé_8080-2" data-name="Tracé 8080" d="M538.074,27.983C538.673,13.206,525.939.69,509.628.028s-30.019,10.779-30.62,25.556,10.738,18.135,27.048,18.8S537.474,42.759,538.074,27.983Z" transform="translate(457.62 211.66)" fill="#a5cf4b"/>
                </g>
                <ellipse id="Ellipse_179" data-name="Ellipse 179" cx="6.265" cy="19.957" rx="6.265" ry="19.957" transform="matrix(0.759, -0.651, 0.651, 0.759, 910.739, 66.101)" fill="#1c1d22"/>
                <g transform="matrix(1, 0, 0, 1, -77.21, -211.66)" filter="url(#Ellipse_180)">
                  <ellipse id="Ellipse_180-2" data-name="Ellipse 180" cx="19.957" cy="6.265" rx="19.957" ry="6.265" transform="matrix(0.65, -0.76, 0.76, 0.65, 905.08, 299.88)" fill="#1c1d22"/>
                </g>
                <path id="Tracé_8081" data-name="Tracé 8081" d="M518.629,91.466a9.095,9.095,0,0,1-17.9,3.258l0-.017c-.895-4.943,2.926-6.691,7.868-7.586S517.734,86.524,518.629,91.466Z" transform="translate(379.331 -4.331)" fill="#fff"/>
              </g>
              <ellipse id="Ellipse_181" data-name="Ellipse 181" cx="6.215" cy="19.798" rx="6.215" ry="19.798" transform="translate(1528.781 606.976) rotate(-39.938)" fill="#1c1d22"/>
              <g transform="matrix(1, 0, 0, 1, 25.09, -183.46)" filter="url(#Ellipse_182)">
                <ellipse id="Ellipse_182-2" data-name="Ellipse 182" cx="39.595" cy="39.595" rx="39.595" ry="39.595" transform="translate(1439.46 755.15)" fill="#1c1d22"/>
              </g>
              <g transform="matrix(1, 0, 0, 1, 25.09, -183.46)" filter="url(#Rectangle_269)">
                <rect id="Rectangle_269-2" data-name="Rectangle 269" width="12.029" height="21.552" transform="translate(1483.78 825.82)" fill="#1c1d22"/>
              </g>
              <g transform="matrix(1, 0, 0, 1, 25.09, -183.46)" filter="url(#Rectangle_270)">
                <rect id="Rectangle_270-2" data-name="Rectangle 270" width="12.029" height="21.552" transform="translate(1459.72 825.82)" fill="#1c1d22"/>
              </g>
              <g transform="matrix(1, 0, 0, 1, 25.09, -183.46)" filter="url(#Ellipse_183)">
                <ellipse id="Ellipse_183-2" data-name="Ellipse 183" cx="10.024" cy="3.759" rx="10.024" ry="3.759" transform="translate(1476.76 843.87)" fill="#1c1d22"/>
              </g>
              <g transform="matrix(1, 0, 0, 1, 25.09, -183.46)" filter="url(#Ellipse_184)">
                <ellipse id="Ellipse_184-2" data-name="Ellipse 184" cx="10.024" cy="3.759" rx="10.024" ry="3.759" transform="translate(1452.7 843.37)" fill="#1c1d22"/>
              </g>
              <g transform="matrix(1, 0, 0, 1, 25.09, -183.46)" filter="url(#Tracé_8082)">
                <path id="Tracé_8082-2" data-name="Tracé 8082" d="M771.05,232.095c3.536-14.238,19.142-22.618,34.858-18.715s25.59,18.608,22.055,32.847-15.266,14.284-30.981,10.382S767.515,246.333,771.05,232.095Z" transform="translate(695.57 512.88)" fill="#ccc"/>
              </g>
              <g transform="matrix(1, 0, 0, 1, 25.09, -183.46)" filter="url(#Ellipse_185)">
                <ellipse id="Ellipse_185-2" data-name="Ellipse 185" cx="6.215" cy="19.798" rx="6.215" ry="19.798" transform="translate(1413.9 773.51) rotate(-64.63)" fill="#1c1d22"/>
              </g>
              <ellipse id="Ellipse_186" data-name="Ellipse 186" cx="13.201" cy="13.201" rx="13.201" ry="13.201" transform="translate(1485.02 589.735)" fill="#fff"/>
              <ellipse id="Ellipse_187" data-name="Ellipse 187" cx="4.4" cy="4.4" rx="4.4" ry="4.4" transform="translate(1488.396 593.804)" fill="#1c1d22"/>
              <path id="Tracé_8083" data-name="Tracé 8083" d="M785.661,308.383a8.8,8.8,0,1,1-17.316,3.153h0l0-.017c-.865-4.783,2.833-6.475,7.615-7.341S784.8,303.6,785.661,308.383Z" transform="translate(720.842 322.058)" fill="#fff"/>
              <path id="Tracé_8084" data-name="Tracé 8084" d="M744.339,593.732H717.38a12.512,12.512,0,0,1-12.5-12.493V98.811a12.512,12.512,0,0,1,12.5-12.493h26.959a12.513,12.513,0,0,1,12.5,12.493V581.239A12.513,12.513,0,0,1,744.339,593.732Z" transform="translate(682.261 73.694)" fill="#a5cf4b"/>
              <path id="Tracé_8088" data-name="Tracé 8088" d="M568.89,370.645l-26.164,6.5a12.517,12.517,0,0,1-15.149-9.119L458.733,91a12.518,12.518,0,0,1,9.119-15.151l26.164-6.5a12.517,12.517,0,0,1,15.151,9.119L578.009,355.5A12.516,12.516,0,0,1,568.89,370.645Z" transform="translate(471.801 58.891)" fill="#0099d5"/>
              <circle id="Ellipse_200" data-name="Ellipse 200" cx="20.391" cy="20.391" r="20.391" transform="translate(430.231 114.523)" fill="#e6e6e6"/>
              <circle id="Ellipse_201" data-name="Ellipse 201" cx="20.391" cy="20.391" r="20.391" transform="translate(430.231 195.79)" fill="#e6e6e6"/>
              <circle id="Ellipse_202" data-name="Ellipse 202" cx="20.391" cy="20.391" r="20.391" transform="translate(430.231 277.058)" fill="#e6e6e6"/>
              <circle id="Ellipse_203" data-name="Ellipse 203" cx="20.391" cy="20.391" r="20.391" transform="translate(430.231 358.326)" fill="#e6e6e6"/>
              <circle id="Ellipse_204" data-name="Ellipse 204" cx="20.391" cy="20.391" r="20.391" transform="translate(430.231 439.594)" fill="#e6e6e6"/>
              <circle id="Ellipse_205" data-name="Ellipse 205" cx="20.391" cy="20.391" r="20.391" transform="translate(430.231 520.861)" fill="#e6e6e6"/>
              <g id="Groupe_4482" data-name="Groupe 4482" transform="translate(26.339 322.636)">
                <circle id="Ellipse_206" data-name="Ellipse 206" cx="43.067" cy="43.067" r="43.067" transform="translate(71.077 244.889)" fill="#1c1d22"/>
                <rect id="Rectangle_278" data-name="Rectangle 278" width="13.084" height="23.442" transform="translate(94.519 321.756)" fill="#1c1d22"/>
                <rect id="Rectangle_279" data-name="Rectangle 279" width="13.084" height="23.442" transform="translate(120.686 321.756)" fill="#1c1d22"/>
                <circle id="Ellipse_207" data-name="Ellipse 207" cx="14.719" cy="14.719" r="14.719" transform="translate(100.515 262.334)" fill="#fff"/>
                <circle id="Ellipse_208" data-name="Ellipse 208" cx="4.906" cy="4.906" r="4.906" transform="translate(110.328 272.147)" fill="#1c1d22"/>
                <path id="Tracé_8117" data-name="Tracé 8117" d="M72.367,247.9C68.89,232.332,80.006,216.6,97.2,212.757s33.944,5.675,37.422,21.249-7.915,21.317-25.1,25.156S75.845,263.479,72.367,247.9Z" fill="#ccc"/>
                <ellipse id="Ellipse_209" data-name="Ellipse 209" cx="21.534" cy="6.76" rx="21.534" ry="6.76" transform="matrix(0.357, -0.934, 0.934, 0.357, 125.229, 149.385)" fill="#1c1d22"/>
                <circle id="Ellipse_210" data-name="Ellipse 210" cx="43.067" cy="43.067" r="43.067" transform="translate(56.358 121.139)" fill="#1c1d22"/>
                <rect id="Rectangle_280" data-name="Rectangle 280" width="13.084" height="23.442" transform="translate(79.799 198.006)" fill="#1c1d22"/>
                <rect id="Rectangle_281" data-name="Rectangle 281" width="13.084" height="23.442" transform="translate(105.967 198.006)" fill="#1c1d22"/>
                <ellipse id="Ellipse_211" data-name="Ellipse 211" cx="10.903" cy="4.089" rx="10.903" ry="4.089" transform="translate(79.799 217.632)" fill="#1c1d22"/>
                <ellipse id="Ellipse_212" data-name="Ellipse 212" cx="10.903" cy="4.089" rx="10.903" ry="4.089" transform="translate(105.967 217.086)" fill="#1c1d22"/>
                <circle id="Ellipse_213" data-name="Ellipse 213" cx="14.719" cy="14.719" r="14.719" transform="translate(85.796 138.584)" fill="#fff"/>
                <circle id="Ellipse_214" data-name="Ellipse 214" cx="4.906" cy="4.906" r="4.906" transform="translate(95.609 148.397)" fill="#1c1d22"/>
                <path id="Tracé_8118" data-name="Tracé 8118" d="M57.648,124.155c-3.477-15.574,7.639-31.311,24.829-35.149s33.944,5.675,37.422,21.249-7.915,21.318-25.105,25.156S61.126,139.729,57.648,124.155Z" fill="#a5cf4b"/>
                <ellipse id="Ellipse_215" data-name="Ellipse 215" cx="6.76" cy="21.534" rx="6.76" ry="21.534" transform="translate(28.564 141.103) rotate(-64.626)" fill="#1c1d22"/>
                <path id="Tracé_8119" data-name="Tracé 8119" d="M78.27,179.743c0,4.215,10.854,12.539,22.9,12.539S124.5,180.415,124.5,176.2s-11.292.817-23.335.817S78.27,175.528,78.27,179.743Z" fill="#fff"/>
                <path id="Tracé_8120" data-name="Tracé 8120" d="M182.536,154.975l-31.7,6.189a3.442,3.442,0,0,1-2.92-.773,3.5,3.5,0,0,1-1.217-2.82,82.894,82.894,0,0,0-7.376-37.786,3.5,3.5,0,0,1,.067-3.07A3.441,3.441,0,0,1,141.8,114.9l31.7-6.188a3.485,3.485,0,0,1,3.928,2.209,135.674,135.674,0,0,1,7.912,40.529A3.484,3.484,0,0,1,182.536,154.975Z" fill="#0099d5"/>
                <path id="Tracé_8121" data-name="Tracé 8121" d="M43.536,183.975l-31.7,6.189a3.442,3.442,0,0,1-2.92-.773,3.5,3.5,0,0,1-1.217-2.82A82.894,82.894,0,0,0,.322,148.785a3.5,3.5,0,0,1,.067-3.07A3.441,3.441,0,0,1,2.805,143.9l31.7-6.188a3.484,3.484,0,0,1,3.928,2.209,135.674,135.674,0,0,1,7.912,40.529A3.484,3.484,0,0,1,43.536,183.975Z" fill="#ccc"/>
              </g>
            </g>
            <g transform="matrix(1, 0, 0, 1, 274.75, 22.75)" filter="url(#_Alone_we_can_do_so_little_together_we_can_do_so_much._Helen_Keller)">
              <text id="_Alone_we_can_do_so_little_together_we_can_do_so_much._Helen_Keller-2" data-name="&quot;Alone we 
can do so 
little; 
together we 
can do so
much.&quot;
Helen Keller" transform="translate(306.25 414.25)" fill="#1b1c21" font-size="90" font-family="FelixTitlingMT, Felix Titling" letter-spacing="0.209em"><tspan x="-135.94" y="0">&quot;</tspan><tspan y="0" font-size="46" font-family="BebasNeue, Bebas Neue">Alone We </tspan><tspan font-size="46" font-family="BebasNeue, Bebas Neue"><tspan x="-118.22" y="63">Can Do So </tspan><tspan x="-86.296" y="112">Little; </tspan><tspan x="-151.869" y="161">Together We </tspan><tspan x="-109.848" y="210">Can Do So</tspan><tspan x="-76.084" y="259">Much.&quot;</tspan></tspan><tspan font-size="23.332" font-family="BebasNeue, Bebas Neue" baseline-shift="-13.332000418508848"><tspan x="-77.147" y="303">Helen Keller</tspan></tspan></text>
            </g>
            <line id="Ligne_87" data-name="Ligne 87" y2="192.519" transform="translate(386.5 393.5)" fill="none" stroke="#1b1c21" stroke-width="1" opacity="0.2"/>
            <line id="Ligne_88" data-name="Ligne 88" y2="192.519" transform="translate(395.5 411.5)" fill="none" stroke="#1b1c21" stroke-width="1" opacity="0.2"/>
            <line id="Ligne_89" data-name="Ligne 89" y2="192.519" transform="translate(404.5 421.5)" fill="none" stroke="#1b1c21" stroke-width="1" opacity="0.2"/>
            <g id="Groupe_4481" data-name="Groupe 4481" transform="translate(-55 94)">
              <rect id="Rectangle_277" data-name="Rectangle 277" width="488" height="111" transform="translate(354 163)" fill="#e0ebc9"/>
              <path id="Tracé_8116" data-name="Tracé 8116" d="M0,0H488V111H0Z" transform="translate(346 154)" fill="#b5dded"/>
              <rect id="Rectangle_275" data-name="Rectangle 275" width="488" height="111" transform="translate(333 142)" fill="#1b1c21"/>
              <g transform="matrix(1, 0, 0, 1, 329.75, -71.25)" filter="url(#Team_Cbi)">
                <text id="Team_Cbi-2" data-name="Team Cbi" transform="translate(247.25 302.25)" fill="#f6f6f6" font-size="94" font-family="aliensandcows, aliens and cows" letter-spacing="0.209em"><tspan x="-221.253" y="0">Team Cbi</tspan></text>
              </g>
            </g>
            <g id="Groupe_4483" data-name="Groupe 4483" transform="translate(277.481 529.163)">
              <ellipse id="Ellipse_216" data-name="Ellipse 216" cx="10.903" cy="4.089" rx="10.903" ry="4.089" transform="translate(94.519 341.382)" fill="#1c1d22"/>
              <ellipse id="Ellipse_217" data-name="Ellipse 217" cx="10.903" cy="4.089" rx="10.903" ry="4.089" transform="translate(120.686 340.837)" fill="#1c1d22"/>
            </g>
            <path id="Tracé_8122" data-name="Tracé 8122" d="M789.754,309.459a10.865,10.865,0,1,1-21.378,3.892h0l0-.022c-1.068-5.9,3.5-7.994,9.4-9.063S788.684,303.555,789.754,309.459Z" transform="translate(-387.129 526.424)" fill="#fff"/>
          </g>
          <g id="Groupe_4486" data-name="Groupe 4486" transform="translate(1306.017 109.923)">
            <path id="Tracé_8123" data-name="Tracé 8123" d="M262.983,309.069c4.7,3.152,11.836,1.651,11.836,1.651s10.773-5.1,13.96-5.1,10.925-3.152,10.925-3.152l-.261-2.125-.79-6.4c4.9,3.822,10.353,2.5,13.038,2.224,2.883-.3,18.281-9.454,19.762-10.054a3.911,3.911,0,0,0,1.35-1.363h0a34.705,34.705,0,0,0,2.607-4.763h0c.965-.849,1.669-1.531,1.619-1.678a10.62,10.62,0,0,1,.943-2.52,12.341,12.341,0,0,0,4.671-1.682,4.245,4.245,0,0,0,.647-.654,4.152,4.152,0,0,0,.871-2.647s15.022-15.156,13.049-21.46,4.856-6.453,4.856-6.453,10.469-4.5,11.926-7.2c.9-1.663,8.749-5.31,14.66-7.873l.726-.313c2.3,5.027,13.94,1.159,16.235-.968,2.427-2.251,9.559-3.3,9.559-3.3s.3-29.413,2.579-33.165c1.08-1.78,1.341-7.587,1.314-13.2q0-.3,0-.6c3.188-.621,10.769-2.063,14.291-2.413a13.68,13.68,0,0,0,6.341-2.965c.137.169.21.264.21.264a4.381,4.381,0,0,0,1.941.319,3.009,3.009,0,0,0,1.7-.319c1.366-.75,6.373-2.251,8.194-3s-.3-6.153-1.669-7.2-2.276-2.4-1.517-3-1.821-2.1-3.339-2.4a49.319,49.319,0,0,1-6.069-2.4s-1.669-3.451-4.4-3.451-6.373-2.7-6.373-2.7c-.152-1.2-3.035-1.351-3.035-1.351s-10.925-8.4-12.746-7.353-6.828-1.651-6.828-1.651-6.141.688-7.587-.443v-.008a1.732,1.732,0,0,0-.365-1.019c-.327-1.014-1.914-2.407-3.453-3.566a13.49,13.49,0,0,0,.175-2.168c0-.315-.012-.631-.033-.939,0-.053-.01-.1-.014-.156q.108-1.056.214-2.113a4.379,4.379,0,0,1,.53-1.988c.256-.395.633-.707.918-1.084a3.121,3.121,0,0,0,.186-.281l.044-.079c.041-.074.079-.15.114-.227.012-.026.024-.051.035-.077a3.428,3.428,0,0,0,.2-.64c0-.017.006-.034.01-.052.019-.1.034-.2.045-.3l.005-.042a6.464,6.464,0,0,0-.342-2.577,17.347,17.347,0,0,1-1.243-4.267,13.23,13.23,0,0,0-.077-2.2c-.365-1.639-2.054-2.685-3.676-3.365a20.48,20.48,0,0,1-5.177-3.365c-1.531-1.188-4.058-.591-5.986-.468A52.279,52.279,0,0,0,367.4,108.2a12.809,12.809,0,0,0-4.5,2.235,4.959,4.959,0,0,0-1.648,2.781h0v0a3.521,3.521,0,0,0-.05.758c0,.023,0,.045,0,.068q.009.145.033.291c0,.031.009.063.015.094a3.269,3.269,0,0,0,.084.343l0,.01c.174.553.5,1.054.687,1.6a3.514,3.514,0,0,1,.1.371l.008.04c.025.12.046.241.061.362h0a15.514,15.514,0,0,1-.559,4.18c-.032.2-.053.4-.068.6h0v.007a7.156,7.156,0,0,0,.21,2.4l.006.027c.027.1.057.19.088.285.014.041.025.082.04.122.029.081.06.159.092.238.021.053.042.105.064.157.031.07.064.138.1.206s.057.115.087.172.07.123.106.183.072.118.11.175.074.11.113.164.088.117.134.173.079.1.121.145.1.113.159.168.083.085.126.126c.061.057.125.109.19.162.042.035.083.071.128.1.075.057.155.109.236.16.038.025.074.051.114.075a3.993,3.993,0,0,0,.382.2c.871.4,1.968.539,2.5,1.3a1.717,1.717,0,0,1,.255.6c0,.052,0,.1,0,.155v.132q.009.667.076,1.314a5.051,5.051,0,0,0,.04.711,2.023,2.023,0,0,0,.149.516,13.613,13.613,0,0,0,4.6,7.729c.044.231.1.5.156.807a15.17,15.17,0,0,1-4.415,2.315c-3.642,1.065-8.8,5.984-8.8,5.984s-2.564,18.458-3.177,20.709-1.071,10.955-1.071,10.955a25.132,25.132,0,0,1-1.518,5.4c-.643,1.27-.528,6.722,1.271,10.036a8.425,8.425,0,0,1-1.119,1.819c-3.641,4.2-14.567,4.052-18.208,4.052-3.355,0-4.389,2.033-4.532,2.354-6.666,1.893-28.261,8.057-30.822,9.177-3.035,1.327-4.7,14.431-4.7,14.431s-6.373,21.759-6.069,24.622-2.125,10.793-2.125,10.793,0,8.977-1.032,9.587a.078.078,0,0,1-.031.018c-1.062.45-.91,4.8-.91,4.8s.78.225,2,.535a34.87,34.87,0,0,1-2.459,7.46c-.472-.6-.933-.849-1.211-.15-.759,1.909-12.139,15.415-15.021,15.415a8.737,8.737,0,0,0-5.138,2.644C261.217,305.278,260.522,307.421,262.983,309.069Zm52.2-78.185a126.511,126.511,0,0,0,26.706-.915,30.681,30.681,0,0,1-1.972,5.267c-.911,1.5-3.49,10.055-3.49,11.855s-4.1,17.258-5.31,18.008a4.487,4.487,0,0,0-1.32,1.909,17.891,17.891,0,0,0-.8,2.293c.018.392.055.761.1,1.112-.907.832-1.865,1.7-2.72,2.473h0a59.069,59.069,0,0,0-7.247,4.67c-1.821,1.651-10.318,3.673-10.318,3.673a52.827,52.827,0,0,0-6.106,3.115c-2.633,1.589-5.268,3.6-5.955,5.6.3-3.354.783-7.394,1.107-9.963.165,0,.327-.01.485-.02,4.252-.264,3.617-4.323,3.393-5.328-.03-.144-.055-.225-.055-.225,3.035-3.3,9.863-27.912,8.952-30.613s.759-5.1,1.12-5.1.853-3,.094-4.652,3.338-3.152,3.338-3.152Zm104.3-66.2c-.269.065-.537.129-.8.2-.007-.113-.01-.174-.01-.174s.3,0,.815-.025ZM375.39,142.036c-.122.15-.245.3-.374.438-.051.055-.1.108-.156.162,0-.282,0-.562,0-.833q.262.122.531.233Zm-15.2,29.114.056.845s-.083.515-.236,1.4Zm69.732-8.387-2.647.457c.376-.142.745-.3,1.1-.466a2.538,2.538,0,0,1,.844-.229,4.6,4.6,0,0,1,.987.212,2.128,2.128,0,0,0-.287.027Z" fill="url(#linear-gradient)"/>
            <path id="Tracé_8124" data-name="Tracé 8124" d="M369.3,346.2s-3.049,6.309-2.9,6.757-6.553,5.807-6.553,5.807l-7.3-5.212.745-3.574s8.191-7.381,8.786-8.233S369.3,346.2,369.3,346.2Z" transform="translate(-28.925 -75.088)" fill="#ffb8b8"/>
            <path id="Tracé_8125" data-name="Tracé 8125" d="M315.666,370.3c5.063,4.914,11.02,3.425,13.85,3.128s17.943-9.382,19.4-9.978a3.872,3.872,0,0,0,1.325-1.352h0a34.583,34.583,0,0,0,2.559-4.727c-.1.027-5.055,1.442-6.306,0,0,0-2.085-2.556-2.532-2.556s-.035-4.486-.035-4.486a57.91,57.91,0,0,0-7.113,4.635c-1.787,1.638-10.127,3.646-10.127,3.646a51.493,51.493,0,0,0-5.993,3.092C316.744,364.109,312.786,367.508,315.666,370.3Z" transform="translate(-16.911 -77.841)" fill="#1c1d22"/>
            <path id="Tracé_8126" data-name="Tracé 8126" d="M315.666,375.586c5.063,4.914,11.02,3.425,13.85,3.128s17.943-9.382,19.4-9.978a3.872,3.872,0,0,0,1.325-1.352c-1.764-1.052-13.276,6.266-16.5,7.607s-11.372.6-15.989-1.34c-2.306-.965.029-3.935,2.943-6.666C316.744,369.393,312.786,372.792,315.666,375.586Z" transform="translate(-16.911 -83.125)" opacity="0.1" style="isolation: isolate"/>
            <path id="Tracé_8127" data-name="Tracé 8127" d="M310.077,355.9s-2.121,15.935-1.582,18.02-13.311-7.148-13.311-7.148,4.847-9.985,3.425-12.279S310.077,355.9,310.077,355.9Z" transform="translate(-10.726 -78.923)" fill="#ffb8b8"/>
            <path id="Tracé_8128" data-name="Tracé 8128" d="M297.58,321.9s8.638,2.532,13.4,2.234c4.173-.262,3.55-4.289,3.33-5.287-.03-.143-.054-.223-.054-.223,2.979-3.276,9.681-27.7,8.787-30.38s.745-5.064,1.1-5.064.837-2.978.092-4.617,3.277-3.127,3.277-3.127a122.822,122.822,0,0,0,26.211-.909,30.648,30.648,0,0,1-1.936,5.227c-.894,1.49-3.425,9.978-3.425,11.765s-4.021,17.127-5.212,17.872a4.456,4.456,0,0,0-1.3,1.894,17.969,17.969,0,0,0-.789,2.276c.447,9.978,11.765,6.106,13.4,4.766a4.061,4.061,0,0,0,1.489-3.277s14.743-15.041,12.808-21.3,4.766-6.4,4.766-6.4,10.275-4.468,11.705-7.148c.882-1.65,8.587-5.269,14.39-7.813,3.634-1.594,6.52-2.761,6.52-2.761l-2.416-8.661-1.9-6.827-3.584-1.346-11.458-4.313-20.573-2.829-1.886.244-19.986,2.586s-29.19,8.34-32.168,9.656-4.617,14.321-4.617,14.321S301.3,294.055,301.6,296.9s-2.085,10.711-2.085,10.711,0,8.909-1.013,9.513a.08.08,0,0,1-.03.018C297.431,317.585,297.58,321.9,297.58,321.9Z" transform="translate(-11.484 -44.634)" fill="#1c1d22"/>
            <path id="Tracé_8129" data-name="Tracé 8129" d="M341.427,283.808a122.822,122.822,0,0,0,26.211-.909c.894-2.814,13.412-10.559,13.412-10.559C370.78,269.809,341.427,283.808,341.427,283.808Z" transform="translate(-25.396 -53.003)" opacity="0.1" style="isolation: isolate"/>
            <path id="Tracé_8130" data-name="Tracé 8130" d="M361.276,344.062c.447,9.978,11.765,6.106,13.4,4.766a4.169,4.169,0,0,0,.635-.649c-3.956,1.456-10.967,2.582-13.249-6.392A17.861,17.861,0,0,0,361.276,344.062Z" transform="translate(-31.693 -75.131)" fill="#444053"/>
            <path id="Tracé_8131" data-name="Tracé 8131" d="M297.58,355.111s8.638,2.532,13.4,2.234c4.173-.262,3.55-4.289,3.33-5.287-4.372-.137-11.9-.548-15.81-1.73a.08.08,0,0,1-.03.018C297.431,350.792,297.58,355.111,297.58,355.111Z" transform="translate(-11.484 -77.841)" fill="#444053"/>
            <path id="Tracé_8132" data-name="Tracé 8132" d="M361.276,344.062c.447,9.978,11.765,6.106,13.4,4.766a4.169,4.169,0,0,0,.635-.649c-3.956,1.456-10.967,2.582-13.249-6.392A17.861,17.861,0,0,0,361.276,344.062Z" transform="translate(-31.693 -75.131)" opacity="0.1" style="isolation: isolate"/>
            <path id="Tracé_8133" data-name="Tracé 8133" d="M297.58,355.111s8.638,2.532,13.4,2.234c4.173-.262,3.55-4.289,3.33-5.287-4.372-.137-11.9-.548-15.81-1.73a.08.08,0,0,1-.03.018C297.431,350.792,297.58,355.111,297.58,355.111Z" transform="translate(-11.484 -77.841)" opacity="0.1" style="isolation: isolate"/>
            <path id="Tracé_8134" data-name="Tracé 8134" d="M265.657,391.882c4.617,3.128,11.616,1.639,11.616,1.639s10.574-5.064,13.7-5.064S301.7,385.33,301.7,385.33l-.256-2.109-1.233-10.1s-11.6-.3-12.064-1.341c0,0-2.084-5.129-2.829-3.234s-11.914,15.3-14.743,15.3a8.545,8.545,0,0,0-5.043,2.624C263.924,388.121,263.242,390.247,265.657,391.882Z" transform="translate(-0.858 -83.486)" fill="#1c1d22"/>
            <path id="Tracé_8135" data-name="Tracé 8135" d="M325.067,274.01s9.68,6.106,7,7.446S325.067,274.01,325.067,274.01Z" transform="translate(-20.206 -53.63)" opacity="0.1" style="isolation: isolate"/>
            <path id="Tracé_8136" data-name="Tracé 8136" d="M319.178,291.242s8.34,7.917,5.212,8.129S319.178,291.242,319.178,291.242Z" transform="translate(-18.338 -59.096)" opacity="0.1" style="isolation: isolate"/>
            <path id="Tracé_8137" data-name="Tracé 8137" d="M306.09,328.105s4.234,7.959,2.638,9.341S306.09,328.105,306.09,328.105Z" transform="translate(-14.186 -70.791)" opacity="0.1" style="isolation: isolate"/>
            <path id="Tracé_8138" data-name="Tracé 8138" d="M374.317,337.457c-1.49,1.489,14.148-4.914,10.574-5.212S374.317,337.457,374.317,337.457Z" transform="translate(-35.799 -72.101)" opacity="0.1" style="isolation: isolate"/>
            <path id="Tracé_8139" data-name="Tracé 8139" d="M420.17,166.894s.175-.027.5-.074c1.852-.283,8.566-1.338,14.588-2.645,1.469-.319,2.892-.653,4.2-.995,4.614-1.21,7.708-2.514,5.737-3.584a10.563,10.563,0,0,1-4.715-6.21c-.068-.218-.134-.429-.193-.638a16.327,16.327,0,0,1-.6-3.428s-16.829-5.957-13.553,0a5.645,5.645,0,0,1-.992,6.978,13.077,13.077,0,0,1-3.625,2.7Z" transform="translate(-50.377 -13.233)" fill="#ffb8b8"/>
            <path id="Tracé_8140" data-name="Tracé 8140" d="M429.485,169.528s-6.019,4.318-12.169.744-14.191,31.573-14.191,31.573l-8.34,20.552s-5.4,4.468,1.32,6.4,21.639-1.936,25.424,3.723,10.958,6.552,11.691,6.552,3.571-21.3,3.571-21.3l.736-30.828Z" transform="translate(-41.673 -20.483)" opacity="0.1" style="isolation: isolate"/>
            <path id="Tracé_8141" data-name="Tracé 8141" d="M396.542,227.056c6.722,1.936,21.639-1.936,25.424,3.723a14.55,14.55,0,0,0,6.407,5.155,16.762,16.762,0,0,0,5.284,1.4c.1,0,.238-.39.4-1.066,1.049-4.31,3.169-20.231,3.169-20.231l.735-30.828-7.077-15.331-.965-2.093a12.828,12.828,0,0,1-3.068,1.492,10.8,10.8,0,0,1-9.1-.748c-1.8-1.048-3.771,1.236-5.65,4.989-4.525,9.037-8.54,26.584-8.54,26.584l-8.34,20.552a7.307,7.307,0,0,0-.565.542C393.471,222.442,391.252,225.534,396.542,227.056Z" transform="translate(-41.811 -19.93)" fill="#f3f5f9"/>
            <path id="Tracé_8142" data-name="Tracé 8142" d="M443.989,224.218a38.8,38.8,0,0,0-.2,7.842,91.87,91.87,0,0,0,1.4,11.078,4.2,4.2,0,0,0,.182.676c3.634-1.594,6.52-2.761,6.52-2.761l-2.416-8.661c1.049-4.31,3.169-20.23,3.169-20.23l.735-30.828L446.3,166c4.614-1.21,7.708-2.514,5.737-3.584-2.865-1.555-4.244-4.506-4.908-6.847a24.954,24.954,0,0,1-4.232,4.554l-.092.078-.537,5.2-.164,1.6-.342,3.315s1.638,39.168,2.829,41.4.6,6.553-.447,11.616C444.088,223.617,444.037,223.912,443.989,224.218Z" transform="translate(-57.228 -16.056)" opacity="0.1" style="isolation: isolate"/>
            <path id="Tracé_8143" data-name="Tracé 8143" d="M445.02,218.375c-1.043,5.064-.149,13.4,1.043,19.807s13.85,2.234,16.233,0,9.382-3.277,9.382-3.277.3-29.189,2.532-32.912c1.06-1.766,1.316-7.53,1.29-13.1-.021-5-.268-9.841-.361-11.483-.024-.381-.036-.59-.036-.59s9.68-16.382,9.531-17.573-2.979-1.34-2.979-1.34-10.723-8.34-12.509-7.3-6.7-1.638-6.7-1.638-6.228.706-7.515-.494a.655.655,0,0,1-.229-.548c.146-1.906-6.347-5.978-6.546-6.1,5.472,4.923-3.378,12.51-4.382,13.341l-.092.077-1.043,10.11s1.639,39.168,2.83,41.4S446.062,213.312,445.02,218.375Z" transform="translate(-57.505 -11.696)" fill="#4e4c60"/>
            <circle id="Ellipse_218" data-name="Ellipse 218" cx="0.745" cy="0.745" r="0.745" transform="translate(387.347 163.387)" fill="#444053"/>
            <path id="Tracé_8144" data-name="Tracé 8144" d="M444.736,156.043l4.524,4.379,6.633-11.068a.654.654,0,0,1-.229-.548c.145-1.906-6.348-5.978-6.547-6.1C454.589,147.626,445.74,155.212,444.736,156.043Z" transform="translate(-58.171 -11.973)" opacity="0.1" style="isolation: isolate"/>
            <circle id="Ellipse_219" data-name="Ellipse 219" cx="0.745" cy="0.745" r="0.745" transform="translate(388.836 187.215)" opacity="0.1" style="isolation: isolate"/>
            <circle id="Ellipse_220" data-name="Ellipse 220" cx="0.745" cy="0.745" r="0.745" transform="translate(388.836 186.918)" fill="#444053"/>
            <path id="Tracé_8145" data-name="Tracé 8145" d="M444.3,155.171l4.525,4.379,6.633-11.068a.655.655,0,0,1-.229-.548c.146-1.906-6.347-5.978-6.547-6.1C454.152,146.753,445.3,154.34,444.3,155.171Z" transform="translate(-58.032 -11.696)" fill="#67647e"/>
            <rect id="Rectangle_282" data-name="Rectangle 282" width="21.9" height="10.364" rx="1.699" transform="matrix(0.023, -1, 1, 0.023, 381.568, 185.177)" fill="#3f3d56"/>
            <rect id="Rectangle_283" data-name="Rectangle 283" width="21.9" height="10.364" rx="1.699" transform="matrix(0.023, -1, 1, 0.023, 381.568, 185.177)" opacity="0.1" style="isolation: isolate"/>
            <rect id="Rectangle_284" data-name="Rectangle 284" width="21.9" height="10.364" rx="1.699" transform="translate(381.623 185.663) rotate(-88.695)" fill="#3f3d56"/>
            <circle id="Ellipse_221" data-name="Ellipse 221" cx="1.629" cy="1.629" r="1.629" transform="translate(385.702 168.659)" fill="#67647e"/>
            <path id="Tracé_8146" data-name="Tracé 8146" d="M363.676,221.567c3.723,1.639,28.147-2.681,31.721-3.723s8.787-9.085,6.255-14.892.893-11.468.893-11.468,5.362-11.468,6.553-13.7,3.675-8.739,4.021-9.829a.883.883,0,0,0-.211-.682c-.968-1.474-4.7-4.084-4.7-4.084-1.051.381-1.182-2.63-1.141-4.843.024-1.239.1-2.228.1-2.228s-.494.5-1.3,1.189c-.295.247-.632.521-1,.8a15.428,15.428,0,0,1-4.695,2.564c-3.574,1.058-8.638,5.939-8.638,5.939l1.489,22.872s-3.425,21.507-7,25.678-14.3,4.021-17.871,4.021S363.676,221.567,363.676,221.567Z" transform="translate(-32.455 -16.229)" opacity="0.1" style="isolation: isolate"/>
            <path id="Tracé_8147" data-name="Tracé 8147" d="M363.239,220.258c3.723,1.639,28.147-2.68,31.721-3.723s8.787-9.084,6.255-14.892.894-11.468.894-11.468,5.362-11.468,6.553-13.7,3.675-8.739,4.021-9.829a.884.884,0,0,0-.212-.682c-.967-1.474-4.7-4.084-4.7-4.084-1.051.382-1.183-2.63-1.141-4.843.024-1.239.1-2.228.1-2.228s-.494.5-1.3,1.188c-.295.247-.632.522-1,.8a15.428,15.428,0,0,1-4.695,2.564c-3.574,1.058-8.638,5.939-8.638,5.939l1.489,22.872s-3.425,21.508-7,25.678-14.3,4.021-17.871,4.021S363.239,220.258,363.239,220.258Z" transform="translate(-32.316 -15.814)" fill="#4e4c60"/>
            <path id="Tracé_8148" data-name="Tracé 8148" d="M422.57,155.681s.14.787.375,1.993c.8,4.089,2.713,13.019,4.092,12.673.989-.247,2.66-2,3.959-3.511-.968-1.475-4.7-4.084-4.7-4.084-1.051.381-1.182-2.63-1.141-4.843l-1.2-1.039Z" transform="translate(-51.139 -16.09)" opacity="0.1" style="isolation: isolate"/>
            <path id="Tracé_8149" data-name="Tracé 8149" d="M423.006,154.809s.14.786.375,1.992c.8,4.09,2.714,13.019,4.093,12.674.989-.248,2.659-2,3.958-3.512-.967-1.474-4.7-4.084-4.7-4.084-1.051.382-1.183-2.63-1.141-4.843l-1.2-1.04Z" transform="translate(-51.277 -15.814)" fill="#67647e"/>
            <path id="Tracé_8150" data-name="Tracé 8150" d="M406,214.859s7.446-1.489,9.531-4.766,16.269-6.106,14.538-2.68-14.538,14.633-14.538,14.633l-5.549,7.947-7.407-1.879-3.119-6.068Z" transform="translate(-43.807 -32.008)" fill="#ffb8b8"/>
            <path id="Tracé_8151" data-name="Tracé 8151" d="M430.953,231.487s-7.211,2.68-8.3,6.255S430.953,231.487,430.953,231.487Z" transform="translate(-51.138 -40.139)" opacity="0.1" style="isolation: isolate"/>
            <path id="Tracé_8152" data-name="Tracé 8152" d="M437.432,237.583s.656,3.721-8.384,3.424Z" transform="translate(-53.194 -42.073)" opacity="0.1" style="isolation: isolate"/>
            <path id="Tracé_8153" data-name="Tracé 8153" d="M493.564,167.644l3.277-.3s3.574,2.681,6.255,2.681,4.319,3.425,4.319,3.425a48.252,48.252,0,0,0,5.957,2.383c1.489.3,4.021,1.787,3.276,2.383s.149,1.936,1.489,2.978,3.425,6.4,1.638,7.148-6.7,2.234-8.042,2.979a3.7,3.7,0,0,1-2.979,0s-7.89-10.276-11.912-8.34-9.533,1.936-9.533,1.936l-4.319-9.084Z" transform="translate(-70.307 -19.791)" opacity="0.1" style="isolation: isolate"/>
            <path id="Tracé_8154" data-name="Tracé 8154" d="M397.195,217.547a3.984,3.984,0,0,0,2.776,1.93,21.041,21.041,0,0,0,8.673-.8s-15-4.766-.556-16.355h-3.873l-1.29-.489.59-3.086.849-27.819-3.127-.745s-2.517,18.318-3.119,20.552-1.051,10.872-1.051,10.872a25.147,25.147,0,0,1-1.489,5.361C394.9,208.31,395.077,214.368,397.195,217.547Z" transform="translate(-42.464 -20.691)" fill="#4e4c60"/>
            <path id="Tracé_8155" data-name="Tracé 8155" d="M398.981,232.253a3.984,3.984,0,0,0,2.776,1.93,21.044,21.044,0,0,0,8.674-.8s-15-4.766-.557-16.355H406l-1.29-.489C402.591,220.294,399.252,226.978,398.981,232.253Z" transform="translate(-43.655 -35.397)" opacity="0.1" style="isolation: isolate"/>
            <path id="Tracé_8156" data-name="Tracé 8156" d="M398.109,232.253a3.984,3.984,0,0,0,2.776,1.93,21.041,21.041,0,0,0,8.673-.8s-15-4.766-.556-16.355h-3.873l-1.29-.489C401.719,220.294,398.38,226.978,398.109,232.253Z" transform="translate(-43.378 -35.397)" fill="none"/>
            <path id="Tracé_8157" data-name="Tracé 8157" d="M398.109,232.253a3.984,3.984,0,0,0,2.776,1.93,21.041,21.041,0,0,0,8.673-.8s-15-4.766-.556-16.355h-3.873l-1.29-.489C401.719,220.294,398.38,226.978,398.109,232.253Z" transform="translate(-43.378 -35.397)" fill="#67647e"/>
            <path id="Tracé_8158" data-name="Tracé 8158" d="M427.442,156.3a13.553,13.553,0,0,0,15.339-2.913c-.068-.218-.134-.429-.193-.638a16.374,16.374,0,0,1-.6-3.428s-16.829-5.957-13.553,0A5.645,5.645,0,0,1,427.442,156.3Z" transform="translate(-52.684 -13.233)" opacity="0.1" style="isolation: isolate"/>
            <path id="Tracé_8159" data-name="Tracé 8159" d="M415.808,135.529v.131c.005.44.029.875.074,1.3.044.411.107.819.184,1.219a13.556,13.556,0,0,0,26.113,1.751c.089-.262.173-.527.244-.8a13.5,13.5,0,0,0,.489-3.61c0-.313-.012-.625-.033-.933a13.552,13.552,0,0,0-27.072.933Z" transform="translate(-48.993 -5.398)" fill="#ffb8b8"/>
            <path id="Tracé_8160" data-name="Tracé 8160" d="M415.808,135.66a5.876,5.876,0,0,1,.074,1.3,4.978,4.978,0,0,0,.038.706,2.086,2.086,0,0,0,.146.513c.548,1.286,2.335,2.117,3.515,1.29a3.816,3.816,0,0,0,1.058-1.385c1.251-2.326,2.993-5,5.733-5.048a13.037,13.037,0,0,1,3.4.759,3.639,3.639,0,0,0,3.312-.447c.646-.59.953-1.6,1.823-1.808s1.668.589,2.067,1.37.715,1.7,1.523,2.1c.357.179.777.229,1.129.42,1.62.888.876,4,2.558,4.5a1.315,1.315,0,0,0,.161.039c.027-.277.057-.557.083-.834q.228-2.269.456-4.542a13.552,13.552,0,0,0-27.072.933Z" transform="translate(-48.993 -5.398)" opacity="0.1" style="isolation: isolate"/>
            <path id="Tracé_8161" data-name="Tracé 8161" d="M437.27,110.309c1.592.675,3.25,1.713,3.608,3.339a13.17,13.17,0,0,1,.075,2.183,17.359,17.359,0,0,0,1.22,4.234,4.705,4.705,0,0,1-.289,4.241c-.28.374-.649.684-.9,1.075a4.389,4.389,0,0,0-.52,1.973l-.736,7.331c-1.89-.352-1.049-3.627-2.72-4.54-.351-.191-.769-.243-1.128-.421-.806-.4-1.122-1.321-1.522-2.1s-1.186-1.579-2.068-1.368-1.174,1.219-1.821,1.808a3.635,3.635,0,0,1-3.314.446,13.13,13.13,0,0,0-3.394-.761c-2.741.046-4.484,2.723-5.735,5.049a3.793,3.793,0,0,1-1.057,1.387c-1.331.935-3.432-.242-3.66-1.8-.128-.874.145-1.85-.36-2.59-.518-.759-1.595-.9-2.45-1.294-2.176-1-2.851-3.72-2.489-6,.261-1.643.915-3.334.38-4.914-.184-.545-.5-1.043-.674-1.591a4.3,4.3,0,0,1,1.53-4.313,12.516,12.516,0,0,1,4.419-2.218,50.812,50.812,0,0,1,12.65-2.956c1.893-.123,4.372-.715,5.875.464A20.064,20.064,0,0,0,437.27,110.309Z" transform="translate(-46.381 -0.408)" fill="#3f3d56"/>
            <circle id="Ellipse_222" data-name="Ellipse 222" cx="0.745" cy="0.745" r="0.745" transform="translate(386.602 151.622)" opacity="0.1" style="isolation: isolate"/>
            <circle id="Ellipse_223" data-name="Ellipse 223" cx="0.745" cy="0.745" r="0.745" transform="translate(386.602 151.324)" fill="#444053"/>
            <circle id="Ellipse_224" data-name="Ellipse 224" cx="0.745" cy="0.745" r="0.745" transform="translate(391.368 198.385)" opacity="0.1" style="isolation: isolate"/>
            <circle id="Ellipse_225" data-name="Ellipse 225" cx="0.745" cy="0.745" r="0.745" transform="translate(391.368 198.087)" fill="#444053"/>
            <circle id="Ellipse_226" data-name="Ellipse 226" cx="0.745" cy="0.745" r="0.745" transform="translate(388.836 210.746)" opacity="0.1" style="isolation: isolate"/>
            <circle id="Ellipse_227" data-name="Ellipse 227" cx="0.745" cy="0.745" r="0.745" transform="translate(388.836 210.448)" fill="#444053"/>
            <path id="Tracé_8162" data-name="Tracé 8162" d="M411.325,191.625s-1.638,11.124,0,13.06S411.325,191.625,411.325,191.625Z" transform="translate(-47.34 -27.493)" opacity="0.1" style="isolation: isolate"/>
            <path id="Tracé_8163" data-name="Tracé 8163" d="M480.99,221.878s3.128,6.737,0,13.2-5.063,9.083-4.021,13.208S480.99,221.878,480.99,221.878Z" transform="translate(-68.306 -37.091)" opacity="0.1" style="isolation: isolate"/>
            <path id="Tracé_8164" data-name="Tracé 8164" d="M265.657,398.9c4.617,3.128,11.616,1.639,11.616,1.639s10.574-5.064,13.7-5.064,10.723-3.127,10.723-3.127l-.256-2.109c-3.086.6-10.1,2.011-10.914,2.7-1.042.894-13.85,5.213-13.85,5.213s-8.721-1.09-11.149-4.673C263.924,395.136,263.242,397.262,265.657,398.9Z" transform="translate(-0.858 -90.502)" opacity="0.1" style="isolation: isolate"/>
            <g id="Groupe_4485" data-name="Groupe 4485" transform="translate(361.192 113.746)" opacity="0.1">
              <path id="Tracé_8165" data-name="Tracé 8165" d="M456.461,118.313c-.008-.162-.008-.324-.006-.485.014.185.016.371.014.558C456.466,118.361,456.462,118.337,456.461,118.313Z" transform="translate(-423.08 -117.828)"/>
              <path id="Tracé_8166" data-name="Tracé 8166" d="M410.66,134.412c.855.394,1.932.535,2.45,1.294.5.74.231,1.716.36,2.59.228,1.561,2.33,2.739,3.66,1.8a3.793,3.793,0,0,0,1.057-1.387c1.252-2.326,2.994-5,5.735-5.049a13.137,13.137,0,0,1,3.394.761,3.635,3.635,0,0,0,3.314-.446c.647-.589.953-1.6,1.82-1.808.883-.211,1.669.589,2.069,1.368s.716,1.7,1.522,2.1c.358.178.777.23,1.128.421,1.671.913.83,4.188,2.72,4.54q.368-3.665.736-7.331a4.381,4.381,0,0,1,.52-1.973c.251-.392.621-.7.9-1.075a3.284,3.284,0,0,0,.612-1.576,3.807,3.807,0,0,1-.612,2.767c-.28.374-.65.684-.9,1.075a4.381,4.381,0,0,0-.52,1.973q-.368,3.665-.736,7.331c-1.891-.352-1.049-3.627-2.72-4.54-.351-.191-.769-.243-1.128-.421-.806-.4-1.122-1.321-1.522-2.1s-1.186-1.579-2.069-1.368c-.867.207-1.174,1.219-1.82,1.808a3.635,3.635,0,0,1-3.314.446,13.137,13.137,0,0,0-3.394-.761c-2.741.046-4.484,2.723-5.735,5.049a3.793,3.793,0,0,1-1.057,1.387c-1.331.935-3.432-.242-3.66-1.8-.128-.874.145-1.85-.36-2.59-.518-.759-1.595-.9-2.45-1.294-1.99-.917-2.722-3.268-2.556-5.405A4.858,4.858,0,0,0,410.66,134.412Z" transform="translate(-407.734 -121.26)"/>
              <path id="Tracé_8167" data-name="Tracé 8167" d="M407.714,118.608c.171.549.49,1.047.675,1.591a4.58,4.58,0,0,1,.169,1.958,3.819,3.819,0,0,0-.169-.767c-.184-.545-.5-1.043-.675-1.591a3.3,3.3,0,0,1-.087-1.554A3.179,3.179,0,0,0,407.714,118.608Z" transform="translate(-407.573 -117.96)"/>
            </g>
            <path id="Tracé_8168" data-name="Tracé 8168" d="M463.306,208.842c3.425-.751,11.468-3.122,11.468-3.122s.545-.111,1.439-.289c-.021-5-.268-9.841-.36-11.483l-.036.006s-6.851,2.234-8.489,3.425-6.7.893-6.7.893a22.957,22.957,0,0,0-14.446,7.744C439.626,213.315,459.88,209.592,463.306,208.842Z" transform="translate(-58.217 -28.231)" opacity="0.1" style="isolation: isolate"/>
            <path id="Tracé_8169" data-name="Tracé 8169" d="M496.779,194.368a1.987,1.987,0,0,1,.447,3.339c-1.814,1.5-4.464,3.3-6.991,3.554-4.218.424-14.372,2.461-15.38,2.664-.055.011-.107.024-.16.04-.838.246-8.162,2.391-11.389,3.1-3.425.75-23.679,4.474-17.126-2.824a23.165,23.165,0,0,1,14.3-7.732,1.759,1.759,0,0,1,.262-.005c.766.036,5.095.184,6.585-.9a14.036,14.036,0,0,1,2.465-1.227,47.309,47.309,0,0,1,10.068-2.9l7.006-1.221a2.014,2.014,0,0,1,1.18.15Z" transform="translate(-58.217 -27.048)" fill="#ffb8b8"/>
            <path id="Tracé_8170" data-name="Tracé 8170" d="M494.437,167.644l3.276-.3s3.574,2.681,6.255,2.681,4.319,3.425,4.319,3.425a48.208,48.208,0,0,0,5.957,2.383c1.489.3,4.021,1.787,3.276,2.383s.149,1.936,1.49,2.978,3.425,6.4,1.638,7.148-6.7,2.234-8.042,2.979a3.694,3.694,0,0,1-2.978,0s-7.89-10.276-11.913-8.34-9.533,1.936-9.533,1.936l-4.319-9.084Z" transform="translate(-70.583 -19.791)" fill="#4e4c60"/>
          </g>
          <g id="Groupe_4488" data-name="Groupe 4488" transform="translate(308.065 -418.157)">
            <path id="Tracé_8171" data-name="Tracé 8171" d="M120.084,612.247S112,614.2,108.8,617.861a10.89,10.89,0,0,1-4.3,2.735v-5.532c1.849-3.106,3.714-6.561,3.714-6.561.084-.17.758-2.552.758-2.552,1.516-1.191-.084-5.359-.084-5.359s.926-2.637.421-3.147-.085-1.871.337-2.467a3.082,3.082,0,0,0,.337-1.871c0-.511-.673-1.276-1.769-1.7s.084-1.106.758-1.276.842-1.786.084-2.637.084-1.361.506-2.3-1.348-.766-1.348-.766v-8.59h0s-.506-2.807-1.011-7.743-2.443-5.443-2.443-5.443a21.969,21.969,0,0,1-3.032-1.192,20.79,20.79,0,0,0-3.2-1.189,16.458,16.458,0,0,1-4.126-.572,12.644,12.644,0,0,0-2.817-.61c-.1-.048-.2-.1-.3-.15a11.027,11.027,0,0,1-5.112-5.415c-.052-.117-.1-.232-.146-.347a12,12,0,0,0,1.347-1.786l.008-.014c0,.087,0,.173,0,.26,0,.037,0,.073,0,.11q0,.314-.009.629l0,0v.019c1.345-2.374,5.241-2.916,5.612-5.625A2.88,2.88,0,0,0,93,546.4v-.017c0-.091,0-.182-.011-.274-.05-.757-.309-1.509-.359-2.274a4.351,4.351,0,0,1,.011-.656v.012c.174-2.1,1.761-3.934,2.488-5.978a7.332,7.332,0,0,0,.379-1.7l0-.016q.026-.263.036-.528c0-.044,0-.087,0-.131,0-.122,0-.245,0-.368a7.961,7.961,0,0,0-2.629-5.748c-1.343-1.167-3.117-1.9-4.047-3.424-.434-.711-.647-1.546-1.12-2.231a5.606,5.606,0,0,0-4.074-2,23.759,23.759,0,0,1-4.621-.611c-1.049-.344-2-.954-3.062-1.261a5.861,5.861,0,0,0-6.294,2.27,11.145,11.145,0,0,1-1.678,2.428c-1.543,1.3-4.162.738-5.515,2.243a4,4,0,0,0-.737,3.1l0,.04c.007.089.015.179.024.268,0,.041.008.083.013.124l.015.133c.048.413.107.823.159,1.219.008.06.014.121.021.181.014.123.029.246.041.369.009.09.016.18.023.269q.014.167.025.335c.005.088.011.175.015.263a18.159,18.159,0,0,1-1.932,9.072c-1.274,2.5-3.169,4.8-3.5,7.6a8.031,8.031,0,0,0-.037,1.378c0,.054,0,.108.008.162.006.083.015.165.023.248s.018.19.029.285c.007.054.015.108.023.162.017.126.036.252.057.377l.014.081c.335,1.9,1.092,3.783,1.5,5.693a15.9,15.9,0,0,1,.3,2.152v.015q.024.345.033.69c.008.311,0,.623-.007.935a14.627,14.627,0,0,1-1.963.6c-1.18.171-4.635,3.233-4.382,4s-1.547,6.132-1.6,6.29l0,0h0l-2.841,19.565s-1.5,1.446-1.032,2.382a4.123,4.123,0,0,1-.091,2.552s-2.535,1.106-1.973,1.787.306,1.956-.081,2.807-1.019,2.382,0,2.637.175,3.573.175,3.573,3.555-.408,3.294,1.7c-.084.674,2.486,2.521,3.559,3.26v10.163a31.129,31.129,0,0,1-4.212-1.428c-2.19-1.021-14.487-2.978-17.182,2.892S34,637.766,35.6,638.617a10.946,10.946,0,0,1,1.853,1.786c.337.6,2.274.766,2.274.766a14.285,14.285,0,0,1,2.527,1.446c.373.376,3.451,1.354,7.1,2.115h0s-2.948,6.787,1.862,6.227,7.152-2.926,10.543-2.926c1.355,0,3.872-.189,6.406-.416a16.8,16.8,0,0,1,1.883.444,24.117,24.117,0,0,0,4.38.936s3.79,2.041,5.811,1.531a1.327,1.327,0,0,0,.46-.246l.046-.009a2.7,2.7,0,0,0,1.217-1.044,36.309,36.309,0,0,1,6.495,1.046c2.1.81,17.079-.311,17.079-.311s9.68.19,12.455,1.029,1.788-8.564-3.33-9.623A20.859,20.859,0,0,0,110.5,641a9.1,9.1,0,0,0,.967-1.176c1.844-.168,3.056-.271,3.056-.271s4.886-2.382,7.665-3.828a17.471,17.471,0,0,0,4.717-3.743s2.443-1.531,3.454-2.126,1.516-2.552,1.516-2.552C139.54,609.951,120.084,612.247,120.084,612.247ZM98.15,590.479c0-.286,0-.573,0-.858.27.195.23.5,0,.858Zm.08,6.016c.2.268.4.513.544.7.544.7-.441,1.037-.37,2.208.016.263.039.627.064,1.032h0c-.1-1.677-.188-3.068-.238-3.936Z" fill="url(#linear-gradient-2)"/>
            <path id="Tracé_8172" data-name="Tracé 8172" d="M54.387,718.027a49.773,49.773,0,0,1-6.907-2.105c-2.19-1.011-14.487-2.948-17.182,2.863S34,732.346,35.6,733.188s17.182-10.7,17.182-10.7l12.3,5.18,2.358-8.044Z" transform="translate(0 -94.686)" fill="#1c1d22"/>
            <rect id="Rectangle_285" data-name="Rectangle 285" width="53.506" height="18.614" rx="9.307" transform="translate(59.587 624.941)" fill="#65617d"/>
            <path id="Tracé_8173" data-name="Tracé 8173" d="M141.143,733.47a9.308,9.308,0,0,1-9.306,9.309H96.944a9.308,9.308,0,0,1,0-18.615h34.893a9.307,9.307,0,0,1,9.306,9.306Z" transform="translate(-28.05 -99.223)" opacity="0.56" style="isolation: isolate"/>
            <path id="Tracé_8174" data-name="Tracé 8174" d="M101.588,743.241a44.477,44.477,0,0,1-9.742,1.316C87.468,744.5,66.987,753,66.987,753s-2.948,6.721,1.862,6.166,7.152-2.9,10.543-2.9S93.449,755.1,93.449,755.1l10.265-7.584Z" transform="translate(-17.627 -108.449)" fill="#fbbebe"/>
            <path id="Tracé_8175" data-name="Tracé 8175" d="M117.67,597.913l-9.624,1.9-.624.124s-7.608-2.021-7.861-2.191-7.158-9.476-7.158-9.476a13.935,13.935,0,0,0,6.236-1.544c.1-.055.195-.116.291-.177a6.071,6.071,0,0,0,2.6-3.179c.048-.139.091-.283.132-.432a8.546,8.546,0,0,0-.081-4.144c-.93-3.927,1.225-5.008,4.1-4.914,4.149.136,9.8,2.727,9.8,2.727a11.5,11.5,0,0,0,.887,3.841c.045.114.1.227.147.344a10.966,10.966,0,0,0,5.112,5.362c.1.05.2.1.3.149.306.147.629.286.966.412C130.221,589.491,117.67,597.913,117.67,597.913Z" transform="translate(-30.351 -26.541)" fill="#fbbebe"/>
            <path id="Tracé_8176" data-name="Tracé 8176" d="M124.9,580.789a12.131,12.131,0,0,1-14.982,2.58,8.154,8.154,0,0,0,.051-4.576c-2.274-9.6,13.9-2.188,13.9-2.188A11.649,11.649,0,0,0,124.9,580.789Z" transform="translate(-38.742 -26.542)" opacity="0.1" style="isolation: isolate"/>
            <path id="Tracé_8177" data-name="Tracé 8177" d="M122.257,559.387a12.066,12.066,0,0,1-1.837,6.418,11.89,11.89,0,0,1-1.347,1.769,12.072,12.072,0,0,1-8.212,3.919c-.242.015-.487.023-.733.023a12.129,12.129,0,1,1,12.129-12.129Z" transform="translate(-33.058 -13.67)" fill="#fbbebe"/>
            <path id="Tracé_8178" data-name="Tracé 8178" d="M117.67,609.412l-9.624,1.9-.624.124s-7.608-2.021-7.861-2.191-7.158-9.476-7.158-9.476a13.936,13.936,0,0,0,6.236-1.544c.1-.055.195-.116.291-.177a11.3,11.3,0,0,0,8.21,3.59,11.772,11.772,0,0,0,1.713-.136c1.355-.207,2.719-.341,4.081-.483,2.607-.273,6.6-1.064,8.692-3.368.1.05.2.1.3.149.306.147.629.286.966.412C130.221,600.99,117.67,609.412,117.67,609.412Z" transform="translate(-30.351 -38.04)" opacity="0.1" style="isolation: isolate"/>
            <path id="Tracé_8179" data-name="Tracé 8179" d="M117.886,634.145c.084,1.855,1.433,22.742,1.433,22.742H77.288l.285-13.15.23-10.519.076-3.451.336-11.96L77,616.735,70.382,610.9l0,0c.051-.157,1.847-5.481,1.6-6.229s3.2-3.79,4.382-3.96a14.872,14.872,0,0,0,1.976-.6c1.986-.7,4.637-1.724,4.93-1.564a29.941,29.941,0,0,0,4.72-.18h.005a11.271,11.271,0,0,0,8.5,3.919,11.688,11.688,0,0,0,1.713-.137c1.354-.207,2.719-.341,4.081-.482,2.739-.286,7-1.145,9-3.725a12.771,12.771,0,0,1,2.817.6,16.564,16.564,0,0,0,4.126.566,20.852,20.852,0,0,1,3.2,1.177,22.205,22.205,0,0,0,3.032,1.18s1.938.506,2.444,5.39,1.011,7.666,1.011,7.666L117.886,623.2S117.8,632.293,117.886,634.145Z" transform="translate(-19.702 -38.179)" fill="#0099d5"/>
            <path id="Tracé_8180" data-name="Tracé 8180" d="M68.962,689.568l1.473,2.358,5.518,1.945,3.79-6.914L76.249,684.6l-5.6-2.189-3.2,1.853Z" transform="translate(-18.282 -79.03)" fill="#fbbebe"/>
            <path id="Tracé_8181" data-name="Tracé 8181" d="M160.855,709.538s7.833-.59,11.034-4.212,11.286-5.559,11.286-5.559,19.457-2.274,11.792,14.908c0,0-.506,1.937-1.516,2.527S190,719.308,190,719.308L160.1,716.7Z" transform="translate(-63.091 -87.377)" fill="#1c1d22"/>
            <path id="Tracé_8182" data-name="Tracé 8182" d="M161.914,735.679a9.28,9.28,0,0,1-1.549,5.145c-5.029.447-16.167,1.493-18.5,2.142-2.863.794-8.657-.589-9.291-.745l-.058-.013s-1.116-3.389-1.65-5.556c-.24-.985-.361-1.718-.2-1.771.505-.169,5.14-1.433,5.053-.718s13.9-5.432,13.9-5.432l.43,5.391C151.471,735.756,161.914,733.339,161.914,735.679Z" transform="translate(-48.821 -101.431)" opacity="0.1" style="isolation: isolate"/>
            <path id="Tracé_8183" data-name="Tracé 8183" d="M176.79,731.411l-.59,2.19a17.44,17.44,0,0,1-4.717,3.706c-2.779,1.432-7.665,3.79-7.665,3.79s-17.94,1.516-20.973,2.358-9.349-.758-9.349-.758-2.358-7.159-1.853-7.328,5.138-1.431,5.054-.716,13.9-5.432,13.9-5.432Z" transform="translate(-49.294 -101.669)" fill="#1c1d22"/>
            <path id="Tracé_8184" data-name="Tracé 8184" d="M122.412,762.423s8.817.617,10.913,1.418,17.079-.308,17.079-.308,9.68.188,12.455,1.019,1.788-8.48-3.33-9.527-12.331.493-12.331.493-8.139-1.048-9.125-1.172-7.49.06-7.49.06Z" transform="translate(-44.864 -113.799)" fill="#fbbebe"/>
            <path id="Tracé_8185" data-name="Tracé 8185" d="M55.31,725.014s11.653,1.048,14.859,2.959Z" transform="translate(-12.413 -99.634)" opacity="0.1" style="isolation: isolate"/>
            <path id="Tracé_8186" data-name="Tracé 8186" d="M184.187,710.208s-9.125,2.22-12.7,5.488Z" transform="translate(-68.596 -92.474)" opacity="0.1" style="isolation: isolate"/>
            <path id="Tracé_8187" data-name="Tracé 8187" d="M56.623,719.88c.185.061,5.364.74,5.241,1.233S56.623,719.88,56.623,719.88Z" transform="translate(-13.048 -97.151)" opacity="0.1" style="isolation: isolate"/>
            <path id="Tracé_8188" data-name="Tracé 8188" d="M40.86,740.154l.674,2.527a10.922,10.922,0,0,1,1.853,1.769c.337.59,2.274.758,2.274.758a14.327,14.327,0,0,1,2.527,1.432c.506.505,5.98,2.105,11.118,2.779s14.656,1.938,16.677,2.611a24.291,24.291,0,0,0,4.38.927s3.79,2.021,5.812,1.516,5.475-9.687,5.475-9.687S78.341,741.67,77.92,740.66,64.7,734.935,64.7,734.935l-7.58.179Z" transform="translate(-5.424 -104.432)" opacity="0.1" style="isolation: isolate"/>
            <path id="Tracé_8189" data-name="Tracé 8189" d="M39.881,736.618l.674,2.527a10.907,10.907,0,0,1,1.853,1.769c.337.59,2.274.758,2.274.758a14.3,14.3,0,0,1,2.527,1.432c.506.505,5.98,2.106,11.118,2.779S72.983,747.82,75,748.494a24.3,24.3,0,0,0,4.38.926s3.79,2.022,5.811,1.516,5.475-9.686,5.475-9.686-13.308-3.116-13.729-4.128-19.2-8.675-19.2-8.675l-5.9-1.348Z" transform="translate(-4.951 -100.643)" fill="#1c1d22"/>
            <path id="Tracé_8190" data-name="Tracé 8190" d="M65.7,621.406l-1.473.842-2.841,19.372s-1.5,1.432-1.032,2.358a4.045,4.045,0,0,1-.091,2.527s-2.535,1.1-1.973,1.769.306,1.937-.081,2.779-1.019,2.358,0,2.611.175,3.537.175,3.537,3.555-.4,3.294,1.685c-.105.842,4.021,3.538,4.021,3.538s-4.689-8.507,5.814-7.328l.9-4.8s.9-2.7,0-3.542.2-4.843.2-4.843l.2-17.393Z" transform="translate(-13.549 -49.528)" fill="#0099d5"/>
            <path id="Tracé_8191" data-name="Tracé 8191" d="M68.8,669.851c.185.308,5.857.937,6.227,1.948S68.8,669.851,68.8,669.851Z" transform="translate(-18.937 -72.957)" opacity="0.1" style="isolation: isolate"/>
            <path id="Tracé_8192" data-name="Tracé 8192" d="M65.339,677.268s.769-2.4,2.6-1.973S65.339,677.268,65.339,677.268Z" transform="translate(-17.263 -75.564)" opacity="0.1" style="isolation: isolate"/>
            <path id="Tracé_8193" data-name="Tracé 8193" d="M63.429,683.186s1.357-3.206,3.206-2.959S63.429,683.186,63.429,683.186Z" transform="translate(-16.339 -77.968)" opacity="0.1" style="isolation: isolate"/>
            <path id="Tracé_8194" data-name="Tracé 8194" d="M167.545,682.127l-.59,3.537s-6.064,11.118-7.159,11.287-7.075-7.412-7.075-7.412l-1.6-7.412,6.3-1.194,2.8-2.765S167.293,678.842,167.545,682.127Z" transform="translate(-58.748 -76.979)" fill="#fbbebe"/>
            <path id="Tracé_8195" data-name="Tracé 8195" d="M169.025,625.577l2.274,1.6v8.507s1.769-.168,1.348.758-1.264,1.432-.506,2.274.59,2.443-.084,2.611-1.853.842-.758,1.264,1.769,1.179,1.769,1.685a3.023,3.023,0,0,1-.337,1.853c-.421.59-.842,1.938-.337,2.443s-.421,3.116-.421,3.116,1.6,4.128.084,5.307c0,0-.674,2.358-.758,2.527,0,0,1.062-8.2-9.535-4.732,0,0-.2-3.125-.269-4.284s.914-1.5.37-2.187-1.907-2.274-1.264-2.7.421-1.179.169-1.769-1.145-.589-.338-1.305,1.284-1.388.811-1.726-1.3-1.435-.642-1.938.674-7.833.674-7.833S163.971,620.27,169.025,625.577Z" transform="translate(-63.091 -50.835)" fill="#0099d5"/>
            <path id="Tracé_8196" data-name="Tracé 8196" d="M175.306,654.65s3.239-.878,3.346,0S175.306,654.65,175.306,654.65Z" transform="translate(-70.444 -65.417)" opacity="0.1" style="isolation: isolate"/>
            <path id="Tracé_8197" data-name="Tracé 8197" d="M168.262,659.163s4.439-1.11,4.994-.246S168.262,659.163,168.262,659.163Z" transform="translate(-67.037 -67.51)" opacity="0.1" style="isolation: isolate"/>
            <path id="Tracé_8198" data-name="Tracé 8198" d="M166.351,663.951s6.659-.925,7.091.432S166.351,663.951,166.351,663.951Z" transform="translate(-66.113 -69.955)" opacity="0.1" style="isolation: isolate"/>
            <path id="Tracé_8199" data-name="Tracé 8199" d="M168.262,669.851c.246.061,6.412.493,6.535,1.665S168.262,669.851,168.262,669.851Z" transform="translate(-67.037 -72.957)" opacity="0.1" style="isolation: isolate"/>
            <rect id="Rectangle_286" data-name="Rectangle 286" width="52.802" height="29.991" rx="10.467" transform="translate(51.691 600.691)" fill="#3f3d56"/>
            <circle id="Ellipse_228" data-name="Ellipse 228" cx="1.948" cy="1.948" r="1.948" transform="translate(76.145 613.739)" fill="#e7effd"/>
            <path id="Tracé_8200" data-name="Tracé 8200" d="M89.466,641.608s5.061,3.868,8.974.92C98.44,642.528,91.824,643.13,89.466,641.608Z" transform="translate(-28.931 -59.298)" opacity="0.1" style="isolation: isolate"/>
            <path id="Tracé_8201" data-name="Tracé 8201" d="M139.093,643.621s5.061,3.868,8.974.921C148.067,644.542,141.451,645.143,139.093,643.621Z" transform="translate(-52.931 -60.272)" opacity="0.1" style="isolation: isolate"/>
            <path id="Tracé_8202" data-name="Tracé 8202" d="M112.16,559.385a12.066,12.066,0,0,1-1.837,6.418,18.486,18.486,0,0,0-2.734-9.576c-1.683-2.585-6.8-7.116-10.314-5.855a2.5,2.5,0,0,0-1.536,1.652c-.349,1.324.672,1.875,1.327,2.929a8.969,8.969,0,0,1,1.225,6.052,8.431,8.431,0,0,1-.177.839c-.553,2.077-1.822,4.455-.513,6.16.912,1.188,2.873,1.6,3.138,3.07a1.767,1.767,0,0,1,.025.417c-.06.99-.907,1.865-1.276,2.84a4.664,4.664,0,0,0,.26,3.439,22.1,22.1,0,0,1,1.744,4.611,9.115,9.115,0,0,1-.837,4.556,20.413,20.413,0,0,0-1.39,4.288c-.407,2.8.619,6.037-1.142,8.25a1.232,1.232,0,0,1-.77.521c-1.13.119-.938-1.911-1.845-2.593a7.938,7.938,0,0,1-.24,3.513,2.7,2.7,0,0,1-2.712,1.854q-.2-1.322-.4-2.648a7.636,7.636,0,0,1-2.8,1.756,20.442,20.442,0,0,1,2.926-7.927c-2.967,1.428-4.7,4.521-6.239,7.426-.963,1.817-1.959,3.8-1.622,5.832.136.826.493,1.612.571,2.446a2.034,2.034,0,0,1-1,2.122,1.809,1.809,0,0,1-1.953-.606c-.028-.033-.056-.066-.084-.1a2.032,2.032,0,0,1-.134-.189,2.976,2.976,0,0,1-.225-.4,7.741,7.741,0,0,1-.475-1.549l-.053-.227c-.783-3.444-1.491-6.995-.917-10.477a19.68,19.68,0,0,0,.553-3.856,7.129,7.129,0,0,0-.439-2.15c-.687-1.926-2.011-3.7-2.767-5.637a.315.315,0,0,1-.018-.043,3.1,3.1,0,0,1,.141-3.135,6.391,6.391,0,0,1,1.408-.953,6.348,6.348,0,0,0,2.39-4.5A15.115,15.115,0,0,0,81.6,575.6c1.986-.7,4.637-1.724,4.93-1.564a29.875,29.875,0,0,0,4.72-.18,6.173,6.173,0,0,0,2.893-3.356c.048-.139.091-.283.132-.432a12.13,12.13,0,1,1,17.887-10.678Z" transform="translate(-22.961 -13.668)" opacity="0.1" style="isolation: isolate"/>
            <path id="Tracé_8203" data-name="Tracé 8203" d="M98.113,548.662c-.555,2.078-1.821,4.455-.512,6.161.912,1.189,2.873,1.6,3.136,3.072.209,1.167-.83,2.148-1.25,3.257-1,2.646,1.607,5.248,2,8.049.43,3.038-1.784,5.808-2.226,8.845-.406,2.8.62,6.036-1.142,8.248a1.222,1.222,0,0,1-.77.521c-1.129.12-.938-1.909-1.846-2.591a7.9,7.9,0,0,1-.239,3.512,2.7,2.7,0,0,1-2.711,1.854l-.4-2.649A7.662,7.662,0,0,1,89.35,588.7a20.455,20.455,0,0,1,2.926-7.927c-2.965,1.428-4.695,4.519-6.237,7.427-.964,1.816-1.959,3.8-1.623,5.83.137.827.493,1.612.571,2.447a2.032,2.032,0,0,1-1,2.122,1.838,1.838,0,0,1-2.036-.706,5.327,5.327,0,0,1-.833-2.139c-.8-3.516-1.558-7.146-.97-10.7a19.649,19.649,0,0,0,.552-3.855c-.1-2.844-2.2-5.175-3.225-7.83a3.1,3.1,0,0,1,.142-3.137,6.421,6.421,0,0,1,1.409-.952,6.348,6.348,0,0,0,2.391-4.494,15.584,15.584,0,0,0-.159-5.627c-.592-2.77-1.948-5.474-1.612-8.286.33-2.766,2.225-5.046,3.5-7.524a17.809,17.809,0,0,0,1.8-10.4c-.219-1.661-.6-3.584.524-4.825,1.352-1.49,3.971-.93,5.515-2.22a11.043,11.043,0,0,0,1.678-2.4,5.892,5.892,0,0,1,6.294-2.247c1.06.3,2.013.908,3.062,1.249a23.952,23.952,0,0,0,4.621.6,5.626,5.626,0,0,1,4.073,1.983c.473.678.686,1.505,1.12,2.209.93,1.508,2.7,2.234,4.047,3.39a7.856,7.856,0,0,1,2.211,8.391c-.8,2.233-2.657,4.206-2.5,6.574a14.447,14.447,0,0,1,.344,2.891c-.371,2.682-4.267,3.219-5.612,5.569a19.264,19.264,0,0,0-2.736-11.056c-1.684-2.586-6.8-7.116-10.314-5.855a2.5,2.5,0,0,0-1.537,1.653c-.348,1.324.671,1.874,1.326,2.929A8.907,8.907,0,0,1,98.113,548.662Z" transform="translate(-22.96 -0.992)" fill="#3f3d56"/>
            <g id="Groupe_4487" data-name="Groupe 4487" transform="translate(54.17 529.172)" opacity="0.2">
              <path id="Tracé_8204" data-name="Tracé 8204" d="M83.908,590.43a15.582,15.582,0,0,0-.336-3.606c-.5-2.355-1.555-4.663-1.654-7.03-.135,2.635,1.1,5.182,1.654,7.788A15.544,15.544,0,0,1,83.908,590.43Z" transform="translate(-79.446 -558.576)"/>
              <path id="Tracé_8205" data-name="Tracé 8205" d="M98.4,636.383c.205-.376.418-.748.647-1.111-2.965,1.428-4.694,4.519-6.237,7.427-.893,1.681-1.809,3.509-1.674,5.381a12.116,12.116,0,0,1,1.674-4.623C94.239,640.768,95.828,637.925,98.4,636.383Z" transform="translate(-83.903 -585.406)"/>
              <path id="Tracé_8206" data-name="Tracé 8206" d="M87.614,658.488a1.788,1.788,0,0,1-.986,1.478,1.837,1.837,0,0,1-2.036-.706,5.322,5.322,0,0,1-.833-2.139,38.067,38.067,0,0,1-1.173-7.648,34.964,34.964,0,0,0,1.173,8.406,5.322,5.322,0,0,0,.833,2.139,1.838,1.838,0,0,0,2.036.706,2.032,2.032,0,0,0,1-2.122C87.625,658.564,87.619,658.526,87.614,658.488Z" transform="translate(-79.771 -592.274)"/>
              <path id="Tracé_8207" data-name="Tracé 8207" d="M117.032,569.624a8.43,8.43,0,0,1-.273,1.79c-.411,1.54-1.212,3.245-1.067,4.719a25.277,25.277,0,0,1,1.067-3.961A8.549,8.549,0,0,0,117.032,569.624Z" transform="translate(-95.776 -553.658)"/>
              <path id="Tracé_8208" data-name="Tracé 8208" d="M92.207,543.427a17.517,17.517,0,0,0-.145-2.688c-.087-.656-.2-1.353-.232-2.034a15.191,15.191,0,0,0,.232,2.792A17.48,17.48,0,0,1,92.207,543.427Z" transform="translate(-84.243 -538.706)"/>
              <path id="Tracé_8209" data-name="Tracé 8209" d="M121.474,592.382c0-.021-.011-.039-.015-.059a19.671,19.671,0,0,1-1.234,2.558,3.6,3.6,0,0,0-.207,1.648,3.445,3.445,0,0,1,.207-.89C120.643,594.53,121.682,593.549,121.474,592.382Z" transform="translate(-97.865 -564.636)"/>
              <path id="Tracé_8210" data-name="Tracé 8210" d="M80.708,627.542c-.1-2.844-2.2-5.175-3.225-7.83a5.269,5.269,0,0,1-.329-1.3,4.369,4.369,0,0,0,.329,2.053c1.007,2.611,3.049,4.909,3.214,7.69C80.709,627.954,80.715,627.749,80.708,627.542Z" transform="translate(-77.139 -577.255)"/>
              <path id="Tracé_8211" data-name="Tracé 8211" d="M124.962,556.528c-1.684-2.586-6.8-7.116-10.314-5.855a2.5,2.5,0,0,0-1.537,1.653,1.789,1.789,0,0,0-.027.886c.009-.043.015-.084.027-.128a2.5,2.5,0,0,1,1.537-1.653c3.516-1.261,8.63,3.27,10.314,5.855a18.709,18.709,0,0,1,2.74,9.963A19.094,19.094,0,0,0,124.962,556.528Z" transform="translate(-94.501 -544.388)"/>
              <path id="Tracé_8212" data-name="Tracé 8212" d="M147.036,572.807c-.37,2.676-4.25,3.217-5.6,5.554q0,.387-.009.773c1.345-2.351,5.241-2.887,5.612-5.569a3.3,3.3,0,0,0,0-.795C147.037,572.782,147.038,572.794,147.036,572.807Z" transform="translate(-108.228 -555.18)"/>
              <path id="Tracé_8213" data-name="Tracé 8213" d="M154.114,552.52c-.8,2.233-2.657,4.206-2.5,6.573,0,.035.008.07.011.1.174-2.084,1.761-3.9,2.488-5.919a7.435,7.435,0,0,0,.412-2.885A7.311,7.311,0,0,1,154.114,552.52Z" transform="translate(-113.152 -544.358)"/>
              <path id="Tracé_8214" data-name="Tracé 8214" d="M115.344,642.447a1.223,1.223,0,0,1-.77.521c-1.129.12-.937-1.909-1.845-2.591.022.269.043.54.059.811.838.725.684,2.655,1.786,2.537a1.223,1.223,0,0,0,.771-.521,6.767,6.767,0,0,0,1.077-4.515A5.954,5.954,0,0,1,115.344,642.447Z" transform="translate(-94.35 -587.059)"/>
              <path id="Tracé_8215" data-name="Tracé 8215" d="M106.722,647.224a2.7,2.7,0,0,1-2.711,1.854q-.2-1.325-.4-2.649a7.676,7.676,0,0,1-2.665,1.7c-.051.27-.1.54-.14.812a7.665,7.665,0,0,0,2.805-1.757q.2,1.324.4,2.649a2.7,2.7,0,0,0,2.711-1.854,5.962,5.962,0,0,0,.311-2.4A5.093,5.093,0,0,1,106.722,647.224Z" transform="translate(-88.584 -590.394)"/>
              <path id="Tracé_8216" data-name="Tracé 8216" d="M119.9,622.817a13.551,13.551,0,0,0-.1,2.146,11.146,11.146,0,0,1,.1-1.388c.421-2.895,2.45-5.547,2.267-8.42C122.008,617.742,120.288,620.178,119.9,622.817Z" transform="translate(-97.768 -575.677)"/>
            </g>
          </g>
        </g>
        <g id="Groupe_4491" data-name="Groupe 4491" transform="translate(-12 -37)" opacity="0.19" style="mix-blend-mode: hard-light;isolation: isolate">
          <line id="Ligne_90" data-name="Ligne 90" x1="116" transform="translate(1753.5 59.5)" fill="none" stroke="#1c1d22" stroke-width="3.5"/>
          <path id="Tracé_8231" data-name="Tracé 8231" d="M116,0-1.719-.031" transform="translate(1869.5 59.5) rotate(90)" fill="none" stroke="#1c1d22" stroke-width="3.5"/>
        </g>
        <g id="Groupe_4492" data-name="Groupe 4492" transform="translate(2190.031 1033.281) rotate(180)" opacity="0.19" style="mix-blend-mode: hard-light;isolation: isolate">
          <line id="Ligne_90-2" data-name="Ligne 90" x1="116" transform="translate(1753.5 59.5)" fill="none" stroke="#1c1d22" stroke-width="3.5"/>
          <path id="Tracé_8231-2" data-name="Tracé 8231" d="M116,0-1.719-.031" transform="translate(1869.5 59.5) rotate(90)" fill="none" stroke="#1c1d22" stroke-width="3.5"/>
        </g>
      </g>
      <g id="Groupe_4539" data-name="Groupe 4539">
        <g id="Groupe_4538" data-name="Groupe 4538" transform="translate(-1 44)">
          <g id="Groupe_4537" data-name="Groupe 4537">
            <g id="Groupe_4496" data-name="Groupe 4496" transform="translate(1005.605 141.529)">
              <path id="Tracé_8249" data-name="Tracé 8249" d="M572.964,213.345" transform="translate(-393.999 -17.024)" fill="#00b0ff"/>
              <g id="Groupe_4498" data-name="Groupe 4498" transform="translate(-8.744 5.061)">
                <path id="Tracé_8388" data-name="Tracé 8388" d="M83.063,144.79l3.123-12.317a159.89,159.89,0,0,1,16.968-6.087l.4,5.724,1.6-6.306c7.152-2.042,12.016-2.942,12.016-2.942s-6.571,24.989-20.353,44.092l-16.06,2.822,12.476,1.8a64.789,64.789,0,0,1-5.581,5.914C67.595,196.1,45.263,204.638,37.765,196.56s2.678-29.713,22.728-48.324c6.215-5.769,14.024-10.4,21.84-14.043Z" transform="translate(84.545 -18.108)" fill="rgba(199,220,153,0.97)"/>
                <path id="Tracé_8389" data-name="Tracé 8389" d="M82.066,201.481C71.473,198.442,69,174.662,76.544,148.367c2.338-8.152,6.629-16.152,11.437-23.311l6.1,8.694-3.693-12.159a159.857,159.857,0,0,1,11.378-13.982l3.3,4.7-1.891-6.225c5.066-5.445,8.765-8.729,8.765-8.729s7.292,24.788,5.368,48.266l-12.29,10.717,11.61-4.91" transform="translate(43.824 -20.444)" fill="rgba(199,220,153,0.97)"/>
                <g id="Groupe_4497" data-name="Groupe 4497" transform="translate(55.156)">
                  <path id="Tracé_8255" data-name="Tracé 8255" d="M176.1,74.5H175.1V47.246a15.771,15.771,0,0,0-15.771-15.771H101.6A15.771,15.771,0,0,0,85.829,47.246h0v149.5A15.771,15.771,0,0,0,101.6,212.512h57.733A15.771,15.771,0,0,0,175.1,196.741h0V93.893h1Z" transform="translate(-85.829 -31.475)" fill="#1c1d22"/>
                  <path id="Tracé_8256" data-name="Tracé 8256" d="M159.6,35.234h-7.536a5.595,5.595,0,0,1-5.182,7.709H113.813a5.595,5.595,0,0,1-5.18-7.709h-7.038A11.778,11.778,0,0,0,89.815,47.012V196.286a11.778,11.778,0,0,0,11.779,11.778H159.6a11.778,11.778,0,0,0,11.778-11.778h0V47.012A11.778,11.778,0,0,0,159.6,35.234Z" transform="translate(-85.464 -31.131)" fill="#fff"/>
                </g>
              </g>
            </g>
            <g id="Groupe_4536" data-name="Groupe 4536" transform="translate(997.845 142.536)">
              <path id="Tracé_8376" data-name="Tracé 8376" d="M127.051,275.691l-2.6,5.428-22.172-7.431,3.831-8.011Z" transform="translate(-91.901 -145.258)" fill="#ffb8b8"/>
              <path id="Tracé_8377" data-name="Tracé 8377" d="M142.357,294.54l5.248-10.972h0l6.591,3.152h0l-8.159,17.059h0l-.5-.241A6.748,6.748,0,0,1,142.357,294.54Z" transform="translate(-113.45 -155.04)" fill="#2f2e41"/>
              <path id="Tracé_8378" data-name="Tracé 8378" d="M160.9,366.234l-6.013-.2-.253-23.408,7.049.416Z" transform="translate(-120.524 -187.328)" fill="#ffb8b8"/>
              <path id="Tracé_8379" data-name="Tracé 8379" d="M136.179,390.11l12.156.41h0l-.247,7.3h0l-18.9-.638h0l.019-.558A6.747,6.747,0,0,1,136.179,390.11Z" transform="translate(-106.612 -213.289)" fill="#2f2e41"/>
              <path id="Tracé_8380" data-name="Tracé 8380" d="M129.439,176.714s-18.4-4.663-26.747,2.208l-4.663,13.5-18.65,26.5,26.993,16.2,4.908-12.27L99.5,216.958l14.233-12.27-2.454,64.784,9.325,1.472S141.218,190.947,129.439,176.714Z" transform="translate(-79.379 -95.773)" fill="#1c1d22"/>
              <path id="Tracé_8381" data-name="Tracé 8381" d="M128.221,136.3l.224-.4c2.365-4.2,1.981-11.049,1.244-16.052-.618-4.19-.6-11.574-.475-17.031a8.109,8.109,0,0,1,6.464-7.805,92,92,0,0,1,16.071-1.455l0,.245,0-.245A3.737,3.737,0,0,1,155.5,97.2c.11,5.876.076,16.591-1.382,22.34-2.164,8.533,1.22,14.331,1.254,14.389l.2.341Z" transform="translate(-106.083 -51.152)" fill="#0099d5"/>
              <path id="Tracé_8382" data-name="Tracé 8382" d="M99.411,177.6a4.544,4.544,0,0,0,1.727-6.75l10.387-44.79h-7.853L94.505,169.97a4.568,4.568,0,0,0,4.906,7.632Z" transform="translate(-86.74 -68.925)" fill="#ffe1e1"/>
              <path id="Tracé_8383" data-name="Tracé 8383" d="M209.368,122.723l-17.333-16.4-4.685,6.559,11.712,10.306-15.359,12.2c-.111-.008-.222-.017-.335-.017a4.919,4.919,0,1,0,4.87,5.573l.049.048Z" transform="translate(-133.542 -58.134)" fill="#ffe1e1"/>
              <path id="Tracé_8384" data-name="Tracé 8384" d="M126.224,97.846s-10.824-1.775-11.806,6.568-1.472,8.343-1.472,8.343,7.852-1.473,9.816.49S126.224,97.846,126.224,97.846Z" transform="translate(-97.732 -53.411)" fill="#0099d5"/>
              <path id="Tracé_8385" data-name="Tracé 8385" d="M177.914,94.877s8.834-1.472,12.76,2.454,5.89,4.908,5.89,4.908-8.834,4.908-5.4,9.325c0,0-9.325-4.417-10.8-2.944S177.914,94.877,177.914,94.877Z" transform="translate(-133.253 -51.726)" fill="#0099d5"/>
              <path id="Tracé_8386" data-name="Tracé 8386" d="M157.5,14.658a8.074,8.074,0,0,1-1.9-9.7,9.6,9.6,0,0,1,8.836-4.95,11.9,11.9,0,0,1,8.985,5.1c2.9,4.085,3.509,9.763,7.364,12.96,3.483,2.889,8.472,2.806,12.991,2.576a11.237,11.237,0,0,0,4.463-.844,3.833,3.833,0,0,0,2.308-3.619c1.135,1.8.476,4.317-1.047,5.8a9.824,9.824,0,0,1-5.8,2.351,21.561,21.561,0,0,1-19.558-8.581c-1.572-2.169-2.786-4.695-4.943-6.283s-5.755-1.7-7.079.63c-.655,1.152-.591,2.6-1.193,3.777s-2.559,1.817-3.138.625" transform="translate(-120.59 0)" fill="#2f2e41"/>
              <circle id="Ellipse_238" data-name="Ellipse 238" cx="13.598" cy="13.598" r="13.598" transform="translate(22.889 11.129)" fill="#2f2e41"/>
              <circle id="Ellipse_239" data-name="Ellipse 239" cx="11.132" cy="11.132" r="11.132" transform="translate(25.272 17.125)" fill="#ffe1e1"/>
              <path id="Tracé_8387" data-name="Tracé 8387" d="M137.3,36.843c1.513.331,1.018,2.869,2.213,3.854,1.079.888,2.632-.025,3.989-.356a7.678,7.678,0,0,1,5.089.974,21.193,21.193,0,0,0,4.834,2.11c1.726.364,3.772-.046,4.74-1.521.925-1.41.585-3.311-.139-4.835a11.227,11.227,0,0,0-20.143-.279" transform="translate(-111.049 -16.762)" fill="#2f2e41"/>
            </g>
          </g>
        </g>
        <g id="Groupe_4506" data-name="Groupe 4506" transform="translate(981.169 156.002)">
          <rect id="Rectangle_291" data-name="Rectangle 291" width="17" height="17" transform="translate(82.831 67.998)" fill="#e6e6e6"/>
          <rect id="Rectangle_303" data-name="Rectangle 303" width="17" height="17" transform="translate(82.831 102.998)" fill="#e6e6e6"/>
          <rect id="Rectangle_309" data-name="Rectangle 309" width="17" height="17" transform="translate(82.831 186.998)" fill="#e6e6e6"/>
          <rect id="Rectangle_306" data-name="Rectangle 306" width="17" height="17" transform="translate(82.831 137.998)" fill="#e6e6e6"/>
          <rect id="Rectangle_308" data-name="Rectangle 308" width="17" height="17" transform="translate(107.831 186.998)" fill="#e6e6e6"/>
          <rect id="Rectangle_299" data-name="Rectangle 299" width="17" height="17" transform="translate(107.831 67.998)" fill="#e6e6e6"/>
          <rect id="Rectangle_302" data-name="Rectangle 302" width="17" height="17" transform="translate(107.831 102.998)" fill="#e6e6e6"/>
          <rect id="Rectangle_305" data-name="Rectangle 305" width="17" height="17" transform="translate(107.831 137.998)" fill="#e6e6e6"/>
          <rect id="Rectangle_307" data-name="Rectangle 307" width="17" height="17" transform="translate(132.831 186.998)" fill="#e6e6e6"/>
          <rect id="Rectangle_300" data-name="Rectangle 300" width="17" height="17" transform="translate(132.831 67.998)" fill="#e6e6e6"/>
          <rect id="Rectangle_301" data-name="Rectangle 301" width="17" height="17" transform="translate(132.831 102.998)" fill="#e6e6e6"/>
          <path id="Tracé_8390" data-name="Tracé 8390" d="M0,0H17V17H0Z" transform="translate(132.831 137.998)" fill="#a5cf4b"/>
        </g>
      </g>
    </g>
    <g id="Groupe_4503" data-name="Groupe 4503" transform="translate(183.172 623.255)">
      <path id="Tracé_8267" data-name="Tracé 8267" d="M712.608,87.772l3.245,32.09h26.706l-1.284-48.777c0-10.5-7.258-19.682-17.756-19.682S706.19,60.159,706.19,70.658l-1.711,49.2h4.354Z" transform="translate(-20.899)" fill="#2f2e41"/>
      <path id="Tracé_8268" data-name="Tracé 8268" d="M755.13,517.28s-1.153,7.3-3.074,8.453,9.99,3.842,9.99,3.842l1.921-11.527Z" transform="translate(-47.459 -261.228)" fill="#fbbebe"/>
      <path id="Tracé_8269" data-name="Tracé 8269" d="M766.181,327.478l4.226,4.995-1.921,17.29-1.537,34.2s3.074,29.585,0,30.353-16.906.384-16.521-1.537.768-3.458,1.537-6.148-.769-12.295-.769-12.295l1.921-10.758L746.2,337.083Z" transform="translate(-44.294 -154.801)" fill="#1c1d22"/>
      <path id="Tracé_8270" data-name="Tracé 8270" d="M736.963,533.463s-4.226-.769-4.611,0-7.684,8.837-8.837,8.837-9.606,7.684-.768,8.069,23.437-6.532,23.437-6.532-2.148-9.777-2.035-9.307S736.963,535.384,736.963,533.463Z" transform="translate(-28.908 -270.111)" fill="#2f2e41"/>
      <path id="Tracé_8271" data-name="Tracé 8271" d="M749.7,485.817s10.758,11.911,11.142,13.063,6.148,0,6.148,0L769.3,491.2l-1.921-2.689-10.758-8.837Z" transform="translate(-46.256 -240.139)" fill="#fbbebe"/>
      <path id="Tracé_8272" data-name="Tracé 8272" d="M777.575,503.387,772,508.631s7.108,10.893,7.108,12.046.384,10.758,4.227,9.221,4.226-16.906,4.226-16.906-.384-15.753-2.69-16.905-7.358-.789-7.358-.789S780.649,503,777.575,503.387Z" transform="translate(-58.762 -248.872)" fill="#2f2e41"/>
      <path id="Tracé_8273" data-name="Tracé 8273" d="M694.173,247.6s-1.921,6.147-2.305,7.684-2.69,5.763-2.69,12.295.768,14.216,0,14.985-13.064,43.8-7.684,48.412,23.053,19.979,24.206,21.9,1.537,6.532,3.842,5.763,11.142-8.453,11.527-9.99-4.995-4.226-4.995-4.226-10.758-15.753-13.448-15.369-2.305-1.921-1.921-3.074,1.153-1.921,0-1.921-.384-3.074,0-4.611,9.221-22.285,9.221-22.285l23.437-10.374s-1.153-28.048-9.605-35.732l-1.921-4.611S700.32,244.914,694.173,247.6Z" transform="translate(-7.25 -109.122)" fill="#1c1d22"/>
      <path id="Tracé_8274" data-name="Tracé 8274" d="M719.733,111.436s1.921,13.448-2.689,14.216-8.453.384-8.453.769,11.527,12.295,11.527,12.295l10.758-.769,9.605-10.373s-8.837-1.537-8.837-6.916-.384-9.221-.384-9.221Z" transform="translate(-23.205 -33.661)" fill="#ffb8b8"/>
      <circle id="Ellipse_232" data-name="Ellipse 232" cx="11.911" cy="11.911" r="11.911" transform="translate(690.573 59.524)" fill="#ffb8b8"/>
      <path id="Tracé_8275" data-name="Tracé 8275" d="M706.344,141.572s-18.6,1.747-19.752,6.741,7.685,36.117,8.837,38.806a8.5,8.5,0,0,1,.768,4.611,15.2,15.2,0,0,1,12.295-2.689c7.3,1.537,17.674.768,17.674.768s3.458-14.216,4.226-15.753,3.842-9.99,3.842-12.3,4.611-11.911,4.611-11.911-2.305-6.916-10.758-6.532c0,0-3.687-1.65-4.725-.441s-6.8,6.588-14.1,4.283S706.344,141.572,706.344,141.572Z" transform="translate(-10.811 -50.559)" fill="#e6e6e6"/>
      <path id="Tracé_8276" data-name="Tracé 8276" d="M789.06,156.044l7.3,1.921s5.379,19.6,5.763,19.979a9.785,9.785,0,0,1,.768,2.69s0,.384.768,1.537,1.921.384,1.153,1.921-1.921.768-1.153,2.305.384,5.763.384,5.763-1.921-7.3-8.837-5.379L790.6,166.034Z" transform="translate(-68.326 -58.674)" fill="#e6e6e6"/>
      <path id="Tracé_8277" data-name="Tracé 8277" d="M756.295,158.041l-.026.088L743.613,198l-8.307-1.845-8.983-1.994L739,153.046Z" transform="translate(-33.148 -56.993)" fill="#a5cf4b"/>
      <path id="Tracé_8278" data-name="Tracé 8278" d="M683.214,156.044l-7.3,1.921s-5.379,19.6-5.763,19.979a9.77,9.77,0,0,0-.768,2.69s0,.384-.768,1.537-1.921.384-1.153,1.921,1.921.768,1.153,2.305-.384,5.763-.384,5.763,1.921-7.3,8.837-5.379l4.611-20.748Z" transform="translate(0 -58.674)" fill="#e6e6e6"/>
      <path id="Tracé_8279" data-name="Tracé 8279" d="M671.611,215.273l-2.4,4.011s-1.058,7.516,4.321,7.516,13.064-7.3,13.064-7.3,3.842-1.537,6.147-1.153,14.985,0,9.606-6.532-14.6,0-14.6,0l-9.606,4.611-4.995-2.69Z" transform="translate(-1.076 -88.319)" fill="#ffb8b8"/>
      <path id="Tracé_8280" data-name="Tracé 8280" d="M674.74,210.6l3.842,6.147s-8.837,1.153-9.606,3.074,3.458-9.99,3.458-9.99Z" transform="translate(-0.94 -88.836)" fill="#e6e6e6"/>
      <path id="Tracé_8281" data-name="Tracé 8281" d="M721.11,73.789c7.737-4.171,10.916-3.995,20.537,0l2.567-6.254a4.447,4.447,0,0,0-4.442-4.442H722.557a4.447,4.447,0,0,0-4.442,4.442Z" transform="translate(-28.545 -6.554)" fill="#2f2e41"/>
      <path id="Tracé_8282" data-name="Tracé 8282" d="M767.735,161.493,755.08,201.361l-8.307-1.845,12.484-40.47Z" transform="translate(-44.614 -60.358)" opacity="0.2" style="isolation: isolate"/>
      <path id="Tracé_8283" data-name="Tracé 8283" d="M765,159.044l-12.679,41.111L769.614,204l12.679-39.959Z" transform="translate(-47.727 -60.356)" fill="#a5cf4b"/>
      <path id="Tracé_8284" data-name="Tracé 8284" d="M777.007,215.273l2.4,4.011s1.058,7.516-4.321,7.516-13.064-7.3-13.064-7.3-3.842-1.537-6.147-1.153-14.985,0-9.606-6.532,14.6,0,14.6,0l9.606,4.611,4.995-2.69Z" transform="translate(-43.593 -88.319)" fill="#ffb8b8"/>
      <path id="Tracé_8285" data-name="Tracé 8285" d="M805.585,210.6l-3.842,6.147s8.837,1.153,9.605,3.074-3.458-9.99-3.458-9.99Z" transform="translate(-75.438 -88.836)" fill="#e6e6e6"/>
    </g>
  </g>
</svg>
