<svg id="Groupe_4524" data-name="Groupe 4524" xmlns="http://www.w3.org/2000/svg" width="532.027" height="549.427" viewBox="0 0 532.027 549.427">
  <path id="Path_1105" data-name="Path 1105" d="M270.444,528.61h-.138c-5.156,0-10.375-.153-15.511-.457l.077-1.3c5.111.3,10.3.455,15.435.455h.138Zm15.654-.474-.078-1.3c5.166-.31,10.386-.78,15.516-1.4l.156,1.29c-5.156.623-10.4,1.1-15.589,1.408Zm-46.9-1.373c-5.163-.617-10.373-1.4-15.485-2.326l.232-1.28c5.085.922,10.269,1.7,15.407,2.319Zm77.975-2.378-.234-1.28c5.088-.928,10.214-2.026,15.233-3.261l.311,1.261c-5.042,1.241-10.2,2.344-15.311,3.278ZM208.4,521.171c-5.049-1.236-10.126-2.645-15.089-4.186l.386-1.241c4.941,1.534,9.99,2.934,15.014,4.166ZM347.57,516.9l-.387-1.241c4.931-1.537,9.882-3.248,14.722-5.087l.462,1.216c-4.862,1.849-9.842,3.571-14.8,5.116Zm-169.1-5.023c-4.862-1.841-9.738-3.86-14.491-6l.533-1.186c4.729,2.129,9.58,4.134,14.42,5.969ZM376.81,505.8l-.534-1.186c4.707-2.118,9.412-4.419,13.984-6.824l.605,1.15c-4.6,2.421-9.323,4.729-14.055,6.863Zm-226.922-6.785c-4.61-2.42-9.2-5.014-13.65-7.707l.673-1.109c4.426,2.679,8.995,5.26,13.582,7.67Zm254.6-7.77-.673-1.109c4.421-2.678,8.818-5.527,13.068-8.465l.739,1.069C413.346,485.686,408.923,488.549,404.486,491.241Zm-281.4-8.45c-4.282-2.959-8.527-6.086-12.618-9.291l.807-1.024c4.07,3.192,8.294,6.3,12.554,9.246Zm307.134-9.344-.807-1.024c4.08-3.2,8.1-6.554,11.962-9.983l.863.972c-3.878,3.439-7.923,6.813-12.023,10.03ZM98.435,463.465c-3.893-3.449-7.731-7.059-11.407-10.733l.919-.919c3.657,3.654,7.476,7.248,11.349,10.68Zm355.208-10.79-.919-.919c3.662-3.662,7.26-7.479,10.689-11.345l.972.863c-3.445,3.885-7.059,7.721-10.739,11.4ZM76.289,441.333c-3.453-3.891-6.829-7.935-10.034-12.018l1.021-.807c3.19,4.062,6.554,8.085,9.983,11.957Zm398.127-12.075-1.023-.807c3.2-4.081,6.313-8.3,9.251-12.549l1.069.739C480.762,420.912,477.634,425.156,474.416,429.258ZM56.958,416.729c-2.96-4.276-5.825-8.692-8.515-13.127l1.109-.676c2.677,4.415,5.528,8.809,8.47,13.063Zm435.278-13.236-1.109-.673c2.684-4.43,5.267-9,7.676-13.578l1.15.605C497.529,394.448,494.938,399.04,492.236,403.494Zm-451.5-13.506c-2.42-4.6-4.73-9.323-6.866-14.052l1.184-.535c2.126,4.705,4.424,9.409,6.832,13.98Zm466.089-14.233-1.186-.533c2.134-4.739,4.144-9.586,5.976-14.42l1.216.462c-1.842,4.854-3.863,9.73-6.007,14.488ZM27.869,361.5c-1.849-4.86-3.573-9.839-5.122-14.8l1.24-.388c1.542,4.934,3.256,9.888,5.1,14.722Zm490.08-15.065-1.241-.386c1.537-4.941,2.941-9.99,4.174-15.011l1.262.31c-1.239,5.046-2.65,10.122-4.194,15.086ZM18.537,331.619c-1.244-5.042-2.35-10.192-3.286-15.31l1.279-.234c.933,5.092,2.033,10.217,3.27,15.232Zm506.877-15.585-1.28-.234c.924-5.085,1.706-10.267,2.319-15.4l1.29.155c-.615,5.161-1.4,10.374-2.329,15.482ZM12.9,300.829c-.624-5.155-1.1-10.4-1.412-15.594l1.3-.079c.313,5.166.787,10.386,1.412,15.515Zm516.249-15.874-1.3-.077c.3-5.157.462-10.4.462-15.573v-.55h1.3v.55C529.611,274.508,529.455,279.773,529.147,284.955ZM12.3,269.582H11v-.275c0-5.113.15-10.285.448-15.374l1.3.077c-.3,5.063-.446,10.21-.446,15.3Zm515.516-16.4c-.319-5.172-.8-10.392-1.424-15.514l1.29-.157c.629,5.148,1.109,10.393,1.432,15.591ZM14.121,238.49l-1.291-.153c.615-5.163,1.395-10.373,2.319-15.486l1.28.231C15.508,228.17,14.732,233.354,14.121,238.49Zm509.912-16.222c-.941-5.1-2.046-10.224-3.287-15.226l1.261-.313c1.247,5.032,2.359,10.185,3.3,15.306ZM19.667,207.84l-1.262-.309c1.233-5.042,2.639-10.124,4.179-15.091l1.241.384c-1.532,4.941-2.93,9.994-4.157,15.016Zm496.874-15.8c-1.546-4.935-3.266-9.887-5.11-14.722l1.21-.463c1.854,4.855,3.584,9.833,5.143,14.793ZM28.9,178.063l-1.216-.46c1.84-4.864,3.856-9.741,5.992-14.5l1.186.533C32.734,168.371,30.729,173.223,28.9,178.063Zm476.547-15.1c-2.13-4.7-4.437-9.4-6.848-13.973l1.15-.605c2.426,4.591,4.739,9.316,6.881,14.044ZM41.684,149.613l-1.152-.605c2.412-4.6,5-9.193,7.7-13.654l1.109.673C46.662,140.466,44.085,145.037,41.684,149.613Zm449.23-14.163c-2.682-4.409-5.538-8.8-8.487-13.053l1.069-.741c2.965,4.275,5.833,8.688,8.529,13.12ZM57.808,122.932l-1.07-.739c2.951-4.274,6.074-8.521,9.284-12.622l1.023.8C63.858,114.453,60.746,118.678,57.808,122.932Zm415.359-13.058c-3.2-4.066-6.567-8.085-10-11.947l.972-.863c3.449,3.879,6.829,7.919,10.046,12.007ZM77.023,98.4l-.973-.862c3.445-3.892,7.059-7.732,10.726-11.411l.921.918C84.042,90.7,80.451,94.522,77.023,98.4ZM452.475,86.6c-3.672-3.658-7.494-7.248-11.361-10.668l.86-.973C445.86,78.394,449.7,82,453.392,85.678ZM99.029,76.347l-.863-.972c3.879-3.447,7.921-6.825,12.012-10.041l.807,1.021C106.915,69.556,102.89,72.917,99.029,76.347Zm330.1-10.386c-4.073-3.186-8.3-6.292-12.565-9.232l.739-1.07c4.286,2.954,8.534,6.075,12.626,9.277ZM123.508,57.1l-.74-1.069c4.271-2.96,8.686-5.827,13.125-8.522l.675,1.109c-4.416,2.681-8.809,5.535-13.059,8.48Zm279.958-8.828c-4.437-2.678-9.009-5.253-13.589-7.654l.605-1.152c4.6,2.413,9.2,5,13.658,7.692ZM150.109,40.946,149.5,39.8c4.593-2.42,9.319-4.739,14.048-6.874l.535,1.184c-4.705,2.128-9.407,4.429-13.976,6.84ZM375.849,33.8c-4.73-2.118-9.58-4.125-14.425-5.949l.46-1.216c4.866,1.837,9.743,3.85,14.5,5.984Zm-197.4-5.671-.463-1.21c4.862-1.852,9.841-3.578,14.8-5.129l.388,1.24c-4.935,1.538-9.888,3.255-14.725,5.1Zm168.208-5.344c-4.941-1.529-10-2.924-15.018-4.149l.309-1.262c5.042,1.23,10.125,2.634,15.093,4.171ZM208.174,18.834l-.313-1.261c5.048-1.248,10.2-2.357,15.308-3.294l.235,1.279c-5.083.933-10.208,2.036-15.226,3.278ZM316.4,15.406c-5.08-.917-10.264-1.691-15.409-2.3l.152-1.291c5.171.612,10.381,1.39,15.488,2.311Zm-77.593-2.2-.157-1.291c5.152-.627,10.4-1.109,15.592-1.424l.079,1.3c-5.169.316-10.386.792-15.514,1.412Zm46.663-1.464c-5.02-.29-10.12-.438-15.162-.438h-.413V10h.413c5.066,0,10.194.148,15.236.441Z" transform="translate(0.092 0.084)" fill="#3f3b56"/>
  <path id="Rectangle_316" data-name="Rectangle 316" d="M0,0H154.093V115.57H0Z" transform="translate(377.934 433.858)" fill="#a5cf4b"/>
  <rect id="Rectangle_317" data-name="Rectangle 317" width="115.57" height="7.705" transform="translate(397.195 464.677)" fill="#fff"/>
  <rect id="Rectangle_318" data-name="Rectangle 318" width="115.57" height="7.705" transform="translate(397.195 487.791)" fill="#fff"/>
  <rect id="Rectangle_319" data-name="Rectangle 319" width="115.57" height="7.705" transform="translate(397.195 510.905)" fill="#fff"/>
  <rect id="Rectangle_320" data-name="Rectangle 320" width="107.633" height="80.724" transform="translate(8.067)" fill="#e6e6e6"/>
  <rect id="Rectangle_322" data-name="Rectangle 322" width="80.724" height="5.382" transform="translate(21.521 37.671)" fill="#fff"/>
  <rect id="Rectangle_323" data-name="Rectangle 323" width="80.724" height="5.382" transform="translate(21.521 53.816)" fill="#fff"/>
  <rect id="Rectangle_324" data-name="Rectangle 324" width="107.633" height="80.724" transform="translate(53.811 41.707)" fill="#a5cf4b"/>
  <rect id="Rectangle_325" data-name="Rectangle 325" width="80.724" height="5.382" transform="translate(67.265 63.234)" fill="#fff"/>
  <rect id="Rectangle_326" data-name="Rectangle 326" width="80.724" height="5.382" transform="translate(67.265 79.379)" fill="#fff"/>
  <rect id="Rectangle_327" data-name="Rectangle 327" width="80.724" height="5.382" transform="translate(67.265 95.523)" fill="#fff"/>
  <path id="Subtraction_1" data-name="Subtraction 1" d="M416.437,377.825H123V158H416.437Zm-290.412-216.8V374.8H413.412V161.025Z" transform="translate(1.03 1.323)" fill="#e6e6e6"/>
  <g id="Group_41" data-name="Group 41" transform="translate(214.784 213.775)">
    <circle id="Ellipse_220" data-name="Ellipse 220" cx="55.873" cy="55.873" r="55.873" fill="#0099d5"/>
    <path id="Path_1106" data-name="Path 1106" d="M291.845,262.951h-19v-19a4.47,4.47,0,0,0-4.47-4.47h0a4.47,4.47,0,0,0-4.47,4.47h0v19h-19a4.47,4.47,0,0,0-4.47,4.47h0a4.47,4.47,0,0,0,4.47,4.47h19v19a4.47,4.47,0,0,0,4.47,4.47h0a4.471,4.471,0,0,0,4.47-4.47h0v-19h19a4.471,4.471,0,0,0,4.47-4.47h0a4.471,4.471,0,0,0-4.47-4.47Z" transform="translate(-212.77 -211.77)" fill="#fff"/>
  </g>
  <rect id="Rectangle_341" data-name="Rectangle 341" width="107.633" height="80.724" transform="translate(0 414.441)" fill="#e6e6e6"/>
  <rect id="Rectangle_342" data-name="Rectangle 342" width="80.724" height="5.382" transform="translate(13.454 435.968)" fill="#fff"/>
  <rect id="Rectangle_343" data-name="Rectangle 343" width="80.724" height="5.382" transform="translate(13.454 452.112)" fill="#fff"/>
  <rect id="Rectangle_344" data-name="Rectangle 344" width="80.724" height="5.382" transform="translate(13.454 468.257)" fill="#fff"/>
</svg>
