<svg xmlns="http://www.w3.org/2000/svg" xmlns:xlink="http://www.w3.org/1999/xlink" width="1540.531" height="954.781" viewBox="0 0 1540.531 954.781">
  <defs>
    <filter id="Ellipse_174" x="909.419" y="231.268" width="109.585" height="109.585" filterUnits="userSpaceOnUse">
      <feOffset dy="3" input="SourceAlpha"/>
      <feGaussianBlur stdDeviation="3" result="blur"/>
      <feFlood flood-opacity="0.161"/>
      <feComposite operator="in" in2="blur"/>
      <feComposite in="SourceGraphic"/>
    </filter>
    <filter id="Ellipse_175" x="909.64" y="308.466" width="39.044" height="35.452" filterUnits="userSpaceOnUse">
      <feOffset dy="3" input="SourceAlpha"/>
      <feGaussianBlur stdDeviation="3" result="blur-2"/>
      <feFlood flood-opacity="0.161"/>
      <feComposite operator="in" in2="blur-2"/>
      <feComposite in="SourceGraphic"/>
    </filter>
    <filter id="Rectangle_268" x="964.96" y="303.285" width="42.855" height="38.57" filterUnits="userSpaceOnUse">
      <feOffset dy="3" input="SourceAlpha"/>
      <feGaussianBlur stdDeviation="3" result="blur-3"/>
      <feFlood flood-opacity="0.161"/>
      <feComposite operator="in" in2="blur-3"/>
      <feComposite in="SourceGraphic"/>
    </filter>
    <filter id="Ellipse_176" x="979.739" y="308.467" width="39.044" height="35.452" filterUnits="userSpaceOnUse">
      <feOffset dy="3" input="SourceAlpha"/>
      <feGaussianBlur stdDeviation="3" result="blur-4"/>
      <feFlood flood-opacity="0.161"/>
      <feComposite operator="in" in2="blur-4"/>
      <feComposite in="SourceGraphic"/>
    </filter>
    <filter id="Tracé_8080" x="927.611" y="205.656" width="77.108" height="62.481" filterUnits="userSpaceOnUse">
      <feOffset dy="3" input="SourceAlpha"/>
      <feGaussianBlur stdDeviation="3" result="blur-5"/>
      <feFlood flood-opacity="0.161"/>
      <feComposite operator="in" in2="blur-5"/>
      <feComposite in="SourceGraphic"/>
    </filter>
    <filter id="Ellipse_180" x="896.075" y="263.595" width="53.506" height="56.447" filterUnits="userSpaceOnUse">
      <feOffset dy="3" input="SourceAlpha"/>
      <feGaussianBlur stdDeviation="3" result="blur-6"/>
      <feFlood flood-opacity="0.161"/>
      <feComposite operator="in" in2="blur-6"/>
      <feComposite in="SourceGraphic"/>
    </filter>
    <filter id="Ellipse_182" x="1430.456" y="749.155" width="97.191" height="97.19" filterUnits="userSpaceOnUse">
      <feOffset dy="3" input="SourceAlpha"/>
      <feGaussianBlur stdDeviation="3" result="blur-7"/>
      <feFlood flood-opacity="0.161"/>
      <feComposite operator="in" in2="blur-7"/>
      <feComposite in="SourceGraphic"/>
    </filter>
    <filter id="Rectangle_269" x="1474.782" y="819.825" width="30.029" height="39.552" filterUnits="userSpaceOnUse">
      <feOffset dy="3" input="SourceAlpha"/>
      <feGaussianBlur stdDeviation="3" result="blur-8"/>
      <feFlood flood-opacity="0.161"/>
      <feComposite operator="in" in2="blur-8"/>
      <feComposite in="SourceGraphic"/>
    </filter>
    <filter id="Rectangle_270" x="1450.724" y="819.825" width="30.029" height="39.552" filterUnits="userSpaceOnUse">
      <feOffset dy="3" input="SourceAlpha"/>
      <feGaussianBlur stdDeviation="3" result="blur-9"/>
      <feFlood flood-opacity="0.161"/>
      <feComposite operator="in" in2="blur-9"/>
      <feComposite in="SourceGraphic"/>
    </filter>
    <filter id="Ellipse_183" x="1467.763" y="837.868" width="38.048" height="25.518" filterUnits="userSpaceOnUse">
      <feOffset dy="3" input="SourceAlpha"/>
      <feGaussianBlur stdDeviation="3" result="blur-10"/>
      <feFlood flood-opacity="0.161"/>
      <feComposite operator="in" in2="blur-10"/>
      <feComposite in="SourceGraphic"/>
    </filter>
    <filter id="Ellipse_184" x="1443.705" y="837.367" width="38.048" height="25.518" filterUnits="userSpaceOnUse">
      <feOffset dy="3" input="SourceAlpha"/>
      <feGaussianBlur stdDeviation="3" result="blur-11"/>
      <feFlood flood-opacity="0.161"/>
      <feComposite operator="in" in2="blur-11"/>
      <feComposite in="SourceGraphic"/>
    </filter>
    <filter id="Tracé_8082" x="1457.059" y="719.305" width="76.19" height="64.395" filterUnits="userSpaceOnUse">
      <feOffset dy="3" input="SourceAlpha"/>
      <feGaussianBlur stdDeviation="3" result="blur-12"/>
      <feFlood flood-opacity="0.161"/>
      <feComposite operator="in" in2="blur-12"/>
      <feComposite in="SourceGraphic"/>
    </filter>
    <filter id="Ellipse_185" x="1404.903" y="756.278" width="59.102" height="46.199" filterUnits="userSpaceOnUse">
      <feOffset dy="3" input="SourceAlpha"/>
      <feGaussianBlur stdDeviation="3" result="blur-13"/>
      <feFlood flood-opacity="0.161"/>
      <feComposite operator="in" in2="blur-13"/>
      <feComposite in="SourceGraphic"/>
    </filter>
    <filter id="_Alone_we_can_do_so_little_together_we_can_do_so_much._Helen_Keller" x="145.25" y="324.25" width="322" height="423" filterUnits="userSpaceOnUse">
      <feOffset dy="3" input="SourceAlpha"/>
      <feGaussianBlur stdDeviation="3" result="blur-14"/>
      <feFlood flood-opacity="0.161"/>
      <feComposite operator="in" in2="blur-14"/>
      <feComposite in="SourceGraphic"/>
    </filter>
    <filter id="Team_Cbi" x="16.25" y="214.25" width="462" height="116" filterUnits="userSpaceOnUse">
      <feOffset dy="3" input="SourceAlpha"/>
      <feGaussianBlur stdDeviation="3" result="blur-15"/>
      <feFlood flood-opacity="0.161"/>
      <feComposite operator="in" in2="blur-15"/>
      <feComposite in="SourceGraphic"/>
    </filter>
    <linearGradient id="linear-gradient" x1="-7.284" y1="0.668" x2="-7.284" y2="1.668" gradientUnits="objectBoundingBox">
      <stop offset="0" stop-color="gray" stop-opacity="0.251"/>
      <stop offset="0.535" stop-color="gray" stop-opacity="0.122"/>
      <stop offset="1" stop-color="gray" stop-opacity="0.102"/>
    </linearGradient>
    <linearGradient id="linear-gradient-2" x1="0.639" y1="-2.269" x2="0.639" y2="-1.269" xlink:href="#linear-gradient"/>
  </defs>
  <g id="Groupe_4507" data-name="Groupe 4507" transform="translate(-358.75 -53.75)">
    <g id="Groupe_4502" data-name="Groupe 4502">
      <g id="Groupe_4493" data-name="Groupe 4493" transform="translate(40 33)">
        <g id="Groupe_4490" data-name="Groupe 4490">
          <g id="Groupe_4484" data-name="Groupe 4484" transform="translate(44 -2)">
            <g id="Groupe_4450" data-name="Groupe 4450" transform="translate(249.661 206.209)">
              <path id="Tracé_8066" data-name="Tracé 8066" d="M1069.745,581.769H297.7a2.14,2.14,0,0,1-2.139-2.139V74.915a2.138,2.138,0,0,1,4.277,0V577.49h769.905a2.139,2.139,0,0,1,0,4.279Z" transform="translate(332.81 62.138)" fill="#3f3d56"/>
              <path id="Tracé_8067" data-name="Tracé 8067" d="M1069.745,295.1H297.7a2.139,2.139,0,1,1,0-4.278h772.042a2.139,2.139,0,0,1,0,4.278Z" transform="translate(332.81 248.29)" fill="#3f3d56"/>
              <path id="Tracé_8068" data-name="Tracé 8068" d="M1070.322,251.261H298.277a2.138,2.138,0,0,1,0-4.277h772.044a2.138,2.138,0,1,1,0,4.277Z" transform="translate(333.302 210.863)" fill="#3f3d56"/>
              <path id="Tracé_8069" data-name="Tracé 8069" d="M1070.318,207.422H298.274a2.139,2.139,0,0,1,0-4.278h772.044a2.139,2.139,0,0,1,0,4.278Z" transform="translate(333.306 173.434)" fill="#3f3d56"/>
              <path id="Tracé_8070" data-name="Tracé 8070" d="M1070.322,163.582H298.277a2.138,2.138,0,0,1,0-4.277h772.044a2.138,2.138,0,1,1,0,4.277Z" transform="translate(333.302 136.007)" fill="#3f3d56"/>
              <path id="Tracé_8071" data-name="Tracé 8071" d="M1070.322,119.742H298.277a2.138,2.138,0,0,1,0-4.277h772.044a2.138,2.138,0,1,1,0,4.277Z" transform="translate(333.302 98.578)" fill="#3f3d56"/>
              <path id="Tracé_8072" data-name="Tracé 8072" d="M1070.318,75.9H298.274a2.139,2.139,0,0,1,0-4.278h772.044a2.139,2.139,0,0,1,0,4.278Z" transform="translate(333.306 61.15)" fill="#3f3d56"/>
              <path id="Tracé_8073" data-name="Tracé 8073" d="M355.756,391.166H328.8a12.516,12.516,0,0,1-12.5-12.5V304.309a12.516,12.516,0,0,1,12.5-12.5h26.959a12.516,12.516,0,0,1,12.5,12.5v74.354A12.516,12.516,0,0,1,355.756,391.166Z" transform="translate(350.508 249.128)" fill="#3f3d56"/>
              <path id="Tracé_8074" data-name="Tracé 8074" d="M416.324,420.162H389.365a12.516,12.516,0,0,1-12.5-12.5V270.346a12.517,12.517,0,0,1,12.5-12.5h26.959a12.518,12.518,0,0,1,12.5,12.5V407.658A12.517,12.517,0,0,1,416.324,420.162Z" transform="translate(402.218 220.133)" fill="#3f3d56"/>
              <path id="Tracé_8075" data-name="Tracé 8075" d="M537.46,488.389H510.5a12.516,12.516,0,0,1-12.5-12.5V190.431a12.517,12.517,0,0,1,12.5-12.5H537.46a12.518,12.518,0,0,1,12.5,12.5V475.886A12.517,12.517,0,0,1,537.46,488.389Z" transform="translate(505.638 151.905)" fill="#e6e6e6"/>
              <path id="Tracé_8076" data-name="Tracé 8076" d="M476.315,443.369H449.356a12.516,12.516,0,0,1-12.5-12.5v-187.7a12.516,12.516,0,0,1,12.5-12.5h26.959a12.517,12.517,0,0,1,12.5,12.5v187.7A12.517,12.517,0,0,1,476.315,443.369Z" transform="translate(453.435 196.926)" fill="#3f3d56"/>
              <path id="Tracé_8077" data-name="Tracé 8077" d="M598.028,522.99H571.068a12.517,12.517,0,0,1-12.5-12.5V149.9a12.518,12.518,0,0,1,12.5-12.5h26.961a12.518,12.518,0,0,1,12.5,12.5V510.487A12.517,12.517,0,0,1,598.028,522.99Z" transform="translate(557.347 117.304)" fill="#3f3d56"/>
              <path id="Tracé_8078" data-name="Tracé 8078" d="M658.6,488.389H631.636a12.517,12.517,0,0,1-12.5-12.5V190.431a12.52,12.52,0,0,1,12.5-12.5H658.6a12.518,12.518,0,0,1,12.5,12.5V475.886A12.517,12.517,0,0,1,658.6,488.389Z" transform="translate(609.057 151.905)" fill="#3f3d56"/>
              <path id="Tracé_8079" data-name="Tracé 8079" d="M719.165,579.292H692.2a12.518,12.518,0,0,1-12.5-12.5V83.957a12.518,12.518,0,0,1,12.5-12.5h26.961a12.518,12.518,0,0,1,12.5,12.5V566.788A12.518,12.518,0,0,1,719.165,579.292Z" transform="translate(660.767 61.003)" fill="#e6e6e6"/>
              <g id="Groupe_4495" data-name="Groupe 4495" transform="translate(102.303 28.197)">
                <g transform="matrix(1, 0, 0, 1, -77.21, -211.66)" filter="url(#Ellipse_174)">
                  <circle id="Ellipse_174-2" data-name="Ellipse 174" cx="39.914" cy="39.914" r="39.914" transform="translate(918.42 316.07) rotate(-80.78)" fill="#1c1d22"/>
                </g>
                <rect id="Rectangle_267" data-name="Rectangle 267" width="21.726" height="12.126" transform="translate(852.394 107.357) rotate(-26.601)" fill="#1c1d22"/>
                <g transform="matrix(1, 0, 0, 1, -77.21, -211.66)" filter="url(#Ellipse_175)">
                  <ellipse id="Ellipse_175-2" data-name="Ellipse 175" cx="3.789" cy="10.105" rx="3.789" ry="10.105" transform="translate(918.64 320.79) rotate(-56.6)" fill="#1c1d22"/>
                </g>
                <g transform="matrix(1, 0, 0, 1, -77.21, -211.66)" filter="url(#Rectangle_268)">
                  <rect id="Rectangle_268-2" data-name="Rectangle 268" width="12.126" height="21.726" transform="translate(973.96 320.13) rotate(-63.4)" fill="#1c1d22"/>
                </g>
                <g transform="matrix(1, 0, 0, 1, -77.21, -211.66)" filter="url(#Ellipse_176)">
                  <ellipse id="Ellipse_176-2" data-name="Ellipse 176" cx="10.105" cy="3.789" rx="10.105" ry="3.789" transform="translate(988.74 325.59) rotate(-33.4)" fill="#1c1d22"/>
                </g>
                <circle id="Ellipse_177" data-name="Ellipse 177" cx="13.642" cy="13.642" r="13.642" transform="translate(868.48 72.821) rotate(-80.41)" fill="#fff"/>
                <ellipse id="Ellipse_178" data-name="Ellipse 178" cx="4.528" cy="4.56" rx="4.528" ry="4.56" transform="translate(877.87 67.18) rotate(-45)" fill="#1c1d22"/>
                <g transform="matrix(1, 0, 0, 1, -77.21, -211.66)" filter="url(#Tracé_8080)">
                  <path id="Tracé_8080-2" data-name="Tracé 8080" d="M538.074,27.983C538.673,13.206,525.939.69,509.628.028s-30.019,10.779-30.62,25.556,10.738,18.135,27.048,18.8S537.474,42.759,538.074,27.983Z" transform="translate(457.62 211.66)" fill="#a5cf4b"/>
                </g>
                <ellipse id="Ellipse_179" data-name="Ellipse 179" cx="6.265" cy="19.957" rx="6.265" ry="19.957" transform="matrix(0.759, -0.651, 0.651, 0.759, 910.739, 66.101)" fill="#1c1d22"/>
                <g transform="matrix(1, 0, 0, 1, -77.21, -211.66)" filter="url(#Ellipse_180)">
                  <ellipse id="Ellipse_180-2" data-name="Ellipse 180" cx="19.957" cy="6.265" rx="19.957" ry="6.265" transform="matrix(0.65, -0.76, 0.76, 0.65, 905.08, 299.88)" fill="#1c1d22"/>
                </g>
                <path id="Tracé_8081" data-name="Tracé 8081" d="M518.629,91.466a9.095,9.095,0,0,1-17.9,3.258l0-.017c-.895-4.943,2.926-6.691,7.868-7.586S517.734,86.524,518.629,91.466Z" transform="translate(379.331 -4.331)" fill="#fff"/>
              </g>
              <ellipse id="Ellipse_181" data-name="Ellipse 181" cx="6.215" cy="19.798" rx="6.215" ry="19.798" transform="translate(1528.781 606.976) rotate(-39.938)" fill="#1c1d22"/>
              <g transform="matrix(1, 0, 0, 1, 25.09, -183.46)" filter="url(#Ellipse_182)">
                <ellipse id="Ellipse_182-2" data-name="Ellipse 182" cx="39.595" cy="39.595" rx="39.595" ry="39.595" transform="translate(1439.46 755.15)" fill="#1c1d22"/>
              </g>
              <g transform="matrix(1, 0, 0, 1, 25.09, -183.46)" filter="url(#Rectangle_269)">
                <rect id="Rectangle_269-2" data-name="Rectangle 269" width="12.029" height="21.552" transform="translate(1483.78 825.82)" fill="#1c1d22"/>
              </g>
              <g transform="matrix(1, 0, 0, 1, 25.09, -183.46)" filter="url(#Rectangle_270)">
                <rect id="Rectangle_270-2" data-name="Rectangle 270" width="12.029" height="21.552" transform="translate(1459.72 825.82)" fill="#1c1d22"/>
              </g>
              <g transform="matrix(1, 0, 0, 1, 25.09, -183.46)" filter="url(#Ellipse_183)">
                <ellipse id="Ellipse_183-2" data-name="Ellipse 183" cx="10.024" cy="3.759" rx="10.024" ry="3.759" transform="translate(1476.76 843.87)" fill="#1c1d22"/>
              </g>
              <g transform="matrix(1, 0, 0, 1, 25.09, -183.46)" filter="url(#Ellipse_184)">
                <ellipse id="Ellipse_184-2" data-name="Ellipse 184" cx="10.024" cy="3.759" rx="10.024" ry="3.759" transform="translate(1452.7 843.37)" fill="#1c1d22"/>
              </g>
              <g transform="matrix(1, 0, 0, 1, 25.09, -183.46)" filter="url(#Tracé_8082)">
                <path id="Tracé_8082-2" data-name="Tracé 8082" d="M771.05,232.095c3.536-14.238,19.142-22.618,34.858-18.715s25.59,18.608,22.055,32.847-15.266,14.284-30.981,10.382S767.515,246.333,771.05,232.095Z" transform="translate(695.57 512.88)" fill="#ccc"/>
              </g>
              <g transform="matrix(1, 0, 0, 1, 25.09, -183.46)" filter="url(#Ellipse_185)">
                <ellipse id="Ellipse_185-2" data-name="Ellipse 185" cx="6.215" cy="19.798" rx="6.215" ry="19.798" transform="translate(1413.9 773.51) rotate(-64.63)" fill="#1c1d22"/>
              </g>
              <ellipse id="Ellipse_186" data-name="Ellipse 186" cx="13.201" cy="13.201" rx="13.201" ry="13.201" transform="translate(1485.02 589.735)" fill="#fff"/>
              <ellipse id="Ellipse_187" data-name="Ellipse 187" cx="4.4" cy="4.4" rx="4.4" ry="4.4" transform="translate(1488.396 593.804)" fill="#1c1d22"/>
              <path id="Tracé_8083" data-name="Tracé 8083" d="M785.661,308.383a8.8,8.8,0,1,1-17.316,3.153h0l0-.017c-.865-4.783,2.833-6.475,7.615-7.341S784.8,303.6,785.661,308.383Z" transform="translate(720.842 322.058)" fill="#fff"/>
              <path id="Tracé_8084" data-name="Tracé 8084" d="M744.339,593.732H717.38a12.512,12.512,0,0,1-12.5-12.493V98.811a12.512,12.512,0,0,1,12.5-12.493h26.959a12.513,12.513,0,0,1,12.5,12.493V581.239A12.513,12.513,0,0,1,744.339,593.732Z" transform="translate(682.261 73.694)" fill="#a5cf4b"/>
              <path id="Tracé_8088" data-name="Tracé 8088" d="M568.89,370.645l-26.164,6.5a12.517,12.517,0,0,1-15.149-9.119L458.733,91a12.518,12.518,0,0,1,9.119-15.151l26.164-6.5a12.517,12.517,0,0,1,15.151,9.119L578.009,355.5A12.516,12.516,0,0,1,568.89,370.645Z" transform="translate(471.801 58.891)" fill="#0099d5"/>
              <circle id="Ellipse_200" data-name="Ellipse 200" cx="20.391" cy="20.391" r="20.391" transform="translate(430.231 114.523)" fill="#e6e6e6"/>
              <circle id="Ellipse_201" data-name="Ellipse 201" cx="20.391" cy="20.391" r="20.391" transform="translate(430.231 195.79)" fill="#e6e6e6"/>
              <circle id="Ellipse_202" data-name="Ellipse 202" cx="20.391" cy="20.391" r="20.391" transform="translate(430.231 277.058)" fill="#e6e6e6"/>
              <circle id="Ellipse_203" data-name="Ellipse 203" cx="20.391" cy="20.391" r="20.391" transform="translate(430.231 358.326)" fill="#e6e6e6"/>
              <circle id="Ellipse_204" data-name="Ellipse 204" cx="20.391" cy="20.391" r="20.391" transform="translate(430.231 439.594)" fill="#e6e6e6"/>
              <circle id="Ellipse_205" data-name="Ellipse 205" cx="20.391" cy="20.391" r="20.391" transform="translate(430.231 520.861)" fill="#e6e6e6"/>
              <g id="Groupe_4482" data-name="Groupe 4482" transform="translate(26.339 322.636)">
                <circle id="Ellipse_206" data-name="Ellipse 206" cx="43.067" cy="43.067" r="43.067" transform="translate(71.077 244.889)" fill="#1c1d22"/>
                <rect id="Rectangle_278" data-name="Rectangle 278" width="13.084" height="23.442" transform="translate(94.519 321.756)" fill="#1c1d22"/>
                <rect id="Rectangle_279" data-name="Rectangle 279" width="13.084" height="23.442" transform="translate(120.686 321.756)" fill="#1c1d22"/>
                <circle id="Ellipse_207" data-name="Ellipse 207" cx="14.719" cy="14.719" r="14.719" transform="translate(100.515 262.334)" fill="#fff"/>
                <circle id="Ellipse_208" data-name="Ellipse 208" cx="4.906" cy="4.906" r="4.906" transform="translate(110.328 272.147)" fill="#1c1d22"/>
                <path id="Tracé_8117" data-name="Tracé 8117" d="M72.367,247.9C68.89,232.332,80.006,216.6,97.2,212.757s33.944,5.675,37.422,21.249-7.915,21.317-25.1,25.156S75.845,263.479,72.367,247.9Z" fill="#ccc"/>
                <ellipse id="Ellipse_209" data-name="Ellipse 209" cx="21.534" cy="6.76" rx="21.534" ry="6.76" transform="matrix(0.357, -0.934, 0.934, 0.357, 125.229, 149.385)" fill="#1c1d22"/>
                <circle id="Ellipse_210" data-name="Ellipse 210" cx="43.067" cy="43.067" r="43.067" transform="translate(56.358 121.139)" fill="#1c1d22"/>
                <rect id="Rectangle_280" data-name="Rectangle 280" width="13.084" height="23.442" transform="translate(79.799 198.006)" fill="#1c1d22"/>
                <rect id="Rectangle_281" data-name="Rectangle 281" width="13.084" height="23.442" transform="translate(105.967 198.006)" fill="#1c1d22"/>
                <ellipse id="Ellipse_211" data-name="Ellipse 211" cx="10.903" cy="4.089" rx="10.903" ry="4.089" transform="translate(79.799 217.632)" fill="#1c1d22"/>
                <ellipse id="Ellipse_212" data-name="Ellipse 212" cx="10.903" cy="4.089" rx="10.903" ry="4.089" transform="translate(105.967 217.086)" fill="#1c1d22"/>
                <circle id="Ellipse_213" data-name="Ellipse 213" cx="14.719" cy="14.719" r="14.719" transform="translate(85.796 138.584)" fill="#fff"/>
                <circle id="Ellipse_214" data-name="Ellipse 214" cx="4.906" cy="4.906" r="4.906" transform="translate(95.609 148.397)" fill="#1c1d22"/>
                <path id="Tracé_8118" data-name="Tracé 8118" d="M57.648,124.155c-3.477-15.574,7.639-31.311,24.829-35.149s33.944,5.675,37.422,21.249-7.915,21.318-25.105,25.156S61.126,139.729,57.648,124.155Z" fill="#a5cf4b"/>
                <ellipse id="Ellipse_215" data-name="Ellipse 215" cx="6.76" cy="21.534" rx="6.76" ry="21.534" transform="translate(28.564 141.103) rotate(-64.626)" fill="#1c1d22"/>
                <path id="Tracé_8119" data-name="Tracé 8119" d="M78.27,179.743c0,4.215,10.854,12.539,22.9,12.539S124.5,180.415,124.5,176.2s-11.292.817-23.335.817S78.27,175.528,78.27,179.743Z" fill="#fff"/>
                <path id="Tracé_8120" data-name="Tracé 8120" d="M182.536,154.975l-31.7,6.189a3.442,3.442,0,0,1-2.92-.773,3.5,3.5,0,0,1-1.217-2.82,82.894,82.894,0,0,0-7.376-37.786,3.5,3.5,0,0,1,.067-3.07A3.441,3.441,0,0,1,141.8,114.9l31.7-6.188a3.485,3.485,0,0,1,3.928,2.209,135.674,135.674,0,0,1,7.912,40.529A3.484,3.484,0,0,1,182.536,154.975Z" fill="#0099d5"/>
                <path id="Tracé_8121" data-name="Tracé 8121" d="M43.536,183.975l-31.7,6.189a3.442,3.442,0,0,1-2.92-.773,3.5,3.5,0,0,1-1.217-2.82A82.894,82.894,0,0,0,.322,148.785a3.5,3.5,0,0,1,.067-3.07A3.441,3.441,0,0,1,2.805,143.9l31.7-6.188a3.484,3.484,0,0,1,3.928,2.209,135.674,135.674,0,0,1,7.912,40.529A3.484,3.484,0,0,1,43.536,183.975Z" fill="#ccc"/>
              </g>
            </g>
            <g transform="matrix(1, 0, 0, 1, 274.75, 22.75)" filter="url(#_Alone_we_can_do_so_little_together_we_can_do_so_much._Helen_Keller)">
              <text id="_Alone_we_can_do_so_little_together_we_can_do_so_much._Helen_Keller-2" data-name="&quot;Alone we 
can do so 
little; 
together we 
can do so
much.&quot;
Helen Keller" transform="translate(306.25 414.25)" fill="#1b1c21" font-size="90" font-family="FelixTitlingMT, Felix Titling" letter-spacing="0.209em"><tspan x="-135.94" y="0">&quot;</tspan><tspan y="0" font-size="46" font-family="BebasNeue, Bebas Neue">Alone We </tspan><tspan font-size="46" font-family="BebasNeue, Bebas Neue"><tspan x="-118.22" y="63">Can Do So </tspan><tspan x="-86.296" y="112">Little; </tspan><tspan x="-151.869" y="161">Together We </tspan><tspan x="-109.848" y="210">Can Do So</tspan><tspan x="-76.084" y="259">Much.&quot;</tspan></tspan><tspan font-size="23.332" font-family="BebasNeue, Bebas Neue" baseline-shift="-13.332000418508848"><tspan x="-77.147" y="303">Helen Keller</tspan></tspan></text>
            </g>
            <line id="Ligne_87" data-name="Ligne 87" y2="192.519" transform="translate(386.5 393.5)" fill="none" stroke="#1b1c21" stroke-width="1" opacity="0.2"/>
            <line id="Ligne_88" data-name="Ligne 88" y2="192.519" transform="translate(395.5 411.5)" fill="none" stroke="#1b1c21" stroke-width="1" opacity="0.2"/>
            <line id="Ligne_89" data-name="Ligne 89" y2="192.519" transform="translate(404.5 421.5)" fill="none" stroke="#1b1c21" stroke-width="1" opacity="0.2"/>
            <g id="Groupe_4481" data-name="Groupe 4481" transform="translate(-55 94)">
              <rect id="Rectangle_277" data-name="Rectangle 277" width="488" height="111" transform="translate(354 163)" fill="#e0ebc9"/>
              <path id="Tracé_8116" data-name="Tracé 8116" d="M0,0H488V111H0Z" transform="translate(346 154)" fill="#b5dded"/>
              <rect id="Rectangle_275" data-name="Rectangle 275" width="488" height="111" transform="translate(333 142)" fill="#1b1c21"/>
              <g transform="matrix(1, 0, 0, 1, 329.75, -71.25)" filter="url(#Team_Cbi)">
                <text id="Team_Cbi-2" data-name="Team Cbi" transform="translate(247.25 302.25)" fill="#f6f6f6" font-size="94" font-family="aliensandcows, aliens and cows" letter-spacing="0.209em"><tspan x="-221.253" y="0">Team Cbi</tspan></text>
              </g>
            </g>
            <g id="Groupe_4483" data-name="Groupe 4483" transform="translate(277.481 529.163)">
              <ellipse id="Ellipse_216" data-name="Ellipse 216" cx="10.903" cy="4.089" rx="10.903" ry="4.089" transform="translate(94.519 341.382)" fill="#1c1d22"/>
              <ellipse id="Ellipse_217" data-name="Ellipse 217" cx="10.903" cy="4.089" rx="10.903" ry="4.089" transform="translate(120.686 340.837)" fill="#1c1d22"/>
            </g>
            <path id="Tracé_8122" data-name="Tracé 8122" d="M789.754,309.459a10.865,10.865,0,1,1-21.378,3.892h0l0-.022c-1.068-5.9,3.5-7.994,9.4-9.063S788.684,303.555,789.754,309.459Z" transform="translate(-387.129 526.424)" fill="#fff"/>
          </g>
          <g id="Groupe_4486" data-name="Groupe 4486" transform="translate(1306.017 109.923)">
            <path id="Tracé_8123" data-name="Tracé 8123" d="M262.983,309.069c4.7,3.152,11.836,1.651,11.836,1.651s10.773-5.1,13.96-5.1,10.925-3.152,10.925-3.152l-.261-2.125-.79-6.4c4.9,3.822,10.353,2.5,13.038,2.224,2.883-.3,18.281-9.454,19.762-10.054a3.911,3.911,0,0,0,1.35-1.363h0a34.705,34.705,0,0,0,2.607-4.763h0c.965-.849,1.669-1.531,1.619-1.678a10.62,10.62,0,0,1,.943-2.52,12.341,12.341,0,0,0,4.671-1.682,4.245,4.245,0,0,0,.647-.654,4.152,4.152,0,0,0,.871-2.647s15.022-15.156,13.049-21.46,4.856-6.453,4.856-6.453,10.469-4.5,11.926-7.2c.9-1.663,8.749-5.31,14.66-7.873l.726-.313c2.3,5.027,13.94,1.159,16.235-.968,2.427-2.251,9.559-3.3,9.559-3.3s.3-29.413,2.579-33.165c1.08-1.78,1.341-7.587,1.314-13.2q0-.3,0-.6c3.188-.621,10.769-2.063,14.291-2.413a13.68,13.68,0,0,0,6.341-2.965c.137.169.21.264.21.264a4.381,4.381,0,0,0,1.941.319,3.009,3.009,0,0,0,1.7-.319c1.366-.75,6.373-2.251,8.194-3s-.3-6.153-1.669-7.2-2.276-2.4-1.517-3-1.821-2.1-3.339-2.4a49.319,49.319,0,0,1-6.069-2.4s-1.669-3.451-4.4-3.451-6.373-2.7-6.373-2.7c-.152-1.2-3.035-1.351-3.035-1.351s-10.925-8.4-12.746-7.353-6.828-1.651-6.828-1.651-6.141.688-7.587-.443v-.008a1.732,1.732,0,0,0-.365-1.019c-.327-1.014-1.914-2.407-3.453-3.566a13.49,13.49,0,0,0,.175-2.168c0-.315-.012-.631-.033-.939,0-.053-.01-.1-.014-.156q.108-1.056.214-2.113a4.379,4.379,0,0,1,.53-1.988c.256-.395.633-.707.918-1.084a3.121,3.121,0,0,0,.186-.281l.044-.079c.041-.074.079-.15.114-.227.012-.026.024-.051.035-.077a3.428,3.428,0,0,0,.2-.64c0-.017.006-.034.01-.052.019-.1.034-.2.045-.3l.005-.042a6.464,6.464,0,0,0-.342-2.577,17.347,17.347,0,0,1-1.243-4.267,13.23,13.23,0,0,0-.077-2.2c-.365-1.639-2.054-2.685-3.676-3.365a20.48,20.48,0,0,1-5.177-3.365c-1.531-1.188-4.058-.591-5.986-.468A52.279,52.279,0,0,0,367.4,108.2a12.809,12.809,0,0,0-4.5,2.235,4.959,4.959,0,0,0-1.648,2.781h0v0a3.521,3.521,0,0,0-.05.758c0,.023,0,.045,0,.068q.009.145.033.291c0,.031.009.063.015.094a3.269,3.269,0,0,0,.084.343l0,.01c.174.553.5,1.054.687,1.6a3.514,3.514,0,0,1,.1.371l.008.04c.025.12.046.241.061.362h0a15.514,15.514,0,0,1-.559,4.18c-.032.2-.053.4-.068.6h0v.007a7.156,7.156,0,0,0,.21,2.4l.006.027c.027.1.057.19.088.285.014.041.025.082.04.122.029.081.06.159.092.238.021.053.042.105.064.157.031.07.064.138.1.206s.057.115.087.172.07.123.106.183.072.118.11.175.074.11.113.164.088.117.134.173.079.1.121.145.1.113.159.168.083.085.126.126c.061.057.125.109.19.162.042.035.083.071.128.1.075.057.155.109.236.16.038.025.074.051.114.075a3.993,3.993,0,0,0,.382.2c.871.4,1.968.539,2.5,1.3a1.717,1.717,0,0,1,.255.6c0,.052,0,.1,0,.155v.132q.009.667.076,1.314a5.051,5.051,0,0,0,.04.711,2.023,2.023,0,0,0,.149.516,13.613,13.613,0,0,0,4.6,7.729c.044.231.1.5.156.807a15.17,15.17,0,0,1-4.415,2.315c-3.642,1.065-8.8,5.984-8.8,5.984s-2.564,18.458-3.177,20.709-1.071,10.955-1.071,10.955a25.132,25.132,0,0,1-1.518,5.4c-.643,1.27-.528,6.722,1.271,10.036a8.425,8.425,0,0,1-1.119,1.819c-3.641,4.2-14.567,4.052-18.208,4.052-3.355,0-4.389,2.033-4.532,2.354-6.666,1.893-28.261,8.057-30.822,9.177-3.035,1.327-4.7,14.431-4.7,14.431s-6.373,21.759-6.069,24.622-2.125,10.793-2.125,10.793,0,8.977-1.032,9.587a.078.078,0,0,1-.031.018c-1.062.45-.91,4.8-.91,4.8s.78.225,2,.535a34.87,34.87,0,0,1-2.459,7.46c-.472-.6-.933-.849-1.211-.15-.759,1.909-12.139,15.415-15.021,15.415a8.737,8.737,0,0,0-5.138,2.644C261.217,305.278,260.522,307.421,262.983,309.069Zm52.2-78.185a126.511,126.511,0,0,0,26.706-.915,30.681,30.681,0,0,1-1.972,5.267c-.911,1.5-3.49,10.055-3.49,11.855s-4.1,17.258-5.31,18.008a4.487,4.487,0,0,0-1.32,1.909,17.891,17.891,0,0,0-.8,2.293c.018.392.055.761.1,1.112-.907.832-1.865,1.7-2.72,2.473h0a59.069,59.069,0,0,0-7.247,4.67c-1.821,1.651-10.318,3.673-10.318,3.673a52.827,52.827,0,0,0-6.106,3.115c-2.633,1.589-5.268,3.6-5.955,5.6.3-3.354.783-7.394,1.107-9.963.165,0,.327-.01.485-.02,4.252-.264,3.617-4.323,3.393-5.328-.03-.144-.055-.225-.055-.225,3.035-3.3,9.863-27.912,8.952-30.613s.759-5.1,1.12-5.1.853-3,.094-4.652,3.338-3.152,3.338-3.152Zm104.3-66.2c-.269.065-.537.129-.8.2-.007-.113-.01-.174-.01-.174s.3,0,.815-.025ZM375.39,142.036c-.122.15-.245.3-.374.438-.051.055-.1.108-.156.162,0-.282,0-.562,0-.833q.262.122.531.233Zm-15.2,29.114.056.845s-.083.515-.236,1.4Zm69.732-8.387-2.647.457c.376-.142.745-.3,1.1-.466a2.538,2.538,0,0,1,.844-.229,4.6,4.6,0,0,1,.987.212,2.128,2.128,0,0,0-.287.027Z" fill="url(#linear-gradient)"/>
            <path id="Tracé_8124" data-name="Tracé 8124" d="M369.3,346.2s-3.049,6.309-2.9,6.757-6.553,5.807-6.553,5.807l-7.3-5.212.745-3.574s8.191-7.381,8.786-8.233S369.3,346.2,369.3,346.2Z" transform="translate(-28.925 -75.088)" fill="#be6f72"/>
            <path id="Tracé_8125" data-name="Tracé 8125" d="M315.666,370.3c5.063,4.914,11.02,3.425,13.85,3.128s17.943-9.382,19.4-9.978a3.872,3.872,0,0,0,1.325-1.352h0a34.583,34.583,0,0,0,2.559-4.727c-.1.027-5.055,1.442-6.306,0,0,0-2.085-2.556-2.532-2.556s-.035-4.486-.035-4.486a57.91,57.91,0,0,0-7.113,4.635c-1.787,1.638-10.127,3.646-10.127,3.646a51.493,51.493,0,0,0-5.993,3.092C316.744,364.109,312.786,367.508,315.666,370.3Z" transform="translate(-16.911 -77.841)" fill="#1c1d22"/>
            <path id="Tracé_8126" data-name="Tracé 8126" d="M315.666,375.586c5.063,4.914,11.02,3.425,13.85,3.128s17.943-9.382,19.4-9.978a3.872,3.872,0,0,0,1.325-1.352c-1.764-1.052-13.276,6.266-16.5,7.607s-11.372.6-15.989-1.34c-2.306-.965.029-3.935,2.943-6.666C316.744,369.393,312.786,372.792,315.666,375.586Z" transform="translate(-16.911 -83.125)" opacity="0.1" style="isolation: isolate"/>
            <path id="Tracé_8127" data-name="Tracé 8127" d="M310.077,355.9s-2.121,15.935-1.582,18.02-13.311-7.148-13.311-7.148,4.847-9.985,3.425-12.279S310.077,355.9,310.077,355.9Z" transform="translate(-10.726 -78.923)" fill="#be6f72"/>
            <path id="Tracé_8128" data-name="Tracé 8128" d="M297.58,321.9s8.638,2.532,13.4,2.234c4.173-.262,3.55-4.289,3.33-5.287-.03-.143-.054-.223-.054-.223,2.979-3.276,9.681-27.7,8.787-30.38s.745-5.064,1.1-5.064.837-2.978.092-4.617,3.277-3.127,3.277-3.127a122.822,122.822,0,0,0,26.211-.909,30.648,30.648,0,0,1-1.936,5.227c-.894,1.49-3.425,9.978-3.425,11.765s-4.021,17.127-5.212,17.872a4.456,4.456,0,0,0-1.3,1.894,17.969,17.969,0,0,0-.789,2.276c.447,9.978,11.765,6.106,13.4,4.766a4.061,4.061,0,0,0,1.489-3.277s14.743-15.041,12.808-21.3,4.766-6.4,4.766-6.4,10.275-4.468,11.705-7.148c.882-1.65,8.587-5.269,14.39-7.813,3.634-1.594,6.52-2.761,6.52-2.761l-2.416-8.661-1.9-6.827-3.584-1.346-11.458-4.313-20.573-2.829-1.886.244-19.986,2.586s-29.19,8.34-32.168,9.656-4.617,14.321-4.617,14.321S301.3,294.055,301.6,296.9s-2.085,10.711-2.085,10.711,0,8.909-1.013,9.513a.08.08,0,0,1-.03.018C297.431,317.585,297.58,321.9,297.58,321.9Z" transform="translate(-11.484 -44.634)" fill="#1c1d22"/>
            <path id="Tracé_8129" data-name="Tracé 8129" d="M341.427,283.808a122.822,122.822,0,0,0,26.211-.909c.894-2.814,13.412-10.559,13.412-10.559C370.78,269.809,341.427,283.808,341.427,283.808Z" transform="translate(-25.396 -53.003)" opacity="0.1" style="isolation: isolate"/>
            <path id="Tracé_8130" data-name="Tracé 8130" d="M361.276,344.062c.447,9.978,11.765,6.106,13.4,4.766a4.169,4.169,0,0,0,.635-.649c-3.956,1.456-10.967,2.582-13.249-6.392A17.861,17.861,0,0,0,361.276,344.062Z" transform="translate(-31.693 -75.131)" fill="#444053"/>
            <path id="Tracé_8131" data-name="Tracé 8131" d="M297.58,355.111s8.638,2.532,13.4,2.234c4.173-.262,3.55-4.289,3.33-5.287-4.372-.137-11.9-.548-15.81-1.73a.08.08,0,0,1-.03.018C297.431,350.792,297.58,355.111,297.58,355.111Z" transform="translate(-11.484 -77.841)" fill="#444053"/>
            <path id="Tracé_8132" data-name="Tracé 8132" d="M361.276,344.062c.447,9.978,11.765,6.106,13.4,4.766a4.169,4.169,0,0,0,.635-.649c-3.956,1.456-10.967,2.582-13.249-6.392A17.861,17.861,0,0,0,361.276,344.062Z" transform="translate(-31.693 -75.131)" opacity="0.1" style="isolation: isolate"/>
            <path id="Tracé_8133" data-name="Tracé 8133" d="M297.58,355.111s8.638,2.532,13.4,2.234c4.173-.262,3.55-4.289,3.33-5.287-4.372-.137-11.9-.548-15.81-1.73a.08.08,0,0,1-.03.018C297.431,350.792,297.58,355.111,297.58,355.111Z" transform="translate(-11.484 -77.841)" opacity="0.1" style="isolation: isolate"/>
            <path id="Tracé_8134" data-name="Tracé 8134" d="M265.657,391.882c4.617,3.128,11.616,1.639,11.616,1.639s10.574-5.064,13.7-5.064S301.7,385.33,301.7,385.33l-.256-2.109-1.233-10.1s-11.6-.3-12.064-1.341c0,0-2.084-5.129-2.829-3.234s-11.914,15.3-14.743,15.3a8.545,8.545,0,0,0-5.043,2.624C263.924,388.121,263.242,390.247,265.657,391.882Z" transform="translate(-0.858 -83.486)" fill="#1c1d22"/>
            <path id="Tracé_8135" data-name="Tracé 8135" d="M325.067,274.01s9.68,6.106,7,7.446S325.067,274.01,325.067,274.01Z" transform="translate(-20.206 -53.63)" opacity="0.1" style="isolation: isolate"/>
            <path id="Tracé_8136" data-name="Tracé 8136" d="M319.178,291.242s8.34,7.917,5.212,8.129S319.178,291.242,319.178,291.242Z" transform="translate(-18.338 -59.096)" opacity="0.1" style="isolation: isolate"/>
            <path id="Tracé_8137" data-name="Tracé 8137" d="M306.09,328.105s4.234,7.959,2.638,9.341S306.09,328.105,306.09,328.105Z" transform="translate(-14.186 -70.791)" opacity="0.1" style="isolation: isolate"/>
            <path id="Tracé_8138" data-name="Tracé 8138" d="M374.317,337.457c-1.49,1.489,14.148-4.914,10.574-5.212S374.317,337.457,374.317,337.457Z" transform="translate(-35.799 -72.101)" opacity="0.1" style="isolation: isolate"/>
            <path id="Tracé_8139" data-name="Tracé 8139" d="M420.17,166.894s.175-.027.5-.074c1.852-.283,8.566-1.338,14.588-2.645,1.469-.319,2.892-.653,4.2-.995,4.614-1.21,7.708-2.514,5.737-3.584a10.563,10.563,0,0,1-4.715-6.21c-.068-.218-.134-.429-.193-.638a16.327,16.327,0,0,1-.6-3.428s-16.829-5.957-13.553,0a5.645,5.645,0,0,1-.992,6.978,13.077,13.077,0,0,1-3.625,2.7Z" transform="translate(-50.377 -13.233)" fill="#be6f72"/>
            <path id="Tracé_8140" data-name="Tracé 8140" d="M429.485,169.528s-6.019,4.318-12.169.744-14.191,31.573-14.191,31.573l-8.34,20.552s-5.4,4.468,1.32,6.4,21.639-1.936,25.424,3.723,10.958,6.552,11.691,6.552,3.571-21.3,3.571-21.3l.736-30.828Z" transform="translate(-41.673 -20.483)" opacity="0.1" style="isolation: isolate"/>
            <path id="Tracé_8141" data-name="Tracé 8141" d="M396.542,227.056c6.722,1.936,21.639-1.936,25.424,3.723a14.55,14.55,0,0,0,6.407,5.155,16.762,16.762,0,0,0,5.284,1.4c.1,0,.238-.39.4-1.066,1.049-4.31,3.169-20.231,3.169-20.231l.735-30.828-7.077-15.331-.965-2.093a12.828,12.828,0,0,1-3.068,1.492,10.8,10.8,0,0,1-9.1-.748c-1.8-1.048-3.771,1.236-5.65,4.989-4.525,9.037-8.54,26.584-8.54,26.584l-8.34,20.552a7.307,7.307,0,0,0-.565.542C393.471,222.442,391.252,225.534,396.542,227.056Z" transform="translate(-41.811 -19.93)" fill="#f3f5f9"/>
            <path id="Tracé_8142" data-name="Tracé 8142" d="M443.989,224.218a38.8,38.8,0,0,0-.2,7.842,91.87,91.87,0,0,0,1.4,11.078,4.2,4.2,0,0,0,.182.676c3.634-1.594,6.52-2.761,6.52-2.761l-2.416-8.661c1.049-4.31,3.169-20.23,3.169-20.23l.735-30.828L446.3,166c4.614-1.21,7.708-2.514,5.737-3.584-2.865-1.555-4.244-4.506-4.908-6.847a24.954,24.954,0,0,1-4.232,4.554l-.092.078-.537,5.2-.164,1.6-.342,3.315s1.638,39.168,2.829,41.4.6,6.553-.447,11.616C444.088,223.617,444.037,223.912,443.989,224.218Z" transform="translate(-57.228 -16.056)" opacity="0.1" style="isolation: isolate"/>
            <path id="Tracé_8143" data-name="Tracé 8143" d="M445.02,218.375c-1.043,5.064-.149,13.4,1.043,19.807s13.85,2.234,16.233,0,9.382-3.277,9.382-3.277.3-29.189,2.532-32.912c1.06-1.766,1.316-7.53,1.29-13.1-.021-5-.268-9.841-.361-11.483-.024-.381-.036-.59-.036-.59s9.68-16.382,9.531-17.573-2.979-1.34-2.979-1.34-10.723-8.34-12.509-7.3-6.7-1.638-6.7-1.638-6.228.706-7.515-.494a.655.655,0,0,1-.229-.548c.146-1.906-6.347-5.978-6.546-6.1,5.472,4.923-3.378,12.51-4.382,13.341l-.092.077-1.043,10.11s1.639,39.168,2.83,41.4S446.062,213.312,445.02,218.375Z" transform="translate(-57.505 -11.696)" fill="#4e4c60"/>
            <circle id="Ellipse_218" data-name="Ellipse 218" cx="0.745" cy="0.745" r="0.745" transform="translate(387.347 163.387)" fill="#444053"/>
            <path id="Tracé_8144" data-name="Tracé 8144" d="M444.736,156.043l4.524,4.379,6.633-11.068a.654.654,0,0,1-.229-.548c.145-1.906-6.348-5.978-6.547-6.1C454.589,147.626,445.74,155.212,444.736,156.043Z" transform="translate(-58.171 -11.973)" opacity="0.1" style="isolation: isolate"/>
            <circle id="Ellipse_219" data-name="Ellipse 219" cx="0.745" cy="0.745" r="0.745" transform="translate(388.836 187.215)" opacity="0.1" style="isolation: isolate"/>
            <circle id="Ellipse_220" data-name="Ellipse 220" cx="0.745" cy="0.745" r="0.745" transform="translate(388.836 186.918)" fill="#444053"/>
            <path id="Tracé_8145" data-name="Tracé 8145" d="M444.3,155.171l4.525,4.379,6.633-11.068a.655.655,0,0,1-.229-.548c.146-1.906-6.347-5.978-6.547-6.1C454.152,146.753,445.3,154.34,444.3,155.171Z" transform="translate(-58.032 -11.696)" fill="#67647e"/>
            <rect id="Rectangle_282" data-name="Rectangle 282" width="21.9" height="10.364" rx="1.699" transform="matrix(0.023, -1, 1, 0.023, 381.568, 185.177)" fill="#3f3d56"/>
            <rect id="Rectangle_283" data-name="Rectangle 283" width="21.9" height="10.364" rx="1.699" transform="matrix(0.023, -1, 1, 0.023, 381.568, 185.177)" opacity="0.1" style="isolation: isolate"/>
            <rect id="Rectangle_284" data-name="Rectangle 284" width="21.9" height="10.364" rx="1.699" transform="translate(381.623 185.663) rotate(-88.695)" fill="#3f3d56"/>
            <circle id="Ellipse_221" data-name="Ellipse 221" cx="1.629" cy="1.629" r="1.629" transform="translate(385.702 168.659)" fill="#67647e"/>
            <path id="Tracé_8146" data-name="Tracé 8146" d="M363.676,221.567c3.723,1.639,28.147-2.681,31.721-3.723s8.787-9.085,6.255-14.892.893-11.468.893-11.468,5.362-11.468,6.553-13.7,3.675-8.739,4.021-9.829a.883.883,0,0,0-.211-.682c-.968-1.474-4.7-4.084-4.7-4.084-1.051.381-1.182-2.63-1.141-4.843.024-1.239.1-2.228.1-2.228s-.494.5-1.3,1.189c-.295.247-.632.521-1,.8a15.428,15.428,0,0,1-4.695,2.564c-3.574,1.058-8.638,5.939-8.638,5.939l1.489,22.872s-3.425,21.507-7,25.678-14.3,4.021-17.871,4.021S363.676,221.567,363.676,221.567Z" transform="translate(-32.455 -16.229)" opacity="0.1" style="isolation: isolate"/>
            <path id="Tracé_8147" data-name="Tracé 8147" d="M363.239,220.258c3.723,1.639,28.147-2.68,31.721-3.723s8.787-9.084,6.255-14.892.894-11.468.894-11.468,5.362-11.468,6.553-13.7,3.675-8.739,4.021-9.829a.884.884,0,0,0-.212-.682c-.967-1.474-4.7-4.084-4.7-4.084-1.051.382-1.183-2.63-1.141-4.843.024-1.239.1-2.228.1-2.228s-.494.5-1.3,1.188c-.295.247-.632.522-1,.8a15.428,15.428,0,0,1-4.695,2.564c-3.574,1.058-8.638,5.939-8.638,5.939l1.489,22.872s-3.425,21.508-7,25.678-14.3,4.021-17.871,4.021S363.239,220.258,363.239,220.258Z" transform="translate(-32.316 -15.814)" fill="#4e4c60"/>
            <path id="Tracé_8148" data-name="Tracé 8148" d="M422.57,155.681s.14.787.375,1.993c.8,4.089,2.713,13.019,4.092,12.673.989-.247,2.66-2,3.959-3.511-.968-1.475-4.7-4.084-4.7-4.084-1.051.381-1.182-2.63-1.141-4.843l-1.2-1.039Z" transform="translate(-51.139 -16.09)" opacity="0.1" style="isolation: isolate"/>
            <path id="Tracé_8149" data-name="Tracé 8149" d="M423.006,154.809s.14.786.375,1.992c.8,4.09,2.714,13.019,4.093,12.674.989-.248,2.659-2,3.958-3.512-.967-1.474-4.7-4.084-4.7-4.084-1.051.382-1.183-2.63-1.141-4.843l-1.2-1.04Z" transform="translate(-51.277 -15.814)" fill="#67647e"/>
            <path id="Tracé_8150" data-name="Tracé 8150" d="M406,214.859s7.446-1.489,9.531-4.766,16.269-6.106,14.538-2.68-14.538,14.633-14.538,14.633l-5.549,7.947-7.407-1.879-3.119-6.068Z" transform="translate(-43.807 -32.008)" fill="#be6f72"/>
            <path id="Tracé_8151" data-name="Tracé 8151" d="M430.953,231.487s-7.211,2.68-8.3,6.255S430.953,231.487,430.953,231.487Z" transform="translate(-51.138 -40.139)" opacity="0.1" style="isolation: isolate"/>
            <path id="Tracé_8152" data-name="Tracé 8152" d="M437.432,237.583s.656,3.721-8.384,3.424Z" transform="translate(-53.194 -42.073)" opacity="0.1" style="isolation: isolate"/>
            <path id="Tracé_8153" data-name="Tracé 8153" d="M493.564,167.644l3.277-.3s3.574,2.681,6.255,2.681,4.319,3.425,4.319,3.425a48.252,48.252,0,0,0,5.957,2.383c1.489.3,4.021,1.787,3.276,2.383s.149,1.936,1.489,2.978,3.425,6.4,1.638,7.148-6.7,2.234-8.042,2.979a3.7,3.7,0,0,1-2.979,0s-7.89-10.276-11.912-8.34-9.533,1.936-9.533,1.936l-4.319-9.084Z" transform="translate(-70.307 -19.791)" opacity="0.1" style="isolation: isolate"/>
            <path id="Tracé_8154" data-name="Tracé 8154" d="M397.195,217.547a3.984,3.984,0,0,0,2.776,1.93,21.041,21.041,0,0,0,8.673-.8s-15-4.766-.556-16.355h-3.873l-1.29-.489.59-3.086.849-27.819-3.127-.745s-2.517,18.318-3.119,20.552-1.051,10.872-1.051,10.872a25.147,25.147,0,0,1-1.489,5.361C394.9,208.31,395.077,214.368,397.195,217.547Z" transform="translate(-42.464 -20.691)" fill="#4e4c60"/>
            <path id="Tracé_8155" data-name="Tracé 8155" d="M398.981,232.253a3.984,3.984,0,0,0,2.776,1.93,21.044,21.044,0,0,0,8.674-.8s-15-4.766-.557-16.355H406l-1.29-.489C402.591,220.294,399.252,226.978,398.981,232.253Z" transform="translate(-43.655 -35.397)" opacity="0.1" style="isolation: isolate"/>
            <path id="Tracé_8156" data-name="Tracé 8156" d="M398.109,232.253a3.984,3.984,0,0,0,2.776,1.93,21.041,21.041,0,0,0,8.673-.8s-15-4.766-.556-16.355h-3.873l-1.29-.489C401.719,220.294,398.38,226.978,398.109,232.253Z" transform="translate(-43.378 -35.397)" fill="none"/>
            <path id="Tracé_8157" data-name="Tracé 8157" d="M398.109,232.253a3.984,3.984,0,0,0,2.776,1.93,21.041,21.041,0,0,0,8.673-.8s-15-4.766-.556-16.355h-3.873l-1.29-.489C401.719,220.294,398.38,226.978,398.109,232.253Z" transform="translate(-43.378 -35.397)" fill="#67647e"/>
            <path id="Tracé_8158" data-name="Tracé 8158" d="M427.442,156.3a13.553,13.553,0,0,0,15.339-2.913c-.068-.218-.134-.429-.193-.638a16.374,16.374,0,0,1-.6-3.428s-16.829-5.957-13.553,0A5.645,5.645,0,0,1,427.442,156.3Z" transform="translate(-52.684 -13.233)" opacity="0.1" style="isolation: isolate"/>
            <path id="Tracé_8159" data-name="Tracé 8159" d="M415.808,135.529v.131c.005.44.029.875.074,1.3.044.411.107.819.184,1.219a13.556,13.556,0,0,0,26.113,1.751c.089-.262.173-.527.244-.8a13.5,13.5,0,0,0,.489-3.61c0-.313-.012-.625-.033-.933a13.552,13.552,0,0,0-27.072.933Z" transform="translate(-48.993 -5.398)" fill="#be6f72"/>
            <path id="Tracé_8160" data-name="Tracé 8160" d="M415.808,135.66a5.876,5.876,0,0,1,.074,1.3,4.978,4.978,0,0,0,.038.706,2.086,2.086,0,0,0,.146.513c.548,1.286,2.335,2.117,3.515,1.29a3.816,3.816,0,0,0,1.058-1.385c1.251-2.326,2.993-5,5.733-5.048a13.037,13.037,0,0,1,3.4.759,3.639,3.639,0,0,0,3.312-.447c.646-.59.953-1.6,1.823-1.808s1.668.589,2.067,1.37.715,1.7,1.523,2.1c.357.179.777.229,1.129.42,1.62.888.876,4,2.558,4.5a1.315,1.315,0,0,0,.161.039c.027-.277.057-.557.083-.834q.228-2.269.456-4.542a13.552,13.552,0,0,0-27.072.933Z" transform="translate(-48.993 -5.398)" opacity="0.1" style="isolation: isolate"/>
            <path id="Tracé_8161" data-name="Tracé 8161" d="M437.27,110.309c1.592.675,3.25,1.713,3.608,3.339a13.17,13.17,0,0,1,.075,2.183,17.359,17.359,0,0,0,1.22,4.234,4.705,4.705,0,0,1-.289,4.241c-.28.374-.649.684-.9,1.075a4.389,4.389,0,0,0-.52,1.973l-.736,7.331c-1.89-.352-1.049-3.627-2.72-4.54-.351-.191-.769-.243-1.128-.421-.806-.4-1.122-1.321-1.522-2.1s-1.186-1.579-2.068-1.368-1.174,1.219-1.821,1.808a3.635,3.635,0,0,1-3.314.446,13.13,13.13,0,0,0-3.394-.761c-2.741.046-4.484,2.723-5.735,5.049a3.793,3.793,0,0,1-1.057,1.387c-1.331.935-3.432-.242-3.66-1.8-.128-.874.145-1.85-.36-2.59-.518-.759-1.595-.9-2.45-1.294-2.176-1-2.851-3.72-2.489-6,.261-1.643.915-3.334.38-4.914-.184-.545-.5-1.043-.674-1.591a4.3,4.3,0,0,1,1.53-4.313,12.516,12.516,0,0,1,4.419-2.218,50.812,50.812,0,0,1,12.65-2.956c1.893-.123,4.372-.715,5.875.464A20.064,20.064,0,0,0,437.27,110.309Z" transform="translate(-46.381 -0.408)" fill="#3f3d56"/>
            <circle id="Ellipse_222" data-name="Ellipse 222" cx="0.745" cy="0.745" r="0.745" transform="translate(386.602 151.622)" opacity="0.1" style="isolation: isolate"/>
            <circle id="Ellipse_223" data-name="Ellipse 223" cx="0.745" cy="0.745" r="0.745" transform="translate(386.602 151.324)" fill="#444053"/>
            <circle id="Ellipse_224" data-name="Ellipse 224" cx="0.745" cy="0.745" r="0.745" transform="translate(391.368 198.385)" opacity="0.1" style="isolation: isolate"/>
            <circle id="Ellipse_225" data-name="Ellipse 225" cx="0.745" cy="0.745" r="0.745" transform="translate(391.368 198.087)" fill="#444053"/>
            <circle id="Ellipse_226" data-name="Ellipse 226" cx="0.745" cy="0.745" r="0.745" transform="translate(388.836 210.746)" opacity="0.1" style="isolation: isolate"/>
            <circle id="Ellipse_227" data-name="Ellipse 227" cx="0.745" cy="0.745" r="0.745" transform="translate(388.836 210.448)" fill="#444053"/>
            <path id="Tracé_8162" data-name="Tracé 8162" d="M411.325,191.625s-1.638,11.124,0,13.06S411.325,191.625,411.325,191.625Z" transform="translate(-47.34 -27.493)" opacity="0.1" style="isolation: isolate"/>
            <path id="Tracé_8163" data-name="Tracé 8163" d="M480.99,221.878s3.128,6.737,0,13.2-5.063,9.083-4.021,13.208S480.99,221.878,480.99,221.878Z" transform="translate(-68.306 -37.091)" opacity="0.1" style="isolation: isolate"/>
            <path id="Tracé_8164" data-name="Tracé 8164" d="M265.657,398.9c4.617,3.128,11.616,1.639,11.616,1.639s10.574-5.064,13.7-5.064,10.723-3.127,10.723-3.127l-.256-2.109c-3.086.6-10.1,2.011-10.914,2.7-1.042.894-13.85,5.213-13.85,5.213s-8.721-1.09-11.149-4.673C263.924,395.136,263.242,397.262,265.657,398.9Z" transform="translate(-0.858 -90.502)" opacity="0.1" style="isolation: isolate"/>
            <g id="Groupe_4485" data-name="Groupe 4485" transform="translate(361.192 113.746)" opacity="0.1">
              <path id="Tracé_8165" data-name="Tracé 8165" d="M456.461,118.313c-.008-.162-.008-.324-.006-.485.014.185.016.371.014.558C456.466,118.361,456.462,118.337,456.461,118.313Z" transform="translate(-423.08 -117.828)"/>
              <path id="Tracé_8166" data-name="Tracé 8166" d="M410.66,134.412c.855.394,1.932.535,2.45,1.294.5.74.231,1.716.36,2.59.228,1.561,2.33,2.739,3.66,1.8a3.793,3.793,0,0,0,1.057-1.387c1.252-2.326,2.994-5,5.735-5.049a13.137,13.137,0,0,1,3.394.761,3.635,3.635,0,0,0,3.314-.446c.647-.589.953-1.6,1.82-1.808.883-.211,1.669.589,2.069,1.368s.716,1.7,1.522,2.1c.358.178.777.23,1.128.421,1.671.913.83,4.188,2.72,4.54q.368-3.665.736-7.331a4.381,4.381,0,0,1,.52-1.973c.251-.392.621-.7.9-1.075a3.284,3.284,0,0,0,.612-1.576,3.807,3.807,0,0,1-.612,2.767c-.28.374-.65.684-.9,1.075a4.381,4.381,0,0,0-.52,1.973q-.368,3.665-.736,7.331c-1.891-.352-1.049-3.627-2.72-4.54-.351-.191-.769-.243-1.128-.421-.806-.4-1.122-1.321-1.522-2.1s-1.186-1.579-2.069-1.368c-.867.207-1.174,1.219-1.82,1.808a3.635,3.635,0,0,1-3.314.446,13.137,13.137,0,0,0-3.394-.761c-2.741.046-4.484,2.723-5.735,5.049a3.793,3.793,0,0,1-1.057,1.387c-1.331.935-3.432-.242-3.66-1.8-.128-.874.145-1.85-.36-2.59-.518-.759-1.595-.9-2.45-1.294-1.99-.917-2.722-3.268-2.556-5.405A4.858,4.858,0,0,0,410.66,134.412Z" transform="translate(-407.734 -121.26)"/>
              <path id="Tracé_8167" data-name="Tracé 8167" d="M407.714,118.608c.171.549.49,1.047.675,1.591a4.58,4.58,0,0,1,.169,1.958,3.819,3.819,0,0,0-.169-.767c-.184-.545-.5-1.043-.675-1.591a3.3,3.3,0,0,1-.087-1.554A3.179,3.179,0,0,0,407.714,118.608Z" transform="translate(-407.573 -117.96)"/>
            </g>
            <path id="Tracé_8168" data-name="Tracé 8168" d="M463.306,208.842c3.425-.751,11.468-3.122,11.468-3.122s.545-.111,1.439-.289c-.021-5-.268-9.841-.36-11.483l-.036.006s-6.851,2.234-8.489,3.425-6.7.893-6.7.893a22.957,22.957,0,0,0-14.446,7.744C439.626,213.315,459.88,209.592,463.306,208.842Z" transform="translate(-58.217 -28.231)" opacity="0.1" style="isolation: isolate"/>
            <path id="Tracé_8169" data-name="Tracé 8169" d="M496.779,194.368a1.987,1.987,0,0,1,.447,3.339c-1.814,1.5-4.464,3.3-6.991,3.554-4.218.424-14.372,2.461-15.38,2.664-.055.011-.107.024-.16.04-.838.246-8.162,2.391-11.389,3.1-3.425.75-23.679,4.474-17.126-2.824a23.165,23.165,0,0,1,14.3-7.732,1.759,1.759,0,0,1,.262-.005c.766.036,5.095.184,6.585-.9a14.036,14.036,0,0,1,2.465-1.227,47.309,47.309,0,0,1,10.068-2.9l7.006-1.221a2.014,2.014,0,0,1,1.18.15Z" transform="translate(-58.217 -27.048)" fill="#be6f72"/>
            <path id="Tracé_8170" data-name="Tracé 8170" d="M494.437,167.644l3.276-.3s3.574,2.681,6.255,2.681,4.319,3.425,4.319,3.425a48.208,48.208,0,0,0,5.957,2.383c1.489.3,4.021,1.787,3.276,2.383s.149,1.936,1.49,2.978,3.425,6.4,1.638,7.148-6.7,2.234-8.042,2.979a3.694,3.694,0,0,1-2.978,0s-7.89-10.276-11.913-8.34-9.533,1.936-9.533,1.936l-4.319-9.084Z" transform="translate(-70.583 -19.791)" fill="#4e4c60"/>
          </g>
          <g id="Groupe_4488" data-name="Groupe 4488" transform="translate(290.855 -459.275)">
            <path id="Tracé_8171" data-name="Tracé 8171" d="M151.75,644.9s-10.917,2.642-15.238,7.58a14.7,14.7,0,0,1-5.811,3.693V648.7c2.5-4.194,5.015-8.858,5.015-8.858.114-.229,1.023-3.445,1.023-3.445,2.047-1.608-.114-7.235-.114-7.235s1.251-3.561.569-4.249-.114-2.527.455-3.331a4.161,4.161,0,0,0,.455-2.527c0-.69-.909-1.723-2.388-2.3s.114-1.493,1.023-1.723,1.137-2.411.114-3.56.114-1.838.683-3.1-1.82-1.034-1.82-1.034v-11.6h0s-.683-3.79-1.365-10.454-3.3-7.349-3.3-7.349a29.648,29.648,0,0,1-4.094-1.609,28.08,28.08,0,0,0-4.323-1.6,22.221,22.221,0,0,1-5.571-.772,17.067,17.067,0,0,0-3.8-.824c-.139-.065-.273-.134-.409-.2a14.888,14.888,0,0,1-6.9-7.312c-.07-.158-.135-.313-.2-.468a16.2,16.2,0,0,0,1.818-2.412l.011-.019c0,.117,0,.234.006.351,0,.049,0,.1,0,.148q0,.424-.012.849l0,0v.025c1.815-3.205,7.076-3.937,7.577-7.595a3.887,3.887,0,0,0,.033-.5v-.023c0-.123-.006-.246-.015-.37-.068-1.021-.418-2.038-.485-3.07a5.873,5.873,0,0,1,.015-.886v.017c.235-2.842,2.377-5.312,3.359-8.071a9.9,9.9,0,0,0,.512-2.3l0-.021q.036-.356.048-.713c0-.059,0-.118,0-.177,0-.165,0-.331,0-.5a10.748,10.748,0,0,0-3.549-7.76c-1.813-1.576-4.209-2.566-5.464-4.622-.586-.959-.874-2.087-1.512-3.012-1.2-1.742-3.413-2.451-5.5-2.7s-4.24-.168-6.238-.825c-1.416-.465-2.7-1.288-4.134-1.7a7.913,7.913,0,0,0-8.5,3.064c-.754,1.1-1.249,2.419-2.265,3.278-2.084,1.76-5.619,1-7.445,3.028a5.4,5.4,0,0,0-1,4.192l0,.054c.01.121.021.241.033.362.006.056.011.112.017.168l.021.18c.064.557.145,1.111.215,1.646.01.082.019.163.029.245.02.166.039.332.056.5.012.121.022.243.031.364q.019.226.033.452c.007.118.015.236.021.355A24.517,24.517,0,0,1,70.875,549.4c-1.72,3.378-4.279,6.487-4.724,10.259a10.844,10.844,0,0,0-.049,1.861c0,.073.006.146.01.219.008.112.02.223.031.335.012.128.024.257.039.384.009.073.02.146.031.219.023.17.048.34.077.509.006.036.013.073.02.109.452,2.57,1.475,5.108,2.02,7.687a21.464,21.464,0,0,1,.406,2.905v.02q.032.465.045.932c.01.42,0,.841-.009,1.262a19.751,19.751,0,0,1-2.65.814c-1.594.231-6.257,4.365-5.916,5.4s-2.088,8.279-2.156,8.493l0,0h0L54.21,617.22s-2.026,1.953-1.393,3.216-.123,3.445-.123,3.445-3.423,1.493-2.663,2.412.413,2.641-.109,3.79-1.376,3.215,0,3.56.236,4.824.236,4.824,4.8-.551,4.447,2.3c-.113.91,3.357,3.4,4.806,4.4v13.721a42.028,42.028,0,0,1-5.686-1.928c-2.957-1.378-19.559-4.02-23.2,3.9s5,18.49,7.164,19.639a14.779,14.779,0,0,1,2.5,2.412c.455.8,3.07,1.034,3.07,1.034a19.285,19.285,0,0,1,3.411,1.952c.5.508,4.659,1.829,9.59,2.856h0s-3.98,9.164,2.513,8.407,9.656-3.951,14.235-3.951c1.829,0,5.228-.255,8.649-.561a22.681,22.681,0,0,1,2.542.6,32.563,32.563,0,0,0,5.914,1.263s5.117,2.756,7.846,2.067a1.79,1.79,0,0,0,.621-.332l.062-.013a3.65,3.65,0,0,0,1.643-1.41c3.416.349,7.305.846,8.769,1.412,2.831,1.093,23.059-.42,23.059-.42s13.07.257,16.816,1.39,2.414-11.562-4.5-12.992a28.159,28.159,0,0,0-5.621-.5,12.287,12.287,0,0,0,1.306-1.588c2.49-.227,4.125-.366,4.125-.366s6.6-3.216,10.348-5.168a23.59,23.59,0,0,0,6.368-5.053s3.3-2.067,4.663-2.871,2.047-3.446,2.047-3.446C178.019,641.8,151.75,644.9,151.75,644.9Zm-29.613-29.39c0-.386,0-.773,0-1.158.364.263.31.673,0,1.158Zm.108,8.122c.275.363.542.693.735.94.735.942-.6,1.4-.5,2.981.022.356.052.846.086,1.393h0c-.14-2.264-.254-4.142-.321-5.314Z" fill="url(#linear-gradient-2)"/>
            <path id="Tracé_8172" data-name="Tracé 8172" d="M63.05,719.163a67.2,67.2,0,0,1-9.325-2.842c-2.957-1.365-19.559-3.98-23.2,3.866s5,18.309,7.164,19.446,23.2-14.442,23.2-14.442l16.6,6.994,3.184-10.86Z" transform="translate(0 -59.286)" fill="#1c1d22"/>
            <rect id="Rectangle_285" data-name="Rectangle 285" width="72.24" height="25.132" rx="12.566" transform="translate(70.071 662.037)" fill="#65617d"/>
            <path id="Tracé_8173" data-name="Tracé 8173" d="M159.874,736.729A12.567,12.567,0,0,1,147.31,749.3H100.2a12.567,12.567,0,0,1,0-25.133h47.11a12.566,12.566,0,0,1,12.564,12.565Z" transform="translate(-17.563 -62.127)" opacity="0.56" style="isolation: isolate"/>
            <path id="Tracé_8174" data-name="Tracé 8174" d="M114.016,743.241a60.048,60.048,0,0,1-13.153,1.776c-5.911-.083-33.564,11.4-33.564,11.4s-3.98,9.074,2.513,8.325,9.656-3.913,14.235-3.913,18.98-1.581,18.98-1.581l13.86-10.239Z" transform="translate(-11.037 -67.904)" fill="#fbbebe"/>
            <path id="Tracé_8175" data-name="Tracé 8175" d="M126.517,606.331l-12.994,2.562-.843.167s-10.272-2.729-10.613-2.958S92.4,593.308,92.4,593.308a18.814,18.814,0,0,0,8.419-2.085c.133-.075.263-.157.393-.238a8.2,8.2,0,0,0,3.514-4.292c.065-.188.123-.382.178-.584a11.539,11.539,0,0,0-.109-5.6c-1.256-5.3,1.654-6.761,5.534-6.635,5.6.184,13.23,3.681,13.23,3.681a15.532,15.532,0,0,0,1.2,5.186c.061.153.13.307.2.464a14.805,14.805,0,0,0,6.9,7.24c.137.068.27.136.409.2.413.2.85.386,1.3.556C143.462,594.959,126.517,606.331,126.517,606.331Z" transform="translate(-19.004 -16.618)" fill="#fbbebe"/>
            <path id="Tracé_8176" data-name="Tracé 8176" d="M130.209,583.211a16.379,16.379,0,0,1-20.227,3.483,11.008,11.008,0,0,0,.068-6.178c-3.07-12.964,18.764-2.954,18.764-2.954A15.727,15.727,0,0,0,130.209,583.211Z" transform="translate(-24.258 -16.619)" opacity="0.1" style="isolation: isolate"/>
            <path id="Tracé_8177" data-name="Tracé 8177" d="M130.751,563.634a16.29,16.29,0,0,1-2.48,8.665,16.052,16.052,0,0,1-1.819,2.388,16.3,16.3,0,0,1-11.087,5.292c-.327.02-.658.031-.989.031a16.375,16.375,0,1,1,16.376-16.376Z" transform="translate(-20.699 -8.559)" fill="#fbbebe"/>
            <path id="Tracé_8178" data-name="Tracé 8178" d="M126.517,613.531l-12.994,2.562-.843.167s-10.272-2.729-10.613-2.957S92.4,600.508,92.4,600.508a18.815,18.815,0,0,0,8.419-2.085c.133-.075.263-.157.393-.238a15.249,15.249,0,0,0,11.084,4.848,15.876,15.876,0,0,0,2.313-.184c1.829-.28,3.671-.461,5.51-.652,3.52-.368,8.907-1.436,11.735-4.547.137.068.27.136.409.2.413.2.85.385,1.3.556C143.462,602.159,126.517,613.531,126.517,613.531Z" transform="translate(-19.004 -23.818)" opacity="0.1" style="isolation: isolate"/>
            <path id="Tracé_8179" data-name="Tracé 8179" d="M134.519,646.822c.113,2.5,1.935,30.7,1.935,30.7H79.706l.385-17.754.311-14.2.1-4.66.453-16.147-1.641-1.447-8.935-7.88,0,0c.068-.212,2.494-7.4,2.156-8.41s4.322-5.117,5.916-5.346a20.089,20.089,0,0,0,2.667-.812c2.681-.942,6.26-2.327,6.656-2.112.556.3,6.137-.219,6.372-.243h.007a15.217,15.217,0,0,0,11.47,5.292,15.784,15.784,0,0,0,2.313-.185c1.829-.28,3.671-.46,5.51-.651,3.7-.385,9.45-1.546,12.145-5.029a17.24,17.24,0,0,1,3.8.816,22.364,22.364,0,0,0,5.571.764,28.145,28.145,0,0,1,4.323,1.59,29.992,29.992,0,0,0,4.094,1.593s2.617.683,3.3,7.277,1.364,10.35,1.364,10.35L134.519,632.04S134.407,644.322,134.519,646.822Z" transform="translate(-12.336 -23.905)" fill="#0099d5"/>
            <path id="Tracé_8180" data-name="Tracé 8180" d="M69.493,692.075l1.988,3.184,7.45,2.626,5.117-9.335-4.718-3.184-7.564-2.956-4.321,2.5Z" transform="translate(-11.447 -49.484)" fill="#fbbebe"/>
            <path id="Tracé_8181" data-name="Tracé 8181" d="M161.118,712.994s10.576-.8,14.9-5.686,15.238-7.505,15.238-7.505,26.269-3.07,15.921,20.128c0,0-.683,2.616-2.047,3.412s-4.663,2.843-4.663,2.843L160.1,722.66Z" transform="translate(-39.504 -54.71)" fill="#1c1d22"/>
            <path id="Tracé_8182" data-name="Tracé 8182" d="M172.88,738.111a12.529,12.529,0,0,1-2.091,6.946c-6.789.6-21.827,2.016-24.973,2.893-3.865,1.072-11.688-.795-12.544-1.006l-.079-.017s-1.507-4.575-2.228-7.5c-.324-1.33-.488-2.32-.276-2.391.682-.229,6.939-1.935,6.823-.969s18.764-7.334,18.764-7.334l.58,7.279C158.78,738.216,172.88,734.953,172.88,738.111Z" transform="translate(-30.569 -63.51)" opacity="0.1" style="isolation: isolate"/>
            <path id="Tracé_8183" data-name="Tracé 8183" d="M192.622,732.178l-.8,2.956a23.547,23.547,0,0,1-6.368,5c-3.752,1.933-10.348,5.117-10.348,5.117s-24.222,2.047-28.316,3.184-12.623-1.023-12.623-1.023-3.184-9.666-2.5-9.894,6.937-1.933,6.823-.966,18.763-7.334,18.763-7.334Z" transform="translate(-30.865 -63.659)" fill="#1c1d22"/>
            <path id="Tracé_8184" data-name="Tracé 8184" d="M122.412,765.266s11.9.832,14.735,1.914,23.059-.416,23.059-.416,13.07.254,16.816,1.375,2.414-11.449-4.5-12.863-16.649.666-16.649.666-10.988-1.415-12.32-1.582-10.113.081-10.113.081Z" transform="translate(-28.091 -71.254)" fill="#fbbebe"/>
            <path id="Tracé_8185" data-name="Tracé 8185" d="M55.31,725.014s15.733,1.415,20.062,4Z" transform="translate(-7.772 -62.385)" opacity="0.1" style="isolation: isolate"/>
            <path id="Tracé_8186" data-name="Tracé 8186" d="M188.634,710.208s-12.32,3-17.148,7.409Z" transform="translate(-42.951 -57.901)" opacity="0.1" style="isolation: isolate"/>
            <path id="Tracé_8187" data-name="Tracé 8187" d="M56.623,719.88c.25.083,7.242,1,7.076,1.665S56.623,719.88,56.623,719.88Z" transform="translate(-8.17 -60.83)" opacity="0.1" style="isolation: isolate"/>
            <path id="Tracé_8188" data-name="Tracé 8188" d="M40.86,741.981l.91,3.411a14.751,14.751,0,0,1,2.5,2.388c.455.8,3.07,1.024,3.07,1.024a19.342,19.342,0,0,1,3.411,1.933c.683.682,8.074,2.843,15.011,3.752s19.787,2.616,22.517,3.525a32.8,32.8,0,0,0,5.913,1.252s5.117,2.729,7.847,2.047,7.392-13.078,7.392-13.078-17.967-4.208-18.536-5.572-17.854-7.729-17.854-7.729l-10.234.242Z" transform="translate(-3.396 -65.389)" opacity="0.1" style="isolation: isolate"/>
            <path id="Tracé_8189" data-name="Tracé 8189" d="M39.881,739.951l.91,3.411a14.726,14.726,0,0,1,2.5,2.388c.455.8,3.07,1.023,3.07,1.023a19.312,19.312,0,0,1,3.411,1.933c.683.682,8.074,2.843,15.011,3.752s19.787,2.616,22.516,3.526a32.8,32.8,0,0,0,5.914,1.251s5.117,2.729,7.846,2.047,7.392-13.077,7.392-13.077S90.485,742,89.917,740.633,63.989,728.92,63.989,728.92l-7.961-1.82Z" transform="translate(-3.1 -63.016)" fill="#1c1d22"/>
            <path id="Tracé_8190" data-name="Tracé 8190" d="M68.518,621.406l-1.988,1.137L62.694,648.7s-2.026,1.933-1.393,3.184-.123,3.411-.123,3.411-3.423,1.479-2.663,2.389.413,2.615-.109,3.752-1.376,3.184,0,3.526.236,4.776.236,4.776,4.8-.545,4.447,2.274c-.142,1.137,5.429,4.776,5.429,4.776s-6.331-11.486,7.85-9.894l1.219-6.475s1.219-3.646,0-4.783.274-6.539.274-6.539l.268-23.483Z" transform="translate(-8.484 -31.012)" fill="#0099d5"/>
            <path id="Tracé_8191" data-name="Tracé 8191" d="M68.8,669.851c.25.416,7.908,1.266,8.407,2.631S68.8,669.851,68.8,669.851Z" transform="translate(-11.857 -45.681)" opacity="0.1" style="isolation: isolate"/>
            <path id="Tracé_8192" data-name="Tracé 8192" d="M65.339,677.977s1.039-3.246,3.516-2.664S65.339,677.977,65.339,677.977Z" transform="translate(-10.809 -47.314)" opacity="0.1" style="isolation: isolate"/>
            <path id="Tracé_8193" data-name="Tracé 8193" d="M63.429,684.227s1.832-4.329,4.329-4S63.429,684.227,63.429,684.227Z" transform="translate(-10.23 -48.818)" opacity="0.1" style="isolation: isolate"/>
            <path id="Tracé_8194" data-name="Tracé 8194" d="M173.3,683.513l-.8,4.776s-8.188,15.011-9.666,15.239-9.552-10.008-9.552-10.008l-2.161-10.007,8.506-1.612,3.775-3.733S172.955,679.078,173.3,683.513Z" transform="translate(-36.784 -48.199)" fill="#fbbebe"/>
            <path id="Tracé_8195" data-name="Tracé 8195" d="M172.149,626.091l3.07,2.161v11.486s2.388-.227,1.82,1.023-1.706,1.933-.683,3.07.8,3.3-.114,3.525-2.5,1.137-1.023,1.706,2.388,1.592,2.388,2.274a4.082,4.082,0,0,1-.455,2.5c-.569.8-1.137,2.616-.455,3.3s-.569,4.208-.569,4.208,2.161,5.573.114,7.164c0,0-.91,3.184-1.023,3.412,0,0,1.433-11.071-12.873-6.388,0,0-.266-4.219-.363-5.784s1.234-2.019.5-2.953-2.575-3.07-1.706-3.639.569-1.592.228-2.388-1.546-.8-.456-1.763,1.733-1.874,1.095-2.33-1.75-1.937-.867-2.617.91-10.576.91-10.576S165.326,618.927,172.149,626.091Z" transform="translate(-39.504 -31.83)" fill="#0099d5"/>
            <path id="Tracé_8196" data-name="Tracé 8196" d="M175.306,654.787s4.373-1.186,4.517,0S175.306,654.787,175.306,654.787Z" transform="translate(-44.107 -40.96)" opacity="0.1" style="isolation: isolate"/>
            <path id="Tracé_8197" data-name="Tracé 8197" d="M168.262,659.365s5.994-1.5,6.743-.333S168.262,659.365,168.262,659.365Z" transform="translate(-41.974 -42.271)" opacity="0.1" style="isolation: isolate"/>
            <path id="Tracé_8198" data-name="Tracé 8198" d="M166.351,664.059s8.991-1.249,9.573.583S166.351,664.059,166.351,664.059Z" transform="translate(-41.396 -43.801)" opacity="0.1" style="isolation: isolate"/>
            <path id="Tracé_8199" data-name="Tracé 8199" d="M168.262,669.851c.333.083,8.657.666,8.824,2.248S168.262,669.851,168.262,669.851Z" transform="translate(-41.974 -45.681)" opacity="0.1" style="isolation: isolate"/>
            <rect id="Rectangle_286" data-name="Rectangle 286" width="71.29" height="40.492" rx="10.467" transform="translate(59.411 629.296)" fill="#3f3d56"/>
            <circle id="Ellipse_228" data-name="Ellipse 228" cx="2.629" cy="2.629" r="2.629" transform="translate(92.426 646.913)" fill="#e7effd"/>
            <path id="Tracé_8200" data-name="Tracé 8200" d="M89.466,641.608s6.833,5.223,12.116,1.242C101.582,642.85,92.65,643.663,89.466,641.608Z" transform="translate(-18.115 -37.129)" opacity="0.1" style="isolation: isolate"/>
            <path id="Tracé_8201" data-name="Tracé 8201" d="M139.093,643.621s6.833,5.223,12.116,1.243C151.209,644.864,142.277,645.676,139.093,643.621Z" transform="translate(-33.142 -37.738)" opacity="0.1" style="isolation: isolate"/>
            <path id="Tracé_8202" data-name="Tracé 8202" d="M124.429,563.633a16.29,16.29,0,0,1-2.48,8.665,24.958,24.958,0,0,0-3.692-12.93c-2.272-3.49-9.177-9.607-13.926-7.9a3.37,3.37,0,0,0-2.074,2.231c-.471,1.788.907,2.532,1.791,3.954a12.109,12.109,0,0,1,1.654,8.17,11.379,11.379,0,0,1-.239,1.132c-.747,2.8-2.46,6.015-.692,8.317,1.232,1.6,3.879,2.157,4.237,4.145a2.385,2.385,0,0,1,.034.563c-.082,1.337-1.224,2.518-1.723,3.835a6.3,6.3,0,0,0,.351,4.643c.792,2.03,2.05,4.083,2.354,6.226a12.306,12.306,0,0,1-1.129,6.151,27.561,27.561,0,0,0-1.876,5.79c-.549,3.78.836,8.15-1.542,11.139a1.664,1.664,0,0,1-1.04.7c-1.525.16-1.266-2.58-2.491-3.5a10.717,10.717,0,0,1-.323,4.742,3.651,3.651,0,0,1-3.661,2.5q-.271-1.785-.542-3.575A10.31,10.31,0,0,1,93.633,621a27.6,27.6,0,0,1,3.95-10.7c-4.005,1.928-6.339,6.1-8.423,10.026-1.3,2.453-2.644,5.135-2.191,7.874.184,1.115.665,2.177.771,3.3a2.747,2.747,0,0,1-1.351,2.865,2.442,2.442,0,0,1-2.637-.819c-.038-.045-.075-.089-.113-.137a2.745,2.745,0,0,1-.181-.256,4.017,4.017,0,0,1-.3-.539,10.452,10.452,0,0,1-.641-2.091l-.072-.307c-1.058-4.65-2.013-9.443-1.238-14.145a26.572,26.572,0,0,0,.747-5.206,9.625,9.625,0,0,0-.593-2.9c-.928-2.6-2.716-4.991-3.736-7.611a.424.424,0,0,1-.024-.058c-.535-1.389-.8-3.121.191-4.233a8.625,8.625,0,0,1,1.9-1.286c1.979-1.29,2.865-3.736,3.227-6.069a20.408,20.408,0,0,0,.249-3.193c2.681-.942,6.26-2.327,6.656-2.112.556.3,6.137-.218,6.372-.242a8.334,8.334,0,0,0,3.906-4.53c.065-.187.123-.382.178-.584a16.377,16.377,0,1,1,24.15-14.417Z" transform="translate(-14.377 -8.558)" opacity="0.1" style="isolation: isolate"/>
            <path id="Tracé_8203" data-name="Tracé 8203" d="M105.463,558.333c-.749,2.8-2.459,6.015-.691,8.318,1.232,1.6,3.878,2.155,4.234,4.147.282,1.576-1.121,2.9-1.687,4.4-1.35,3.572,2.169,7.086,2.7,10.867.58,4.1-2.409,7.842-3,11.942-.549,3.779.837,8.149-1.542,11.136a1.651,1.651,0,0,1-1.04.7c-1.525.162-1.266-2.577-2.492-3.5a10.662,10.662,0,0,1-.323,4.742,3.649,3.649,0,0,1-3.66,2.5l-.543-3.577a10.346,10.346,0,0,1-3.787,2.372,27.616,27.616,0,0,1,3.951-10.7c-4,1.928-6.338,6.1-8.421,10.027-1.3,2.451-2.644,5.133-2.191,7.871.185,1.117.665,2.177.771,3.3a2.743,2.743,0,0,1-1.352,2.865,2.481,2.481,0,0,1-2.749-.953,7.192,7.192,0,0,1-1.125-2.888c-1.086-4.747-2.1-9.648-1.309-14.452a26.528,26.528,0,0,0,.745-5.205c-.137-3.839-2.971-6.987-4.354-10.572-.535-1.389-.8-3.121.192-4.235a8.671,8.671,0,0,1,1.9-1.286c1.978-1.29,2.866-3.734,3.228-6.068a21.04,21.04,0,0,0-.214-7.6c-.8-3.74-2.63-7.39-2.177-11.188.446-3.735,3-6.813,4.724-10.158A24.044,24.044,0,0,0,87.688,537.1c-.3-2.243-.814-4.839.707-6.515,1.826-2.011,5.361-1.255,7.445-3,1.017-.851,1.511-2.156,2.265-3.246a7.954,7.954,0,0,1,8.5-3.034c1.431.411,2.718,1.226,4.134,1.686,2,.651,4.151.567,6.239.816s4.3.952,5.5,2.677c.638.916.927,2.032,1.512,2.982,1.255,2.036,3.651,3.017,5.464,4.577a10.607,10.607,0,0,1,2.985,11.329c-1.083,3.015-3.587,5.679-3.374,8.875.087,1.313.646,2.6.465,3.9-.5,3.621-5.762,4.346-7.577,7.519.145-5.2-.853-10.565-3.694-14.928-2.274-3.491-9.179-9.607-13.926-7.906a3.373,3.373,0,0,0-2.075,2.232c-.47,1.788.906,2.531,1.79,3.955A12.026,12.026,0,0,1,105.463,558.333Z" transform="translate(-14.376 -0.621)" fill="#3f3d56"/>
            <g id="Groupe_4487" data-name="Groupe 4487" transform="translate(62.757 532.736)" opacity="0.2">
              <path id="Tracé_8204" data-name="Tracé 8204" d="M84.608,594.154a21.04,21.04,0,0,0-.453-4.869c-.679-3.18-2.1-6.295-2.233-9.491-.182,3.557,1.482,7,2.233,10.514A20.986,20.986,0,0,1,84.608,594.154Z" transform="translate(-78.583 -551.148)"/>
              <path id="Tracé_8205" data-name="Tracé 8205" d="M100.952,636.772c.277-.508.564-1.01.873-1.5-4,1.928-6.338,6.1-8.421,10.027-1.205,2.27-2.443,4.737-2.26,7.265a16.358,16.358,0,0,1,2.26-6.241C95.33,642.693,97.474,638.854,100.952,636.772Z" transform="translate(-81.374 -567.947)"/>
              <path id="Tracé_8206" data-name="Tracé 8206" d="M89.376,661.644a2.414,2.414,0,0,1-1.332,2,2.481,2.481,0,0,1-2.749-.953A7.186,7.186,0,0,1,84.17,659.8a51.4,51.4,0,0,1-1.583-10.325,47.205,47.205,0,0,0,1.583,11.349A7.185,7.185,0,0,0,85.3,663.71a2.481,2.481,0,0,0,2.749.953A2.743,2.743,0,0,0,89.4,661.8C89.391,661.746,89.382,661.7,89.376,661.644Z" transform="translate(-78.787 -572.247)"/>
              <path id="Tracé_8207" data-name="Tracé 8207" d="M117.507,569.624a11.382,11.382,0,0,1-.368,2.417c-.555,2.08-1.637,4.381-1.44,6.372a34.125,34.125,0,0,1,1.44-5.348A11.543,11.543,0,0,0,117.507,569.624Z" transform="translate(-88.808 -548.068)"/>
              <path id="Tracé_8208" data-name="Tracé 8208" d="M92.339,545.08a23.65,23.65,0,0,0-.2-3.629c-.117-.886-.267-1.827-.314-2.745a20.508,20.508,0,0,0,.314,3.769A23.6,23.6,0,0,1,92.339,545.08Z" transform="translate(-81.587 -538.706)"/>
              <path id="Tracé_8209" data-name="Tracé 8209" d="M121.991,592.4c0-.028-.015-.053-.021-.08-.242,1.184-1.217,2.264-1.666,3.454a4.866,4.866,0,0,0-.279,2.225,4.651,4.651,0,0,1,.279-1.2C120.87,595.3,122.272,593.979,121.991,592.4Z" transform="translate(-90.117 -554.942)"/>
              <path id="Tracé_8210" data-name="Tracé 8210" d="M81.957,630.737c-.137-3.839-2.971-6.987-4.354-10.572a7.112,7.112,0,0,1-.445-1.749,5.9,5.9,0,0,0,.445,2.772c1.36,3.525,4.116,6.628,4.339,10.382C81.959,631.294,81.967,631.016,81.957,630.737Z" transform="translate(-77.139 -562.843)"/>
              <path id="Tracé_8211" data-name="Tracé 8211" d="M129.136,558.654c-2.274-3.491-9.179-9.607-13.926-7.906a3.373,3.373,0,0,0-2.075,2.232,2.415,2.415,0,0,0-.036,1.2c.012-.058.02-.113.036-.173a3.373,3.373,0,0,1,2.075-2.232c4.747-1.7,11.652,4.415,13.926,7.906a25.26,25.26,0,0,1,3.7,13.452A25.78,25.78,0,0,0,129.136,558.654Z" transform="translate(-88.01 -542.264)"/>
              <path id="Tracé_8212" data-name="Tracé 8212" d="M149,572.819c-.5,3.614-5.738,4.343-7.565,7.5q0,.522-.013,1.044c1.815-3.174,7.076-3.9,7.577-7.519a4.458,4.458,0,0,0,0-1.073C149,572.787,149,572.8,149,572.819Z" transform="translate(-96.605 -549.021)"/>
              <path id="Tracé_8213" data-name="Tracé 8213" d="M154.993,553.265c-1.083,3.015-3.587,5.679-3.374,8.875,0,.047.011.094.015.141.235-2.814,2.377-5.259,3.359-7.992a10.038,10.038,0,0,0,.556-3.9A9.872,9.872,0,0,1,154.993,553.265Z" transform="translate(-99.688 -542.245)"/>
              <path id="Tracé_8214" data-name="Tracé 8214" d="M116.259,643.763a1.651,1.651,0,0,1-1.04.7c-1.524.162-1.265-2.577-2.491-3.5.03.363.059.729.079,1.1,1.131.979.923,3.584,2.412,3.426a1.651,1.651,0,0,0,1.041-.7c1.357-1.7,1.488-3.859,1.454-6.1A8.039,8.039,0,0,1,116.259,643.763Z" transform="translate(-87.916 -568.982)"/>
              <path id="Tracé_8215" data-name="Tracé 8215" d="M108.794,647.8a3.649,3.649,0,0,1-3.66,2.5q-.271-1.788-.542-3.577a10.364,10.364,0,0,1-3.6,2.3c-.068.365-.136.729-.19,1.1a10.349,10.349,0,0,0,3.787-2.372q.271,1.787.542,3.577a3.648,3.648,0,0,0,3.66-2.5,8.049,8.049,0,0,0,.42-3.236A6.876,6.876,0,0,1,108.794,647.8Z" transform="translate(-84.305 -571.069)"/>
              <path id="Tracé_8216" data-name="Tracé 8216" d="M119.942,625.5a18.3,18.3,0,0,0-.138,2.9,15.05,15.05,0,0,1,.138-1.874c.568-3.909,3.307-7.489,3.061-11.368C122.782,618.647,120.46,621.937,119.942,625.5Z" transform="translate(-90.056 -561.855)"/>
            </g>
          </g>
          <g id="Groupe_4496" data-name="Groupe 4496" transform="translate(767.964 30.726)">
            <path id="Tracé_8233" data-name="Tracé 8233" d="M577.432,201.983l-2.943.972-.408,2.545a.849.849,0,0,0,1.367.8l1.88-1.5Z" transform="translate(-289.033 -101.699)" fill="#2f2e41"/>
            <path id="Tracé_8234" data-name="Tracé 8234" d="M586.862,176.826l-9.11,13.993-2.839-1.848,9.11-13.993a1.694,1.694,0,0,1,2.84,1.849Z" transform="translate(-289.457 -87.715)" fill="#00b0ff"/>
            <path id="Tracé_8235" data-name="Tracé 8235" d="M595.2,176.826l-.89,1.367a2.9,2.9,0,0,1-2.839-1.849l.89-1.367a1.694,1.694,0,0,1,2.84,1.849Z" transform="translate(-297.792 -87.715)" fill="#2f2e41"/>
            <path id="Tracé_8236" data-name="Tracé 8236" d="M625.532,213.033l-15.264,6.189-23.642-16.889s-6.031-12.664-13.268-6.633c-2.479,2.065,7.5,10.1,8.443,10.855,2.359,1.879,23.929,23.394,26.979,22.277s16.382-3.14,16.382-3.14Z" transform="translate(-288.475 -97.716)" fill="#ffb8b8"/>
            <path id="Tracé_8237" data-name="Tracé 8237" d="M702.862,155.768c-13.069-4.884-27.147,9.621-34.25,18.713l-1.33-41.931a17.791,17.791,0,0,1,17.79-17.79h0a17.79,17.79,0,0,1,17.79,17.79h0Z" transform="translate(-335.962 -57.784)" fill="#2f2e41"/>
            <path id="Tracé_8238" data-name="Tracé 8238" d="M690.358,170.01s7.237,15.077,5.427,18.092l15.077-7.84s-7.84-10.252-7.84-12.061Z" transform="translate(-347.581 -84.691)" fill="#ffb8b8"/>
            <path id="Tracé_8239" data-name="Tracé 8239" d="M718.748,193.375s-7.383-7.237-13.944-5.428-5.053,5.126-13.5,6.935l-.9,3.92s-4.783,1.957-6.633,3.618c-2.066,1.855-3.5,16.073-.9,28.042,1.707,7.868-2.175,15.718-.3,19l33.771-4.221s3.015-3.015,1.206-4.825,1.206-15.077,1.206-15.077Z" transform="translate(-343.104 -94.486)" fill="#cfcce0"/>
            <path id="Tracé_8240" data-name="Tracé 8240" d="M715.86,544.717l-.6,14.474,5.427,7.237,6.634-6.031-.6-16.283Z" transform="translate(-360.117 -273.955)" fill="#ffb8b8"/>
            <path id="Tracé_8241" data-name="Tracé 8241" d="M834.286,514.922s4.221,8.443,4.825,10.252,9.045,1.206,9.045,1.206l3.016-7.84-10.252-9.649Z" transform="translate(-420.046 -256.221)" fill="#ffb8b8"/>
            <path id="Tracé_8242" data-name="Tracé 8242" d="M683.07,304.523l1.508,29.852s4.825,42.818,6.634,50.054,8.443,42.215,8.443,42.215l16.283-2.412-4.824-48.848.6-9.649,9.046,13.871,34.375,36.184L768.4,404.933,734.03,364.528l-9.046-36.184s1.206-18.695-9.046-25.932Z" transform="translate(-343.912 -152.263)" fill="#1c1d22"/>
            <path id="Tracé_8243" data-name="Tracé 8243" d="M696.466,575.333s-1.206-5.366-4.221-3.587-10.252,10.824-10.252,10.824-18.7,12.664-10.252,13.871,16.886-3.619,16.886-3.619,6.634-3.618,7.84-3.618,11.458-3.015,11.458-5.428-3.669-11.009-3.669-11.009S700.085,576.539,696.466,575.333Z" transform="translate(-337.105 -287.685)" fill="#2f2e41"/>
            <path id="Tracé_8244" data-name="Tracé 8244" d="M840.247,532.6s-3.249-4.437-5.3-1.6-5.075,14.018-5.075,14.018-12.08,19.078-3.858,16.811,14.035-10.062,14.035-10.062,4.637-5.967,5.742-6.449,9.3-7.341,8.336-9.552-7.761-8.627-7.761-8.627S844.046,532.256,840.247,532.6Z" transform="translate(-414.437 -265.405)" fill="#2f2e41"/>
            <circle id="Ellipse_230" data-name="Ellipse 230" cx="13.267" cy="13.267" r="13.267" transform="translate(334.033 63.308)" fill="#ffb8b8"/>
            <path id="Tracé_8245" data-name="Tracé 8245" d="M683.87,209.5s-6.935,2.111-8.745,5.126-7.237,6.634-7.237,6.634l4.221,16.886,6.634-7.84Z" transform="translate(-336.268 -105.482)" fill="#cfcce0"/>
            <path id="Tracé_8246" data-name="Tracé 8246" d="M698.063,119.911v-.319l-.379.021a17.8,17.8,0,0,0-15.3-3.058,17.733,17.733,0,0,1,6.829,3.528l-12.859.714-5.427,12.062H674.6l2.961-5.428v5.428h12.423l.845-4.221,2.345,4.221h2.441c.015.3.039.6.039.9l-5.669,47.3,12.184-20.349,2.531-26.946A17.753,17.753,0,0,0,698.063,119.911Z" transform="translate(-337.797 -58.395)" fill="#2f2e41"/>
            <ellipse id="Ellipse_231" data-name="Ellipse 231" cx="1.508" cy="2.714" rx="1.508" ry="2.714" transform="translate(356.767 72.655)" fill="#ffb8b8"/>
            <path id="Tracé_8247" data-name="Tracé 8247" d="M724.438,238.078l6.189,15.265-16.889,23.642s-12.664,6.031-6.633,13.267c2.065,2.479,10.1-7.5,10.855-8.443,1.879-2.358,23.394-23.929,22.277-26.978s-3.14-16.382-3.14-16.382Z" transform="translate(-355.193 -119.872)" fill="#ffb8b8"/>
            <path id="Tracé_8248" data-name="Tracé 8248" d="M731.046,200.982l4.825,23.52s9.649-6.634,16.886.6l-9.046-25.932Z" transform="translate(-368.066 -100.284)" fill="#cfcce0"/>
            <rect id="Rectangle_287" data-name="Rectangle 287" width="12.061" height="15.68" transform="translate(345.821 169.032) rotate(-65.867)" fill="#1c1d22"/>
            <rect id="Rectangle_288" data-name="Rectangle 288" width="1.206" height="35.861" transform="translate(354.874 179.601) rotate(-19.654)" opacity="0.2" style="isolation: isolate"/>
            <path id="Tracé_8249" data-name="Tracé 8249" d="M572.964,213.345" transform="translate(-288.475 -107.42)" fill="#00b0ff"/>
            <path id="Tracé_8251" data-name="Tracé 8251" d="M516.3,200.8a39.111,39.111,0,0,1,22.591,7.153H493.741A39.1,39.1,0,0,1,516.3,200.8Z" transform="translate(-248.373 -96.191)" fill="#a5cf4b"/>
            <path id="Tracé_8252" data-name="Tracé 8252" d="M.094,69.164a73.312,73.312,0,0,1,143.84-15.457c.888-.032,1.775-.067,2.671-.067A73.33,73.33,0,0,1,216.947,106.3a51.812,51.812,0,0,1,61.479,15.292H49.739c-28.1,0-50.843-23.271-49.7-51.343Q.064,69.706.094,69.164Z" transform="translate(-33.031 -9.831)" fill="#a5cf4b"/>
            <g id="Groupe_4498" data-name="Groupe 4498" transform="translate(-26.271 -10.562)">
              <path id="Tracé_8253" data-name="Tracé 8253" d="M53.282,134.426l-1.647-6.5a84.321,84.321,0,0,0-8.948-3.21l-.208,3.019-.843-3.326c-3.772-1.077-6.337-1.551-6.337-1.551s3.465,13.178,10.734,23.253L54.5,147.6l-6.58.949a34.168,34.168,0,0,0,2.943,3.119c10.574,9.815,22.351,14.318,26.305,10.058s-1.412-15.67-11.986-25.485a44.933,44.933,0,0,0-11.518-7.406Z" transform="translate(-17.772 -54.632)" fill="#e6e6e6"/>
              <path id="Tracé_8254" data-name="Tracé 8254" d="M90.932,152.266c5.587-1.6,6.891-14.144,2.912-28.011a44.906,44.906,0,0,0-6.032-12.294l-3.218,4.585,1.947-6.412a84.3,84.3,0,0,0-6-7.373L78.8,105.237l1-3.283c-2.672-2.871-4.622-4.6-4.622-4.6s-3.845,13.072-2.831,25.454l6.481,5.652-6.123-2.589" transform="translate(-33.421 -43.806)" fill="#e6e6e6"/>
              <g id="Groupe_4497" data-name="Groupe 4497" transform="translate(46.614 15.623)">
                <path id="Tracé_8255" data-name="Tracé 8255" d="M133.434,54.163h-.524V39.792a8.317,8.317,0,0,0-8.317-8.317H94.146a8.317,8.317,0,0,0-8.317,8.317h0v78.839a8.317,8.317,0,0,0,8.317,8.317h30.447a8.317,8.317,0,0,0,8.317-8.317h0V64.392h.525Z" transform="translate(-85.829 -31.475)" fill="#3f3d56"/>
                <path id="Tracé_8256" data-name="Tracé 8256" d="M126.62,35.234h-3.974a2.95,2.95,0,0,1-2.733,4.065H102.471a2.95,2.95,0,0,1-2.732-4.065H96.027a6.211,6.211,0,0,0-6.212,6.211v78.723a6.211,6.211,0,0,0,6.212,6.211H126.62a6.211,6.211,0,0,0,6.211-6.211h0V41.445a6.211,6.211,0,0,0-6.211-6.211Z" transform="translate(-87.52 -33.07)" fill="#fff"/>
              </g>
            </g>
          </g>
        </g>
        <g id="Groupe_4491" data-name="Groupe 4491" transform="translate(-12 -37)" opacity="0.19" style="mix-blend-mode: hard-light;isolation: isolate">
          <line id="Ligne_90" data-name="Ligne 90" x1="116" transform="translate(1753.5 59.5)" fill="none" stroke="#1c1d22" stroke-width="3.5"/>
          <path id="Tracé_8231" data-name="Tracé 8231" d="M116,0-1.719-.031" transform="translate(1869.5 59.5) rotate(90)" fill="none" stroke="#1c1d22" stroke-width="3.5"/>
        </g>
        <g id="Groupe_4492" data-name="Groupe 4492" transform="translate(2190.031 1033.281) rotate(180)" opacity="0.19" style="mix-blend-mode: hard-light;isolation: isolate">
          <line id="Ligne_90-2" data-name="Ligne 90" x1="116" transform="translate(1753.5 59.5)" fill="none" stroke="#1c1d22" stroke-width="3.5"/>
          <path id="Tracé_8231-2" data-name="Tracé 8231" d="M116,0-1.719-.031" transform="translate(1869.5 59.5) rotate(90)" fill="none" stroke="#1c1d22" stroke-width="3.5"/>
        </g>
      </g>
      <g id="Groupe_4504" data-name="Groupe 4504" transform="translate(737.169 19.002)">
        <rect id="Rectangle_289" data-name="Rectangle 289" width="22.044" height="1.175" transform="translate(109.849 76.044)" fill="#a5cf4b"/>
        <rect id="Rectangle_290" data-name="Rectangle 290" width="22.023" height="1.175" transform="translate(109.849 80.107)" fill="#a5cf4b"/>
        <rect id="Rectangle_291" data-name="Rectangle 291" width="9" height="9" transform="translate(97.831 71.998)" fill="#a5cf4b"/>
      </g>
      <g id="Groupe_4505" data-name="Groupe 4505" transform="translate(737.169 38.002)">
        <rect id="Rectangle_289-2" data-name="Rectangle 289" width="22.044" height="1.175" transform="translate(109.849 76.044)" fill="#a5cf4b"/>
        <rect id="Rectangle_290-2" data-name="Rectangle 290" width="22.023" height="1.175" transform="translate(109.849 80.107)" fill="#a5cf4b"/>
        <rect id="Rectangle_291-2" data-name="Rectangle 291" width="9" height="9" transform="translate(97.831 71.998)" fill="#a5cf4b"/>
      </g>
      <g id="Groupe_4506" data-name="Groupe 4506" transform="translate(737.169 57.002)">
        <rect id="Rectangle_289-3" data-name="Rectangle 289" width="22.044" height="1.175" transform="translate(109.849 76.044)" fill="#a5cf4b"/>
        <rect id="Rectangle_290-3" data-name="Rectangle 290" width="22.023" height="1.175" transform="translate(109.849 80.107)" fill="#a5cf4b"/>
        <rect id="Rectangle_291-3" data-name="Rectangle 291" width="9" height="9" transform="translate(97.831 71.998)" fill="#a5cf4b"/>
      </g>
    </g>
    <g id="Groupe_4503" data-name="Groupe 4503" transform="translate(183.172 623.255)">
      <path id="Tracé_8267" data-name="Tracé 8267" d="M712.608,87.772l3.245,32.09h26.706l-1.284-48.777c0-10.5-7.258-19.682-17.756-19.682S706.19,60.159,706.19,70.658l-1.711,49.2h4.354Z" transform="translate(-20.899)" fill="#2f2e41"/>
      <path id="Tracé_8268" data-name="Tracé 8268" d="M755.13,517.28s-1.153,7.3-3.074,8.453,9.99,3.842,9.99,3.842l1.921-11.527Z" transform="translate(-47.459 -261.228)" fill="#fbbebe"/>
      <path id="Tracé_8269" data-name="Tracé 8269" d="M766.181,327.478l4.226,4.995-1.921,17.29-1.537,34.2s3.074,29.585,0,30.353-16.906.384-16.521-1.537.768-3.458,1.537-6.148-.769-12.295-.769-12.295l1.921-10.758L746.2,337.083Z" transform="translate(-44.294 -154.801)" fill="#1c1d22"/>
      <path id="Tracé_8270" data-name="Tracé 8270" d="M736.963,533.463s-4.226-.769-4.611,0-7.684,8.837-8.837,8.837-9.606,7.684-.768,8.069,23.437-6.532,23.437-6.532-2.148-9.777-2.035-9.307S736.963,535.384,736.963,533.463Z" transform="translate(-28.908 -270.111)" fill="#2f2e41"/>
      <path id="Tracé_8271" data-name="Tracé 8271" d="M749.7,485.817s10.758,11.911,11.142,13.063,6.148,0,6.148,0L769.3,491.2l-1.921-2.689-10.758-8.837Z" transform="translate(-46.256 -240.139)" fill="#fbbebe"/>
      <path id="Tracé_8272" data-name="Tracé 8272" d="M777.575,503.387,772,508.631s7.108,10.893,7.108,12.046.384,10.758,4.227,9.221,4.226-16.906,4.226-16.906-.384-15.753-2.69-16.905-7.358-.789-7.358-.789S780.649,503,777.575,503.387Z" transform="translate(-58.762 -248.872)" fill="#2f2e41"/>
      <path id="Tracé_8273" data-name="Tracé 8273" d="M694.173,247.6s-1.921,6.147-2.305,7.684-2.69,5.763-2.69,12.295.768,14.216,0,14.985-13.064,43.8-7.684,48.412,23.053,19.979,24.206,21.9,1.537,6.532,3.842,5.763,11.142-8.453,11.527-9.99-4.995-4.226-4.995-4.226-10.758-15.753-13.448-15.369-2.305-1.921-1.921-3.074,1.153-1.921,0-1.921-.384-3.074,0-4.611,9.221-22.285,9.221-22.285l23.437-10.374s-1.153-28.048-9.605-35.732l-1.921-4.611S700.32,244.914,694.173,247.6Z" transform="translate(-7.25 -109.122)" fill="#1c1d22"/>
      <path id="Tracé_8274" data-name="Tracé 8274" d="M719.733,111.436s1.921,13.448-2.689,14.216-8.453.384-8.453.769,11.527,12.295,11.527,12.295l10.758-.769,9.605-10.373s-8.837-1.537-8.837-6.916-.384-9.221-.384-9.221Z" transform="translate(-23.205 -33.661)" fill="#ffb8b8"/>
      <circle id="Ellipse_232" data-name="Ellipse 232" cx="11.911" cy="11.911" r="11.911" transform="translate(690.573 59.524)" fill="#ffb8b8"/>
      <path id="Tracé_8275" data-name="Tracé 8275" d="M706.344,141.572s-18.6,1.747-19.752,6.741,7.685,36.117,8.837,38.806a8.5,8.5,0,0,1,.768,4.611,15.2,15.2,0,0,1,12.295-2.689c7.3,1.537,17.674.768,17.674.768s3.458-14.216,4.226-15.753,3.842-9.99,3.842-12.3,4.611-11.911,4.611-11.911-2.305-6.916-10.758-6.532c0,0-3.687-1.65-4.725-.441s-6.8,6.588-14.1,4.283S706.344,141.572,706.344,141.572Z" transform="translate(-10.811 -50.559)" fill="#e6e6e6"/>
      <path id="Tracé_8276" data-name="Tracé 8276" d="M789.06,156.044l7.3,1.921s5.379,19.6,5.763,19.979a9.785,9.785,0,0,1,.768,2.69s0,.384.768,1.537,1.921.384,1.153,1.921-1.921.768-1.153,2.305.384,5.763.384,5.763-1.921-7.3-8.837-5.379L790.6,166.034Z" transform="translate(-68.326 -58.674)" fill="#e6e6e6"/>
      <path id="Tracé_8277" data-name="Tracé 8277" d="M756.295,158.041l-.026.088L743.613,198l-8.307-1.845-8.983-1.994L739,153.046Z" transform="translate(-33.148 -56.993)" fill="#a5cf4b"/>
      <path id="Tracé_8278" data-name="Tracé 8278" d="M683.214,156.044l-7.3,1.921s-5.379,19.6-5.763,19.979a9.77,9.77,0,0,0-.768,2.69s0,.384-.768,1.537-1.921.384-1.153,1.921,1.921.768,1.153,2.305-.384,5.763-.384,5.763,1.921-7.3,8.837-5.379l4.611-20.748Z" transform="translate(0 -58.674)" fill="#e6e6e6"/>
      <path id="Tracé_8279" data-name="Tracé 8279" d="M671.611,215.273l-2.4,4.011s-1.058,7.516,4.321,7.516,13.064-7.3,13.064-7.3,3.842-1.537,6.147-1.153,14.985,0,9.606-6.532-14.6,0-14.6,0l-9.606,4.611-4.995-2.69Z" transform="translate(-1.076 -88.319)" fill="#ffb8b8"/>
      <path id="Tracé_8280" data-name="Tracé 8280" d="M674.74,210.6l3.842,6.147s-8.837,1.153-9.606,3.074,3.458-9.99,3.458-9.99Z" transform="translate(-0.94 -88.836)" fill="#e6e6e6"/>
      <path id="Tracé_8281" data-name="Tracé 8281" d="M721.11,73.789c7.737-4.171,10.916-3.995,20.537,0l2.567-6.254a4.447,4.447,0,0,0-4.442-4.442H722.557a4.447,4.447,0,0,0-4.442,4.442Z" transform="translate(-28.545 -6.554)" fill="#2f2e41"/>
      <path id="Tracé_8282" data-name="Tracé 8282" d="M767.735,161.493,755.08,201.361l-8.307-1.845,12.484-40.47Z" transform="translate(-44.614 -60.358)" opacity="0.2" style="isolation: isolate"/>
      <path id="Tracé_8283" data-name="Tracé 8283" d="M765,159.044l-12.679,41.111L769.614,204l12.679-39.959Z" transform="translate(-47.727 -60.356)" fill="#a5cf4b"/>
      <path id="Tracé_8284" data-name="Tracé 8284" d="M777.007,215.273l2.4,4.011s1.058,7.516-4.321,7.516-13.064-7.3-13.064-7.3-3.842-1.537-6.147-1.153-14.985,0-9.606-6.532,14.6,0,14.6,0l9.606,4.611,4.995-2.69Z" transform="translate(-43.593 -88.319)" fill="#ffb8b8"/>
      <path id="Tracé_8285" data-name="Tracé 8285" d="M805.585,210.6l-3.842,6.147s8.837,1.153,9.605,3.074-3.458-9.99-3.458-9.99Z" transform="translate(-75.438 -88.836)" fill="#e6e6e6"/>
    </g>
  </g>
</svg>
