<svg xmlns="http://www.w3.org/2000/svg" width="842.809" height="547.351" viewBox="0 0 842.809 547.351">
  <g id="Groupe_4526" data-name="Groupe 4526" transform="translate(0 0.006)" opacity="0.4">
    <path id="Tracé_8318" data-name="Tracé 8318" d="M476.716,79.215c-54.023.072-106.022-15.242-155.759-32.255S221.866,10.9,168.847,2.824c-34.1-5.189-72.871-4.712-99.525,14.129C43.666,35.079,36.237,65.079,32.652,92.795c-2.7,20.85-3.939,42.734,6.158,61.806,7.01,13.24,19.007,24.153,27.463,36.772,29.516,43.9,11.766,99.973-16.919,144.889-13.45,21.074-29.2,41.274-39.373,63.555s-14.339,47.547-3.968,69.539c10.277,21.8,33.49,37.617,58.4,48.422,50.59,21.985,109.491,26.7,166.809,28.511,126.879,4.026,254-4.185,380.79-12.395,46.918-3.035,94.047-6.092,140-14.888,25.512-4.878,51.782-12.12,69.872-27.991,22.961-20.149,27.658-53.047,10.949-76.694-28.02-39.662-101.9-47.143-121.994-90.057-11.079-23.625-1.525-50.72,12.546-73.493,30.18-48.863,82.129-92.63,83-147.282.6-37.53-26.415-74.143-66.764-90.455C697.331-4.049,639.666.345,610.034,32.188,579.565,64.992,524.415,79.164,476.716,79.215Z" transform="translate(0 0)" fill="#0099d5" opacity="0.1" style="isolation: isolate"/>
    <path id="Tracé_8319" data-name="Tracé 8319" d="M985.745,644.136s-8.882-5.861-17.685-1.691c0,0,2.71,5.218,13.854,4.727Z" transform="translate(-268.431 -177.729)" fill="#6c63ff"/>
    <path id="Tracé_8320" data-name="Tracé 8320" d="M991.831,645.79s2.7,10.291-4.076,17.294c0,0-4.076-4.242,0-14.635Z" transform="translate(-273.39 -179.071)" fill="#6c63ff"/>
    <path id="Tracé_8321" data-name="Tracé 8321" d="M1001.534,629.65s-.658-8.752-20.424-5.847c0,0-.094,5.644,6.844,8.318S998.072,632.541,1001.534,629.65Z" transform="translate(-272.05 -172.811)" fill="#6c63ff"/>
    <path id="Tracé_8322" data-name="Tracé 8322" d="M1008.866,632.04s8.355,2.681.9,21.219c0,0-5.514-1.229-6.5-8.607S1005.21,634.729,1008.866,632.04Z" transform="translate(-278.139 -175.259)" fill="#6c63ff"/>
    <path id="Tracé_8323" data-name="Tracé 8323" d="M1019.2,609.859s1.135-14.4-19.065-12.929c0,0-1.445,13.009,15.5,16.391Z" transform="translate(-277.317 -165.493)" fill="#6c63ff"/>
    <path id="Tracé_8324" data-name="Tracé 8324" d="M1036.191,587.615s-2.768-16.326-22.961-11.462c0,0-.072,14.115,19.665,15.35Z" transform="translate(-280.956 -159.511)" fill="#6c63ff"/>
    <path id="Tracé_8325" data-name="Tracé 8325" d="M1049.045,564.484s-4.64-15.9-24.644-11.144c0,0,4.763,14.3,23.315,14.078Z" transform="translate(-284.053 -153.19)" fill="#0099d5"/>
    <path id="Tracé_8326" data-name="Tracé 8326" d="M1062.169,541.59s-4.531-16.5-23.849-11.563c0,0,6.447,15.676,22.57,14.353Z" transform="translate(-287.913 -146.716)" fill="#0099d5"/>
    <path id="Tracé_8327" data-name="Tracé 8327" d="M1071.333,518.524s-3.483-20.178-21.493-15.712c0,0,5.232,18.357,20.171,18.653Z" transform="translate(-291.108 -139.246)" fill="#0099d5"/>
    <path id="Tracé_8328" data-name="Tracé 8328" d="M1078.734,492.775s-4.184-20.337-22.4-14.454c0,0,7.141,19.224,21.11,17.237Z" transform="translate(-292.907 -132.338)" fill="#0099d5"/>
    <path id="Tracé_8329" data-name="Tracé 8329" d="M1084.137,466.871s-6.642-20.344-20.727-19.8c0,0,6.786,21.486,19.549,23.849Z" transform="translate(-294.87 -123.967)" fill="#0099d5"/>
    <path id="Tracé_8330" data-name="Tracé 8330" d="M1088,442.079s-7.227-24.485-18.689-22.6c0,0,5,18.718,18.285,26.415Z" transform="translate(-296.506 -116.29)" fill="#0099d5"/>
    <path id="Tracé_8331" data-name="Tracé 8331" d="M1089.978,414.4S1083.2,394,1071.91,393.18c0,0,4.611,20.077,17.844,26.524Z" transform="translate(-297.227 -109.026)" fill="#0099d5"/>
    <path id="Tracé_8332" data-name="Tracé 8332" d="M1092.7,388.166s-8.448-20.424-15.9-20.886c0,0,3.671,20.113,15.177,24.24Z" transform="translate(-298.583 -101.844)" fill="#0099d5"/>
    <path id="Tracé_8333" data-name="Tracé 8333" d="M1095.232,362.443s-5.2-22.18-12.662-24.023c0,0,1.019,18.147,11.91,25.685Z" transform="translate(-300.183 -93.841)" fill="#0099d5"/>
    <path id="Tracé_8334" data-name="Tracé 8334" d="M1099.573,331.721s-5.464-17.685-11.513-20.381c0,0,1.192,20.85,10.118,24.7Z" transform="translate(-301.705 -86.332)" fill="#0099d5"/>
    <path id="Tracé_8335" data-name="Tracé 8335" d="M1105.475,306.578l1.1-31.178s-11.31,23.5-1.915,36.649Z" transform="translate(-305.273 -76.367)" fill="#0099d5"/>
    <path id="Tracé_8336" data-name="Tracé 8336" d="M1117.612,266.407s8.145-22.765,10.118-24.037c0,0-15.972,14.772-14.411,33.772Z" transform="translate(-308.68 -67.208)" fill="#0099d5"/>
    <path id="Tracé_8337" data-name="Tracé 8337" d="M1026.034,614.693s14.324-1.872,13.9,18.371c0,0-12.944,2.11-17.172-14.635Z" transform="translate(-283.599 -170.436)" fill="#6c63ff"/>
    <path id="Tracé_8338" data-name="Tracé 8338" d="M1044.673,591.6s16.55-.051,15.177,20.67c0,0-13.9,2.486-18.48-16.753Z" transform="translate(-288.759 -164.045)" fill="#0099d5"/>
    <path id="Tracé_8339" data-name="Tracé 8339" d="M1058.21,570.435s15.025-7.046,24.637,11.144c0,0-13.876,5.868-25.967-8.2Z" transform="translate(-293.06 -157.804)" fill="#0099d5"/>
    <path id="Tracé_8340" data-name="Tracé 8340" d="M1071.292,545.988s15.386-7.495,24.42,10.27c0,0-16.03,5.522-25.692-7.458Z" transform="translate(-296.703 -150.962)" fill="#0099d5"/>
    <path id="Tracé_8341" data-name="Tracé 8341" d="M1079.05,523.016s14.808-14.143,26.625.159c0,0-15.126,11.643-27.3,2.992Z" transform="translate(-299.019 -143.298)" fill="#0099d5"/>
    <path id="Tracé_8342" data-name="Tracé 8342" d="M1085.965,495.669s14.9-14.454,26.618.665c0,0-16.716,11.874-27.152,2.37Z" transform="translate(-300.976 -135.717)" fill="#0099d5"/>
    <path id="Tracé_8343" data-name="Tracé 8343" d="M1090.02,468.06s11.477-18.068,24.991-14.035c0,0-11.91,19.13-24.861,18.277Z" transform="translate(-302.249 -125.734)" fill="#0099d5"/>
    <path id="Tracé_8344" data-name="Tracé 8344" d="M1094.586,443.243s11.563-22.751,22.505-18.79c0,0-8.34,17.49-22.8,22.628Z" transform="translate(-303.433 -117.569)" fill="#0099d5"/>
    <path id="Tracé_8345" data-name="Tracé 8345" d="M1095.366,414.8s11.889-17.909,23.026-15.719c0,0-9.721,18.162-24.182,20.9Z" transform="translate(-303.411 -110.61)" fill="#0099d5"/>
    <path id="Tracé_8346" data-name="Tracé 8346" d="M1097.09,387.866s9.214-20.1,16.7-20.236c0,0-4.423,19.954-16.08,23.647Z" transform="translate(-304.209 -101.941)" fill="#0099d5"/>
    <path id="Tracé_8347" data-name="Tracé 8347" d="M1099.59,363.235s10.241-20.352,17.938-20.395c0,0-5.24,17.4-17.6,22.18Z" transform="translate(-304.903 -95.067)" fill="#0099d5"/>
    <path id="Tracé_8348" data-name="Tracé 8348" d="M1101.72,334.107s7.661-16.839,14.006-18.747c0,0-3.83,20.525-13.161,23.214Z" transform="translate(-305.493 -87.447)" fill="#0099d5"/>
    <path id="Tracé_8349" data-name="Tracé 8349" d="M1107.521,307.683l17.121-26.083s-4.387,25.729-19.622,31.077Z" transform="translate(-306.408 -78.086)" fill="#0099d5"/>
    <path id="Tracé_8350" data-name="Tracé 8350" d="M1121.56,272.42s19.9-13.732,20.619-15.95c0,0-10.118,19.231-28.909,22.628Z" transform="translate(-308.696 -71.118)" fill="#0099d5"/>
    <path id="Tracé_8351" data-name="Tracé 8351" d="M1126.179,261.572s22.845-21.963,28.677-21.942c0,0-18.841.86-29.226,20.771Z" transform="translate(-312.123 -66.448)" fill="#0099d5"/>
    <path id="Tracé_8352" data-name="Tracé 8352" d="M1102.03,324.093l.831.108c4.293-33.6,10.551-53.481,17.62-55.916l-.275-.795C1112.712,270.092,1106.41,289.67,1102.03,324.093Z" transform="translate(-305.579 -74.173)" fill="#444053"/>
    <path id="Tracé_8353" data-name="Tracé 8353" d="M1093.29,425.2l1.257.1c.267-3.137.47-6.345.607-9.547,1.2-27.81,3.057-53.351,5.5-72.5l-.723-.9c-2.45,19.188-4.835,45.495-6.035,73.348C1093.76,418.888,1093.557,422.082,1093.29,425.2Z" transform="translate(-303.156 -94.934)" fill="#444053"/>
    <path id="Tracé_8354" data-name="Tracé 8354" d="M959.829,608.237c.217-.094,22.353-9.981,45.328-33.555a182.292,182.292,0,0,0,33.136-46.976c10.624-21.631,17.1-48.212,19.267-74.035l-1.308.614c-4.878,57.961-31.265,97.566-52.245,119.139-22.751,23.365-44.642,33.151-44.859,33.245Z" transform="translate(-265.96 -125.799)" fill="#444053"/>
    <path id="Tracé_8355" data-name="Tracé 8355" d="M770.586,85.23H76.146a6.186,6.186,0,0,0-6.186,6.186v18.024H776.773V91.416A6.186,6.186,0,0,0,770.586,85.23Z" transform="translate(-19.399 -23.635)" fill="#1c1d22"/>
    <path id="Tracé_8356" data-name="Tracé 8356" d="M69.96,118.73V524.345a12.474,12.474,0,0,0,12.474,12.474H764.3a12.474,12.474,0,0,0,12.474-12.474h0V118.73Z" transform="translate(-19.399 -32.924)" fill="#fff"/>
    <circle id="Ellipse_235" data-name="Ellipse 235" cx="2.891" cy="2.891" r="2.891" transform="translate(58.865 70.629)" fill="#fa5959" opacity="0.8" style="isolation: isolate"/>
    <circle id="Ellipse_236" data-name="Ellipse 236" cx="2.891" cy="2.891" r="2.891" transform="translate(66.815 70.629)" fill="#fed253" opacity="0.8" style="isolation: isolate"/>
    <circle id="Ellipse_237" data-name="Ellipse 237" cx="2.891" cy="2.891" r="2.891" transform="translate(74.765 70.629)" fill="#8ccf4d" opacity="0.8" style="isolation: isolate"/>
    <rect id="Rectangle_293" data-name="Rectangle 293" width="568.052" height="249.784" transform="translate(116.263 153.437)" opacity="0.05" style="isolation: isolate"/>
    <rect id="Rectangle_294" data-name="Rectangle 294" width="559.379" height="244.277" transform="translate(120.599 155.331)" fill="#1c1d22"/>
    <path id="Tracé_8357" data-name="Tracé 8357" d="M356.519,301.92a55.649,55.649,0,1,0,55.649,55.649,55.649,55.649,0,0,0-55.649-55.649Zm9.981,56.986v26.35H346.827v-26.35a16.3,16.3,0,1,1,19.672,0Z" transform="translate(-83.427 -83.72)" fill="#6c63ff"/>
    <path id="Tracé_8358" data-name="Tracé 8358" d="M356.519,301.92a55.649,55.649,0,1,0,55.649,55.649,55.649,55.649,0,0,0-55.649-55.649Zm9.981,56.986v26.35H346.827v-26.35a16.3,16.3,0,1,1,19.672,0Z" transform="translate(-83.427 -83.72)" fill="#0099d5" opacity="0.3" style="isolation: isolate"/>
    <path id="Tracé_8359" data-name="Tracé 8359" d="M350.419,279.92a71.549,71.549,0,1,0,71.549,71.549h0A71.549,71.549,0,0,0,350.419,279.92Zm12.828,73.269v33.874H337.952V353.189a20.959,20.959,0,1,1,25.295,0Z" transform="translate(-77.327 -77.62)" fill="#0099d5"/>
    <rect id="Rectangle_295" data-name="Rectangle 295" width="231.268" height="24.572" transform="translate(374.271 264.461)" fill="#fff"/>
    <rect id="Rectangle_296" data-name="Rectangle 296" width="49.867" height="24.572" transform="translate(555.672 309.269)" fill="#a5cf4b"/>
    <path id="Tracé_8360" data-name="Tracé 8360" d="M545.349,380.479h-4.185l3.722-3.715a.368.368,0,0,0,0-.513.362.362,0,0,0-.511,0l0,0-3.722,3.722v-4.192a.361.361,0,0,0-.361-.361.368.368,0,0,0-.361.361v4.192l-3.715-3.744a.362.362,0,0,0-.511,0l0,0a.368.368,0,0,0,0,.513l3.722,3.715h-4.192a.368.368,0,0,0-.361.361.362.362,0,0,0,.361.361h4.192L535.7,384.9a.368.368,0,0,0,0,.513.375.375,0,0,0,.513,0l3.715-3.722v4.185a.361.361,0,1,0,.723,0v-4.185l3.722,3.722a.375.375,0,0,0,.513,0,.368.368,0,0,0,0-.513l-3.722-3.722h4.185a.351.351,0,1,0,0-.7Z" transform="translate(-148.313 -104.101)" fill="#0099d5"/>
    <path id="Tracé_8361" data-name="Tracé 8361" d="M566.349,380.479h-4.184l3.722-3.715a.368.368,0,0,0,0-.513.362.362,0,0,0-.511,0l0,0-3.722,3.722v-4.192a.361.361,0,0,0-.361-.361.368.368,0,0,0-.361.361v4.192l-3.715-3.744a.362.362,0,0,0-.511,0l0,0a.368.368,0,0,0,0,.513l3.722,3.715h-4.192a.368.368,0,0,0-.361.361.362.362,0,0,0,.361.361h4.192L556.7,384.9a.368.368,0,0,0,0,.513.375.375,0,0,0,.513,0l3.715-3.722v4.185a.361.361,0,1,0,.723,0v-4.185l3.722,3.722a.375.375,0,0,0,.513,0,.368.368,0,0,0,0-.513l-3.722-3.722h4.184a.351.351,0,1,0,0-.7Z" transform="translate(-154.136 -104.101)" fill="#0099d5"/>
    <path id="Tracé_8362" data-name="Tracé 8362" d="M587.349,380.479h-4.184l3.722-3.715a.368.368,0,0,0,0-.513.362.362,0,0,0-.511,0l0,0-3.722,3.722v-4.192a.361.361,0,0,0-.361-.361.368.368,0,0,0-.361.361v4.192l-3.715-3.744a.362.362,0,0,0-.511,0l0,0a.368.368,0,0,0,0,.513l3.722,3.715h-4.192a.368.368,0,0,0-.361.361.362.362,0,0,0,.361.361h4.192L577.7,384.9a.368.368,0,0,0,0,.513.375.375,0,0,0,.513,0l3.715-3.722v4.185a.361.361,0,1,0,.723,0v-4.185l3.722,3.722a.375.375,0,0,0,.513,0,.368.368,0,0,0,0-.513l-3.722-3.722h4.184a.351.351,0,1,0,0-.7Z" transform="translate(-159.959 -104.101)" fill="#0099d5"/>
    <path id="Tracé_8363" data-name="Tracé 8363" d="M608.349,380.479h-4.184l3.722-3.715a.368.368,0,0,0,0-.513.362.362,0,0,0-.511,0l0,0-3.722,3.722v-4.192a.361.361,0,0,0-.361-.361.368.368,0,0,0-.361.361v4.192l-3.715-3.744a.362.362,0,0,0-.511,0l0,0a.368.368,0,0,0,0,.513l3.722,3.715h-4.192a.368.368,0,0,0-.361.361.361.361,0,0,0,.361.361h4.192L598.7,384.9a.368.368,0,0,0,0,.513.375.375,0,0,0,.513,0l3.715-3.722v4.185a.361.361,0,1,0,.723,0v-4.185l3.722,3.722a.375.375,0,0,0,.513,0,.368.368,0,0,0,0-.513l-3.722-3.722h4.184a.351.351,0,1,0,0-.7Z" transform="translate(-165.782 -104.101)" fill="#0099d5"/>
    <path id="Tracé_8364" data-name="Tracé 8364" d="M629.349,380.479h-4.184l3.722-3.715a.368.368,0,0,0,0-.513.361.361,0,0,0-.511,0l0,0-3.722,3.722v-4.192a.361.361,0,0,0-.361-.361.368.368,0,0,0-.361.361v4.192l-3.715-3.744a.362.362,0,0,0-.511,0l0,0a.368.368,0,0,0,0,.513l3.722,3.715h-4.192a.368.368,0,0,0-.361.361.362.362,0,0,0,.361.361h4.192L619.7,384.9a.368.368,0,0,0,0,.513.375.375,0,0,0,.513,0l3.715-3.722v4.185a.361.361,0,1,0,.723,0v-4.185l3.722,3.722a.375.375,0,0,0,.513,0,.368.368,0,0,0,0-.513l-3.722-3.722h4.184a.351.351,0,1,0,0-.7Z" transform="translate(-171.605 -104.101)" fill="#0099d5"/>
    <path id="Tracé_8365" data-name="Tracé 8365" d="M650.349,380.479h-4.184l3.722-3.715a.368.368,0,0,0,0-.513.362.362,0,0,0-.511,0l0,0-3.722,3.722v-4.192a.361.361,0,0,0-.361-.361.368.368,0,0,0-.361.361v4.192l-3.715-3.744a.362.362,0,0,0-.511,0l0,0a.368.368,0,0,0,0,.513l3.722,3.715h-4.192a.368.368,0,0,0-.361.361.362.362,0,0,0,.361.361h4.192L640.7,384.9a.368.368,0,0,0,0,.513.375.375,0,0,0,.513,0l3.715-3.722v4.185a.361.361,0,1,0,.723,0v-4.185l3.722,3.722a.375.375,0,0,0,.513,0,.368.368,0,0,0,0-.513l-3.722-3.722h4.184a.351.351,0,1,0,0-.7Z" transform="translate(-177.428 -104.101)" fill="#0099d5"/>
    <path id="Tracé_8366" data-name="Tracé 8366" d="M671.349,380.479h-4.184l3.722-3.715a.368.368,0,0,0,0-.513.362.362,0,0,0-.511,0l0,0-3.722,3.722v-4.192a.361.361,0,0,0-.361-.361.368.368,0,0,0-.361.361v4.192l-3.715-3.744a.362.362,0,0,0-.511,0l0,0a.368.368,0,0,0,0,.513l3.722,3.715h-4.192a.368.368,0,0,0-.361.361.361.361,0,0,0,.361.361h4.192L661.7,384.9a.368.368,0,0,0,0,.513.375.375,0,0,0,.513,0l3.715-3.722v4.185a.361.361,0,0,0,.723,0v-4.185l3.722,3.722a.375.375,0,0,0,.513,0,.368.368,0,0,0,0-.513l-3.722-3.722h4.184a.351.351,0,1,0,0-.7Z" transform="translate(-183.251 -104.101)" fill="#0099d5"/>
    <path id="Tracé_8367" data-name="Tracé 8367" d="M692.349,380.479h-4.184l3.722-3.715a.368.368,0,0,0,0-.513.361.361,0,0,0-.511,0l0,0-3.722,3.722v-4.192a.361.361,0,0,0-.361-.361.368.368,0,0,0-.361.361v4.192l-3.715-3.744a.361.361,0,0,0-.511,0l0,0a.368.368,0,0,0,0,.513l3.722,3.715h-4.192a.368.368,0,0,0-.361.361.362.362,0,0,0,.361.361h4.192L682.7,384.9a.368.368,0,0,0,0,.513.375.375,0,0,0,.513,0l3.715-3.722v4.185a.361.361,0,1,0,.723,0v-4.185l3.722,3.722a.375.375,0,0,0,.513,0,.368.368,0,0,0,0-.513l-3.722-3.722h4.184a.351.351,0,1,0,0-.7Z" transform="translate(-189.074 -104.101)" fill="#0099d5"/>
    <path id="Tracé_8368" data-name="Tracé 8368" d="M713.349,380.479h-4.184l3.722-3.715a.368.368,0,0,0,0-.513.362.362,0,0,0-.511,0l0,0-3.722,3.722v-4.192a.361.361,0,0,0-.361-.361.368.368,0,0,0-.361.361v4.192l-3.715-3.744a.361.361,0,0,0-.511,0l0,0a.368.368,0,0,0,0,.513l3.722,3.715h-4.192a.368.368,0,0,0-.361.361.362.362,0,0,0,.361.361h4.192L703.7,384.9a.368.368,0,0,0,0,.513.375.375,0,0,0,.513,0l3.715-3.722v4.185a.361.361,0,1,0,.723,0v-4.185l3.722,3.722a.375.375,0,0,0,.513,0,.368.368,0,0,0,0-.513l-3.722-3.722h4.184a.351.351,0,1,0,0-.7Z" transform="translate(-194.897 -104.101)" fill="#0099d5"/>
    <path id="Tracé_8369" data-name="Tracé 8369" d="M734.349,380.479h-4.184l3.722-3.715a.368.368,0,0,0,0-.513.362.362,0,0,0-.511,0l0,0-3.722,3.722v-4.192a.361.361,0,0,0-.361-.361.368.368,0,0,0-.361.361v4.192l-3.715-3.744a.362.362,0,0,0-.511,0l0,0a.368.368,0,0,0,0,.513l3.722,3.715h-4.192a.368.368,0,0,0-.361.361.361.361,0,0,0,.361.361h4.192L724.7,384.9a.368.368,0,0,0,0,.513.375.375,0,0,0,.513,0l3.715-3.722v4.185a.361.361,0,0,0,.723,0v-4.185l3.722,3.722a.375.375,0,0,0,.513,0,.368.368,0,0,0,0-.513l-3.722-3.722h4.184a.351.351,0,1,0,0-.7Z" transform="translate(-200.72 -104.101)" fill="#0099d5"/>
    <path id="Tracé_8370" data-name="Tracé 8370" d="M755.349,380.479h-4.184l3.722-3.715a.368.368,0,0,0,0-.513.361.361,0,0,0-.511,0l0,0-3.722,3.722v-4.192a.361.361,0,0,0-.361-.361.368.368,0,0,0-.361.361v4.192l-3.715-3.744a.361.361,0,0,0-.511,0l0,0a.368.368,0,0,0,0,.513l3.722,3.715h-4.192a.368.368,0,0,0-.361.361.362.362,0,0,0,.361.361h4.192L745.7,384.9a.368.368,0,0,0,0,.513.375.375,0,0,0,.513,0l3.715-3.722v4.185a.361.361,0,1,0,.723,0v-4.185l3.722,3.722a.375.375,0,0,0,.513,0,.368.368,0,0,0,0-.513l-3.722-3.722h4.184a.351.351,0,1,0,0-.7Z" transform="translate(-206.543 -104.101)" fill="#0099d5"/>
  </g>
</svg>
