<svg xmlns="http://www.w3.org/2000/svg" width="175.051" height="53.237" viewBox="0 0 175.051 53.237">
  <g id="LOGO_CBI_2.0" data-name="LOGO CBI 2.0" transform="translate(-237.661 -25.704)" opacity="0.6">
    <g id="Groupe_4337" data-name="Groupe 4337" transform="translate(256.803 43.929)">
      <path id="Tracé_10-2" data-name="Tracé 10-2" d="M262.551,70.04c.255-.455.71-.256,1.05-.256,4.118,0,8.235.028,12.356.028a7.6,7.6,0,0,0,7.071-6.56,7.777,7.777,0,0,0-5.854-8.626c-.483-.114-.994-.058-1.475-.171a.258.258,0,0,1,.085-.284c1.789-.511,3.209-1.363,3.493-3.407.057-.482-.113-1.022.313-1.391.057,1.7,1.475,1.9,2.7,2.47.029-.313.057-.511.057-.71.029-1.76.029-1.76,1.732-1.76h8.631c.483,0,.909-.028.909.681-.028,2.187,0,4.4-.028,6.587,0,.114-.113.256-.171.369a2.05,2.05,0,0,1-.34-1.419c0-1.533-.029-3.043,0-4.572,0-.824-.313-1.137-1.137-1.137-2.613.029-5.256.029-7.866,0-.852,0-1.25.256-1.221,1.164.029,1.533.029,3.043,0,4.571,0,.766.313,1.05,1.079,1.079.88.058,1.844-.313,2.642.369a13.754,13.754,0,0,1,1.08,4.629c0,.142.142.284.226.454,0,.2-.142.313-.284.427-.936.823-.994,1.305-.34,2.355a.909.909,0,0,1,.227.568.851.851,0,0,0-.482.54,12.189,12.189,0,0,1-8.719,8.063.82.82,0,0,0-.681.909c.028.966.028,1.9.028,2.868a6.418,6.418,0,0,1-4.487,0c0-1.533-.028-3.043.029-4.571.028-.766-.256-.966-.966-.966q-4.3.044-8.606,0c-.369,0-.795.171-1.079-.227a2.241,2.241,0,0,1,1.534-.283h7.24a5.626,5.626,0,0,0,.966-.058.707.707,0,0,0-.029-1.363,6.562,6.562,0,0,0-1.05-.057h-7.126A2.067,2.067,0,0,1,262.551,70.04Z" transform="translate(-262.52 -49.373)" fill="#bfbfbf"/>
    </g>
    <g id="Groupe_4338" data-name="Groupe 4338" transform="translate(270.429 25.878)">
      <path id="Tracé_11-2" data-name="Tracé 11-2" d="M280.448,37.448c.028-2.612-.653-5.2.2-7.722a5.716,5.716,0,0,1,5.792-3.781,5.934,5.934,0,1,1-.768,11.843,4.768,4.768,0,0,1-2.839-1.05c-.766-.681-1.306-.539-1.844.227a2.947,2.947,0,0,1-.54.482Z" transform="translate(-280.217 -25.93)" fill="#fefefe"/>
    </g>
    <g id="Groupe_4339" data-name="Groupe 4339" transform="translate(245.527 33.99)">
      <path id="Tracé_12-2" data-name="Tracé 12-2" d="M247.877,40.1a3.689,3.689,0,1,1,1.05,2.636A3.688,3.688,0,0,1,247.877,40.1Z" transform="translate(-247.876 -36.464)" fill="#fefefe"/>
    </g>
    <path id="Tracé_13" data-name="Tracé 13" d="M289.541,35.315a3.938,3.938,0,0,1-4.969.6,4,4,0,0,1-1.845-4.487,4.047,4.047,0,0,1,3.975-3.043c.568.6.313,1.334.369,2.016.029.54,0,1.05,0,1.59-.057.624.454.879.766,1.305C288.405,33.952,289.313,34.35,289.541,35.315Z" transform="translate(-10.333 -0.616)" fill="#414e58"/>
    <path id="Tracé_14" data-name="Tracé 14" d="M288.023,32.41c-.029-1.363-.057-2.7-.057-4.057a4.088,4.088,0,0,1,4.089,4.057,5.792,5.792,0,0,1-4.032,0Z" transform="translate(-11.57 -0.609)" fill="#fefefe"/>
    <path id="Tracé_15" data-name="Tracé 15" d="M288.04,33.627h4a3.56,3.56,0,0,1-1.25,2.868A26.334,26.334,0,0,1,288.04,33.627Z" transform="translate(-11.587 -1.822)" fill="#414e58"/>
    <g id="Groupe_4340" data-name="Groupe 4340" transform="translate(262.568 72.411)">
      <rect id="Rectangle_1-2" data-name="Rectangle 1-2" width="14.256" height="1.959" transform="translate(0)" fill="#fefefe"/>
    </g>
    <g id="Groupe_4341" data-name="Groupe 4341" transform="translate(256.86 74.366)">
      <rect id="Rectangle_2-2" data-name="Rectangle 2-2" width="25.699" height="2.271" fill="#fefefe"/>
    </g>
    <rect id="Rectangle_3" data-name="Rectangle 3" width="10.621" height="2.755" transform="translate(256.773 64.348)" fill="#fefefe"/>
    <circle id="Ellipse_1" data-name="Ellipse 1" cx="1.022" cy="1.022" r="1.022" transform="translate(268.529 65.512)" fill="#fefefe"/>
    <path id="Ellipse_2" data-name="Ellipse 2" d="M1.9,0A1.9,1.9,0,1,1,0,1.9,1.9,1.9,0,0,1,1.9,0Z" transform="translate(280.03 56.539)" fill="#fefefe"/>
    <g id="Groupe_4342" data-name="Groupe 4342" transform="translate(265.122 40.376)">
      <ellipse id="Ellipse_3-2" data-name="Ellipse 3-2" cx="4.374" cy="4.288" rx="4.374" ry="4.288" fill="#fefefe"/>
    </g>
    <rect id="Rectangle_4" data-name="Rectangle 4" width="6.758" height="2.755" transform="translate(259.044 37.768)" fill="#bfbfbf"/>
    <rect id="Rectangle_5" data-name="Rectangle 5" width="3.948" height="2.755" transform="translate(260.465 35.012)" fill="#fefefe"/>
    <rect id="Rectangle_6" data-name="Rectangle 6" width="3.948" height="3.124" transform="translate(260.465 57.759)" fill="#bfbfbf"/>
    <g id="Groupe_4343" data-name="Groupe 4343" transform="translate(259.073 40.404)">
      <rect id="Rectangle_7-2" data-name="Rectangle 7-2" width="6.701" height="17.209" fill="#fefefe"/>
    </g>
    <rect id="Rectangle_8" data-name="Rectangle 8" width="9.74" height="8.519" transform="translate(259.357 40.41)" fill="#fefefe"/>
    <g id="Groupe_4344" data-name="Groupe 4344" transform="translate(267.704 42.875)">
      <path id="Tracé_16-2" data-name="Tracé 16-2" d="M278.522,51.693a1.845,1.845,0,0,1,0-3.689,1.914,1.914,0,0,1,1.817,1.844A1.875,1.875,0,0,1,278.522,51.693Z" transform="translate(-276.678 -48.004)" fill="#414e58"/>
    </g>
    <g id="Groupe_4345" data-name="Groupe 4345" transform="translate(255.154 31.745)">
      <circle id="Ellipse_4-2" data-name="Ellipse 4-2" cx="1.022" cy="1.022" r="1.022" fill="#fefefe"/>
    </g>
    <g id="Groupe_4346" data-name="Groupe 4346" transform="translate(247.574 63.863)">
      <circle id="Ellipse_5-2" data-name="Ellipse 5-2" cx="1.618" cy="1.618" r="1.618" fill="#bfbfbf"/>
    </g>
    <rect id="Rectangle_9" data-name="Rectangle 9" width="11.472" height="7.64" transform="translate(276.453 43.929)" fill="#fefefe"/>
    <rect id="Rectangle_10" data-name="Rectangle 10" width="0.539" height="0.34" transform="translate(277.929 50.063)" fill="#414e58"/>
    <rect id="Rectangle_11" data-name="Rectangle 11" width="0.539" height="0.539" transform="translate(278.696 49.865)" fill="#414e58"/>
    <rect id="Rectangle_12" data-name="Rectangle 12" width="0.539" height="1.192" transform="translate(279.462 49.24)" fill="#414e58"/>
    <rect id="Rectangle_13" data-name="Rectangle 13" width="0.539" height="1.675" transform="translate(280.285 48.758)" fill="#414e58"/>
    <rect id="Rectangle_14" data-name="Rectangle 14" width="0.539" height="1.221" transform="translate(281.11 49.184)" fill="#414e58"/>
    <rect id="Rectangle_15" data-name="Rectangle 15" width="0.539" height="3.011" transform="translate(281.906 47.395)" fill="#414e58"/>
    <rect id="Rectangle_16" data-name="Rectangle 16" width="0.539" height="2.47" transform="translate(282.757 47.963)" fill="#414e58"/>
    <rect id="Rectangle_17" data-name="Rectangle 17" width="0.539" height="4.658" transform="translate(283.58 45.776)" fill="#414e58"/>
    <rect id="Rectangle_18" data-name="Rectangle 18" width="0.539" height="2.356" transform="translate(284.375 48.076)" fill="#414e58"/>
    <rect id="Rectangle_19" data-name="Rectangle 19" width="0.539" height="4.232" transform="translate(285.228 46.174)" fill="#414e58"/>
    <rect id="Rectangle_20" data-name="Rectangle 20" width="0.539" height="5.764" transform="translate(286.051 44.668)" fill="#414e58"/>
    <g id="Groupe_4347" data-name="Groupe 4347" transform="translate(237.975 42.341)">
      <rect id="Rectangle_22-2" data-name="Rectangle 22-2" width="18.998" height="13.972" fill="#fefefe"/>
    </g>
    <line id="Ligne_1" data-name="Ligne 1" x2="19.396" transform="translate(237.661 54.834)" fill="none"/>
    <path id="Tracé_18" data-name="Tracé 18" d="M256.439,60.615H238.8v-.681l1.76-1.391,1.76-1.05,1.76-.37,1.76-1.05,1.761-1.05L249.366,54l1.789-.369,1.757-2.1,1.761.71,1.76-1.391Z" transform="translate(-0.263 -5.784)" fill="#414e58"/>
    <g id="Groupe_4193" data-name="Groupe 4193" transform="translate(289.973 25.704)">
      <g id="Groupe_4348" data-name="Groupe 4348" transform="translate(0)">
        <path id="Tracé_19-2" data-name="Tracé 19-2" d="M316.309,37.827l1.221,1.817c-.114.085-.313.227-.54.369a8.115,8.115,0,0,1-9.2-1.22,7.872,7.872,0,0,1,0-10.9,7.117,7.117,0,0,1,5.338-2.183,7.74,7.74,0,0,1,2.273.341,8.566,8.566,0,0,1,1.588.653l.482.34L316.28,28.83a4.31,4.31,0,0,0-.369-.255,4.789,4.789,0,0,0-1.05-.427,5.611,5.611,0,0,0-1.676-.283,5.06,5.06,0,0,0-3.805,1.589,5.832,5.832,0,0,0,0,7.838,5.061,5.061,0,0,0,3.805,1.59,5.4,5.4,0,0,0,1.648-.266,5.632,5.632,0,0,0,1.136-.482Z" transform="translate(-305.598 -25.704)" fill="#fefefe"/>
      </g>
      <g id="Groupe_4349" data-name="Groupe 4349" transform="translate(14.001 0.308)">
        <path id="Tracé_20-2" data-name="Tracé 20-2" d="M323.781,40.753V26.1h6.928v2.158h-4.655v3.89H330.4V34.28h-4.345v4.345h4.655v2.158h-6.928Z" transform="translate(-323.781 -26.104)" fill="#fefefe"/>
      </g>
      <g id="Groupe_4350" data-name="Groupe 4350" transform="translate(23.683 0.308)">
        <path id="Tracé_21-2" data-name="Tracé 21-2" d="M336.355,40.753V26.1h2.271V38.628h4.655v2.158h-6.927Z" transform="translate(-336.355 -26.104)" fill="#fefefe"/>
      </g>
      <g id="Groupe_4351" data-name="Groupe 4351" transform="translate(32.655 0.308)">
        <path id="Tracé_22-2" data-name="Tracé 22-2" d="M348.007,40.753V26.1h2.272V38.628h4.656v2.158h-6.928Z" transform="translate(-348.007 -26.104)" fill="#fefefe"/>
      </g>
      <g id="Groupe_4352" data-name="Groupe 4352" transform="translate(41.539 0.308)">
        <path id="Tracé_23-2" data-name="Tracé 23-2" d="M369.545,26.1v9.967a4.949,4.949,0,0,1-1.363,3.664,5.533,5.533,0,0,1-7.268,0,4.949,4.949,0,0,1-1.363-3.664V26.1h2.271v9.967a3.046,3.046,0,0,0,.678,2.02,2.951,2.951,0,0,0,4.089,0,3.044,3.044,0,0,0,.681-2.016V26.1Z" transform="translate(-359.545 -26.104)" fill="#fefefe"/>
      </g>
      <g id="Groupe_4353" data-name="Groupe 4353" transform="translate(54.749 0.308)">
        <path id="Tracé_24-2" data-name="Tracé 24-2" d="M376.7,40.753V26.1h2.271V38.628h4.656v2.158H376.7Z" transform="translate(-376.701 -26.104)" fill="#fefefe"/>
      </g>
      <g id="Groupe_4354" data-name="Groupe 4354" transform="translate(63.721 0.308)">
        <path id="Tracé_25-2" data-name="Tracé 25-2" d="M388.353,40.753V26.1h6.928v2.158h-4.655v3.89h4.345V34.28h-4.345v4.345h4.655v2.158h-6.928Z" transform="translate(-388.353 -26.104)" fill="#fefefe"/>
      </g>
      <g id="Groupe_4355" data-name="Groupe 4355" transform="translate(1.109 18.472)">
        <path id="Tracé_26-2" data-name="Tracé 26-2" d="M307.039,64.388V49.7h3.688a5.536,5.536,0,0,1,3.664,1.106,3.618,3.618,0,0,1,1.334,2.926,3.5,3.5,0,0,1-1.647,3.066,3.9,3.9,0,0,1,.6,6.389,5.337,5.337,0,0,1-3.634,1.192Zm2.272-8.576h1.417q2.726,0,2.726-1.959a1.7,1.7,0,0,0-.681-1.448,3.416,3.416,0,0,0-2.071-.541h-1.419Zm3.805,5.821a2.066,2.066,0,0,0,.149-2.918l-.006-.008c-.058-.057-.085-.113-.142-.142a3.066,3.066,0,0,0-2.073-.6h-1.733v4.26h1.732a3.066,3.066,0,0,0,2.074-.6Z" transform="translate(-307.039 -49.694)" fill="#fefefe"/>
      </g>
      <g id="Groupe_4356" data-name="Groupe 4356" transform="translate(12.687 18.482)">
        <path id="Tracé_27-2" data-name="Tracé 27-2" d="M332.074,49.707v9.968a5,5,0,0,1-9.994.47q-.012-.236,0-.47V49.707h2.271v9.968a3.039,3.039,0,0,0,.679,2.02,2.951,2.951,0,0,0,4.089,0,3.046,3.046,0,0,0,.681-2.015V49.707Z" transform="translate(-322.074 -49.707)" fill="#fefefe"/>
      </g>
      <g id="Groupe_4357" data-name="Groupe 4357" transform="translate(24.596 18.192)">
        <path id="Tracé_28-2" data-name="Tracé 28-2" d="M337.541,61.973l1.732-1.562c.057.085.085.142.142.227s.227.256.455.511a5.015,5.015,0,0,0,.738.624,5.676,5.676,0,0,0,1.022.511,3.9,3.9,0,0,0,1.277.227,2.678,2.678,0,0,0,1.789-.539,1.959,1.959,0,0,0,.652-1.534,2.021,2.021,0,0,0-.738-1.59,7.309,7.309,0,0,0-1.76-1.021q-1.021-.385-2.044-.852a4.592,4.592,0,0,1-1.732-1.394,3.975,3.975,0,0,1,.427-5.111,4.113,4.113,0,0,1,3.042-1.136,6.351,6.351,0,0,1,1.619.227,5.68,5.68,0,0,1,1.306.511,10.305,10.305,0,0,1,.908.624c.2.17.4.34.6.539l.171.2-1.59,1.534a2.661,2.661,0,0,0-.4-.4,4.816,4.816,0,0,0-1.022-.652,3.082,3.082,0,0,0-1.561-.427,2.256,2.256,0,0,0-1.448.455,1.452,1.452,0,0,0-.54,1.22,1.671,1.671,0,0,0,.738,1.363,8.229,8.229,0,0,0,1.76.994c.681.284,1.363.6,2.044.909a4.215,4.215,0,0,1,1.76,1.475,4.336,4.336,0,0,1,.71,2.5,4.033,4.033,0,0,1-1.277,3.066,4.682,4.682,0,0,1-3.351,1.163,6.9,6.9,0,0,1-2.016-.284,6.1,6.1,0,0,1-1.534-.652,9.071,9.071,0,0,1-1.05-.767,2.251,2.251,0,0,1-.624-.653Z" transform="translate(-337.541 -49.33)" fill="#fefefe"/>
      </g>
      <g id="Groupe_4358" data-name="Groupe 4358" transform="translate(37.091 18.482)">
        <path id="Tracé_29-2" data-name="Tracé 29-2" d="M353.768,64.389V49.707h2.271V64.389Z" transform="translate(-353.768 -49.707)" fill="#fefefe"/>
      </g>
      <g id="Groupe_4359" data-name="Groupe 4359" transform="translate(42.623 17.828)">
        <path id="Tracé_30-2" data-name="Tracé 30-2" d="M370.978,49.51V64.841l-7.812-9.621v8.971h-2.213V48.857l7.809,9.627V49.512Z" transform="translate(-360.953 -48.857)" fill="#fefefe"/>
      </g>
      <g id="Groupe_4360" data-name="Groupe 4360" transform="translate(55.92 18.482)">
        <path id="Tracé_31-2" data-name="Tracé 31-2" d="M378.222,64.389V49.707h6.928v2.158h-4.655v3.89h4.344v2.158h-4.344v4.345h4.655v2.158h-6.928Z" transform="translate(-378.222 -49.707)" fill="#fefefe"/>
      </g>
      <g id="Groupe_4361" data-name="Groupe 4361" transform="translate(64.293 18.192)">
        <path id="Tracé_32-2" data-name="Tracé 32-2" d="M389.1,61.973l1.732-1.562c.057.085.085.142.142.227s.227.256.454.511a5.1,5.1,0,0,0,.738.624,5.7,5.7,0,0,0,1.022.511,3.889,3.889,0,0,0,1.278.227,2.675,2.675,0,0,0,1.789-.539,1.96,1.96,0,0,0,.653-1.534,2.021,2.021,0,0,0-.738-1.59,7.308,7.308,0,0,0-1.76-1.021q-1.022-.385-2.044-.852a4.587,4.587,0,0,1-1.732-1.394,3.975,3.975,0,0,1,.426-5.111,4.115,4.115,0,0,1,3.043-1.136,6.35,6.35,0,0,1,1.619.227,5.693,5.693,0,0,1,1.306.511,10.31,10.31,0,0,1,.908.624c.2.17.4.34.6.539l.171.2-1.59,1.534a2.661,2.661,0,0,0-.4-.4,4.816,4.816,0,0,0-1.022-.652,3.082,3.082,0,0,0-1.561-.427,2.258,2.258,0,0,0-1.448.455,1.456,1.456,0,0,0-.541,1.22,1.674,1.674,0,0,0,.738,1.363,8.285,8.285,0,0,0,1.761.994c.681.284,1.363.6,2.044.909a4.22,4.22,0,0,1,1.76,1.475,4.341,4.341,0,0,1,.71,2.5,4.032,4.032,0,0,1-1.277,3.066,4.68,4.68,0,0,1-3.351,1.163,6.9,6.9,0,0,1-2.016-.284,6.108,6.108,0,0,1-1.533-.652,9.073,9.073,0,0,1-1.05-.767,2.264,2.264,0,0,1-.624-.653Z" transform="translate(-389.096 -49.33)" fill="#fefefe"/>
      </g>
      <g id="Groupe_4362" data-name="Groupe 4362" transform="translate(75.451 18.192)">
        <path id="Tracé_33-2" data-name="Tracé 33-2" d="M403.586,61.973l1.732-1.562c.057.085.085.142.142.227s.227.256.455.511a5.058,5.058,0,0,0,.738.624,5.678,5.678,0,0,0,1.022.511,3.889,3.889,0,0,0,1.277.227,2.678,2.678,0,0,0,1.789-.539,1.841,1.841,0,0,0,.653-1.534,2.024,2.024,0,0,0-.738-1.59,7.313,7.313,0,0,0-1.761-1.021q-1.021-.385-2.044-.852a4.6,4.6,0,0,1-1.732-1.394,3.976,3.976,0,0,1,.427-5.111,4.114,4.114,0,0,1,3.043-1.136,6.349,6.349,0,0,1,1.618.227,5.68,5.68,0,0,1,1.306.511,10.436,10.436,0,0,1,.909.624c.2.17.4.34.6.539l.171.2-1.59,1.534a2.66,2.66,0,0,0-.4-.4,4.8,4.8,0,0,0-1.022-.652,3.082,3.082,0,0,0-1.561-.427,2.256,2.256,0,0,0-1.448.455,1.452,1.452,0,0,0-.54,1.22,1.672,1.672,0,0,0,.738,1.363,8.28,8.28,0,0,0,1.76.994c.681.284,1.363.6,2.044.909a4.215,4.215,0,0,1,1.76,1.475,4.337,4.337,0,0,1,.711,2.5,4.035,4.035,0,0,1-1.277,3.066,4.68,4.68,0,0,1-3.351,1.163A6.9,6.9,0,0,1,407,64.352a6.1,6.1,0,0,1-1.533-.652,9.073,9.073,0,0,1-1.05-.767,2.254,2.254,0,0,1-.624-.653Z" transform="translate(-403.586 -49.33)" fill="#fefefe"/>
      </g>
      <g id="Groupe_4363" data-name="Groupe 4363" transform="translate(1.109 37.902)">
        <path id="Tracé_34-2" data-name="Tracé 34-2" d="M307.039,89.61V74.928h2.272V89.61Z" transform="translate(-307.039 -74.928)" fill="#fefefe"/>
      </g>
      <g id="Groupe_4364" data-name="Groupe 4364" transform="translate(6.681 37.284)">
        <path id="Tracé_35-2" data-name="Tracé 35-2" d="M324.3,74.749V90.078l-7.809-9.627v8.971h-2.213v-15.3l7.809,9.627v-9Z" transform="translate(-314.275 -74.125)" fill="#fefefe"/>
      </g>
      <g id="Groupe_4365" data-name="Groupe 4365" transform="translate(18.74 37.875)">
        <path id="Tracé_36-2" data-name="Tracé 36-2" d="M329.936,77.05V74.892h8.435V77.05h-3.1V89.572H333V77.05Z" transform="translate(-329.936 -74.892)" fill="#fefefe"/>
      </g>
      <g id="Groupe_4366" data-name="Groupe 4366" transform="translate(29.225 37.902)">
        <path id="Tracé_37-2" data-name="Tracé 37-2" d="M343.553,89.61V74.928h6.928v2.158h-4.656v3.89h4.345v2.158h-4.345v4.345h4.656v2.158h-6.928Z" transform="translate(-343.553 -74.928)" fill="#fefefe"/>
      </g>
      <g id="Groupe_4367" data-name="Groupe 4367" transform="translate(38.907 37.902)">
        <path id="Tracé_38-2" data-name="Tracé 38-2" d="M356.127,89.61V74.928H358.4V87.451h4.656v2.158Z" transform="translate(-356.127 -74.928)" fill="#fefefe"/>
      </g>
      <g id="Groupe_4368" data-name="Groupe 4368" transform="translate(47.879 37.902)">
        <path id="Tracé_39-2" data-name="Tracé 39-2" d="M367.779,89.61V74.928h2.272V87.451h4.685v2.158Z" transform="translate(-367.779 -74.928)" fill="#fefefe"/>
      </g>
      <g id="Groupe_4369" data-name="Groupe 4369" transform="translate(56.879 37.902)">
        <path id="Tracé_40-2" data-name="Tracé 40-2" d="M379.467,89.61V74.928h2.271V89.61Z" transform="translate(-379.467 -74.928)" fill="#fefefe"/>
      </g>
      <g id="Groupe_4370" data-name="Groupe 4370" transform="translate(61.939 37.654)">
        <path id="Tracé_41-2" data-name="Tracé 41-2" d="M398.28,76.167,397,77.955l-.426-.34a5.7,5.7,0,0,0-1.193-.539,5.226,5.226,0,0,0-1.873-.34,4.83,4.83,0,0,0-3.748,1.561,5.933,5.933,0,0,0,.029,7.867,4.981,4.981,0,0,0,3.806,1.561,4.828,4.828,0,0,0,3.348-1.163,5.084,5.084,0,0,0,1.619-3.066h-5.082V81.42h7.439a8.173,8.173,0,0,1,.029.823,7.763,7.763,0,0,1-2.044,5.481,6.917,6.917,0,0,1-5.338,2.187,7.423,7.423,0,0,1-7.528-7.317c0-.1,0-.194,0-.291a7.8,7.8,0,0,1,2.129-5.451,7.076,7.076,0,0,1,5.4-2.243,8.108,8.108,0,0,1,1.647.171,7.263,7.263,0,0,1,1.334.4c.34.171.681.313.965.482s.511.313.624.4Z" transform="translate(-386.039 -74.605)" fill="#fefefe"/>
      </g>
      <g id="Groupe_4371" data-name="Groupe 4371" transform="translate(79.37 37.902)">
        <path id="Tracé_42-2" data-name="Tracé 42-2" d="M408.676,89.61V74.928H415.6v2.158h-4.656v3.89h4.345v2.158h-4.345v4.345H415.6v2.158h-6.928Z" transform="translate(-408.676 -74.928)" fill="#fefefe"/>
      </g>
      <g id="Groupe_4372" data-name="Groupe 4372" transform="translate(89.089 37.284)">
        <path id="Tracé_43-2" data-name="Tracé 43-2" d="M431.322,74.749V90.078l-7.809-9.627v8.971H421.3v-15.3l7.81,9.627v-9Z" transform="translate(-421.298 -74.125)" fill="#fefefe"/>
      </g>
      <g id="Groupe_4373" data-name="Groupe 4373" transform="translate(101.83 37.619)">
        <path id="Tracé_44-2" data-name="Tracé 44-2" d="M448.555,86.686l1.22,1.817c-.113.085-.313.227-.539.369a8.114,8.114,0,0,1-9.2-1.22,7.872,7.872,0,0,1,0-10.9,7.112,7.112,0,0,1,5.337-2.186,7.7,7.7,0,0,1,2.271.34,8.534,8.534,0,0,1,1.59.652l.482.34-1.192,1.789a4.038,4.038,0,0,0-.37-.256,4.747,4.747,0,0,0-1.05-.426,5.583,5.583,0,0,0-1.675-.284,5.063,5.063,0,0,0-3.806,1.589,5.833,5.833,0,0,0,0,7.839,5.066,5.066,0,0,0,3.806,1.589,5.382,5.382,0,0,0,1.646-.256A5.658,5.658,0,0,0,448.214,87Z" transform="translate(-437.844 -74.56)" fill="#fefefe"/>
      </g>
      <g id="Groupe_4374" data-name="Groupe 4374" transform="translate(115.812 37.902)">
        <path id="Tracé_45-2" data-name="Tracé 45-2" d="M456,89.61V74.928h6.928v2.158h-4.655v3.89h4.344v2.158h-4.344v4.345h4.655v2.158H456Z" transform="translate(-456.003 -74.928)" fill="#fefefe"/>
      </g>
    </g>
    <path id="Tracé_7575" data-name="Tracé 7575" d="M238.87,59.813l1.563-.312,1.776-4.159L243.4,56.97l1.455-4.685,1.725,3.705,1.4-1.931,1.3.909,1.545-3.5,1.193,2.222,1.614-3.181,1.076,1.779,1.563-1.036" transform="translate(-0.278 -5.704)" fill="none" stroke="#707070" stroke-width="0.4"/>
  </g>
</svg>
