<svg xmlns="http://www.w3.org/2000/svg" xmlns:xlink="http://www.w3.org/1999/xlink" width="85" height="85" viewBox="0 0 85 85">
  <defs>
    <filter id="Tracé_7809" x="0" y="0" width="85" height="85" filterUnits="userSpaceOnUse">
      <feOffset dy="4" input="SourceAlpha"/>
      <feGaussianBlur stdDeviation="3.5" result="blur"/>
      <feFlood flood-opacity="0.161"/>
      <feComposite operator="in" in2="blur"/>
      <feComposite in="SourceGraphic"/>
    </filter>
  </defs>
  <g id="Groupe_4396" data-name="Groupe 4396" transform="translate(-1707.5 -963.5)">
    <g transform="matrix(1, 0, 0, 1, 1707.5, 963.5)" filter="url(#Tracé_7809)">
      <g id="Tracé_7809-2" data-name="Tracé 7809" transform="translate(10.5 6.5)" fill="#fff">
        <path d="M 32 63.5 C 27.74731063842773 63.5 23.62208938598633 62.66722106933594 19.73892974853516 61.0247802734375 C 15.9879903793335 59.43827056884766 12.61919975280762 57.16693115234375 9.726140022277832 54.27386093139648 C 6.833069801330566 51.38079833984375 4.561729907989502 48.01200866699219 2.975219964981079 44.26107025146484 C 1.332780003547668 40.37791061401367 0.5 36.25268936157227 0.5 32 C 0.5 27.74731063842773 1.332780003547668 23.62208938598633 2.975219964981079 19.73892974853516 C 4.561729907989502 15.9879903793335 6.833069801330566 12.61919975280762 9.726140022277832 9.726140022277832 C 12.61919975280762 6.833069801330566 15.9879903793335 4.561729907989502 19.73892974853516 2.975219964981079 C 23.62208938598633 1.332780003547668 27.74731063842773 0.5 32 0.5 C 36.25268936157227 0.5 40.37791061401367 1.332780003547668 44.26107025146484 2.975219964981079 C 48.01200866699219 4.561729907989502 51.38079833984375 6.833069801330566 54.27386093139648 9.726140022277832 C 57.16693115234375 12.61919975280762 59.43827056884766 15.9879903793335 61.0247802734375 19.73892974853516 C 62.66722106933594 23.62208938598633 63.5 27.74731063842773 63.5 32 C 63.5 36.25268936157227 62.66722106933594 40.37791061401367 61.0247802734375 44.26107025146484 C 59.43827056884766 48.01200866699219 57.16693115234375 51.38079833984375 54.27386093139648 54.27386093139648 C 51.38079833984375 57.16693115234375 48.01200866699219 59.43827056884766 44.26107025146484 61.0247802734375 C 40.37791061401367 62.66722106933594 36.25268936157227 63.5 32 63.5 Z" stroke="none"/>
        <path d="M 32 1 C 27.81459045410156 1 23.75490188598633 1.819499969482422 19.93370819091797 3.435718536376953 C 16.24237060546875 4.997028350830078 12.92699813842773 7.232379913330078 10.07968902587891 10.07968902587891 C 7.232379913330078 12.92699813842773 4.997028350830078 16.24237060546875 3.435718536376953 19.93370819091797 C 1.819499969482422 23.75490188598633 1 27.81459045410156 1 32 C 1 36.18540954589844 1.819499969482422 40.24510192871094 3.435718536376953 44.06629180908203 C 4.997028350830078 47.75762939453125 7.232379913330078 51.072998046875 10.07968902587891 53.92031097412109 C 12.92699813842773 56.76762008666992 16.24237060546875 59.00297164916992 19.93370819091797 60.56428146362305 C 23.75490188598633 62.18050003051758 27.81459045410156 63 32 63 C 36.18540954589844 63 40.24510192871094 62.18050003051758 44.06629180908203 60.56428146362305 C 47.75762939453125 59.00297164916992 51.072998046875 56.76762008666992 53.92031097412109 53.92031097412109 C 56.76762008666992 51.072998046875 59.00297164916992 47.75762939453125 60.56428146362305 44.06629180908203 C 62.18050003051758 40.24510192871094 63 36.18540954589844 63 32 C 63 27.81459045410156 62.18050003051758 23.75490188598633 60.56428146362305 19.93370819091797 C 59.00297164916992 16.24237060546875 56.76762008666992 12.92699813842773 53.92031097412109 10.07968902587891 C 51.072998046875 7.232379913330078 47.75762939453125 4.997028350830078 44.06629180908203 3.435718536376953 C 40.24510192871094 1.819499969482422 36.18540954589844 1 32 1 M 32 0 C 49.67311096191406 0 64 14.32688903808594 64 32 C 64 49.67311096191406 49.67311096191406 64 32 64 C 14.32688903808594 64 0 49.67311096191406 0 32 C 0 14.32688903808594 14.32688903808594 0 32 0 Z" stroke="none" fill="#0099d5"/>
      </g>
    </g>
    <g id="Groupe_4395" data-name="Groupe 4395" transform="translate(801.638 608.008)">
      <path id="Tracé_7810" data-name="Tracé 7810" d="M952.039,448.147c-.83,1.441-2.062,1.661-3.563,1.64-5.8-.078-11.593-.021-17.389-.047-.667,0-.845.174-.842.841q.041,8.214,0,16.428c0,.622.151.82.8.818q10.618-.034,21.236,0c.622,0,.747-.195.744-.775-.024-4.247.025-8.5-.04-12.742a2.488,2.488,0,0,1,1.035-2.32,5.316,5.316,0,0,0,.477-.43c.263.142.143.383.143.569q.012,8.054,0,16.108c0,.994-.219,1.208-1.238,1.208q-11.74,0-23.48,0c-1.035,0-1.3-.257-1.3-1.256q0-9.416,0-18.832c0-.98.245-1.23,1.23-1.231q10.9-.006,21.8,0C951.781,448.124,951.908,448.139,952.039,448.147Z" transform="translate(0 -58.717)" fill="#0099d5"/>
      <path id="Tracé_7811" data-name="Tracé 7811" d="M1027.6,378.2q5.93,0,11.86,0c.955,0,1.1.151,1.1,1.125q0,9.5,0,18.992c0,.916-.263,1.181-1.2,1.183-3.125.006-6.251-.021-9.376.02-.689.009-.7-.3-.7-.813,0-.532,0-.884.726-.872,2.7.043,5.4,0,8.093.032.6.008.829-.087.825-.764q-.044-8.294,0-16.588c0-.616-.179-.748-.766-.746q-10.618.03-21.236,0c-.68,0-.78.239-.771.828.031,2.03-.023,4.061.031,6.09.019.715-.34.685-.825.675-.462-.009-.858.077-.843-.659.049-2.457.014-4.915.021-7.372,0-.965.169-1.126,1.112-1.126Q1021.629,378.194,1027.6,378.2Z" transform="translate(-72.13)" fill="#0099d5"/>
      <path id="Tracé_7812" data-name="Tracé 7812" d="M1034.714,414.143c3.1,0,5.971.009,8.846-.008.49,0,.414.294.4.576-.058,1.2-.123,2.4-.189,3.595-.089,1.62-.18,3.241-.257,4.628-.855-.761-1.842-1.563-2.732-2.462-.521-.526-.789-.679-1.416-.064-3.164,3.1-6.4,6.12-9.585,9.2-.46.445-.707.413-1.036-.06a4.14,4.14,0,0,0-.432-.472c-.956-1-.961-1,.012-1.935,3.085-2.951,6.163-5.909,9.271-8.836.456-.429.513-.673.047-1.126C1036.687,416.256,1035.791,415.269,1034.714,414.143Z" transform="translate(-83.105 -30.177)" fill="#0099d5"/>
    </g>
  </g>
</svg>
