<svg xmlns="http://www.w3.org/2000/svg" width="111.909" height="103.1" viewBox="0 0 111.909 103.1">
  <g id="Groupe_4336" data-name="Groupe 4336" transform="translate(-2.745 -2.431)">
    <path id="Tracé_7724" data-name="Tracé 7724" d="M76.273,18.5l-.056-.039L58.493,7.45l-19.659,5.4,7.25,4.406,6.844-1.913,2.347,1.5L42.331,20.346,30.708,13.1,56.3,6.116l-5.1-3.2a2.137,2.137,0,0,0-.462-.295l-.06-.039h-.019a1.844,1.844,0,0,0-.726-.146,2,2,0,0,0-.448.081l-.362.109L14.509,12.148l-.281.081c-.6.186-1.011.54-1.011.96a.921.921,0,0,0,.485.724l.162.093L38.947,29.6c.6.281.707.376,1.176.353a2.479,2.479,0,0,0,.731-.148,1.477,1.477,0,0,1-.329.1L75.39,20.3l.589-.162c.5-.195.828-.508.828-.888a.936.936,0,0,0-.533-.758" transform="translate(13.814 0)" fill="#fff"/>
    <path id="Tracé_7725" data-name="Tracé 7725" d="M22.389,29.041V25.467L39.912,36.473V25.087a6.581,6.581,0,0,1-.747-.48L14.149,9.106s-1.456-.735-1.456-1.881V34.18L29.282,44.95,29.186,48,12.737,38s.028,6.936.028,8.469A4.565,4.565,0,0,0,15,50.615c.677.427,24.916,15.482,24.916,15.482V39.941Z" transform="translate(13.123 6.324)" fill="#fff"/>
    <path id="Tracé_7726" data-name="Tracé 7726" d="M60.037,11.868,48.274,15.089V31.826L40.062,34.05V17.4L25.874,21.316s-.371.083-.77.158V62.561l14.958-4.126v-15.5l8.3-2.219V56.107s10.591-2.883,11.4-3.133a3.51,3.51,0,0,0,2.593-3.442V10.024c0,1.122-2.312,1.844-2.312,1.844" transform="translate(29.494 10.016)" fill="#fff"/>
    <path id="Tracé_7727" data-name="Tracé 7727" d="M6.139,40.181v5.843h6.247V40.181h3.4V55.394h-3.4V48.832H6.139v6.561H2.745V40.181Z" transform="translate(0 49.797)" fill="#fff"/>
    <path id="Tracé_7728" data-name="Tracé 7728" d="M18.276,40.181l5.768,15.213h-3.52l-1.176-3.384H13.58l-1.206,3.384H8.953l5.842-15.213Zm.19,9.337-1.95-5.577h-.044l-2.008,5.577Z" transform="translate(8.189 49.796)" fill="#fff"/>
    <path id="Tracé_7729" data-name="Tracé 7729" d="M19.185,51.845a2.553,2.553,0,0,0,.742.877,3.56,3.56,0,0,0,1.1.475,5.3,5.3,0,0,0,1.292.16,6.547,6.547,0,0,0,.974-.07A3.35,3.35,0,0,0,24.267,53a2.141,2.141,0,0,0,.756-.587,1.45,1.45,0,0,0,.3-.944,1.374,1.374,0,0,0-.4-1.009,3.15,3.15,0,0,0-1.048-.635,11.327,11.327,0,0,0-1.468-.445c-.552-.13-1.106-.271-1.67-.424a14.12,14.12,0,0,1-1.684-.524,5.664,5.664,0,0,1-1.463-.8,3.965,3.965,0,0,1-1.058-1.22,3.75,3.75,0,0,1-.4-1.793,4.009,4.009,0,0,1,.506-2.029,4.579,4.579,0,0,1,1.333-1.436,5.772,5.772,0,0,1,1.86-.846,7.975,7.975,0,0,1,2.078-.278,10.014,10.014,0,0,1,2.319.26,6.072,6.072,0,0,1,1.981.865,4.35,4.35,0,0,1,1.368,1.526,4.587,4.587,0,0,1,.508,2.243H24.8a2.525,2.525,0,0,0-.292-1.127,1.89,1.89,0,0,0-.659-.7,3.014,3.014,0,0,0-.946-.376,6.457,6.457,0,0,0-1.153-.1,3.777,3.777,0,0,0-.823.1A2.227,2.227,0,0,0,20.19,43a2.123,2.123,0,0,0-.552.533,1.408,1.408,0,0,0-.211.814,1.45,1.45,0,0,0,.162.731,1.568,1.568,0,0,0,.691.5,9.166,9.166,0,0,0,1.394.468c.6.162,1.378.359,2.354.6.288.06.682.158,1.2.3a6.02,6.02,0,0,1,1.531.714,4.47,4.47,0,0,1,1.3,1.31,3.654,3.654,0,0,1,.55,2.087,4.62,4.62,0,0,1-.41,1.948,4.307,4.307,0,0,1-1.211,1.545,5.986,5.986,0,0,1-2.025,1.013,10.423,10.423,0,0,1-5.25.046A5.973,5.973,0,0,1,17.6,54.66a4.724,4.724,0,0,1-1.463-1.688,4.868,4.868,0,0,1-.515-2.426H18.9a2.682,2.682,0,0,0,.285,1.3" transform="translate(16.983 49.596)" fill="#fff"/>
    <path id="Tracé_7730" data-name="Tracé 7730" d="M25.466,40.181,31.9,50.389h.048V40.181h3.18V55.394h-3.4L25.309,45.216h-.045V55.394H22.087V40.181Z" transform="translate(25.515 49.797)" fill="#fff"/>
    <path id="Tracé_7731" data-name="Tracé 7731" d="M37.614,40.181l5.777,15.213H39.859L38.7,52.011H32.925l-1.208,3.384H28.294l5.83-15.213Zm.183,9.337L35.864,43.94h-.046l-2,5.577Z" transform="translate(33.702 49.796)" fill="#fff"/>
    <path id="Tracé_7732" data-name="Tracé 7732" d="M35.608,44.894A7.663,7.663,0,0,1,37.1,42.353a6.8,6.8,0,0,1,2.4-1.709,8.586,8.586,0,0,1,6.38,0,6.777,6.777,0,0,1,2.382,1.709,7.154,7.154,0,0,1,1.489,2.542,9.252,9.252,0,0,1,.526,3.166,8.944,8.944,0,0,1-.526,3.094,6.974,6.974,0,0,1-1.489,2.5,6.81,6.81,0,0,1-2.382,1.674,8.677,8.677,0,0,1-6.38,0,6.833,6.833,0,0,1-2.4-1.674,7.468,7.468,0,0,1-1.487-2.5,8.942,8.942,0,0,1-.519-3.094,9.251,9.251,0,0,1,.519-3.166m3.105,5.023a4.868,4.868,0,0,0,.726,1.633,3.725,3.725,0,0,0,1.3,1.171,4.691,4.691,0,0,0,3.889,0,3.851,3.851,0,0,0,1.3-1.171,4.81,4.81,0,0,0,.719-1.633,7.559,7.559,0,0,0,.227-1.858,8.1,8.1,0,0,0-.227-1.939,4.913,4.913,0,0,0-.719-1.672,3.665,3.665,0,0,0-1.3-1.178,4.577,4.577,0,0,0-3.889,0,3.551,3.551,0,0,0-1.3,1.178,4.97,4.97,0,0,0-.726,1.672,7.982,7.982,0,0,0-.23,1.939,7.452,7.452,0,0,0,.23,1.858" transform="translate(42.665 49.596)" fill="#fff"/>
    <path id="Tracé_7733" data-name="Tracé 7733" d="M54.018,54.235a7.15,7.15,0,0,1-4.838,1.5,7.149,7.149,0,0,1-4.856-1.491,5.748,5.748,0,0,1-1.723-4.6v-9.46h3.4v9.46a6.589,6.589,0,0,0,.1,1.218,2.563,2.563,0,0,0,.459,1.06,2.5,2.5,0,0,0,.953.737,4.087,4.087,0,0,0,1.663.288,3.19,3.19,0,0,0,2.5-.8,3.775,3.775,0,0,0,.689-2.5v-9.46h3.4v9.46a5.706,5.706,0,0,1-1.758,4.594" transform="translate(52.575 49.796)" fill="#fff"/>
    <rect id="Rectangle_202" data-name="Rectangle 202" width="3.393" height="15.212" transform="translate(111.261 89.978)" fill="#fff"/>
    <rect id="Rectangle_203" data-name="Rectangle 203" width="17.996" height="0.686" transform="translate(96.658 83.87)" fill="#fff"/>
    <rect id="Rectangle_204" data-name="Rectangle 204" width="18.251" height="0.686" transform="translate(2.745 83.87)" fill="#fff"/>
    <path id="Tracé_7734" data-name="Tracé 7734" d="M14.05,37.488a1.128,1.128,0,0,0-.211-.726.945.945,0,0,0-.756-.255,2.38,2.38,0,0,0-.253.023.811.811,0,0,0-.341.13,1.022,1.022,0,0,0-.288.355,1.424,1.424,0,0,0-.13.666v1.83a3.126,3.126,0,0,0,.065.735,1.1,1.1,0,0,0,.195.455.647.647,0,0,0,.315.239,1.356,1.356,0,0,0,.436.06,2,2,0,0,0,.628-.083,1.248,1.248,0,0,0,.359-.158V39.135h-1.02v-.6h1.714v2.639a4.219,4.219,0,0,1-.744.295,3.506,3.506,0,0,1-.937.111,1.609,1.609,0,0,1-1.3-.487,2.418,2.418,0,0,1-.434-1.614V37.7a1.839,1.839,0,0,1,.434-1.282,1.607,1.607,0,0,1,1.3-.482,2.042,2.042,0,0,1,1.317.353,1.485,1.485,0,0,1,.39,1.2Z" transform="translate(11.353 44.191)" fill="#fff"/>
    <path id="Tracé_7735" data-name="Tracé 7735" d="M14.086,38.907v2.5h-.7V35.98h1.9a1.64,1.64,0,0,1,.612.111,1.384,1.384,0,0,1,.417.311,1.128,1.128,0,0,1,.211.434,1.561,1.561,0,0,1,.074.5,1.289,1.289,0,0,1-.262.821,1.146,1.146,0,0,1-.749.415v.019a1.78,1.78,0,0,1,.408.1.69.69,0,0,1,.269.22,1.506,1.506,0,0,1,.16.415,3.356,3.356,0,0,1,.07.663c0,.051,0,.144.009.271s.021.253.046.394.035.285.058.415a2.844,2.844,0,0,0,.07.339H15.95a1.321,1.321,0,0,1-.114-.339c-.021-.13-.032-.274-.046-.434s-.014-.325-.023-.5-.019-.346-.028-.531a.762.762,0,0,0-.132-.394.812.812,0,0,0-.22-.206.913.913,0,0,0-.257-.072.989.989,0,0,0-.227-.019Zm0-.6h1.044a.8.8,0,0,0,.341-.077.779.779,0,0,0,.234-.2.639.639,0,0,0,.123-.281,1.071,1.071,0,0,0,.058-.339,1.358,1.358,0,0,0-.039-.3.682.682,0,0,0-.13-.267.659.659,0,0,0-.237-.186.588.588,0,0,0-.339-.074H14.086Z" transform="translate(14.033 44.255)" fill="#fff"/>
    <path id="Tracé_7736" data-name="Tracé 7736" d="M16.935,41.579a1.608,1.608,0,0,1-1.294-.489,2.389,2.389,0,0,1-.436-1.612V37.7a1.831,1.831,0,0,1,.436-1.285,1.613,1.613,0,0,1,1.294-.482,1.659,1.659,0,0,1,1.31.482,1.878,1.878,0,0,1,.417,1.285v1.779a2.462,2.462,0,0,1-.417,1.612,1.654,1.654,0,0,1-1.31.489m0-.58a1.351,1.351,0,0,0,.434-.06.741.741,0,0,0,.322-.239,1.359,1.359,0,0,0,.2-.455,4.268,4.268,0,0,0,.053-.735v-1.83a1.5,1.5,0,0,0-.116-.666,1.066,1.066,0,0,0-.3-.35.7.7,0,0,0-.336-.135,1.917,1.917,0,0,0-.253-.023,1.686,1.686,0,0,0-.248.023.789.789,0,0,0-.348.135.935.935,0,0,0-.285.35,1.423,1.423,0,0,0-.125.666v1.83a3.168,3.168,0,0,0,.06.735,1.231,1.231,0,0,0,.188.455.834.834,0,0,0,.318.239,1.426,1.426,0,0,0,.441.06" transform="translate(16.436 44.191)" fill="#fff"/>
    <path id="Tracé_7737" data-name="Tracé 7737" d="M17.213,35.98h.7v3.467a3.378,3.378,0,0,0,.067.735,1.2,1.2,0,0,0,.2.455.636.636,0,0,0,.313.234,1.543,1.543,0,0,0,.886,0,.728.728,0,0,0,.327-.234,1.157,1.157,0,0,0,.183-.455,2.941,2.941,0,0,0,.077-.735V35.98h.7v3.435a2.435,2.435,0,0,1-.422,1.614,1.665,1.665,0,0,1-1.315.482,1.631,1.631,0,0,1-1.292-.482,2.394,2.394,0,0,1-.431-1.614Z" transform="translate(19.085 44.255)" fill="#fff"/>
    <path id="Tracé_7738" data-name="Tracé 7738" d="M19.268,41.4V35.98H20.9a2.03,2.03,0,0,1,.554.07,1.083,1.083,0,0,1,.494.227,1.2,1.2,0,0,1,.353.468,1.8,1.8,0,0,1,.135.779,1.576,1.576,0,0,1-.155.754,1.327,1.327,0,0,1-.4.45,1.545,1.545,0,0,1-.506.227,2.588,2.588,0,0,1-.489.058h-.911V41.4Zm.707-3h.763a2.046,2.046,0,0,0,.283-.021.953.953,0,0,0,.322-.118.672.672,0,0,0,.262-.281.9.9,0,0,0,.116-.5,1.038,1.038,0,0,0-.1-.489.79.79,0,0,0-.232-.269.649.649,0,0,0-.26-.121,1.463,1.463,0,0,0-.188-.026h-.965Z" transform="translate(21.796 44.255)" fill="#fff"/>
    <path id="Tracé_7739" data-name="Tracé 7739" d="M21.059,41.4V35.98h2.829v.6H21.753v1.738h1.976v.6H21.753V40.8h2.18v.6Z" transform="translate(24.158 44.255)" fill="#fff"/>
    <path id="Tracé_7740" data-name="Tracé 7740" d="M23.438,35.98h1.684a2.006,2.006,0,0,1,.9.192,1.284,1.284,0,0,1,.58.64,1.746,1.746,0,0,1,.132.422,4.459,4.459,0,0,1,.074.533c.014.172.014.332.028.471s.012.232.012.281a10.011,10.011,0,0,1-.077,1.389,2.238,2.238,0,0,1-.255.793,1.354,1.354,0,0,1-.666.526A3.222,3.222,0,0,1,24.7,41.4H23.438Zm.7,4.819h.654a2.108,2.108,0,0,0,.626-.077.8.8,0,0,0,.415-.264,1.254,1.254,0,0,0,.23-.494,3.9,3.9,0,0,0,.072-.791V38.079a1.947,1.947,0,0,0-.264-1.15.939.939,0,0,0-.812-.346h-.921Z" transform="translate(27.297 44.255)" fill="#fff"/>
    <path id="Tracé_7741" data-name="Tracé 7741" d="M25.439,41.4V35.98h2.824v.6H26.131v1.738H28.11v.6H26.131V40.8h2.188v.6Z" transform="translate(29.936 44.255)" fill="#fff"/>
    <path id="Tracé_7742" data-name="Tracé 7742" d="M27.711,39.848v.158a1.128,1.128,0,0,0,.083.459.743.743,0,0,0,.206.3,1,1,0,0,0,.3.167,1.705,1.705,0,0,0,.327.042,1.976,1.976,0,0,0,.4-.042,1.188,1.188,0,0,0,.308-.151.727.727,0,0,0,.188-.278.8.8,0,0,0,.081-.406.716.716,0,0,0-.183-.51,2.046,2.046,0,0,0-.445-.357c-.19-.114-.39-.22-.6-.322a3.179,3.179,0,0,1-.6-.343,1.818,1.818,0,0,1-.455-.494,1.208,1.208,0,0,1-.188-.668,1.511,1.511,0,0,1,.132-.628,1.072,1.072,0,0,1,.336-.466,1.665,1.665,0,0,1,.508-.288,2.419,2.419,0,0,1,.652-.088,1.588,1.588,0,0,1,1.139.376,1.521,1.521,0,0,1,.378,1.208h-.731a1.22,1.22,0,0,0-.174-.714.748.748,0,0,0-.673-.269,1.016,1.016,0,0,0-.315.042.776.776,0,0,0-.267.132.683.683,0,0,0-.19.246.992.992,0,0,0-.074.38.65.65,0,0,0,.186.492,2.155,2.155,0,0,0,.452.364c.181.107.385.2.6.318a3.554,3.554,0,0,1,.6.35,2.217,2.217,0,0,1,.457.5,1.356,1.356,0,0,1,.176.712,1.715,1.715,0,0,1-.135.724,1.287,1.287,0,0,1-.921.7,2.351,2.351,0,0,1-.645.083,1.888,1.888,0,0,1-.679-.088,1.685,1.685,0,0,1-.466-.239,1.191,1.191,0,0,1-.264-.334,1.362,1.362,0,0,1-.153-.38,1.9,1.9,0,0,1-.042-.376c0-.121,0-.22,0-.311Z" transform="translate(32.012 44.19)" fill="#fff"/>
    <path id="Tracé_7743" data-name="Tracé 7743" d="M30.272,39.848v.158a1.328,1.328,0,0,0,.074.459.743.743,0,0,0,.218.3.887.887,0,0,0,.295.167,1.731,1.731,0,0,0,.334.042,1.785,1.785,0,0,0,.387-.042.92.92,0,0,0,.3-.151.655.655,0,0,0,.209-.278.976.976,0,0,0,.074-.406.758.758,0,0,0-.181-.51,1.922,1.922,0,0,0-.45-.357c-.192-.114-.387-.22-.6-.322a2.792,2.792,0,0,1-.6-.343,1.567,1.567,0,0,1-.455-.494A1.188,1.188,0,0,1,29.7,37.4a1.378,1.378,0,0,1,.128-.628,1.2,1.2,0,0,1,.327-.466,1.744,1.744,0,0,1,.517-.288,2.341,2.341,0,0,1,.638-.088,1.651,1.651,0,0,1,1.16.376,1.478,1.478,0,0,1,.364,1.208H32.1a1.22,1.22,0,0,0-.167-.714.772.772,0,0,0-.675-.269,1,1,0,0,0-.308.042.71.71,0,0,0-.264.132,1.051,1.051,0,0,0-.213.246,1.294,1.294,0,0,0-.06.38.65.65,0,0,0,.186.492,1.954,1.954,0,0,0,.462.364c.179.107.376.2.589.318a3.179,3.179,0,0,1,.591.35,1.943,1.943,0,0,1,.459.5,1.3,1.3,0,0,1,.183.712,1.674,1.674,0,0,1-.141.724,1.277,1.277,0,0,1-.918.7,2.378,2.378,0,0,1-.652.083,1.955,1.955,0,0,1-.682-.088,1.53,1.53,0,0,1-.452-.239,1.039,1.039,0,0,1-.271-.334,1.417,1.417,0,0,1-.148-.38,2.111,2.111,0,0,1-.049-.376v-.311Z" transform="translate(35.384 44.19)" fill="#fff"/>
    <path id="Tracé_7744" data-name="Tracé 7744" d="M33.174,41.579a1.631,1.631,0,0,1-1.3-.489,2.433,2.433,0,0,1-.422-1.612V37.7a1.858,1.858,0,0,1,.422-1.285,2.008,2.008,0,0,1,2.611,0A1.867,1.867,0,0,1,34.9,37.7v1.779a2.448,2.448,0,0,1-.417,1.612,1.643,1.643,0,0,1-1.313.489m0-.58a1.315,1.315,0,0,0,.438-.06.71.71,0,0,0,.325-.239,1.363,1.363,0,0,0,.186-.455,3.237,3.237,0,0,0,.07-.735v-1.83a1.523,1.523,0,0,0-.121-.666,1.118,1.118,0,0,0-.3-.35.741.741,0,0,0-.334-.135,2.1,2.1,0,0,0-.262-.023,1.923,1.923,0,0,0-.25.023.729.729,0,0,0-.336.135.9.9,0,0,0-.29.35,1.392,1.392,0,0,0-.128.666v1.83a3.018,3.018,0,0,0,.065.735,1.125,1.125,0,0,0,.188.455.709.709,0,0,0,.32.239,1.317,1.317,0,0,0,.431.06" transform="translate(37.869 44.191)" fill="#fff"/>
    <path id="Tracé_7745" data-name="Tracé 7745" d="M35.925,37.53a2.353,2.353,0,0,0-.021-.443.818.818,0,0,0-.128-.341.381.381,0,0,0-.148-.107c-.049-.026-.114-.053-.165-.074a1.564,1.564,0,0,0-.176-.035.82.82,0,0,0-.132-.012,1.147,1.147,0,0,0-.373.053,1.211,1.211,0,0,0-.257.125.845.845,0,0,0-.153.146l-.053.093a.133.133,0,0,1-.035.067c-.012.032-.032.093-.056.169s-.032.192-.046.327a4.781,4.781,0,0,0-.021.561V39.51a3.6,3.6,0,0,0,.067.791,1.586,1.586,0,0,0,.213.452.677.677,0,0,0,.315.2,1.323,1.323,0,0,0,.383.049,1.136,1.136,0,0,0,.223-.03.649.649,0,0,0,.283-.146.808.808,0,0,0,.26-.336,1.44,1.44,0,0,0,.107-.622h.721a2.307,2.307,0,0,1-.077.714,1.5,1.5,0,0,1-.225.489,1.1,1.1,0,0,1-.322.29,2.585,2.585,0,0,1-.357.153,1.163,1.163,0,0,1-.325.056c-.1.009-.181.009-.246.009a3.382,3.382,0,0,1-.554-.042,1.3,1.3,0,0,1-.568-.244,1.573,1.573,0,0,1-.441-.64,3.4,3.4,0,0,1-.176-1.222V37.9a3.141,3.141,0,0,1,.123-.953,1.586,1.586,0,0,1,.357-.6,1.374,1.374,0,0,1,.566-.327,2.82,2.82,0,0,1,.726-.086,1.406,1.406,0,0,1,1.15.408,1.675,1.675,0,0,1,.292,1.19Z" transform="translate(40.492 44.191)" fill="#fff"/>
    <rect id="Rectangle_205" data-name="Rectangle 205" width="0.695" height="5.424" transform="translate(78.326 80.235)" fill="#fff"/>
    <path id="Tracé_7746" data-name="Tracé 7746" d="M36.211,42.328V36.906h2.832v.6H36.907v1.737h1.981v.605H36.907v1.874h2.175v.6Zm2.194-7.05-1,1.055h-.517l.677-1.055Z" transform="translate(44.145 43.329)" fill="#fff"/>
    <path id="Tracé_7747" data-name="Tracé 7747" d="M41.232,35.98v.6H39.783V41.4h-.7V36.58H37.629v-.6Z" transform="translate(46.016 44.255)" fill="#fff"/>
    <path id="Tracé_7748" data-name="Tracé 7748" d="M39.493,42.328V36.906h2.843v.6H40.193v1.737h1.981v.605H40.193v1.874h2.18v.6Zm2.2-7.05-1,1.055h-.508l.67-1.055Z" transform="translate(48.475 43.329)" fill="#fff"/>
    <path id="Tracé_7749" data-name="Tracé 7749" d="M41.772,39.848v.158a1.4,1.4,0,0,0,.07.459.85.85,0,0,0,.223.3.886.886,0,0,0,.3.167,1.706,1.706,0,0,0,.32.042,1.766,1.766,0,0,0,.392-.042.827.827,0,0,0,.311-.151A.7.7,0,0,0,43.6,40.5a1.157,1.157,0,0,0,.07-.406.716.716,0,0,0-.183-.51,1.83,1.83,0,0,0-.457-.357,5.836,5.836,0,0,0-.589-.322,2.955,2.955,0,0,1-.594-.343,1.7,1.7,0,0,1-.459-.494,1.1,1.1,0,0,1-.176-.668,1.55,1.55,0,0,1,.121-.628,1.142,1.142,0,0,1,.332-.466,1.735,1.735,0,0,1,.51-.288,2.419,2.419,0,0,1,.652-.088,1.626,1.626,0,0,1,1.146.376,1.528,1.528,0,0,1,.369,1.208h-.726a1.274,1.274,0,0,0-.176-.714.745.745,0,0,0-.675-.269.932.932,0,0,0-.306.042.671.671,0,0,0-.464.378,1.033,1.033,0,0,0-.083.38.711.711,0,0,0,.19.492,2.269,2.269,0,0,0,.459.364c.186.107.387.2.594.318a3.877,3.877,0,0,1,.6.35,1.884,1.884,0,0,1,.455.5,1.314,1.314,0,0,1,.181.712,1.608,1.608,0,0,1-.141.724,1.168,1.168,0,0,1-.373.461,1.24,1.24,0,0,1-.54.243,2.378,2.378,0,0,1-.652.083,1.924,1.924,0,0,1-.682-.088,1.723,1.723,0,0,1-.457-.239,1.3,1.3,0,0,1-.281-.334,2.215,2.215,0,0,1-.137-.38,2.63,2.63,0,0,1-.044-.376c0-.121,0-.22,0-.311Z" transform="translate(50.558 44.19)" fill="#fff"/>
    <path id="Tracé_7750" data-name="Tracé 7750" d="M45.516,6.981a3.22,3.22,0,0,1,1.266.248,3.507,3.507,0,0,1,1.027.679,3.287,3.287,0,0,1,.7,1.02,3.061,3.061,0,0,1,.246,1.25,3.111,3.111,0,0,1-.246,1.264,3.322,3.322,0,0,1-1.73,1.7,3.261,3.261,0,0,1-1.266.248,3.31,3.31,0,0,1-1.271-.248,3.179,3.179,0,0,1-1.037-.689,3.394,3.394,0,0,1-.7-1.013,3.24,3.24,0,0,1-.26-1.264,3.189,3.189,0,0,1,.26-1.25,3.218,3.218,0,0,1,1.739-1.7,3.267,3.267,0,0,1,1.271-.248m0,.482a2.739,2.739,0,0,0-1.083.206,3.1,3.1,0,0,0-.891.577,3.063,3.063,0,0,0-.594.87,2.8,2.8,0,0,0-.213,1.078,2.692,2.692,0,0,0,.213,1.058,2.813,2.813,0,0,0,.594.867,2.589,2.589,0,0,0,.891.582,2.666,2.666,0,0,0,1.083.218A2.709,2.709,0,0,0,46.6,12.7a2.464,2.464,0,0,0,.87-.582,2.514,2.514,0,0,0,.589-.867,2.579,2.579,0,0,0,.22-1.058,2.677,2.677,0,0,0-.22-1.078,2.711,2.711,0,0,0-.589-.87,2.935,2.935,0,0,0-.87-.577,2.783,2.783,0,0,0-1.085-.206m-.608,4.573H44.3V8.342h1.489a1.33,1.33,0,0,1,.468.081,1.091,1.091,0,0,1,.334.209.873.873,0,0,1,.183.3.971.971,0,0,1,.063.336.751.751,0,0,1-.227.554,1.192,1.192,0,0,1-.582.306v.014a.808.808,0,0,1,.285.065.433.433,0,0,1,.2.148.839.839,0,0,1,.116.271,3.573,3.573,0,0,1,.053.455,1.137,1.137,0,0,0,.014.188c0,.081.014.176.014.267.021.1.042.188.053.278a.814.814,0,0,0,.063.225h-.605a1.2,1.2,0,0,1-.114-.519c0-.223-.019-.457-.037-.7a.46.46,0,0,0-.081-.232.415.415,0,0,0-.332-.169.508.508,0,0,0-.148-.016h-.6Zm0-2.117h.768a.489.489,0,0,0,.413-.176.63.63,0,0,0,.132-.427.7.7,0,0,0-.019-.2.371.371,0,0,0-.1-.181A.455.455,0,0,0,45.94,8.8a.621.621,0,0,0-.264-.046h-.768Z" transform="translate(52.106 6.002)" fill="#fff"/>
  </g>
</svg>
