<svg xmlns="http://www.w3.org/2000/svg" width="21.913" height="21.913" viewBox="0 0 21.913 21.913">
  <g id="XMLID_9_" transform="translate(-21.5 -21.5)">
    <path id="XMLID_17_" d="M23.687,23.687h7.634V21.5H23.687A2.2,2.2,0,0,0,21.5,23.687v7.634h2.187Zm6.561,9.863L25.874,39H39l-3.3-4.374-2.228,2.971ZM37.924,28.6a1.651,1.651,0,1,0-1.651,1.651A1.656,1.656,0,0,0,37.924,28.6Zm3.26-7.1H33.55v2.187h7.676v7.634h2.187V23.687A2.266,2.266,0,0,0,41.184,21.5Zm0,19.684H33.55v2.187h7.676a2.2,2.2,0,0,0,2.187-2.187V33.55H41.226v7.634Zm-17.5-7.634H21.5v7.676a2.2,2.2,0,0,0,2.187,2.187h7.634V41.226H23.687Z" fill="#fff"/>
  </g>
</svg>
