<svg xmlns="http://www.w3.org/2000/svg" xmlns:xlink="http://www.w3.org/1999/xlink" width="1361.983" height="996.285" viewBox="0 0 1361.983 996.285">
  <defs>
    <filter id="Tracé_7844" x="293.6" y="275.849" width="293.029" height="459.456" filterUnits="userSpaceOnUse">
      <feOffset dy="3" input="SourceAlpha"/>
      <feGaussianBlur stdDeviation="3" result="blur"/>
      <feFlood flood-opacity="0.161"/>
      <feComposite operator="in" in2="blur"/>
      <feComposite in="SourceGraphic"/>
    </filter>
    <filter id="Tracé_7835" x="814.41" y="163.778" width="424.894" height="370.545" filterUnits="userSpaceOnUse">
      <feOffset dy="3" input="SourceAlpha"/>
      <feGaussianBlur stdDeviation="3" result="blur-2"/>
      <feFlood flood-opacity="0.161"/>
      <feComposite operator="in" in2="blur-2"/>
      <feComposite in="SourceGraphic"/>
    </filter>
    <filter id="Tracé_7836" x="1043.2" y="148.815" width="221.542" height="196.142" filterUnits="userSpaceOnUse">
      <feOffset dy="3" input="SourceAlpha"/>
      <feGaussianBlur stdDeviation="3" result="blur-3"/>
      <feFlood flood-opacity="0.161"/>
      <feComposite operator="in" in2="blur-3"/>
      <feComposite in="SourceGraphic"/>
    </filter>
    <filter id="Tracé_7818" x="151.96" y="179.857" width="88.488" height="158.977" filterUnits="userSpaceOnUse">
      <feOffset dy="3" input="SourceAlpha"/>
      <feGaussianBlur stdDeviation="3" result="blur-4"/>
      <feFlood flood-opacity="0.161"/>
      <feComposite operator="in" in2="blur-4"/>
      <feComposite in="SourceGraphic"/>
    </filter>
    <filter id="Tracé_7819" x="77.371" y="158.956" width="75.89" height="87.985" filterUnits="userSpaceOnUse">
      <feOffset dy="3" input="SourceAlpha"/>
      <feGaussianBlur stdDeviation="3" result="blur-5"/>
      <feFlood flood-opacity="0.161"/>
      <feComposite operator="in" in2="blur-5"/>
      <feComposite in="SourceGraphic"/>
    </filter>
    <filter id="Tracé_7820" x="65.184" y="226.592" width="88.504" height="120.096" filterUnits="userSpaceOnUse">
      <feOffset dy="3" input="SourceAlpha"/>
      <feGaussianBlur stdDeviation="3" result="blur-6"/>
      <feFlood flood-opacity="0.161"/>
      <feComposite operator="in" in2="blur-6"/>
      <feComposite in="SourceGraphic"/>
    </filter>
    <filter id="Tracé_7875" x="417.974" y="43.124" width="239.469" height="239.469" filterUnits="userSpaceOnUse">
      <feOffset dy="3" input="SourceAlpha"/>
      <feGaussianBlur stdDeviation="3" result="blur-7"/>
      <feFlood flood-opacity="0.161"/>
      <feComposite operator="in" in2="blur-7"/>
      <feComposite in="SourceGraphic"/>
    </filter>
    <filter id="Tracé_7876" x="529.697" y="43.137" width="111.956" height="91.801" filterUnits="userSpaceOnUse">
      <feOffset dy="3" input="SourceAlpha"/>
      <feGaussianBlur stdDeviation="3" result="blur-8"/>
      <feFlood flood-opacity="0.161"/>
      <feComposite operator="in" in2="blur-8"/>
      <feComposite in="SourceGraphic"/>
    </filter>
    <filter id="Tracé_7879" x="645.629" y="644.94" width="716.355" height="298.084" filterUnits="userSpaceOnUse">
      <feOffset dy="3" input="SourceAlpha"/>
      <feGaussianBlur stdDeviation="3" result="blur-9"/>
      <feFlood flood-opacity="0.161"/>
      <feComposite operator="in" in2="blur-9"/>
      <feComposite in="SourceGraphic"/>
    </filter>
    <filter id="Ellipse_148" x="880.763" y="685.152" width="50.487" height="50.487" filterUnits="userSpaceOnUse">
      <feOffset dy="3" input="SourceAlpha"/>
      <feGaussianBlur stdDeviation="3" result="blur-10"/>
      <feFlood flood-opacity="0.161"/>
      <feComposite operator="in" in2="blur-10"/>
      <feComposite in="SourceGraphic"/>
    </filter>
    <filter id="Ellipse_149" x="984.992" y="792.088" width="50.487" height="50.487" filterUnits="userSpaceOnUse">
      <feOffset dy="3" input="SourceAlpha"/>
      <feGaussianBlur stdDeviation="3" result="blur-11"/>
      <feFlood flood-opacity="0.161"/>
      <feComposite operator="in" in2="blur-11"/>
      <feComposite in="SourceGraphic"/>
    </filter>
    <filter id="Ellipse_150" x="1211.047" y="792.088" width="50.487" height="50.487" filterUnits="userSpaceOnUse">
      <feOffset dy="3" input="SourceAlpha"/>
      <feGaussianBlur stdDeviation="3" result="blur-12"/>
      <feFlood flood-opacity="0.161"/>
      <feComposite operator="in" in2="blur-12"/>
      <feComposite in="SourceGraphic"/>
    </filter>
    <filter id="Tracé_46" x="25.111" y="0.344" width="83.744" height="46.456" filterUnits="userSpaceOnUse">
      <feOffset dy="3" input="SourceAlpha"/>
      <feGaussianBlur stdDeviation="3" result="blur-13"/>
      <feFlood flood-opacity="0.161"/>
      <feComposite operator="in" in2="blur-13"/>
      <feComposite in="SourceGraphic"/>
    </filter>
    <filter id="Tracé_47" x="23.854" y="11.837" width="46.143" height="78.87" filterUnits="userSpaceOnUse">
      <feOffset dy="3" input="SourceAlpha"/>
      <feGaussianBlur stdDeviation="3" result="blur-14"/>
      <feFlood flood-opacity="0.161"/>
      <feComposite operator="in" in2="blur-14"/>
      <feComposite in="SourceGraphic"/>
    </filter>
    <filter id="Tracé_48" x="53.611" y="18.548" width="56.507" height="72.321" filterUnits="userSpaceOnUse">
      <feOffset dy="3" input="SourceAlpha"/>
      <feGaussianBlur stdDeviation="3" result="blur-15"/>
      <feFlood flood-opacity="0.161"/>
      <feComposite operator="in" in2="blur-15"/>
      <feComposite in="SourceGraphic"/>
    </filter>
    <filter id="Tracé_49" x="0" y="90.859" width="31.486" height="33.728" filterUnits="userSpaceOnUse">
      <feOffset dy="3" input="SourceAlpha"/>
      <feGaussianBlur stdDeviation="3" result="blur-16"/>
      <feFlood flood-opacity="0.161"/>
      <feComposite operator="in" in2="blur-16"/>
      <feComposite in="SourceGraphic"/>
    </filter>
    <filter id="Tracé_50" x="14.887" y="90.859" width="33.601" height="33.728" filterUnits="userSpaceOnUse">
      <feOffset dy="3" input="SourceAlpha"/>
      <feGaussianBlur stdDeviation="3" result="blur-17"/>
      <feFlood flood-opacity="0.161"/>
      <feComposite operator="in" in2="blur-17"/>
      <feComposite in="SourceGraphic"/>
    </filter>
    <filter id="Tracé_51" x="30.87" y="90.495" width="31.428" height="34.444" filterUnits="userSpaceOnUse">
      <feOffset dy="3" input="SourceAlpha"/>
      <feGaussianBlur stdDeviation="3" result="blur-18"/>
      <feFlood flood-opacity="0.161"/>
      <feComposite operator="in" in2="blur-18"/>
      <feComposite in="SourceGraphic"/>
    </filter>
    <filter id="Tracé_52" x="46.378" y="90.859" width="31.481" height="33.728" filterUnits="userSpaceOnUse">
      <feOffset dy="3" input="SourceAlpha"/>
      <feGaussianBlur stdDeviation="3" result="blur-19"/>
      <feFlood flood-opacity="0.161"/>
      <feComposite operator="in" in2="blur-19"/>
      <feComposite in="SourceGraphic"/>
    </filter>
    <filter id="Tracé_53" x="61.261" y="90.859" width="33.608" height="33.728" filterUnits="userSpaceOnUse">
      <feOffset dy="3" input="SourceAlpha"/>
      <feGaussianBlur stdDeviation="3" result="blur-20"/>
      <feFlood flood-opacity="0.161"/>
      <feComposite operator="in" in2="blur-20"/>
      <feComposite in="SourceGraphic"/>
    </filter>
    <filter id="Tracé_54" x="77.553" y="90.495" width="33.696" height="34.444" filterUnits="userSpaceOnUse">
      <feOffset dy="3" input="SourceAlpha"/>
      <feGaussianBlur stdDeviation="3" result="blur-21"/>
      <feFlood flood-opacity="0.161"/>
      <feComposite operator="in" in2="blur-21"/>
      <feComposite in="SourceGraphic"/>
    </filter>
    <filter id="Tracé_55" x="95.566" y="90.859" width="31.62" height="34.079" filterUnits="userSpaceOnUse">
      <feOffset dy="3" input="SourceAlpha"/>
      <feGaussianBlur stdDeviation="3" result="blur-22"/>
      <feFlood flood-opacity="0.161"/>
      <feComposite operator="in" in2="blur-22"/>
      <feComposite in="SourceGraphic"/>
    </filter>
    <filter id="Rectangle_23" x="112.196" y="90.859" width="21.508" height="33.728" filterUnits="userSpaceOnUse">
      <feOffset dy="3" input="SourceAlpha"/>
      <feGaussianBlur stdDeviation="3" result="blur-23"/>
      <feFlood flood-opacity="0.161"/>
      <feComposite operator="in" in2="blur-23"/>
      <feComposite in="SourceGraphic"/>
    </filter>
    <filter id="Rectangle_24" x="97.098" y="84.544" width="36.606" height="18.709" filterUnits="userSpaceOnUse">
      <feOffset dy="3" input="SourceAlpha"/>
      <feGaussianBlur stdDeviation="3" result="blur-24"/>
      <feFlood flood-opacity="0.161"/>
      <feComposite operator="in" in2="blur-24"/>
      <feComposite in="SourceGraphic"/>
    </filter>
    <filter id="Rectangle_25" x="0" y="84.544" width="36.869" height="18.709" filterUnits="userSpaceOnUse">
      <feOffset dy="3" input="SourceAlpha"/>
      <feGaussianBlur stdDeviation="3" result="blur-25"/>
      <feFlood flood-opacity="0.161"/>
      <feComposite operator="in" in2="blur-25"/>
      <feComposite in="SourceGraphic"/>
    </filter>
    <filter id="Tracé_56" x="20.636" y="80.67" width="21.556" height="23.838" filterUnits="userSpaceOnUse">
      <feOffset dy="3" input="SourceAlpha"/>
      <feGaussianBlur stdDeviation="3" result="blur-26"/>
      <feFlood flood-opacity="0.161"/>
      <feComposite operator="in" in2="blur-26"/>
      <feComposite in="SourceGraphic"/>
    </filter>
    <filter id="Tracé_57" x="25.507" y="80.785" width="21.406" height="23.607" filterUnits="userSpaceOnUse">
      <feOffset dy="3" input="SourceAlpha"/>
      <feGaussianBlur stdDeviation="3" result="blur-27"/>
      <feFlood flood-opacity="0.161"/>
      <feComposite operator="in" in2="blur-27"/>
      <feComposite in="SourceGraphic"/>
    </filter>
    <filter id="Tracé_58" x="29.878" y="80.67" width="21.573" height="23.838" filterUnits="userSpaceOnUse">
      <feOffset dy="3" input="SourceAlpha"/>
      <feGaussianBlur stdDeviation="3" result="blur-28"/>
      <feFlood flood-opacity="0.161"/>
      <feComposite operator="in" in2="blur-28"/>
      <feComposite in="SourceGraphic"/>
    </filter>
    <filter id="Tracé_59" x="34.692" y="80.785" width="21.575" height="23.719" filterUnits="userSpaceOnUse">
      <feOffset dy="3" input="SourceAlpha"/>
      <feGaussianBlur stdDeviation="3" result="blur-29"/>
      <feFlood flood-opacity="0.161"/>
      <feComposite operator="in" in2="blur-29"/>
      <feComposite in="SourceGraphic"/>
    </filter>
    <filter id="Tracé_60" x="39.619" y="80.785" width="21.273" height="23.605" filterUnits="userSpaceOnUse">
      <feOffset dy="3" input="SourceAlpha"/>
      <feGaussianBlur stdDeviation="3" result="blur-30"/>
      <feFlood flood-opacity="0.161"/>
      <feComposite operator="in" in2="blur-30"/>
      <feComposite in="SourceGraphic"/>
    </filter>
    <filter id="Tracé_61" x="43.913" y="80.786" width="20.971" height="23.606" filterUnits="userSpaceOnUse">
      <feOffset dy="3" input="SourceAlpha"/>
      <feGaussianBlur stdDeviation="3" result="blur-31"/>
      <feFlood flood-opacity="0.161"/>
      <feComposite operator="in" in2="blur-31"/>
      <feComposite in="SourceGraphic"/>
    </filter>
    <filter id="Tracé_62" x="49.616" y="80.785" width="21.526" height="23.605" filterUnits="userSpaceOnUse">
      <feOffset dy="3" input="SourceAlpha"/>
      <feGaussianBlur stdDeviation="3" result="blur-32"/>
      <feFlood flood-opacity="0.161"/>
      <feComposite operator="in" in2="blur-32"/>
      <feComposite in="SourceGraphic"/>
    </filter>
    <filter id="Tracé_63" x="54.415" y="80.786" width="20.978" height="23.606" filterUnits="userSpaceOnUse">
      <feOffset dy="3" input="SourceAlpha"/>
      <feGaussianBlur stdDeviation="3" result="blur-33"/>
      <feFlood flood-opacity="0.161"/>
      <feComposite operator="in" in2="blur-33"/>
      <feComposite in="SourceGraphic"/>
    </filter>
    <filter id="Tracé_64" x="58.19" y="80.667" width="21.419" height="23.838" filterUnits="userSpaceOnUse">
      <feOffset dy="3" input="SourceAlpha"/>
      <feGaussianBlur stdDeviation="3" result="blur-34"/>
      <feFlood flood-opacity="0.161"/>
      <feComposite operator="in" in2="blur-34"/>
      <feComposite in="SourceGraphic"/>
    </filter>
    <filter id="Tracé_65" x="64.318" y="80.667" width="21.426" height="23.838" filterUnits="userSpaceOnUse">
      <feOffset dy="3" input="SourceAlpha"/>
      <feGaussianBlur stdDeviation="3" result="blur-35"/>
      <feFlood flood-opacity="0.161"/>
      <feComposite operator="in" in2="blur-35"/>
      <feComposite in="SourceGraphic"/>
    </filter>
    <filter id="Tracé_66" x="68.836" y="80.67" width="21.566" height="23.838" filterUnits="userSpaceOnUse">
      <feOffset dy="3" input="SourceAlpha"/>
      <feGaussianBlur stdDeviation="3" result="blur-36"/>
      <feFlood flood-opacity="0.161"/>
      <feComposite operator="in" in2="blur-36"/>
      <feComposite in="SourceGraphic"/>
    </filter>
    <filter id="Tracé_67" x="73.602" y="80.67" width="21.404" height="23.836" filterUnits="userSpaceOnUse">
      <feOffset dy="3" input="SourceAlpha"/>
      <feGaussianBlur stdDeviation="3" result="blur-37"/>
      <feFlood flood-opacity="0.161"/>
      <feComposite operator="in" in2="blur-37"/>
      <feComposite in="SourceGraphic"/>
    </filter>
    <filter id="Rectangle_26" x="78.144" y="80.786" width="18.719" height="23.608" filterUnits="userSpaceOnUse">
      <feOffset dy="3" input="SourceAlpha"/>
      <feGaussianBlur stdDeviation="3" result="blur-38"/>
      <feFlood flood-opacity="0.161"/>
      <feComposite operator="in" in2="blur-38"/>
      <feComposite in="SourceGraphic"/>
    </filter>
    <filter id="Tracé_68" x="80.243" y="79.1" width="20.97" height="25.29" filterUnits="userSpaceOnUse">
      <feOffset dy="3" input="SourceAlpha"/>
      <feGaussianBlur stdDeviation="3" result="blur-39"/>
      <feFlood flood-opacity="0.161"/>
      <feComposite operator="in" in2="blur-39"/>
      <feComposite in="SourceGraphic"/>
    </filter>
    <filter id="Tracé_69" x="83.644" y="80.786" width="21.725" height="23.606" filterUnits="userSpaceOnUse">
      <feOffset dy="3" input="SourceAlpha"/>
      <feGaussianBlur stdDeviation="3" result="blur-40"/>
      <feFlood flood-opacity="0.161"/>
      <feComposite operator="in" in2="blur-40"/>
      <feComposite in="SourceGraphic"/>
    </filter>
    <filter id="Tracé_70" x="88.113" y="79.1" width="20.977" height="25.29" filterUnits="userSpaceOnUse">
      <feOffset dy="3" input="SourceAlpha"/>
      <feGaussianBlur stdDeviation="3" result="blur-41"/>
      <feFlood flood-opacity="0.161"/>
      <feComposite operator="in" in2="blur-41"/>
      <feComposite in="SourceGraphic"/>
    </filter>
    <filter id="Tracé_71" x="91.898" y="80.667" width="21.421" height="23.838" filterUnits="userSpaceOnUse">
      <feOffset dy="3" input="SourceAlpha"/>
      <feGaussianBlur stdDeviation="3" result="blur-42"/>
      <feFlood flood-opacity="0.161"/>
      <feComposite operator="in" in2="blur-42"/>
      <feComposite in="SourceGraphic"/>
    </filter>
    <filter id="Tracé_72" x="94.713" y="11.254" width="24.734" height="24.628" filterUnits="userSpaceOnUse">
      <feOffset dy="3" input="SourceAlpha"/>
      <feGaussianBlur stdDeviation="3" result="blur-43"/>
      <feFlood flood-opacity="0.161"/>
      <feComposite operator="in" in2="blur-43"/>
      <feComposite in="SourceGraphic"/>
    </filter>
  </defs>
  <g id="Groupe_4494" data-name="Groupe 4494" transform="translate(-21.918 -17.227)">
    <g id="Groupe_4437" data-name="Groupe 4437" transform="translate(-150.624 299.076)">
      <g transform="matrix(1, 0, 0, 1, 172.54, -281.85)" filter="url(#Tracé_7844)">
        <path id="Tracé_7844-2" data-name="Tracé 7844" d="M727.047,397.358l-273.868,44.1L452.018,175.21,725.886,0Z" transform="translate(-149.42 281.85)" fill="#e6e6e6"/>
      </g>
      <path id="Tracé_7845" data-name="Tracé 7845" d="M699.759,349.966l-236.733,51.06V178.219L699.759,49.73Z" transform="translate(24.88 7.937)" fill="#fff"/>
      <path id="Tracé_7846" data-name="Tracé 7846" d="M674.634,138.1l-199.6,89.383V196.121l199.6-98.6Z" transform="translate(26.797 15.564)" fill="#1c1d22"/>
      <path id="Tracé_7847" data-name="Tracé 7847" d="M674.634,210.078l-199.6,70.4V249.534l199.6-79.5Z" transform="translate(26.797 27.138)" fill="#a5cf4b"/>
      <path id="Tracé_7848" data-name="Tracé 7848" d="M542.5,171.21a.749.749,0,0,1,1.44-.048l3.232,10.185,3.871,12.2a.747.747,0,0,1-.424.916l-7.483,3.118-6.575,2.74a.748.748,0,0,1-1.015-.87l3.6-14.607Z" transform="translate(36.451 27.235)" fill="#e6e6e6"/>
      <path id="Tracé_7849" data-name="Tracé 7849" d="M532.059,236.752a1.234,1.234,0,0,1,2.375-.078l2.709,8.537,3.737,11.778a1.234,1.234,0,0,1-.7,1.512l-7.07,2.947-5.686,2.369a1.234,1.234,0,0,1-1.673-1.434l3.366-13.672Z" transform="translate(34.885 37.636)" fill="#e6e6e6"/>
      <path id="Tracé_7850" data-name="Tracé 7850" d="M674.634,282.47l-199.6,51.416V301.037l199.6-61.073Z" transform="translate(26.797 38.299)" fill="#f2f2f2"/>
      <path id="Tracé_7851" data-name="Tracé 7851" d="M645.061,153.353c0,6.989-3.131,13.937-6.963,15.509-3.8,1.556-6.852-2.768-6.852-9.646s3.054-13.8,6.852-15.462C641.93,142.073,645.061,146.364,645.061,153.353Z" transform="translate(51.728 22.885)" fill="#1c1d22"/>
      <path id="Tracé_7852" data-name="Tracé 7852" d="M639.793,154.141c0,2.33-1.041,4.655-2.322,5.192s-2.308-.91-2.308-3.227,1.032-4.64,2.308-5.187S639.793,151.811,639.793,154.141Z" transform="translate(52.354 24.068)" fill="#fff"/>
      <path id="Tracé_7853" data-name="Tracé 7853" d="M645.061,223.4c0,6.989-3.131,13.938-6.963,15.509-3.8,1.557-6.852-2.767-6.852-9.646s3.054-13.795,6.852-15.461C641.93,212.124,645.061,216.415,645.061,223.4Z" transform="translate(51.728 34.066)" fill="#a5cf4b"/>
      <path id="Tracé_7854" data-name="Tracé 7854" d="M639.793,224.192c0,2.33-1.041,4.655-2.322,5.192s-2.308-.91-2.308-3.227,1.032-4.638,2.308-5.187S639.793,221.862,639.793,224.192Z" transform="translate(52.354 35.248)" fill="#fff"/>
      <path id="Tracé_7855" data-name="Tracé 7855" d="M645.061,293.456c0,6.989-3.131,13.937-6.963,15.509-3.8,1.556-6.852-2.768-6.852-9.646s3.054-13.8,6.852-15.462C641.93,282.176,645.061,286.467,645.061,293.456Z" transform="translate(51.728 45.246)" fill="#f2f2f2"/>
      <path id="Tracé_7856" data-name="Tracé 7856" d="M639.793,294.242c0,2.33-1.041,4.656-2.322,5.193s-2.308-.91-2.308-3.227,1.032-4.64,2.308-5.187S639.793,291.913,639.793,294.242Z" transform="translate(52.354 46.429)" fill="#fff"/>
      <path id="Tracé_7857" data-name="Tracé 7857" d="M548.059,294.8a1.234,1.234,0,0,1,2.375-.079l2.709,8.538,3.737,11.777a1.236,1.236,0,0,1-.7,1.513l-7.07,2.947-5.686,2.369a1.235,1.235,0,0,1-1.673-1.436l3.366-13.672Z" transform="translate(37.439 46.9)" fill="#e6e6e6"/>
      <path id="Tracé_7858" data-name="Tracé 7858" d="M507.9,287.635l10.8-9.96s24.441-16.835,15.9-26.09-25.743,12.327-25.743,12.327l-10.679,6.995Z" transform="translate(30.49 39.785)" fill="#ffb8b8"/>
      <path id="Tracé_7859" data-name="Tracé 7859" d="M384.413,290.125l-6.29,8.658s-8.79,33.8,35.691,35.6c0,0,56.807,27.538,70.869,10.285s52.864-58.755,52.864-58.755l-22.826-23.2-46.514,48.616-45.126-22.612S399.838,275.9,384.413,290.125Z" transform="translate(11.217 41.929)" fill="#1c1d22"/>
      <path id="Tracé_7860" data-name="Tracé 7860" d="M366.029,424.679,307.135,641.66l7.419,1.484,61.861-218.465Z" transform="translate(0 67.779)" fill="#e6e6e6"/>
      <path id="Tracé_7861" data-name="Tracé 7861" d="M420.924,424.679,479.816,641.66l-7.419,1.484L410.536,424.679Z" transform="translate(16.503 67.779)" fill="#e6e6e6"/>
      <path id="Tracé_7862" data-name="Tracé 7862" d="M384.8,421.249l9.876,221.8,8.576.381L392.215,418.28Z" transform="translate(12.395 66.758)" fill="#e6e6e6"/>
      <path id="Tracé_7863" data-name="Tracé 7863" d="M418.943,418.956c0,5.625-15.4,11.664-35.614,13.6-21.694,2.083-40.483-1.3-40.483-7.693s18.789-12.7,40.483-13.984C403.542,409.684,418.943,413.33,418.943,418.956Z" transform="translate(5.7 65.541)" fill="#e6e6e6"/>
      <path id="Tracé_7864" data-name="Tracé 7864" d="M428.045,385.009,442.883,395.4s63.807,46,57.872,63.807-38.581,89.033-38.581,89.033l-41.549-13.355L468.109,459.2l-25.226-23.742-13.354-32.646Z" transform="translate(18.113 61.448)" fill="#1c1d22"/>
      <path id="Tracé_7865" data-name="Tracé 7865" d="M379.535,362.722s-29.678,46-11.872,59.355,68.259,65.29,68.259,65.29L446.31,511.11l37.1,120.194,46-23.742-41.549-93.485s-4.452-34.129-19.29-53.419-20.774-47.485-20.774-47.485l4.451-13.355L425.676,357.3Z" transform="translate(8.752 57.027)" fill="#1c1d22"/>
      <path id="Tracé_7867" data-name="Tracé 7867" d="M397.714,237.21l-14.838,16.323,23.742,38.581,10.388-29.678Z" transform="translate(12.088 37.859)" fill="#ffb8b8"/>
      <path id="Tracé_7868" data-name="Tracé 7868" d="M413.139,292.483l-26.355-43.645-9.257,2.1v14.839L374.558,390.42,423.527,383S426.494,302.871,413.139,292.483Z" transform="translate(10.761 39.715)" fill="#0099d5"/>
      <path id="Tracé_7869" data-name="Tracé 7869" d="M409.587,290.711,387.33,250.646l-19.291,8.9L333.909,399.034,313.135,439.1s68.259,34.129,84.581,0,17.807-109.807,17.807-109.807Z" transform="translate(0.958 40.004)" fill="#1c1d22"/>
      <path id="Tracé_7870" data-name="Tracé 7870" d="M375.98,264.324l-8.9-5.936s-34.129-7.419-34.129,37.1c0,0-25.226,57.872-7.419,71.226s60.839,50.453,60.839,50.453l22.259-23.743-50.452-44.516,20.774-46S390.818,279.162,375.98,264.324Z" transform="translate(1.92 41.165)" fill="#1c1d22"/>
      <path id="Tracé_7871" data-name="Tracé 7871" d="M377.118,387.719,387.5,398.106s17.807,23.742,26.71,14.838-13.355-25.226-13.355-25.226l-7.419-10.388Z" transform="translate(11.169 60.223)" fill="#ffb8b8"/>
      <path id="Tracé_7872" data-name="Tracé 7872" d="M406.641,274.863,432.1,337.3s10.387,31.161,10.387,43.033v32.645l-28.193-37.1S398.984,279.2,406.641,274.863Z" transform="translate(15.539 43.869)" fill="#1c1d22"/>
      <circle id="Ellipse_147" data-name="Ellipse 147" cx="26.71" cy="26.71" r="26.71" transform="translate(401.642 249.101)" fill="#ffb8b8"/>
      <path id="Tracé_7874" data-name="Tracé 7874" d="M444.544,239.191s5.217-22.609,0-27.826v3.479s-3.479-12.175-10.435-8.7c0,0-8.695-6.956-10.434-3.479-10.232-9.251-55.606-.577-33.581,47.995,0,0,4.016-14.952,4.016-9.735,0,0,10.435-10.434,12.173-13.912S437.588,246.147,444.544,239.191Z" transform="translate(12.289 31.824)" fill="#2f2e41"/>
      <path id="Tracé_8134" data-name="Tracé 8134" d="M337.066,416.24c-9.35,6.334-23.525,3.319-23.525,3.319S292.127,409.3,285.793,409.3s-21.715-6.333-21.715-6.333l.519-4.271,2.5-20.46s23.489-.6,24.431-2.716c0,0,4.221-10.387,5.73-6.55s24.128,30.981,29.858,30.981c2.734,0,7.245,2.262,10.212,5.314C340.577,408.622,341.958,412.928,337.066,416.24Z" transform="translate(232.5 294.161)" fill="#1c1d22"/>
      <path id="Tracé_8232" data-name="Tracé 8232" d="M337.066,416.24c-9.35,6.334-23.525,3.319-23.525,3.319S292.127,409.3,285.793,409.3s-21.715-6.333-21.715-6.333l.519-4.271,2.5-20.46s23.489-.6,24.431-2.716c0,0,4.221-10.387,5.73-6.55s24.128,30.981,29.858,30.981c2.734,0,7.245,2.262,10.212,5.314C340.577,408.622,341.958,412.928,337.066,416.24Z" transform="translate(539.889 137.523) rotate(47)" fill="#1c1d22"/>
    </g>
    <g id="Groupe_4438" data-name="Groupe 4438" transform="translate(692.81 25.227)">
      <circle id="Ellipse_45" data-name="Ellipse 45" cx="8.566" cy="8.566" r="8.566" transform="translate(39.121 0.001)" fill="#e6e6e6"/>
      <circle id="Ellipse_46" data-name="Ellipse 46" cx="8.566" cy="8.566" r="8.566" transform="translate(82.482 0.001)" fill="#e6e6e6"/>
      <circle id="Ellipse_47" data-name="Ellipse 47" cx="8.566" cy="8.566" r="8.566" transform="translate(125.842 0.001)" fill="#e6e6e6"/>
      <circle id="Ellipse_48" data-name="Ellipse 48" cx="8.566" cy="8.566" r="8.566" transform="translate(169.202 0.001)" fill="#e6e6e6"/>
      <circle id="Ellipse_49" data-name="Ellipse 49" cx="8.566" cy="8.566" r="8.566" transform="translate(212.562 0.001)" fill="#e6e6e6"/>
      <circle id="Ellipse_50" data-name="Ellipse 50" cx="8.566" cy="8.566" r="8.566" transform="translate(255.922 0.001)" fill="#e6e6e6"/>
      <circle id="Ellipse_51" data-name="Ellipse 51" cx="8.566" cy="8.566" r="8.566" transform="translate(299.283 0.001)" fill="#e6e6e6"/>
      <circle id="Ellipse_52" data-name="Ellipse 52" cx="8.566" cy="8.566" r="8.566" transform="translate(342.643 0.001)" fill="#e6e6e6"/>
      <circle id="Ellipse_53" data-name="Ellipse 53" cx="8.566" cy="8.566" r="8.566" transform="translate(386.003 0.001)" fill="#e6e6e6"/>
      <circle id="Ellipse_54" data-name="Ellipse 54" cx="8.566" cy="8.566" r="8.566" transform="translate(429.363 0.001)" fill="#e6e6e6"/>
      <circle id="Ellipse_55" data-name="Ellipse 55" cx="8.566" cy="8.566" r="8.566" transform="translate(39.121 43.905)" fill="#e6e6e6"/>
      <circle id="Ellipse_56" data-name="Ellipse 56" cx="8.566" cy="8.566" r="8.566" transform="translate(82.482 43.905)" fill="#e6e6e6"/>
      <circle id="Ellipse_57" data-name="Ellipse 57" cx="8.566" cy="8.566" r="8.566" transform="translate(125.842 43.905)" fill="#e6e6e6"/>
      <circle id="Ellipse_58" data-name="Ellipse 58" cx="8.566" cy="8.566" r="8.566" transform="translate(169.202 43.905)" fill="#a5cf4b"/>
      <circle id="Ellipse_59" data-name="Ellipse 59" cx="8.566" cy="8.566" r="8.566" transform="translate(212.562 43.905)" fill="#e6e6e6"/>
      <circle id="Ellipse_60" data-name="Ellipse 60" cx="8.566" cy="8.566" r="8.566" transform="translate(255.922 43.905)" fill="#e6e6e6"/>
      <circle id="Ellipse_61" data-name="Ellipse 61" cx="8.566" cy="8.566" r="8.566" transform="translate(299.283 43.905)" fill="#e6e6e6"/>
      <circle id="Ellipse_62" data-name="Ellipse 62" cx="8.566" cy="8.566" r="8.566" transform="translate(342.643 43.905)" fill="#e6e6e6"/>
      <circle id="Ellipse_63" data-name="Ellipse 63" cx="8.566" cy="8.566" r="8.566" transform="translate(386.003 43.905)" fill="#e6e6e6"/>
      <circle id="Ellipse_64" data-name="Ellipse 64" cx="8.566" cy="8.566" r="8.566" transform="translate(429.363 43.905)" fill="#e6e6e6"/>
      <circle id="Ellipse_65" data-name="Ellipse 65" cx="8.566" cy="8.566" r="8.566" transform="translate(39.121 87.81)" fill="#e6e6e6"/>
      <circle id="Ellipse_66" data-name="Ellipse 66" cx="8.566" cy="8.566" r="8.566" transform="translate(82.482 87.81)" fill="#e6e6e6"/>
      <circle id="Ellipse_67" data-name="Ellipse 67" cx="8.566" cy="8.566" r="8.566" transform="translate(125.842 87.81)" fill="#e6e6e6"/>
      <circle id="Ellipse_68" data-name="Ellipse 68" cx="8.566" cy="8.566" r="8.566" transform="translate(169.202 87.81)" fill="#e6e6e6"/>
      <circle id="Ellipse_69" data-name="Ellipse 69" cx="8.566" cy="8.566" r="8.566" transform="translate(212.562 87.81)" fill="#e6e6e6"/>
      <circle id="Ellipse_70" data-name="Ellipse 70" cx="8.566" cy="8.566" r="8.566" transform="translate(255.922 87.81)" fill="#e6e6e6"/>
      <circle id="Ellipse_71" data-name="Ellipse 71" cx="8.566" cy="8.566" r="8.566" transform="translate(299.283 87.81)" fill="#e6e6e6"/>
      <circle id="Ellipse_72" data-name="Ellipse 72" cx="8.566" cy="8.566" r="8.566" transform="translate(342.643 87.81)" fill="#e6e6e6"/>
      <circle id="Ellipse_73" data-name="Ellipse 73" cx="8.566" cy="8.566" r="8.566" transform="translate(386.003 87.81)" fill="#e6e6e6"/>
      <circle id="Ellipse_74" data-name="Ellipse 74" cx="8.566" cy="8.566" r="8.566" transform="translate(429.363 87.81)" fill="#e6e6e6"/>
      <circle id="Ellipse_75" data-name="Ellipse 75" cx="8.566" cy="8.566" r="8.566" transform="translate(39.121 131.714)" fill="#e6e6e6"/>
      <circle id="Ellipse_76" data-name="Ellipse 76" cx="8.566" cy="8.566" r="8.566" transform="translate(82.482 131.714)" fill="#e6e6e6"/>
      <circle id="Ellipse_77" data-name="Ellipse 77" cx="8.566" cy="8.566" r="8.566" transform="translate(125.842 131.714)" fill="#e6e6e6"/>
      <circle id="Ellipse_78" data-name="Ellipse 78" cx="8.566" cy="8.566" r="8.566" transform="translate(169.202 131.714)" fill="#e6e6e6"/>
      <circle id="Ellipse_79" data-name="Ellipse 79" cx="8.566" cy="8.566" r="8.566" transform="translate(212.562 131.714)" fill="#e6e6e6"/>
      <circle id="Ellipse_80" data-name="Ellipse 80" cx="8.566" cy="8.566" r="8.566" transform="translate(255.922 131.714)" fill="#e6e6e6"/>
      <circle id="Ellipse_81" data-name="Ellipse 81" cx="8.566" cy="8.566" r="8.566" transform="translate(299.283 131.714)" fill="#e6e6e6"/>
      <circle id="Ellipse_82" data-name="Ellipse 82" cx="8.566" cy="8.566" r="8.566" transform="translate(342.643 131.714)" fill="#e6e6e6"/>
      <circle id="Ellipse_83" data-name="Ellipse 83" cx="8.566" cy="8.566" r="8.566" transform="translate(386.003 131.714)" fill="#e6e6e6"/>
      <circle id="Ellipse_84" data-name="Ellipse 84" cx="8.566" cy="8.566" r="8.566" transform="translate(429.363 131.714)" fill="#e6e6e6"/>
      <circle id="Ellipse_85" data-name="Ellipse 85" cx="8.566" cy="8.566" r="8.566" transform="translate(39.121 175.619)" fill="#e6e6e6"/>
      <circle id="Ellipse_86" data-name="Ellipse 86" cx="8.566" cy="8.566" r="8.566" transform="translate(82.482 175.619)" fill="#a5cf4b"/>
      <circle id="Ellipse_87" data-name="Ellipse 87" cx="8.566" cy="8.566" r="8.566" transform="translate(125.842 175.619)" fill="#e6e6e6"/>
      <circle id="Ellipse_88" data-name="Ellipse 88" cx="8.566" cy="8.566" r="8.566" transform="translate(169.202 175.619)" fill="#e6e6e6"/>
      <circle id="Ellipse_89" data-name="Ellipse 89" cx="8.566" cy="8.566" r="8.566" transform="translate(212.562 175.619)" fill="#e6e6e6"/>
      <circle id="Ellipse_90" data-name="Ellipse 90" cx="8.566" cy="8.566" r="8.566" transform="translate(255.922 175.619)" fill="#e6e6e6"/>
      <circle id="Ellipse_91" data-name="Ellipse 91" cx="8.566" cy="8.566" r="8.566" transform="translate(299.283 175.619)" fill="#e6e6e6"/>
      <circle id="Ellipse_92" data-name="Ellipse 92" cx="8.566" cy="8.566" r="8.566" transform="translate(342.643 175.619)" fill="#e6e6e6"/>
      <circle id="Ellipse_93" data-name="Ellipse 93" cx="8.566" cy="8.566" r="8.566" transform="translate(386.003 175.619)" fill="#e6e6e6"/>
      <circle id="Ellipse_94" data-name="Ellipse 94" cx="8.566" cy="8.566" r="8.566" transform="translate(429.363 175.619)" fill="#e6e6e6"/>
      <circle id="Ellipse_95" data-name="Ellipse 95" cx="8.566" cy="8.566" r="8.566" transform="translate(39.121 219.523)" fill="#e6e6e6"/>
      <circle id="Ellipse_96" data-name="Ellipse 96" cx="8.566" cy="8.566" r="8.566" transform="translate(82.482 219.523)" fill="#e6e6e6"/>
      <circle id="Ellipse_97" data-name="Ellipse 97" cx="8.566" cy="8.566" r="8.566" transform="translate(125.842 219.523)" fill="#e6e6e6"/>
      <circle id="Ellipse_98" data-name="Ellipse 98" cx="8.566" cy="8.566" r="8.566" transform="translate(169.202 219.523)" fill="#e6e6e6"/>
      <circle id="Ellipse_99" data-name="Ellipse 99" cx="8.566" cy="8.566" r="8.566" transform="translate(212.562 219.523)" fill="#e6e6e6"/>
      <circle id="Ellipse_100" data-name="Ellipse 100" cx="8.566" cy="8.566" r="8.566" transform="translate(255.922 219.523)" fill="#e6e6e6"/>
      <circle id="Ellipse_101" data-name="Ellipse 101" cx="8.566" cy="8.566" r="8.566" transform="translate(299.283 219.523)" fill="#e6e6e6"/>
      <circle id="Ellipse_102" data-name="Ellipse 102" cx="8.566" cy="8.566" r="8.566" transform="translate(342.643 219.523)" fill="#e6e6e6"/>
      <circle id="Ellipse_103" data-name="Ellipse 103" cx="8.566" cy="8.566" r="8.566" transform="translate(386.003 219.523)" fill="#e6e6e6"/>
      <circle id="Ellipse_104" data-name="Ellipse 104" cx="8.566" cy="8.566" r="8.566" transform="translate(429.363 219.523)" fill="#e6e6e6"/>
      <circle id="Ellipse_105" data-name="Ellipse 105" cx="8.566" cy="8.566" r="8.566" transform="translate(39.121 263.428)" fill="#e6e6e6"/>
      <circle id="Ellipse_106" data-name="Ellipse 106" cx="8.566" cy="8.566" r="8.566" transform="translate(82.482 263.428)" fill="#e6e6e6"/>
      <circle id="Ellipse_107" data-name="Ellipse 107" cx="8.566" cy="8.566" r="8.566" transform="translate(125.842 263.428)" fill="#a5cf4b"/>
      <circle id="Ellipse_108" data-name="Ellipse 108" cx="8.566" cy="8.566" r="8.566" transform="translate(169.202 263.428)" fill="#e6e6e6"/>
      <circle id="Ellipse_109" data-name="Ellipse 109" cx="8.566" cy="8.566" r="8.566" transform="translate(212.562 263.428)" fill="#e6e6e6"/>
      <circle id="Ellipse_110" data-name="Ellipse 110" cx="8.566" cy="8.566" r="8.566" transform="translate(255.922 263.428)" fill="#e6e6e6"/>
      <circle id="Ellipse_111" data-name="Ellipse 111" cx="8.566" cy="8.566" r="8.566" transform="translate(299.283 263.428)" fill="#e6e6e6"/>
      <circle id="Ellipse_112" data-name="Ellipse 112" cx="8.566" cy="8.566" r="8.566" transform="translate(342.643 263.428)" fill="#e6e6e6"/>
      <circle id="Ellipse_113" data-name="Ellipse 113" cx="8.566" cy="8.566" r="8.566" transform="translate(386.003 263.428)" fill="#e6e6e6"/>
      <circle id="Ellipse_114" data-name="Ellipse 114" cx="8.566" cy="8.566" r="8.566" transform="translate(429.363 263.428)" fill="#e6e6e6"/>
      <circle id="Ellipse_115" data-name="Ellipse 115" cx="8.566" cy="8.566" r="8.566" transform="translate(39.121 307.332)" fill="#e6e6e6"/>
      <circle id="Ellipse_116" data-name="Ellipse 116" cx="8.566" cy="8.566" r="8.566" transform="translate(82.482 307.332)" fill="#e6e6e6"/>
      <circle id="Ellipse_117" data-name="Ellipse 117" cx="8.566" cy="8.566" r="8.566" transform="matrix(0.995, -0.099, 0.099, 0.995, 125.039, 308.218)" fill="#e6e6e6"/>
      <circle id="Ellipse_118" data-name="Ellipse 118" cx="8.566" cy="8.566" r="8.566" transform="translate(169.202 307.332)" fill="#e6e6e6"/>
      <circle id="Ellipse_119" data-name="Ellipse 119" cx="8.566" cy="8.566" r="8.566" transform="translate(212.562 307.332)" fill="#e6e6e6"/>
      <circle id="Ellipse_120" data-name="Ellipse 120" cx="8.566" cy="8.566" r="8.566" transform="translate(255.922 307.332)" fill="#e6e6e6"/>
      <circle id="Ellipse_121" data-name="Ellipse 121" cx="8.566" cy="8.566" r="8.566" transform="translate(299.283 307.332)" fill="#e6e6e6"/>
      <circle id="Ellipse_122" data-name="Ellipse 122" cx="8.566" cy="8.566" r="8.566" transform="translate(342.643 307.332)" fill="#e6e6e6"/>
      <circle id="Ellipse_123" data-name="Ellipse 123" cx="8.566" cy="8.566" r="8.566" transform="translate(386.003 307.332)" fill="#e6e6e6"/>
      <circle id="Ellipse_124" data-name="Ellipse 124" cx="8.566" cy="8.566" r="8.566" transform="translate(429.363 307.332)" fill="#e6e6e6"/>
      <circle id="Ellipse_125" data-name="Ellipse 125" cx="8.566" cy="8.566" r="8.566" transform="translate(39.121 351.237)" fill="#e6e6e6"/>
      <circle id="Ellipse_126" data-name="Ellipse 126" cx="8.566" cy="8.566" r="8.566" transform="translate(82.482 351.237)" fill="#e6e6e6"/>
      <circle id="Ellipse_127" data-name="Ellipse 127" cx="8.566" cy="8.566" r="8.566" transform="matrix(0.995, -0.099, 0.099, 0.995, 125.039, 352.122)" fill="#e6e6e6"/>
      <circle id="Ellipse_128" data-name="Ellipse 128" cx="8.566" cy="8.566" r="8.566" transform="translate(169.202 351.237)" fill="#e6e6e6"/>
      <circle id="Ellipse_129" data-name="Ellipse 129" cx="8.566" cy="8.566" r="8.566" transform="translate(212.562 351.237)" fill="#e6e6e6"/>
      <circle id="Ellipse_130" data-name="Ellipse 130" cx="8.566" cy="8.566" r="8.566" transform="translate(255.922 351.237)" fill="#e6e6e6"/>
      <circle id="Ellipse_131" data-name="Ellipse 131" cx="8.566" cy="8.566" r="8.566" transform="translate(299.283 351.237)" fill="#e6e6e6"/>
      <circle id="Ellipse_132" data-name="Ellipse 132" cx="8.566" cy="8.566" r="8.566" transform="translate(342.643 351.237)" fill="#e6e6e6"/>
      <circle id="Ellipse_133" data-name="Ellipse 133" cx="8.566" cy="8.566" r="8.566" transform="translate(386.003 351.237)" fill="#e6e6e6"/>
      <circle id="Ellipse_134" data-name="Ellipse 134" cx="8.566" cy="8.566" r="8.566" transform="translate(429.363 351.237)" fill="#e6e6e6"/>
      <circle id="Ellipse_135" data-name="Ellipse 135" cx="8.566" cy="8.566" r="8.566" transform="translate(39.121 395.141)" fill="#e6e6e6"/>
      <circle id="Ellipse_136" data-name="Ellipse 136" cx="8.566" cy="8.566" r="8.566" transform="translate(82.482 395.141)" fill="#e6e6e6"/>
      <circle id="Ellipse_137" data-name="Ellipse 137" cx="8.566" cy="8.566" r="8.566" transform="matrix(0.995, -0.099, 0.099, 0.995, 125.039, 396.027)" fill="#e6e6e6"/>
      <circle id="Ellipse_138" data-name="Ellipse 138" cx="8.566" cy="8.566" r="8.566" transform="translate(169.202 395.141)" fill="#e6e6e6"/>
      <circle id="Ellipse_139" data-name="Ellipse 139" cx="8.566" cy="8.566" r="8.566" transform="translate(212.562 395.141)" fill="#e6e6e6"/>
      <circle id="Ellipse_140" data-name="Ellipse 140" cx="8.566" cy="8.566" r="8.566" transform="translate(255.922 395.141)" fill="#e6e6e6"/>
      <circle id="Ellipse_141" data-name="Ellipse 141" cx="8.566" cy="8.566" r="8.566" transform="translate(299.283 395.141)" fill="#e6e6e6"/>
      <circle id="Ellipse_142" data-name="Ellipse 142" cx="8.566" cy="8.566" r="8.566" transform="translate(342.643 395.141)" fill="#e6e6e6"/>
      <circle id="Ellipse_143" data-name="Ellipse 143" cx="8.566" cy="8.566" r="8.566" transform="translate(386.003 395.141)" fill="#e6e6e6"/>
      <circle id="Ellipse_144" data-name="Ellipse 144" cx="8.566" cy="8.566" r="8.566" transform="translate(429.363 395.141)" fill="#e6e6e6"/>
      <g transform="matrix(1, 0, 0, 1, -670.89, -8)" filter="url(#Tracé_7835)">
        <path id="Tracé_7835-2" data-name="Tracé 7835" d="M340.774,323.707,442.437,145.565H239L137.232,321.837,239,498.11H442.544L544.126,322.167Z" transform="translate(686.18 24.21)" fill="#1c1d22"/>
      </g>
      <g transform="matrix(1, 0, 0, 1, -670.89, -8)" filter="url(#Tracé_7836)">
        <path id="Tracé_7836-2" data-name="Tracé 7836" d="M546.445,308.7l.19-.33L444.865,132.1h-.109L343.093,310.244Z" transform="translate(709.11 22.71)" fill="#a5cf4b"/>
      </g>
      <path id="Tracé_7837" data-name="Tracé 7837" d="M2.487,430Q0,427.1,0,421.492q0-5.551,2.487-8.458a8.579,8.579,0,0,1,6.886-2.906,8.718,8.718,0,0,1,6.966,2.906q2.512,2.906,2.513,8.458,0,5.6-2.513,8.509a8.723,8.723,0,0,1-6.966,2.907A8.582,8.582,0,0,1,2.487,430Zm9.872-3.011a11.854,11.854,0,0,0,.942-5.5,11.44,11.44,0,0,0-.97-5.42,3.184,3.184,0,0,0-2.959-1.7,3.088,3.088,0,0,0-2.88,1.7,11.719,11.719,0,0,0-.944,5.42,11.847,11.847,0,0,0,.944,5.471,3.083,3.083,0,0,0,2.88,1.7,3.18,3.18,0,0,0,2.986-1.676ZM9.008,447.937l21.575-37.286H36.4L14.768,447.937Zm20.03-2.539q-2.489-2.907-2.487-8.563,0-5.55,2.487-8.431a9.8,9.8,0,0,1,13.858-.02l.02.02q2.486,2.881,2.487,8.484t-2.487,8.51a9.738,9.738,0,0,1-13.769.109C29.11,445.47,29.075,445.433,29.038,445.4Zm9.87-3.037a11.852,11.852,0,0,0,.944-5.472,11.453,11.453,0,0,0-.969-5.42,3.355,3.355,0,0,0-5.839,0,11.732,11.732,0,0,0-.942,5.42,11.882,11.882,0,0,0,.942,5.472,3.379,3.379,0,0,0,5.865,0Z" transform="translate(0 45.68)" fill="#1c1d22"/>
      <path id="Tracé_7838" data-name="Tracé 7838" d="M439.415,245.731l-1.317-.35,28.734-108.09H633.5v1.363H467.879Z" transform="translate(48.797 15.292)" fill="#1c1d22"/>
      <path id="Tracé_7839" data-name="Tracé 7839" d="M269.407,330.343l1.317.35L241.99,438.782H75.326V437.42H240.943Z" transform="translate(8.39 36.795)" fill="#2f2e41"/>
      <path id="Tracé_7840" data-name="Tracé 7840" d="M64.506,414.436a14.3,14.3,0,1,1-14.3,14.3A14.3,14.3,0,0,1,64.506,414.436Zm0,27.236a12.937,12.937,0,1,0-12.938-12.936h0a12.952,12.952,0,0,0,12.938,12.936Z" transform="translate(5.592 46.161)" fill="#2f2e41"/>
      <circle id="Ellipse_145" data-name="Ellipse 145" cx="5.447" cy="5.447" r="5.447" transform="translate(64.651 469.448)" fill="#a5cf4b"/>
    </g>
    <g id="Groupe_4439" data-name="Groupe 4439" transform="translate(-208.862 180.084)">
      <g transform="matrix(1, 0, 0, 1, 230.78, -162.86)" filter="url(#Tracé_7818)">
        <path id="Tracé_7818-2" data-name="Tracé 7818" d="M492,23V163.977A70.489,70.489,0,0,0,492,23Z" transform="translate(-331.04 162.86)" fill="#1c1d22"/>
      </g>
      <g transform="matrix(1, 0, 0, 1, 230.78, -162.86)" filter="url(#Tracé_7819)">
        <path id="Tracé_7819-2" data-name="Tracé 7819" d="M403.38,30.254a64.749,64.749,0,0,0-57.89,35.718l57.89,34.268Z" transform="translate(-259.12 134.7)" fill="#1c1d22"/>
      </g>
      <g transform="matrix(1, 0, 0, 1, 230.78, -162.86)" filter="url(#Tracé_7820)">
        <path id="Tracé_7820-2" data-name="Tracé 7820" d="M324.451,116.013a70.508,70.508,0,0,0,63.017,102.1V153.315Z" transform="translate(-242.78 116.58)" fill="#a5cf4b"/>
      </g>
      <rect id="Rectangle_247" data-name="Rectangle 247" width="43.148" height="3.845" transform="translate(509.648 59.739)" fill="#1c1d22"/>
      <rect id="Rectangle_248" data-name="Rectangle 248" width="8.544" height="8.544" transform="translate(495.55 57.176)" fill="#a5cf4b"/>
      <rect id="Rectangle_249" data-name="Rectangle 249" width="43.148" height="3.845" transform="translate(509.648 72.556)" fill="#1c1d22"/>
      <rect id="Rectangle_250" data-name="Rectangle 250" width="8.544" height="8.544" transform="translate(495.55 69.992)" fill="#a5cf4b"/>
      <rect id="Rectangle_251" data-name="Rectangle 251" width="43.148" height="3.845" transform="translate(509.648 85.372)" fill="#1c1d22"/>
      <rect id="Rectangle_252" data-name="Rectangle 252" width="8.544" height="8.544" transform="translate(495.55 82.808)" fill="#a5cf4b"/>
      <path id="Tracé_7821" data-name="Tracé 7821" d="M437.9,189.586l-.6-.6L482.274,144H560.63v.854h-78Z" transform="translate(-68.924 -69.308)" fill="#2f2e41"/>
    </g>
    <g id="Groupe_4440" data-name="Groupe 4440" transform="translate(-71.832 -11.056)">
      <g transform="matrix(1, 0, 0, 1, 93.75, 28.28)" filter="url(#Tracé_7875)">
        <path id="Tracé_7875-2" data-name="Tracé 7875" d="M699.7,142.1a77.626,77.626,0,1,1-68.273-40.666c.615,0,1.229.01,1.842.023L632.447,68.3c-.34,0-.679-.014-1.02-.014A110.738,110.738,0,1,0,726.4,122.038Z" transform="translate(-93.75 -19.17)" fill="#a5cf4b"/>
      </g>
      <g transform="matrix(1, 0, 0, 1, 93.75, 28.28)" filter="url(#Tracé_7876)">
        <path id="Tracé_7876-2" data-name="Tracé 7876" d="M678.966,142.1l26.7-20.067A110.7,110.7,0,0,0,611.713,68.3l.821,33.159A77.608,77.608,0,0,1,678.966,142.1Z" transform="translate(-73.02 -19.16)" fill="#1c1d22"/>
      </g>
      <rect id="Rectangle_253" data-name="Rectangle 253" width="1.929" height="55.269" transform="translate(686.44 284.609) rotate(-44.731)" fill="#3f3d56"/>
      <rect id="Rectangle_254" data-name="Rectangle 254" width="55.269" height="1.929" transform="translate(685.746 91.108) rotate(-60.713)" fill="#3f3d56"/>
      <path id="Tracé_7877" data-name="Tracé 7877" d="M722.993,283.743h-57.4a3.851,3.851,0,0,1-3.848-3.847v-8.084a3.852,3.852,0,0,1,3.848-3.848h57.4a3.852,3.852,0,0,1,3.849,3.848V279.9A3.851,3.851,0,0,1,722.993,283.743Z" transform="translate(32.134 54.617)" fill="#1c1d22"/>
      <path id="Tracé_7878" data-name="Tracé 7878" d="M711.143,44.064h-57.4a3.853,3.853,0,0,1-3.848-3.848V32.131a3.853,3.853,0,0,1,3.848-3.848h57.4a3.853,3.853,0,0,1,3.848,3.848v8.084A3.853,3.853,0,0,1,711.143,44.064Z" transform="translate(29.434 0)" fill="#a5cf4b"/>
    </g>
    <g id="Groupe_4441" data-name="Groupe 4441" transform="translate(641.756 625.654)">
      <g transform="matrix(1, 0, 0, 1, -619.84, -608.43)" filter="url(#Tracé_7879)">
        <path id="Tracé_7879-2" data-name="Tracé 7879" d="M36.705,42.513l-1.914,1.914,97.065,97.063,30.456-30.456L215.779,164.5,281.43,98.852,393.1,210.527l50.761-50.762,111,111L617.13,208.5l114.1,114.1,1.914-1.914L617.13,204.668l-62.267,62.267-111-111L393.1,206.7,281.43,95.024l-65.651,65.651-53.467-53.469-30.456,30.458Z" transform="translate(619.84 608.43)" fill="#1c1d22"/>
      </g>
      <g transform="matrix(1, 0, 0, 1, -619.84, -608.43)" filter="url(#Ellipse_148)">
        <circle id="Ellipse_148-2" data-name="Ellipse 148" cx="16.244" cy="16.244" r="16.244" transform="translate(889.76 691.15)" fill="#a5cf4b"/>
      </g>
      <g transform="matrix(1, 0, 0, 1, -619.84, -608.43)" filter="url(#Ellipse_149)">
        <circle id="Ellipse_149-2" data-name="Ellipse 149" cx="16.244" cy="16.244" r="16.244" transform="translate(993.99 798.09)" fill="#a5cf4b"/>
      </g>
      <g transform="matrix(1, 0, 0, 1, -619.84, -608.43)" filter="url(#Ellipse_150)">
        <circle id="Ellipse_150-2" data-name="Ellipse 150" cx="16.244" cy="16.244" r="16.244" transform="translate(1220.05 798.09)" fill="#a5cf4b"/>
      </g>
    </g>
    <g id="Groupe_4207" data-name="Groupe 4207" transform="translate(30.918 23.572)">
      <g transform="matrix(1, 0, 0, 1, -9, -6.34)" filter="url(#Tracé_46)">
        <path id="Tracé_46-2" data-name="Tracé 46" d="M152.148,46.426l-.056-.039L133.767,35.008,113.441,40.59l7.5,4.556,7.075-1.978,2.429,1.547-13.384,3.626-12.017-7.489L131.5,33.629l-5.276-3.315a2.2,2.2,0,0,0-.476-.3l-.063-.042h-.02a1.918,1.918,0,0,0-.751-.149,2.1,2.1,0,0,0-.463.082l-.372.112-35.787,9.85L88,39.947c-.617.194-1.044.56-1.044.993a.951.951,0,0,0,.5.75l.167.094,25.936,16.122c.615.291.73.39,1.215.365a2.518,2.518,0,0,0,.755-.154,1.686,1.686,0,0,1-.341.109L151.235,48.3l.609-.168c.519-.2.856-.524.856-.918a.972.972,0,0,0-.551-.784" transform="translate(-52.85 -23.47)" fill="#fff"/>
      </g>
      <g transform="matrix(1, 0, 0, 1, -9, -6.34)" filter="url(#Tracé_47)">
        <path id="Tracé_47-2" data-name="Tracé 47" d="M95.715,63.95V60.255l18.118,11.38V59.861a6.711,6.711,0,0,1-.773-.494L87.2,43.339s-1.506-.759-1.506-1.945V69.265L102.842,80.4l-.1,3.15L85.736,73.217s.028,7.172.028,8.756a4.723,4.723,0,0,0,2.308,4.284c.7.44,25.761,16.006,25.761,16.006V75.219Z" transform="translate(-52.84 -23.56)" fill="#fff"/>
      </g>
      <g transform="matrix(1, 0, 0, 1, -9, -6.34)" filter="url(#Tracé_48)">
        <path id="Tracé_48-2" data-name="Tracé 48" d="M151.778,50.06l-12.162,3.33V70.7l-8.49,2.3V55.779l-14.67,4.05s-.382.087-.8.164v42.481l15.466-4.266V82.179l8.578-2.3V95.8s10.948-2.98,11.784-3.24A3.629,3.629,0,0,0,154.168,89V48.153c0,1.163-2.39,1.907-2.39,1.907" transform="translate(-53.05 -23.61)" fill="#fff"/>
      </g>
      <g transform="matrix(1, 0, 0, 1, -9, -6.34)" filter="url(#Tracé_49)">
        <path id="Tracé_49-2" data-name="Tracé 49" d="M65.174,120.984v6.041h6.459v-6.041h3.517v15.728H71.633v-6.784H65.174v6.784h-3.51V120.984Z" transform="translate(-52.66 -24.13)" fill="#fff"/>
      </g>
      <g transform="matrix(1, 0, 0, 1, -9, -6.34)" filter="url(#Tracé_50)">
        <path id="Tracé_50-2" data-name="Tracé 50" d="M86.3,120.984l5.964,15.728H88.62l-1.215-3.5H81.442l-1.248,3.5H76.659L82.7,120.984Zm.2,9.652-2.016-5.766h-.045l-2.077,5.766Z" transform="translate(-52.77 -24.13)" fill="#fff"/>
      </g>
      <g transform="matrix(1, 0, 0, 1, -9, -6.34)" filter="url(#Tracé_51)">
        <path id="Tracé_51-2" data-name="Tracé 51" d="M96.444,132.832a2.643,2.643,0,0,0,.769.905,3.692,3.692,0,0,0,1.132.492,5.574,5.574,0,0,0,1.337.167,6.686,6.686,0,0,0,1.007-.074,3.452,3.452,0,0,0,1.01-.3,2.233,2.233,0,0,0,.78-.606,1.514,1.514,0,0,0,.315-.977,1.422,1.422,0,0,0-.418-1.043,3.205,3.205,0,0,0-1.083-.655,11.452,11.452,0,0,0-1.518-.462c-.57-.135-1.144-.28-1.727-.438a15.017,15.017,0,0,1-1.741-.542,6,6,0,0,1-1.513-.822,4.139,4.139,0,0,1-1.092-1.262,3.882,3.882,0,0,1-.41-1.854,4.139,4.139,0,0,1,.523-2.1,4.72,4.72,0,0,1,1.377-1.483,5.967,5.967,0,0,1,1.923-.876,8.216,8.216,0,0,1,2.149-.287,10.4,10.4,0,0,1,2.4.268,6.255,6.255,0,0,1,2.046.895,4.491,4.491,0,0,1,1.416,1.576,4.753,4.753,0,0,1,.525,2.319h-3.4a2.579,2.579,0,0,0-.3-1.164,1.939,1.939,0,0,0-.682-.724,3.128,3.128,0,0,0-.977-.387,6.583,6.583,0,0,0-1.19-.106,3.914,3.914,0,0,0-.853.1,2.33,2.33,0,0,0-.766.3,2.183,2.183,0,0,0-.571.554,1.459,1.459,0,0,0-.218.84,1.482,1.482,0,0,0,.169.755,1.622,1.622,0,0,0,.713.518,9.677,9.677,0,0,0,1.443.485c.623.169,1.425.372,2.435.624.3.063.7.163,1.234.314a6.322,6.322,0,0,1,1.586.739,4.683,4.683,0,0,1,1.346,1.355,3.782,3.782,0,0,1,.567,2.158,4.783,4.783,0,0,1-.423,2.013,4.461,4.461,0,0,1-1.253,1.6,6.208,6.208,0,0,1-2.092,1.047,10.813,10.813,0,0,1-5.429.048,6.174,6.174,0,0,1-2.183-.995A4.879,4.879,0,0,1,93.29,134a5.048,5.048,0,0,1-.532-2.509h3.39a2.759,2.759,0,0,0,.3,1.343" transform="translate(-52.89 -24.12)" fill="#fff"/>
      </g>
      <g transform="matrix(1, 0, 0, 1, -9, -6.34)" filter="url(#Tracé_52)">
        <path id="Tracé_52-2" data-name="Tracé 52" d="M111.87,120.984l6.65,10.554h.05V120.984h3.288v15.728h-3.511l-6.639-10.523h-.046v10.523h-3.284V120.984Z" transform="translate(-53 -24.13)" fill="#fff"/>
      </g>
      <g transform="matrix(1, 0, 0, 1, -9, -6.34)" filter="url(#Tracé_53)">
        <path id="Tracé_53-2" data-name="Tracé 53" d="M133,120.984l5.971,15.728h-3.65l-1.2-3.5h-5.968l-1.249,3.5h-3.538l6.027-15.728Zm.189,9.652-2-5.766h-.046l-2.072,5.766Z" transform="translate(-53.1 -24.13)" fill="#fff"/>
      </g>
      <g transform="matrix(1, 0, 0, 1, -9, -6.34)" filter="url(#Tracé_54)">
        <path id="Tracé_54-2" data-name="Tracé 54" d="M140.311,125.647a7.959,7.959,0,0,1,1.539-2.629,7.02,7.02,0,0,1,2.479-1.767,8.9,8.9,0,0,1,6.6,0,7.04,7.04,0,0,1,2.463,1.767,7.464,7.464,0,0,1,1.539,2.629,9.55,9.55,0,0,1,.544,3.273,9.24,9.24,0,0,1-.544,3.2,7.253,7.253,0,0,1-1.539,2.584,7.026,7.026,0,0,1-2.463,1.731,8.967,8.967,0,0,1-6.6,0,7.007,7.007,0,0,1-2.479-1.731,7.729,7.729,0,0,1-1.539-2.584,9.285,9.285,0,0,1-.536-3.2,9.6,9.6,0,0,1,.536-3.273m3.213,5.193a5.013,5.013,0,0,0,.75,1.687,3.865,3.865,0,0,0,1.339,1.212,4.854,4.854,0,0,0,4.021,0,3.967,3.967,0,0,0,1.34-1.212,4.986,4.986,0,0,0,.745-1.687,7.832,7.832,0,0,0,.234-1.92,8.386,8.386,0,0,0-.234-2,5.125,5.125,0,0,0-.745-1.731,3.766,3.766,0,0,0-1.34-1.216,4.728,4.728,0,0,0-4.021,0,3.674,3.674,0,0,0-1.339,1.216,5.151,5.151,0,0,0-.75,1.731,8.191,8.191,0,0,0-.238,2,7.649,7.649,0,0,0,.238,1.92" transform="translate(-53.22 -24.12)" fill="#fff"/>
      </g>
      <g transform="matrix(1, 0, 0, 1, -9, -6.34)" filter="url(#Tracé_55)">
        <path id="Tracé_55-2" data-name="Tracé 55" d="M169.719,135.514a8.893,8.893,0,0,1-10.021.008,5.935,5.935,0,0,1-1.781-4.758v-9.78h3.52v9.78a6.77,6.77,0,0,0,.1,1.259,2.67,2.67,0,0,0,.474,1.094,2.591,2.591,0,0,0,.987.764,4.234,4.234,0,0,0,1.718.3,3.3,3.3,0,0,0,2.59-.825,3.9,3.9,0,0,0,.713-2.588v-9.78h3.516v9.78a5.9,5.9,0,0,1-1.818,4.75" transform="translate(-53.35 -24.13)" fill="#fff"/>
      </g>
      <g transform="matrix(1, 0, 0, 1, -9, -6.34)" filter="url(#Rectangle_23)">
        <rect id="Rectangle_23-2" data-name="Rectangle 23" width="3.508" height="15.728" transform="translate(121.2 96.86)" fill="#fff"/>
      </g>
      <g transform="matrix(1, 0, 0, 1, -9, -6.34)" filter="url(#Rectangle_24)">
        <rect id="Rectangle_24-2" data-name="Rectangle 24" width="18.606" height="0.709" transform="translate(106.1 90.54)" fill="#fff"/>
      </g>
      <g transform="matrix(1, 0, 0, 1, -9, -6.34)" filter="url(#Rectangle_25)">
        <rect id="Rectangle_25-2" data-name="Rectangle 25" width="18.869" height="0.709" transform="translate(9 90.54)" fill="#fff"/>
      </g>
      <g transform="matrix(1, 0, 0, 1, -9, -6.34)" filter="url(#Tracé_56)">
        <path id="Tracé_56-2" data-name="Tracé 56" d="M85.24,112.329a1.163,1.163,0,0,0-.218-.75.98.98,0,0,0-.781-.263,2.469,2.469,0,0,0-.26.023.86.86,0,0,0-.355.135,1.053,1.053,0,0,0-.3.367,1.484,1.484,0,0,0-.134.688v1.891a3.3,3.3,0,0,0,.067.759,1.13,1.13,0,0,0,.2.472.661.661,0,0,0,.325.246,1.375,1.375,0,0,0,.452.062,2.121,2.121,0,0,0,.648-.084,1.277,1.277,0,0,0,.372-.164v-1.68H84.206v-.621h1.772v2.73a4.367,4.367,0,0,1-.77.3,3.637,3.637,0,0,1-.968.116,1.667,1.667,0,0,1-1.343-.5,2.494,2.494,0,0,1-.448-1.667v-1.844a1.9,1.9,0,0,1,.448-1.325,1.667,1.667,0,0,1,1.343-.5,2.117,2.117,0,0,1,1.362.364,1.532,1.532,0,0,1,.4,1.243Z" transform="translate(-52.81 -24.05)" fill="#fff"/>
      </g>
      <g transform="matrix(1, 0, 0, 1, -9, -6.34)" filter="url(#Tracé_57)">
        <path id="Tracé_57-2" data-name="Tracé 57" d="M88.084,113.864v2.58h-.729v-5.607H89.32a1.674,1.674,0,0,1,.632.114,1.4,1.4,0,0,1,.431.323,1.151,1.151,0,0,1,.219.448,1.622,1.622,0,0,1,.076.512,1.337,1.337,0,0,1-.27.85,1.2,1.2,0,0,1-.774.429v.02a1.781,1.781,0,0,1,.42.1.71.71,0,0,1,.28.228,1.558,1.558,0,0,1,.166.428,3.638,3.638,0,0,1,.071.686c0,.054,0,.149.008.28s.023.263.05.408.036.294.06.429a2.914,2.914,0,0,0,.071.349H90.01a1.315,1.315,0,0,1-.116-.349c-.023-.135-.034-.283-.05-.447s-.015-.337-.023-.521-.021-.358-.03-.55a.781.781,0,0,0-.136-.406.854.854,0,0,0-.227-.215.943.943,0,0,0-.266-.072,1.045,1.045,0,0,0-.235-.019Zm0-.621h1.078a.846.846,0,0,0,.351-.077.79.79,0,0,0,.242-.212.667.667,0,0,0,.128-.29,1.155,1.155,0,0,0,.059-.348,1.462,1.462,0,0,0-.04-.308.694.694,0,0,0-.136-.275.657.657,0,0,0-.242-.193.607.607,0,0,0-.349-.077H88.084Z" transform="translate(-52.85 -24.05)" fill="#fff"/>
      </g>
      <g transform="matrix(1, 0, 0, 1, -9, -6.34)" filter="url(#Tracé_58)">
        <path id="Tracé_58-2" data-name="Tracé 58" d="M93.544,116.56a1.669,1.669,0,0,1-1.338-.506,2.472,2.472,0,0,1-.449-1.665v-1.84a1.9,1.9,0,0,1,.449-1.329,1.675,1.675,0,0,1,1.338-.5,1.722,1.722,0,0,1,1.355.5,1.952,1.952,0,0,1,.431,1.329v1.84a2.546,2.546,0,0,1-.431,1.665,1.715,1.715,0,0,1-1.355.506m0-.6a1.364,1.364,0,0,0,.449-.062.742.742,0,0,0,.333-.246,1.381,1.381,0,0,0,.207-.472,4.289,4.289,0,0,0,.056-.759V112.53a1.522,1.522,0,0,0-.12-.688,1.065,1.065,0,0,0-.315-.363.735.735,0,0,0-.347-.139,1.949,1.949,0,0,0-.262-.023,1.687,1.687,0,0,0-.255.023.832.832,0,0,0-.359.139.963.963,0,0,0-.3.363,1.471,1.471,0,0,0-.13.688v1.891a3.286,3.286,0,0,0,.063.759,1.326,1.326,0,0,0,.195.472.845.845,0,0,0,.33.246,1.429,1.429,0,0,0,.455.062" transform="translate(-52.88 -24.05)" fill="#fff"/>
      </g>
      <g transform="matrix(1, 0, 0, 1, -9, -6.34)" filter="url(#Tracé_59)">
        <path id="Tracé_59-2" data-name="Tracé 59" d="M96.606,110.838h.726v3.584a3.526,3.526,0,0,0,.068.759,1.26,1.26,0,0,0,.209.472.658.658,0,0,0,.324.242,1.631,1.631,0,0,0,.915,0,.731.731,0,0,0,.338-.242,1.167,1.167,0,0,0,.192-.472,3.025,3.025,0,0,0,.078-.759v-3.584h.725v3.551a2.508,2.508,0,0,1-.436,1.667,1.718,1.718,0,0,1-1.359.5,1.687,1.687,0,0,1-1.335-.5,2.472,2.472,0,0,1-.445-1.667Z" transform="translate(-52.91 -24.05)" fill="#fff"/>
      </g>
      <g transform="matrix(1, 0, 0, 1, -9, -6.34)" filter="url(#Tracé_60)">
        <path id="Tracé_60-2" data-name="Tracé 60" d="M101.568,116.443v-5.6h1.686a2.13,2.13,0,0,1,.572.071,1.123,1.123,0,0,1,.512.234,1.247,1.247,0,0,1,.364.486,1.845,1.845,0,0,1,.139.8,1.63,1.63,0,0,1-.161.779,1.4,1.4,0,0,1-.409.465,1.6,1.6,0,0,1-.524.235,2.613,2.613,0,0,1-.5.06H102.3v2.47Zm.732-3.1h.789a2.148,2.148,0,0,0,.293-.023.961.961,0,0,0,.332-.122.678.678,0,0,0,.27-.291.926.926,0,0,0,.12-.514,1.064,1.064,0,0,0-.105-.506.823.823,0,0,0-.238-.277.693.693,0,0,0-.27-.126,1.4,1.4,0,0,0-.194-.025h-1Z" transform="translate(-52.95 -24.05)" fill="#fff"/>
      </g>
      <g transform="matrix(1, 0, 0, 1, -9, -6.34)" filter="url(#Tracé_61)">
        <path id="Tracé_61-2" data-name="Tracé 61" d="M105.893,116.445v-5.606h2.925v.625h-2.208v1.8h2.043v.624h-2.043v1.939h2.254v.623Z" transform="translate(-52.98 -24.05)" fill="#fff"/>
      </g>
      <g transform="matrix(1, 0, 0, 1, -9, -6.34)" filter="url(#Tracé_62)">
        <path id="Tracé_62-2" data-name="Tracé 62" d="M111.637,110.838h1.743a2.074,2.074,0,0,1,.927.2,1.336,1.336,0,0,1,.6.662,1.822,1.822,0,0,1,.135.437,3.918,3.918,0,0,1,.076.552c.016.177.016.342.031.488s.011.237.011.29a10.374,10.374,0,0,1-.078,1.435,2.336,2.336,0,0,1-.263.82,1.416,1.416,0,0,1-.69.545,3.343,3.343,0,0,1-1.19.179h-1.3Zm.723,4.982h.677a2.158,2.158,0,0,0,.646-.079.82.82,0,0,0,.429-.274,1.25,1.25,0,0,0,.237-.511,3.919,3.919,0,0,0,.075-.815v-1.133a2,2,0,0,0-.275-1.189.965.965,0,0,0-.839-.356h-.951Z" transform="translate(-53.02 -24.05)" fill="#fff"/>
      </g>
      <g transform="matrix(1, 0, 0, 1, -9, -6.34)" filter="url(#Tracé_63)">
        <path id="Tracé_63-2" data-name="Tracé 63" d="M116.471,116.445v-5.606h2.92v.625h-2.2v1.8h2.046v.624h-2.046v1.939h2.262v.623Z" transform="translate(-53.06 -24.05)" fill="#fff"/>
      </g>
      <g transform="matrix(1, 0, 0, 1, -9, -6.34)" filter="url(#Tracé_64)">
        <path id="Tracé_64-2" data-name="Tracé 64" d="M120.995,114.77v.161a1.184,1.184,0,0,0,.084.477.783.783,0,0,0,.214.308,1.042,1.042,0,0,0,.313.175,1.847,1.847,0,0,0,.339.041,2.007,2.007,0,0,0,.412-.041,1.261,1.261,0,0,0,.32-.158.762.762,0,0,0,.195-.288.815.815,0,0,0,.083-.42.741.741,0,0,0-.19-.526,2.09,2.09,0,0,0-.461-.368c-.2-.119-.4-.229-.623-.335a3.217,3.217,0,0,1-.616-.354,1.85,1.85,0,0,1-.471-.51,1.24,1.24,0,0,1-.2-.69,1.583,1.583,0,0,1,.138-.651,1.118,1.118,0,0,1,.348-.482,1.673,1.673,0,0,1,.526-.3,2.448,2.448,0,0,1,.674-.092,1.645,1.645,0,0,1,1.176.388,1.574,1.574,0,0,1,.391,1.249H122.9a1.27,1.27,0,0,0-.179-.739.777.777,0,0,0-.7-.278,1.045,1.045,0,0,0-.326.045.792.792,0,0,0-.275.136.7.7,0,0,0-.2.255,1.028,1.028,0,0,0-.075.391.672.672,0,0,0,.191.508,2.174,2.174,0,0,0,.468.377c.189.11.4.21.617.329a3.746,3.746,0,0,1,.617.362,2.249,2.249,0,0,1,.472.512,1.4,1.4,0,0,1,.182.736,1.771,1.771,0,0,1-.139.749,1.313,1.313,0,0,1-.95.728,2.421,2.421,0,0,1-.666.088,1.994,1.994,0,0,1-.7-.092,1.733,1.733,0,0,1-.482-.246,1.231,1.231,0,0,1-.274-.347,1.391,1.391,0,0,1-.157-.393,1.921,1.921,0,0,1-.044-.387c0-.126,0-.229,0-.321Z" transform="translate(-53.08 -24.05)" fill="#fff"/>
      </g>
      <g transform="matrix(1, 0, 0, 1, -9, -6.34)" filter="url(#Tracé_65)">
        <path id="Tracé_65-2" data-name="Tracé 65" d="M127.172,114.77v.161a1.4,1.4,0,0,0,.076.477.748.748,0,0,0,.225.308.93.93,0,0,0,.3.175,1.718,1.718,0,0,0,.746,0,.966.966,0,0,0,.311-.158.66.66,0,0,0,.215-.288,1,1,0,0,0,.076-.42.79.79,0,0,0-.186-.526,1.917,1.917,0,0,0-.467-.368c-.2-.119-.4-.229-.62-.335a2.9,2.9,0,0,1-.617-.354,1.641,1.641,0,0,1-.472-.51,1.23,1.23,0,0,1-.188-.69,1.439,1.439,0,0,1,.131-.651,1.236,1.236,0,0,1,.339-.482,1.742,1.742,0,0,1,.535-.3,2.375,2.375,0,0,1,.658-.092,1.712,1.712,0,0,1,1.2.388,1.534,1.534,0,0,1,.377,1.249h-.757a1.255,1.255,0,0,0-.172-.739.8.8,0,0,0-.7-.278,1.028,1.028,0,0,0-.32.045.735.735,0,0,0-.273.136,1.07,1.07,0,0,0-.22.255,1.384,1.384,0,0,0-.061.391.668.668,0,0,0,.19.508,2.04,2.04,0,0,0,.478.377c.184.11.39.21.609.329a3.235,3.235,0,0,1,.612.362,2.064,2.064,0,0,1,.477.512,1.346,1.346,0,0,1,.189.736,1.72,1.72,0,0,1-.147.749,1.319,1.319,0,0,1-.949.728,2.448,2.448,0,0,1-.674.088,2.062,2.062,0,0,1-.7-.092,1.568,1.568,0,0,1-.467-.246,1.078,1.078,0,0,1-.282-.347,1.507,1.507,0,0,1-.154-.393,2.175,2.175,0,0,1-.049-.387v-.321Z" transform="translate(-53.13 -24.05)" fill="#fff"/>
      </g>
      <g transform="matrix(1, 0, 0, 1, -9, -6.34)" filter="url(#Tracé_66)">
        <path id="Tracé_66-2" data-name="Tracé 66" d="M132.772,116.56a1.688,1.688,0,0,1-1.341-.506,2.51,2.51,0,0,1-.436-1.665v-1.84a1.925,1.925,0,0,1,.436-1.329,2.08,2.08,0,0,1,2.7,0,1.932,1.932,0,0,1,.431,1.329v1.84a2.523,2.523,0,0,1-.431,1.665,1.7,1.7,0,0,1-1.358.506m0-.6a1.346,1.346,0,0,0,.456-.062.729.729,0,0,0,.336-.246,1.405,1.405,0,0,0,.19-.472,3.33,3.33,0,0,0,.072-.759V112.53a1.543,1.543,0,0,0-.125-.688,1.115,1.115,0,0,0-.312-.363.779.779,0,0,0-.345-.139,2.094,2.094,0,0,0-.272-.023,1.941,1.941,0,0,0-.258.023.768.768,0,0,0-.347.139.918.918,0,0,0-.3.363,1.433,1.433,0,0,0-.131.688v1.891a3.21,3.21,0,0,0,.066.759,1.2,1.2,0,0,0,.195.472.721.721,0,0,0,.333.246,1.31,1.31,0,0,0,.444.062" transform="translate(-53.16 -24.05)" fill="#fff"/>
      </g>
      <g transform="matrix(1, 0, 0, 1, -9, -6.34)" filter="url(#Tracé_67)">
        <path id="Tracé_67-2" data-name="Tracé 67" d="M138.363,112.374a2.506,2.506,0,0,0-.02-.458.833.833,0,0,0-.133-.352.367.367,0,0,0-.154-.11,1.839,1.839,0,0,0-.169-.077,1.39,1.39,0,0,0-.184-.037.945.945,0,0,0-.136-.013,1.135,1.135,0,0,0-.386.058,1.252,1.252,0,0,0-.265.127.99.99,0,0,0-.16.152c-.023.038-.042.072-.055.1a.123.123,0,0,1-.035.07c-.013.034-.034.1-.06.177s-.034.2-.048.336a4.853,4.853,0,0,0-.021.581v1.5a3.735,3.735,0,0,0,.068.817,1.648,1.648,0,0,0,.22.468.708.708,0,0,0,.328.2,1.416,1.416,0,0,0,.394.049,1.08,1.08,0,0,0,.232-.03.645.645,0,0,0,.29-.152.827.827,0,0,0,.271-.346,1.545,1.545,0,0,0,.109-.644h.747a2.423,2.423,0,0,1-.08.739,1.518,1.518,0,0,1-.232.506,1.133,1.133,0,0,1-.333.3,2.586,2.586,0,0,1-.369.159,1.211,1.211,0,0,1-.337.057,2.258,2.258,0,0,1-.252.011,3.522,3.522,0,0,1-.576-.045,1.327,1.327,0,0,1-.586-.25,1.632,1.632,0,0,1-.456-.662,3.483,3.483,0,0,1-.182-1.263v-1.585a3.21,3.21,0,0,1,.127-.983,1.649,1.649,0,0,1,.369-.624,1.4,1.4,0,0,1,.583-.336,2.888,2.888,0,0,1,.752-.089,1.458,1.458,0,0,1,1.189.421,1.726,1.726,0,0,1,.3,1.231Z" transform="translate(-53.19 -24.05)" fill="#fff"/>
      </g>
      <g transform="matrix(1, 0, 0, 1, -9, -6.34)" filter="url(#Rectangle_26)">
        <rect id="Rectangle_26-2" data-name="Rectangle 26" width="0.719" height="5.608" transform="translate(87.14 86.79)" fill="#fff"/>
      </g>
      <g transform="matrix(1, 0, 0, 1, -9, -6.34)" filter="url(#Tracé_68)">
        <path id="Tracé_68-2" data-name="Tracé 68" d="M142.484,116.431v-5.6h2.928v.624H143.2v1.8h2.046v.627H143.2v1.937h2.249v.623Zm2.269-7.29-1.034,1.092h-.534l.7-1.092Z" transform="translate(-53.24 -24.04)" fill="#fff"/>
      </g>
      <g transform="matrix(1, 0, 0, 1, -9, -6.34)" filter="url(#Tracé_69)">
        <path id="Tracé_69-2" data-name="Tracé 69" d="M149.635,110.838v.62h-1.5v4.986h-.724v-4.986h-1.5v-.62Z" transform="translate(-53.27 -24.05)" fill="#fff"/>
      </g>
      <g transform="matrix(1, 0, 0, 1, -9, -6.34)" filter="url(#Tracé_70)">
        <path id="Tracé_70-2" data-name="Tracé 70" d="M150.411,116.431v-5.6h2.938v.624h-2.214v1.8h2.048v.627h-2.048v1.937h2.253v.623Zm2.271-7.29-1.033,1.092h-.523l.693-1.092Z" transform="translate(-53.3 -24.04)" fill="#fff"/>
      </g>
      <g transform="matrix(1, 0, 0, 1, -9, -6.34)" filter="url(#Tracé_71)">
        <path id="Tracé_71-2" data-name="Tracé 71" d="M154.949,114.77v.161a1.466,1.466,0,0,0,.071.477.857.857,0,0,0,.23.308.923.923,0,0,0,.308.175,1.858,1.858,0,0,0,.333.041,1.811,1.811,0,0,0,.4-.041.843.843,0,0,0,.321-.158.683.683,0,0,0,.215-.288,1.131,1.131,0,0,0,.074-.42.737.737,0,0,0-.191-.526,1.9,1.9,0,0,0-.473-.368,5.75,5.75,0,0,0-.609-.335,3.058,3.058,0,0,1-.614-.354,1.739,1.739,0,0,1-.475-.51,1.134,1.134,0,0,1-.182-.69,1.6,1.6,0,0,1,.123-.651,1.18,1.18,0,0,1,.345-.482,1.723,1.723,0,0,1,.527-.3,2.451,2.451,0,0,1,.673-.092,1.685,1.685,0,0,1,1.184.388,1.591,1.591,0,0,1,.382,1.249h-.751a1.316,1.316,0,0,0-.183-.739.771.771,0,0,0-.7-.278.968.968,0,0,0-.318.045.8.8,0,0,0-.283.136.758.758,0,0,0-.195.255,1.042,1.042,0,0,0-.086.391.732.732,0,0,0,.195.508,2.342,2.342,0,0,0,.477.377c.19.11.4.21.614.329a4.064,4.064,0,0,1,.618.362,1.947,1.947,0,0,1,.47.512,1.354,1.354,0,0,1,.187.736,1.653,1.653,0,0,1-.145.749,1.211,1.211,0,0,1-.386.478,1.274,1.274,0,0,1-.559.25,2.436,2.436,0,0,1-.673.088,2.018,2.018,0,0,1-.7-.092,1.735,1.735,0,0,1-.474-.246,1.335,1.335,0,0,1-.29-.347,2.245,2.245,0,0,1-.143-.393,2.735,2.735,0,0,1-.045-.387c0-.126,0-.229,0-.321Z" transform="translate(-53.33 -24.05)" fill="#fff"/>
      </g>
      <g transform="matrix(1, 0, 0, 1, -9, -6.34)" filter="url(#Tracé_72)">
        <path id="Tracé_72-2" data-name="Tracé 72" d="M160.44,40.807a3.356,3.356,0,0,1,1.311.255,3.655,3.655,0,0,1,1.061.7,3.409,3.409,0,0,1,.726,1.053,3.16,3.16,0,0,1,.254,1.295,3.2,3.2,0,0,1-.254,1.307,3.435,3.435,0,0,1-1.787,1.758,3.357,3.357,0,0,1-1.311.257,3.4,3.4,0,0,1-1.315-.257,3.3,3.3,0,0,1-1.072-.712,3.554,3.554,0,0,1-.727-1.046,3.377,3.377,0,0,1-.268-1.307,3.341,3.341,0,0,1,.268-1.295,3.535,3.535,0,0,1,.727-1.053,3.482,3.482,0,0,1,1.072-.7,3.4,3.4,0,0,1,1.315-.255m0,.5a2.826,2.826,0,0,0-1.12.215,3.1,3.1,0,0,0-.919.6,3.178,3.178,0,0,0-.616.9,2.89,2.89,0,0,0-.22,1.115,2.771,2.771,0,0,0,.22,1.093,2.952,2.952,0,0,0,.616.9,2.692,2.692,0,0,0,.919.6,2.763,2.763,0,0,0,1.12.225,2.8,2.8,0,0,0,1.123-.225,2.822,2.822,0,0,0,1.508-1.5,2.674,2.674,0,0,0,.227-1.093,2.838,2.838,0,0,0-.836-2.014,2.982,2.982,0,0,0-.9-.6,2.868,2.868,0,0,0-1.123-.215m-.629,4.73h-.632v-3.82h1.54a1.356,1.356,0,0,1,.485.084,1.129,1.129,0,0,1,.345.213.884.884,0,0,1,.191.307,1,1,0,0,1,.066.349.782.782,0,0,1-.236.575,1.25,1.25,0,0,1-.6.315v.016a.814.814,0,0,1,.3.066.456.456,0,0,1,.211.154.916.916,0,0,1,.119.282,3.623,3.623,0,0,1,.055.469,1.137,1.137,0,0,0,.015.195c0,.082.014.183.014.276a2.665,2.665,0,0,1,.055.286.927.927,0,0,0,.066.234h-.626a1.234,1.234,0,0,1-.116-.537c0-.23-.02-.473-.039-.728a.47.47,0,0,0-.085-.238.417.417,0,0,0-.158-.131.408.408,0,0,0-.184-.046.565.565,0,0,0-.155-.016h-.622Zm0-2.189h.794a.5.5,0,0,0,.428-.184.649.649,0,0,0,.136-.441.735.735,0,0,0-.019-.206.39.39,0,0,0-.1-.187.477.477,0,0,0-.173-.137.648.648,0,0,0-.275-.048h-.794Z" transform="translate(-53.35 -23.55)" fill="#fff"/>
      </g>
    </g>
  </g>
</svg>
