<svg xmlns="http://www.w3.org/2000/svg" width="249.661" height="95.69" viewBox="0 0 249.661 95.69">
  <g id="Groupe_4567" data-name="Groupe 4567" transform="translate(-1511.5 -978.31)">
    <g id="LOGO_CBI_2.0" data-name="LOGO CBI 2.0" transform="translate(1273.839 952.606)">
      <g id="Groupe_4337" data-name="Groupe 4337" transform="translate(264.961 51.697)">
        <path id="Tracé_10-2" data-name="Tracé 10-2" d="M262.564,78.848c.364-.649,1.013-.365,1.5-.365,5.873,0,11.745.041,17.623.041a10.835,10.835,0,0,0,10.085-9.355,11.092,11.092,0,0,0-8.348-12.3c-.689-.163-1.418-.082-2.1-.244a.367.367,0,0,1,.121-.405c2.551-.728,4.576-1.944,4.981-4.859.081-.687-.161-1.457.446-1.984.081,2.429,2.1,2.714,3.848,3.523.041-.446.081-.728.081-1.013.042-2.51.042-2.51,2.47-2.51h12.31c.689,0,1.3-.041,1.3.972-.041,3.119,0,6.278-.041,9.394,0,.163-.161.365-.244.526a2.923,2.923,0,0,1-.484-2.024c0-2.187-.042-4.34,0-6.52,0-1.175-.446-1.621-1.621-1.621-3.726.042-7.5.042-11.219,0-1.216,0-1.782.365-1.742,1.66.041,2.186.041,4.34,0,6.52,0,1.093.446,1.5,1.539,1.539,1.255.082,2.63-.446,3.768.526a19.616,19.616,0,0,1,1.54,6.6c0,.2.2.405.323.648,0,.284-.2.446-.405.608-1.335,1.174-1.418,1.861-.485,3.359a1.3,1.3,0,0,1,.324.81,1.213,1.213,0,0,0-.687.77A17.385,17.385,0,0,1,285,84.643a1.17,1.17,0,0,0-.972,1.3c.041,1.377.041,2.713.041,4.091a9.154,9.154,0,0,1-6.4,0c0-2.186-.041-4.34.041-6.52.041-1.093-.365-1.377-1.377-1.377q-6.134.063-12.273,0c-.526,0-1.133.244-1.539-.324a3.2,3.2,0,0,1,2.188-.4h10.326a8.025,8.025,0,0,0,1.377-.082,1.009,1.009,0,0,0-.041-1.944,9.359,9.359,0,0,0-1.5-.081H264.71A2.949,2.949,0,0,1,262.564,78.848Z" transform="translate(-262.52 -49.373)" fill="#bfbfbf"/>
      </g>
      <g id="Groupe_4338" data-name="Groupe 4338" transform="translate(284.395 25.952)">
        <path id="Tracé_11-2" data-name="Tracé 11-2" d="M280.546,42.357c.041-3.725-.931-7.412.284-11.014a8.152,8.152,0,0,1,8.261-5.392A8.464,8.464,0,1,1,288,42.842a6.8,6.8,0,0,1-4.049-1.5c-1.093-.972-1.863-.769-2.63.324a4.2,4.2,0,0,1-.77.687Z" transform="translate(-280.217 -25.93)" fill="#fefefe"/>
      </g>
      <g id="Groupe_4339" data-name="Groupe 4339" transform="translate(248.879 37.521)">
        <path id="Tracé_12-2" data-name="Tracé 12-2" d="M247.877,41.643a5.262,5.262,0,1,1,1.5,3.759A5.26,5.26,0,0,1,247.877,41.643Z" transform="translate(-247.876 -36.464)" fill="#fefefe"/>
      </g>
      <path id="Tracé_13" data-name="Tracé 13" d="M292.5,38.27a5.617,5.617,0,0,1-7.087.85,5.7,5.7,0,0,1-2.631-6.4,5.772,5.772,0,0,1,5.669-4.34c.81.851.446,1.9.526,2.875.041.77,0,1.5,0,2.268-.081.89.648,1.254,1.093,1.861C290.884,36.326,292.178,36.894,292.5,38.27Z" transform="translate(4.412 0.263)" fill="#414e58"/>
      <path id="Tracé_14" data-name="Tracé 14" d="M288.047,34.139c-.041-1.944-.081-3.848-.081-5.786a5.831,5.831,0,0,1,5.831,5.786,8.261,8.261,0,0,1-5.75,0Z" transform="translate(4.939 0.26)" fill="#fefefe"/>
      <path id="Tracé_15" data-name="Tracé 15" d="M288.04,33.627h5.711a5.078,5.078,0,0,1-1.782,4.091A37.557,37.557,0,0,1,288.04,33.627Z" transform="translate(4.947 0.778)" fill="#414e58"/>
      <g id="Groupe_4340" data-name="Groupe 4340" transform="translate(273.183 92.318)">
        <rect id="Rectangle_1-2" data-name="Rectangle 1-2" width="20.332" height="2.793" transform="translate(0)" fill="#fefefe"/>
      </g>
      <g id="Groupe_4341" data-name="Groupe 4341" transform="translate(265.043 95.106)">
        <rect id="Rectangle_2-2" data-name="Rectangle 2-2" width="36.653" height="3.239" fill="#fefefe"/>
      </g>
      <rect id="Rectangle_3" data-name="Rectangle 3" width="15.148" height="3.93" transform="translate(264.919 80.818)" fill="#fefefe"/>
      <circle id="Ellipse_1" data-name="Ellipse 1" cx="1.457" cy="1.457" r="1.457" transform="translate(281.686 82.479)" fill="#fefefe"/>
      <path id="Ellipse_2" data-name="Ellipse 2" d="M2.713,0A2.713,2.713,0,1,1,0,2.713,2.713,2.713,0,0,1,2.713,0Z" transform="translate(298.088 69.682)" fill="#fefefe"/>
      <g id="Groupe_4342" data-name="Groupe 4342" transform="translate(276.826 46.63)">
        <ellipse id="Ellipse_3-2" data-name="Ellipse 3-2" cx="6.238" cy="6.115" rx="6.238" ry="6.115" fill="#fefefe"/>
      </g>
      <rect id="Rectangle_4" data-name="Rectangle 4" width="9.639" height="3.93" transform="translate(268.158 42.909)" fill="#bfbfbf"/>
      <rect id="Rectangle_5" data-name="Rectangle 5" width="5.63" height="3.93" transform="translate(270.185 38.98)" fill="#fefefe"/>
      <rect id="Rectangle_6" data-name="Rectangle 6" width="5.63" height="4.456" transform="translate(270.185 71.422)" fill="#bfbfbf"/>
      <g id="Groupe_4343" data-name="Groupe 4343" transform="translate(268.199 46.669)">
        <rect id="Rectangle_7-2" data-name="Rectangle 7-2" width="9.557" height="24.543" fill="#fefefe"/>
      </g>
      <rect id="Rectangle_8" data-name="Rectangle 8" width="13.892" height="12.151" transform="translate(268.604 46.677)" fill="#fefefe"/>
      <g id="Groupe_4344" data-name="Groupe 4344" transform="translate(280.509 50.194)">
        <path id="Tracé_16-2" data-name="Tracé 16-2" d="M279.308,53.265a2.631,2.631,0,0,1,0-5.261,2.729,2.729,0,0,1,2.592,2.63A2.674,2.674,0,0,1,279.308,53.265Z" transform="translate(-276.678 -48.004)" fill="#414e58"/>
      </g>
      <g id="Groupe_4345" data-name="Groupe 4345" transform="translate(262.61 34.32)">
        <circle id="Ellipse_4-2" data-name="Ellipse 4-2" cx="1.457" cy="1.457" r="1.457" fill="#fefefe"/>
      </g>
      <g id="Groupe_4346" data-name="Groupe 4346" transform="translate(251.799 80.127)">
        <circle id="Ellipse_5-2" data-name="Ellipse 5-2" cx="2.308" cy="2.308" r="2.308" fill="#bfbfbf"/>
      </g>
      <rect id="Rectangle_9" data-name="Rectangle 9" width="16.362" height="10.896" transform="translate(292.987 51.697)" fill="#fefefe"/>
      <rect id="Rectangle_10" data-name="Rectangle 10" width="0.769" height="0.485" transform="translate(295.092 60.446)" fill="#414e58"/>
      <rect id="Rectangle_11" data-name="Rectangle 11" width="0.769" height="0.769" transform="translate(296.185 60.163)" fill="#414e58"/>
      <rect id="Rectangle_12" data-name="Rectangle 12" width="0.769" height="1.7" transform="translate(297.278 59.271)" fill="#414e58"/>
      <rect id="Rectangle_13" data-name="Rectangle 13" width="0.769" height="2.39" transform="translate(298.452 58.583)" fill="#414e58"/>
      <rect id="Rectangle_14" data-name="Rectangle 14" width="0.769" height="1.741" transform="translate(299.628 59.191)" fill="#414e58"/>
      <rect id="Rectangle_15" data-name="Rectangle 15" width="0.769" height="4.294" transform="translate(300.763 56.64)" fill="#414e58"/>
      <rect id="Rectangle_16" data-name="Rectangle 16" width="0.769" height="3.523" transform="translate(301.977 57.45)" fill="#414e58"/>
      <rect id="Rectangle_17" data-name="Rectangle 17" width="0.769" height="6.643" transform="translate(303.151 54.331)" fill="#414e58"/>
      <rect id="Rectangle_18" data-name="Rectangle 18" width="0.769" height="3.36" transform="translate(304.285 57.611)" fill="#414e58"/>
      <rect id="Rectangle_19" data-name="Rectangle 19" width="0.769" height="6.035" transform="translate(305.502 54.898)" fill="#414e58"/>
      <rect id="Rectangle_20" data-name="Rectangle 20" width="0.769" height="8.221" transform="translate(306.676 52.751)" fill="#414e58"/>
      <g id="Groupe_4347" data-name="Groupe 4347" transform="translate(238.109 49.431)">
        <rect id="Rectangle_22-2" data-name="Rectangle 22-2" width="27.096" height="19.927" fill="#fefefe"/>
      </g>
      <line id="Ligne_1" data-name="Ligne 1" x2="27.663" transform="translate(237.661 67.25)" fill="none"/>
      <path id="Tracé_18" data-name="Tracé 18" d="M263.956,64.776H238.8V63.8l2.51-1.984,2.51-1.5,2.51-.527,2.51-1.5,2.512-1.5,2.51-1.456,2.551-.526,2.506-2.994,2.512,1.013,2.51-1.984Z" transform="translate(0.112 2.469)" fill="#414e58"/>
      <g id="Groupe_4193" data-name="Groupe 4193" transform="translate(312.269 25.704)">
        <g id="Groupe_4348" data-name="Groupe 4348" transform="translate(0)">
          <path id="Tracé_19-2" data-name="Tracé 19-2" d="M320.874,42.994l1.742,2.592c-.163.121-.446.324-.77.526a11.574,11.574,0,0,1-13.12-1.741,11.227,11.227,0,0,1,0-15.549,10.151,10.151,0,0,1,7.613-3.113,11.039,11.039,0,0,1,3.242.486,12.217,12.217,0,0,1,2.264.931l.688.485-1.7,2.551a6.144,6.144,0,0,0-.526-.364,6.83,6.83,0,0,0-1.5-.608,8,8,0,0,0-2.39-.4,7.217,7.217,0,0,0-5.427,2.267,8.317,8.317,0,0,0,0,11.178,7.218,7.218,0,0,0,5.427,2.268,7.694,7.694,0,0,0,2.35-.379,8.032,8.032,0,0,0,1.62-.687Z" transform="translate(-305.598 -25.704)" fill="#fefefe"/>
        </g>
        <g id="Groupe_4349" data-name="Groupe 4349" transform="translate(19.968 0.439)">
          <path id="Tracé_20-2" data-name="Tracé 20-2" d="M323.781,47V26.1h9.88v3.077h-6.64v5.548h6.2v3.035h-6.2v6.2h6.64v3.077h-9.88Z" transform="translate(-323.781 -26.104)" fill="#fefefe"/>
        </g>
        <g id="Groupe_4350" data-name="Groupe 4350" transform="translate(33.777 0.439)">
          <path id="Tracé_21-2" data-name="Tracé 21-2" d="M336.355,47V26.1h3.24V43.966h6.64v3.077h-9.879Z" transform="translate(-336.355 -26.104)" fill="#fefefe"/>
        </g>
        <g id="Groupe_4351" data-name="Groupe 4351" transform="translate(46.573 0.439)">
          <path id="Tracé_22-2" data-name="Tracé 22-2" d="M348.007,47V26.1h3.24V43.966h6.641v3.077h-9.88Z" transform="translate(-348.007 -26.104)" fill="#fefefe"/>
        </g>
        <g id="Groupe_4352" data-name="Groupe 4352" transform="translate(59.244 0.439)">
          <path id="Tracé_23-2" data-name="Tracé 23-2" d="M373.807,26.1V40.319a7.059,7.059,0,0,1-1.944,5.225,7.892,7.892,0,0,1-10.366,0,7.058,7.058,0,0,1-1.944-5.225V26.1h3.24V40.319a4.345,4.345,0,0,0,.968,2.882,4.208,4.208,0,0,0,5.831,0,4.341,4.341,0,0,0,.972-2.875V26.1Z" transform="translate(-359.545 -26.104)" fill="#fefefe"/>
        </g>
        <g id="Groupe_4353" data-name="Groupe 4353" transform="translate(78.084 0.439)">
          <path id="Tracé_24-2" data-name="Tracé 24-2" d="M376.7,47V26.1h3.239V43.966h6.641v3.077H376.7Z" transform="translate(-376.701 -26.104)" fill="#fefefe"/>
        </g>
        <g id="Groupe_4354" data-name="Groupe 4354" transform="translate(90.88 0.439)">
          <path id="Tracé_25-2" data-name="Tracé 25-2" d="M388.353,47V26.1h9.88v3.077h-6.64v5.548h6.2v3.035h-6.2v6.2h6.64v3.077h-9.88Z" transform="translate(-388.353 -26.104)" fill="#fefefe"/>
        </g>
        <g id="Groupe_4355" data-name="Groupe 4355" transform="translate(1.582 26.346)">
          <path id="Tracé_26-2" data-name="Tracé 26-2" d="M307.039,70.651V49.708h5.26a7.9,7.9,0,0,1,5.225,1.578,5.16,5.16,0,0,1,1.9,4.173,5,5,0,0,1-2.349,4.373,5.567,5.567,0,0,1,.851,9.113,7.611,7.611,0,0,1-5.182,1.7Zm3.24-12.231H312.3q3.888,0,3.888-2.794a2.428,2.428,0,0,0-.972-2.065,4.872,4.872,0,0,0-2.953-.771h-2.024Zm5.427,8.3a2.947,2.947,0,0,0,.212-4.162l-.009-.011c-.082-.081-.122-.161-.2-.2a4.373,4.373,0,0,0-2.956-.851h-2.471v6.076h2.47a4.373,4.373,0,0,0,2.957-.854Z" transform="translate(-307.039 -49.694)" fill="#fefefe"/>
        </g>
        <g id="Groupe_4356" data-name="Groupe 4356" transform="translate(18.094 26.36)">
          <path id="Tracé_27-2" data-name="Tracé 27-2" d="M336.336,49.707V63.923a7.135,7.135,0,0,1-14.253.671q-.016-.336,0-.671V49.707h3.239V63.923a4.335,4.335,0,0,0,.969,2.881,4.209,4.209,0,0,0,5.831,0,4.344,4.344,0,0,0,.972-2.874V49.707Z" transform="translate(-322.075 -49.707)" fill="#fefefe"/>
        </g>
        <g id="Groupe_4357" data-name="Groupe 4357" transform="translate(35.079 25.945)">
          <path id="Tracé_28-2" data-name="Tracé 28-2" d="M337.541,67.362l2.47-2.227c.081.121.121.2.2.324s.324.365.649.728a7.151,7.151,0,0,0,1.052.891,8.1,8.1,0,0,0,1.457.728,5.563,5.563,0,0,0,1.821.324,3.819,3.819,0,0,0,2.552-.769,2.794,2.794,0,0,0,.93-2.188,2.883,2.883,0,0,0-1.052-2.268,10.424,10.424,0,0,0-2.51-1.456q-1.456-.549-2.916-1.216a6.549,6.549,0,0,1-2.47-1.989,5.669,5.669,0,0,1,.608-7.289,5.866,5.866,0,0,1,4.339-1.62,9.058,9.058,0,0,1,2.308.324,8.1,8.1,0,0,1,1.862.728,14.7,14.7,0,0,1,1.295.891c.284.243.568.485.851.769l.244.284-2.268,2.188a3.8,3.8,0,0,0-.567-.568,6.869,6.869,0,0,0-1.457-.93,4.4,4.4,0,0,0-2.226-.608,3.218,3.218,0,0,0-2.065.649,2.071,2.071,0,0,0-.77,1.741,2.382,2.382,0,0,0,1.052,1.944,11.735,11.735,0,0,0,2.51,1.418c.972.405,1.944.851,2.916,1.3a6.011,6.011,0,0,1,2.51,2.1,6.184,6.184,0,0,1,1.013,3.563,5.751,5.751,0,0,1-1.822,4.373,6.678,6.678,0,0,1-4.779,1.659,9.839,9.839,0,0,1-2.875-.405,8.7,8.7,0,0,1-2.188-.93,12.937,12.937,0,0,1-1.5-1.094,3.211,3.211,0,0,1-.89-.931Z" transform="translate(-337.541 -49.33)" fill="#fefefe"/>
        </g>
        <g id="Groupe_4358" data-name="Groupe 4358" transform="translate(52.9 26.36)">
          <path id="Tracé_29-2" data-name="Tracé 29-2" d="M353.768,70.647V49.707h3.239v20.94Z" transform="translate(-353.768 -49.707)" fill="#fefefe"/>
        </g>
        <g id="Groupe_4359" data-name="Groupe 4359" transform="translate(60.79 25.426)">
          <path id="Tracé_30-2" data-name="Tracé 30-2" d="M375.25,49.788V71.653L364.109,57.931v12.8h-3.156V48.857l11.138,13.73v-12.8Z" transform="translate(-360.953 -48.857)" fill="#fefefe"/>
        </g>
        <g id="Groupe_4360" data-name="Groupe 4360" transform="translate(79.755 26.36)">
          <path id="Tracé_31-2" data-name="Tracé 31-2" d="M378.222,70.647V49.707h9.88v3.078h-6.64v5.548h6.2v3.078h-6.2v6.2h6.64v3.078h-9.88Z" transform="translate(-378.222 -49.707)" fill="#fefefe"/>
        </g>
        <g id="Groupe_4361" data-name="Groupe 4361" transform="translate(91.696 25.945)">
          <path id="Tracé_32-2" data-name="Tracé 32-2" d="M389.1,67.362l2.47-2.227c.081.121.121.2.2.324s.324.365.648.728a7.269,7.269,0,0,0,1.052.891,8.134,8.134,0,0,0,1.457.728,5.547,5.547,0,0,0,1.823.324,3.816,3.816,0,0,0,2.551-.769,2.8,2.8,0,0,0,.931-2.188,2.883,2.883,0,0,0-1.052-2.268,10.423,10.423,0,0,0-2.51-1.456q-1.458-.549-2.916-1.216a6.541,6.541,0,0,1-2.47-1.989,5.669,5.669,0,0,1,.607-7.289,5.869,5.869,0,0,1,4.34-1.62,9.057,9.057,0,0,1,2.308.324,8.12,8.12,0,0,1,1.863.728,14.708,14.708,0,0,1,1.295.891c.283.243.567.485.851.769l.244.284-2.268,2.188a3.8,3.8,0,0,0-.567-.568,6.87,6.87,0,0,0-1.457-.93,4.4,4.4,0,0,0-2.226-.608,3.221,3.221,0,0,0-2.066.649,2.076,2.076,0,0,0-.772,1.741,2.388,2.388,0,0,0,1.052,1.944A11.817,11.817,0,0,0,397,58.165c.972.405,1.944.851,2.916,1.3a6.018,6.018,0,0,1,2.51,2.1,6.191,6.191,0,0,1,1.013,3.563,5.751,5.751,0,0,1-1.822,4.373,6.675,6.675,0,0,1-4.779,1.659,9.839,9.839,0,0,1-2.875-.405,8.711,8.711,0,0,1-2.187-.93,12.945,12.945,0,0,1-1.5-1.094,3.23,3.23,0,0,1-.891-.931Z" transform="translate(-389.096 -49.33)" fill="#fefefe"/>
        </g>
        <g id="Groupe_4362" data-name="Groupe 4362" transform="translate(107.609 25.945)">
          <path id="Tracé_33-2" data-name="Tracé 33-2" d="M403.586,67.362l2.47-2.227c.081.121.121.2.2.324s.324.365.649.728a7.216,7.216,0,0,0,1.052.891,8.1,8.1,0,0,0,1.457.728,5.546,5.546,0,0,0,1.822.324,3.819,3.819,0,0,0,2.552-.769,2.625,2.625,0,0,0,.931-2.188,2.887,2.887,0,0,0-1.052-2.268,10.431,10.431,0,0,0-2.512-1.456q-1.456-.549-2.916-1.216a6.558,6.558,0,0,1-2.47-1.989,5.67,5.67,0,0,1,.608-7.289,5.867,5.867,0,0,1,4.34-1.62,9.056,9.056,0,0,1,2.307.324,8.1,8.1,0,0,1,1.863.728,14.88,14.88,0,0,1,1.3.891c.283.243.567.485.85.769l.244.284-2.268,2.188a3.8,3.8,0,0,0-.567-.568,6.84,6.84,0,0,0-1.457-.93,4.4,4.4,0,0,0-2.226-.608,3.218,3.218,0,0,0-2.065.649,2.071,2.071,0,0,0-.77,1.741,2.385,2.385,0,0,0,1.052,1.944,11.809,11.809,0,0,0,2.51,1.418c.972.405,1.944.851,2.916,1.3a6.012,6.012,0,0,1,2.51,2.1,6.185,6.185,0,0,1,1.014,3.563,5.755,5.755,0,0,1-1.822,4.373,6.675,6.675,0,0,1-4.779,1.659,9.839,9.839,0,0,1-2.875-.405,8.694,8.694,0,0,1-2.187-.93,12.939,12.939,0,0,1-1.5-1.094,3.215,3.215,0,0,1-.891-.931Z" transform="translate(-403.586 -49.33)" fill="#fefefe"/>
        </g>
        <g id="Groupe_4363" data-name="Groupe 4363" transform="translate(1.582 54.057)">
          <path id="Tracé_34-2" data-name="Tracé 34-2" d="M307.039,95.867V74.928h3.24V95.867Z" transform="translate(-307.039 -74.928)" fill="#fefefe"/>
        </g>
        <g id="Groupe_4364" data-name="Groupe 4364" transform="translate(9.529 53.175)">
          <path id="Tracé_35-2" data-name="Tracé 35-2" d="M328.569,75.016V96.877l-11.138-13.73v12.8h-3.156V74.125l11.138,13.731V75.016Z" transform="translate(-314.275 -74.125)" fill="#fefefe"/>
        </g>
        <g id="Groupe_4365" data-name="Groupe 4365" transform="translate(26.728 54.018)">
          <path id="Tracé_36-2" data-name="Tracé 36-2" d="M329.936,77.969V74.892h12.03v3.077H337.55v17.86h-3.24V77.969Z" transform="translate(-329.936 -74.892)" fill="#fefefe"/>
        </g>
        <g id="Groupe_4366" data-name="Groupe 4366" transform="translate(41.682 54.057)">
          <path id="Tracé_37-2" data-name="Tracé 37-2" d="M343.553,95.867V74.928h9.88v3.077h-6.641v5.548h6.2v3.078h-6.2v6.2h6.641v3.077h-9.88Z" transform="translate(-343.553 -74.928)" fill="#fefefe"/>
        </g>
        <g id="Groupe_4367" data-name="Groupe 4367" transform="translate(55.49 54.057)">
          <path id="Tracé_38-2" data-name="Tracé 38-2" d="M356.127,95.867V74.928h3.239v17.86h6.641v3.077Z" transform="translate(-356.127 -74.928)" fill="#fefefe"/>
        </g>
        <g id="Groupe_4368" data-name="Groupe 4368" transform="translate(68.286 54.057)">
          <path id="Tracé_39-2" data-name="Tracé 39-2" d="M367.779,95.867V74.928h3.24v17.86H377.7v3.077Z" transform="translate(-367.779 -74.928)" fill="#fefefe"/>
        </g>
        <g id="Groupe_4369" data-name="Groupe 4369" transform="translate(81.122 54.057)">
          <path id="Tracé_40-2" data-name="Tracé 40-2" d="M379.467,95.867V74.928h3.24V95.867Z" transform="translate(-379.467 -74.928)" fill="#fefefe"/>
        </g>
        <g id="Groupe_4370" data-name="Groupe 4370" transform="translate(88.339 53.703)">
          <path id="Tracé_41-2" data-name="Tracé 41-2" d="M403.5,76.832l-1.822,2.551-.607-.485a8.121,8.121,0,0,0-1.7-.769,7.454,7.454,0,0,0-2.672-.485,6.889,6.889,0,0,0-5.345,2.226,8.462,8.462,0,0,0,.041,11.22,7.1,7.1,0,0,0,5.428,2.226,6.885,6.885,0,0,0,4.775-1.659,7.251,7.251,0,0,0,2.308-4.373h-7.248V84.325h10.61A11.639,11.639,0,0,1,407.3,85.5a11.072,11.072,0,0,1-2.916,7.817,9.865,9.865,0,0,1-7.613,3.119A10.587,10.587,0,0,1,386.04,86c0-.138,0-.277,0-.415a11.126,11.126,0,0,1,3.036-7.774,10.091,10.091,0,0,1,7.7-3.2,11.564,11.564,0,0,1,2.349.244,10.357,10.357,0,0,1,1.9.567c.484.244.972.446,1.376.687s.729.446.891.568Z" transform="translate(-386.039 -74.605)" fill="#fefefe"/>
        </g>
        <g id="Groupe_4371" data-name="Groupe 4371" transform="translate(113.199 54.057)">
          <path id="Tracé_42-2" data-name="Tracé 42-2" d="M408.676,95.867V74.928h9.88v3.077h-6.641v5.548h6.2v3.078h-6.2v6.2h6.641v3.077h-9.88Z" transform="translate(-408.676 -74.928)" fill="#fefefe"/>
        </g>
        <g id="Groupe_4372" data-name="Groupe 4372" transform="translate(127.06 53.175)">
          <path id="Tracé_43-2" data-name="Tracé 43-2" d="M435.594,75.016V96.877l-11.138-13.73v12.8H421.3V74.125l11.139,13.731V75.016Z" transform="translate(-421.298 -74.125)" fill="#fefefe"/>
        </g>
        <g id="Groupe_4373" data-name="Groupe 4373" transform="translate(145.231 53.653)">
          <path id="Tracé_44-2" data-name="Tracé 44-2" d="M453.12,91.854l1.741,2.592c-.161.121-.446.324-.769.526a11.572,11.572,0,0,1-13.12-1.741,11.228,11.228,0,0,1,0-15.549,10.143,10.143,0,0,1,7.612-3.118,10.982,10.982,0,0,1,3.24.485,12.17,12.17,0,0,1,2.268.93l.687.485-1.7,2.552a5.756,5.756,0,0,0-.527-.365,6.77,6.77,0,0,0-1.5-.607,7.962,7.962,0,0,0-2.389-.405,7.221,7.221,0,0,0-5.428,2.267,8.319,8.319,0,0,0,0,11.18,7.225,7.225,0,0,0,5.428,2.267,7.676,7.676,0,0,0,2.348-.365,8.07,8.07,0,0,0,1.621-.687Z" transform="translate(-437.844 -74.56)" fill="#fefefe"/>
        </g>
        <g id="Groupe_4374" data-name="Groupe 4374" transform="translate(165.173 54.057)">
          <path id="Tracé_45-2" data-name="Tracé 45-2" d="M456,95.867V74.928h9.88v3.077h-6.64v5.548h6.2v3.078h-6.2v6.2h6.64v3.077H456Z" transform="translate(-456.003 -74.928)" fill="#fefefe"/>
        </g>
      </g>
      <path id="Tracé_7575" data-name="Tracé 7575" d="M238.87,63.78l2.229-.445,2.534-5.931,1.691,2.322,2.074-6.682,2.46,5.284,1.993-2.754,1.859,1.3,2.2-5,1.7,3.169,2.3-4.537,1.535,2.538,2.229-1.477" transform="translate(0.119 2.435)" fill="none" stroke="#707070" stroke-width="0.4"/>
    </g>
    <text id="CBI_V2.0" data-name="CBI V2.0" transform="translate(1591 1072)" fill="#fff" font-size="9" font-family="Roboto-Medium, Roboto" font-weight="500" letter-spacing="0.866em"><tspan x="0" y="0">CBI V2.0</tspan></text>
  </g>
</svg>
