<svg xmlns="http://www.w3.org/2000/svg" width="1034.905" height="800.103" viewBox="0 0 1034.905 800.103">
  <g id="Groupe_4520" data-name="Groupe 4520" transform="translate(-617 -196)" opacity="0.4">
    <g id="Groupe_4519" data-name="Groupe 4519" transform="translate(640.163 164.493)">
      <path id="Tracé_8286" data-name="Tracé 8286" d="M578.14,126.583c-66.351-1.91-129.541-19.75-189.84-39.27S268.139,46.2,203.379,35.863c-41.65-6.65-89.28-7.59-122.84,11-32.3,17.89-42.73,48.78-48.34,77.45-4.229,21.56-6.71,44.26,4.86,64.44,8,14,22.29,25.79,32.151,39.21,34.3,46.71,10.06,104.3-27.12,149.9-17.44,21.39-37.67,41.8-51.13,64.57s-19.66,48.88-7.91,72.08c11.67,23,39.479,40.31,69.61,52.48,61.19,24.7,133.3,31.77,203.61,35.78,155.639,8.86,312.119,5,468.18,1.18,57.75-1.42,115.76-2.86,172.58-10.3,31.55-4.13,64.12-10.68,87-26.5,29.08-20.08,36.281-54.09,16.8-79.27-32.681-42.24-123-52.73-145.89-98.06-12.581-24.95.34-52.75,18.61-75.89,39.2-49.64,104.91-93.19,108.369-149.93,2.37-39-29.209-78-78.049-96.44-51.19-19.33-122.18-16.9-160,15.1C705.06,115.6,636.719,128.313,578.14,126.583Z" fill="#0099d5" opacity="0.1" style="isolation: isolate"/>
      <ellipse id="Ellipse_233" data-name="Ellipse 233" cx="290.75" cy="29.32" rx="290.75" ry="29.32" transform="translate(144.7 772.97)" fill="#6c63ff" opacity="0.1" style="isolation: isolate"/>
      <path id="Tracé_8287" data-name="Tracé 8287" d="M169.47,799.11s-12.9-73.09-60.78-109.31C88.6,674.6,73.9,653.93,67.48,630.39a179.284,179.284,0,0,1-5.78-34.1" fill="none" stroke="#535461" stroke-miterlimit="10" stroke-width="2"/>
      <path id="Tracé_8288" data-name="Tracé 8288" d="M31.68,573.29c4,7.83,30.73,23.68,30.73,23.68s3.36-29.61-.67-37.45-14-11.11-22.32-7.31S27.65,565.45,31.68,573.29Z" fill="#6c63ff"/>
      <path id="Tracé_8289" data-name="Tracé 8289" d="M29.13,628.08c7.9,4.51,39.44,4.11,39.44,4.11s-14.23-26.58-22.1-31.09-18.16-2.13-22.94,5.32A15.268,15.268,0,0,0,29.13,628.08Z" fill="#6c63ff"/>
      <path id="Tracé_8290" data-name="Tracé 8290" d="M68.34,701.8c9.22.13,36.23-15.25,36.23-15.25s-26.49-16.16-35.72-16.3-16.82,6.82-17,15.53S59.11,701.64,68.34,701.8Z" fill="#6c63ff"/>
      <path id="Tracé_8291" data-name="Tracé 8291" d="M111.3,751.23c9.06,1.61,38.44-9.25,38.44-9.25s-23.22-20.18-32.27-21.76-17.8,4-19.5,12.6S102.23,749.63,111.3,751.23Z" fill="#6c63ff"/>
      <path id="Tracé_8292" data-name="Tracé 8292" d="M100.91,619.25c-3.15,8.19-28,26.55-28,26.55s-6.58-29.12-3.43-37.31,12.74-12.42,21.41-9.45S104.06,611.07,100.91,619.25Z" fill="#6c63ff"/>
      <path id="Tracé_8293" data-name="Tracé 8293" d="M150.38,677.69c-5.6,6.93-35.12,17.43-35.12,17.43s3-29.65,8.56-36.57a17.38,17.38,0,0,1,23.42-3,15.2,15.2,0,0,1,3.891,21.141Q150.775,677.206,150.38,677.69Z" fill="#6c63ff"/>
      <path id="Tracé_8294" data-name="Tracé 8294" d="M190.2,740.72c-4.28,7.72-31.49,22.78-31.49,22.78s-2.39-29.69,1.89-37.41,14.37-10.7,22.55-6.66S194.47,733,190.2,740.72Z" fill="#6c63ff"/>
      <path id="Tracé_8295" data-name="Tracé 8295" d="M31.68,573.29c4,7.83,30.73,23.68,30.73,23.68s3.36-29.61-.67-37.45-14-11.11-22.32-7.31S27.65,565.45,31.68,573.29Z" fill="#0099d5" opacity="0.6" style="isolation: isolate"/>
      <path id="Tracé_8296" data-name="Tracé 8296" d="M29.13,628.08c7.9,4.51,39.44,4.11,39.44,4.11s-14.23-26.58-22.1-31.09-18.16-2.13-22.94,5.32A15.268,15.268,0,0,0,29.13,628.08Z" fill="#0099d5" opacity="0.6" style="isolation: isolate"/>
      <path id="Tracé_8297" data-name="Tracé 8297" d="M68.34,701.8c9.22.13,36.23-15.25,36.23-15.25s-26.49-16.16-35.72-16.3-16.82,6.82-17,15.53S59.11,701.64,68.34,701.8Z" fill="#0099d5" opacity="0.6" style="isolation: isolate"/>
      <path id="Tracé_8298" data-name="Tracé 8298" d="M111.3,751.23c9.06,1.61,38.44-9.25,38.44-9.25s-23.22-20.18-32.27-21.76-17.8,4-19.5,12.6S102.23,749.63,111.3,751.23Z" fill="#0099d5" opacity="0.6" style="isolation: isolate"/>
      <path id="Tracé_8299" data-name="Tracé 8299" d="M100.91,619.25c-3.15,8.19-28,26.55-28,26.55s-6.58-29.12-3.43-37.31,12.74-12.42,21.41-9.45S104.06,611.07,100.91,619.25Z" fill="#0099d5" opacity="0.6" style="isolation: isolate"/>
      <path id="Tracé_8300" data-name="Tracé 8300" d="M150.38,677.69c-5.6,6.93-35.12,17.43-35.12,17.43s3-29.65,8.56-36.57a17.38,17.38,0,0,1,23.42-3,15.2,15.2,0,0,1,3.891,21.141Q150.775,677.206,150.38,677.69Z" fill="#0099d5" opacity="0.6" style="isolation: isolate"/>
      <path id="Tracé_8301" data-name="Tracé 8301" d="M190.2,740.72c-4.28,7.72-31.49,22.78-31.49,22.78s-2.39-29.69,1.89-37.41,14.37-10.7,22.55-6.66S194.47,733,190.2,740.72Z" fill="#0099d5" opacity="0.6" style="isolation: isolate"/>
      <path id="Tracé_8302" data-name="Tracé 8302" d="M167.85,797.19s19.57-71.76-8.65-123.2c-11.84-21.58-16.41-46.1-12.17-70.08a180.052,180.052,0,0,1,9.35-33.38" fill="none" stroke="#535461" stroke-miterlimit="10" stroke-width="2"/>
      <path id="Tracé_8303" data-name="Tracé 8303" d="M138.8,538.02c.32,8.7,17.93,33.41,17.93,33.41s15.78-25.79,15.46-34.5-8.05-15.52-17.27-15.22S138.47,529.31,138.8,538.02Z" fill="#0099d5"/>
      <path id="Tracé_8304" data-name="Tracé 8304" d="M112.96,587.14c5.28,7.14,34.28,18.84,34.28,18.84s-1.6-29.74-6.88-36.89a17.351,17.351,0,0,0-23.26-3.91,15.23,15.23,0,0,0-4.8,21Q112.614,586.672,112.96,587.14Z" fill="#0099d5"/>
      <path id="Tracé_8305" data-name="Tracé 8305" d="M117.16,669.51c8.38,3.65,39.68-.07,39.68-.07s-17.29-24.92-25.67-28.57-18.3-.2-22.17,7.71S108.79,665.86,117.16,669.51Z" fill="#0099d5"/>
      <path id="Tracé_8306" data-name="Tracé 8306" d="M135.21,731.16c7.61,4.94,39.12,6.25,39.12,6.25s-12.58-27.31-20.18-32.24a17.33,17.33,0,0,0-23.23,4,15.229,15.229,0,0,0,3.253,21.291Q134.677,730.832,135.21,731.16Z" fill="#0099d5"/>
      <path id="Tracé_8307" data-name="Tracé 8307" d="M182.37,606.53c-6.4,6.28-37,13.57-37,13.57s6.49-29.15,12.88-35.43a17.42,17.42,0,0,1,23.63-.44,15.16,15.16,0,0,1,1.354,21.4C182.959,605.94,182.67,606.241,182.37,606.53Z" fill="#0099d5"/>
      <path id="Tracé_8308" data-name="Tracé 8308" d="M202.47,678.88c-8.09,4.19-39.58,2.5-39.58,2.5s15.43-26,23.52-30.16,18.25-1.39,22.68,6.25S210.6,674.69,202.47,678.88Z" fill="#0099d5"/>
      <path id="Tracé_8309" data-name="Tracé 8309" d="M211.86,751.74c-7.23,5.42-38.57,8.78-38.57,8.78s10.56-28.07,17.79-33.49a17.38,17.38,0,0,1,23.47,2.55,15.19,15.19,0,0,1-1.735,21.412Q212.353,751.385,211.86,751.74Z" fill="#0099d5"/>
      <circle id="Ellipse_234" data-name="Ellipse 234" cx="0.36" cy="0.36" r="0.36" transform="translate(688.94 335.71)" fill="#e6e8ec"/>
      <path id="Tracé_8310" data-name="Tracé 8310" d="M499.55,214.39,238.04,384.05,408.7,691.85a11.909,11.909,0,0,0,7.6,5.8l154.63,37.72a11.92,11.92,0,0,0,13.54-6.41l76.7-159.35,84.06-112.37-199.48-236A35.35,35.35,0,0,0,499.55,214.39Z" fill="#dcdfed"/>
      <path id="Tracé_8311" data-name="Tracé 8311" d="M747.89,458.57l-.74,1L697.91,525.4l-.89,1.19-33.19,44.37-65.6,136.31-1.84,3.81-9.26,19.23a11.92,11.92,0,0,1-13.56,6.41L418.94,698.98a11.889,11.889,0,0,1-7.6-5.8l-14.87-26.77-2.67-4.82L286.47,467.93l-.92-1.65-44.86-80.9,5.42-3.52,41.09-26.65.95-.62,86.53-56.14,5.46-3.54,122.05-79.19a35.34,35.34,0,0,1,46.22,6.84l91,107.7,4,4.8,66.05,78.14.36.43,33.21,39.28,4.18,4.95Z" opacity="0.1" style="isolation: isolate"/>
      <path id="Tracé_8312" data-name="Tracé 8312" d="M707.26,412.3l-8.06,56-2.43,16.9-1.39,36-.11,2.81-7.23,188.1a11.93,11.93,0,0,1-14.51,11.17l-77.94-17.4-.84-.19L394.86,661.08l-3.67-.82L281.3,635.72l2.52-169.12.08-5.65.76-51.19.84-56.5,86.53-56.14,5.46-3.54c80.26,8.23,187,24.06,259.31,35.35l4,4.8,66,78.14Z" opacity="0.1" style="isolation: isolate"/>
      <path id="Tracé_8313" data-name="Tracé 8313" d="M716.39,345.9l-9.49,66-8.7,60.44-2.43,16.86-1.39,36-7.34,190.91a11.93,11.93,0,0,1-14.51,11.17l-78.78-17.59L393.86,665.08,280.3,639.72l2.6-174.77.76-51.19.89-59.88.91-61.59c18.78-.89,49.68,1.12,86.57,4.83,82.6,8.29,195.2,25.06,268.82,36.61C685.93,340.8,716.39,345.9,716.39,345.9Z" fill="#a5cf4b"/>
      <path id="Tracé_8314" data-name="Tracé 8314" d="M740.47,451.58,698.2,472.31,482.47,578.11,283.66,413.8l-40.19-33.27-5.42,3.52,44.86,80.9-2.6,174.77,113.56,25.36,14.84,26.77a11.892,11.892,0,0,0,7.6,5.8l154.63,37.72a11.92,11.92,0,0,0,13.53-6.41l9.26-19.23,78.78,17.59a11.93,11.93,0,0,0,14.51-11.17l7.34-190.91,50.13-67,.14-1.69Z" opacity="0.1" style="isolation: isolate"/>
      <path id="Tracé_8315" data-name="Tracé 8315" d="M238.04,384.05,220.21,689.38a11.92,11.92,0,0,0,9.31,12.33L703.04,806.86a11.919,11.919,0,0,0,14.43-10.67l27.75-338.95L482.47,586.11Z" fill="#dcdfed"/>
      <path id="Tracé_8316" data-name="Tracé 8316" d="M223.47,696.37l246-151.77a18.06,18.06,0,0,1,23,3.6L712.65,804.99c.8.92,1.19.26,0,0L223.47,696.37C222.07,696.06,222.25,697.1,223.47,696.37Z" opacity="0.1" style="isolation: isolate"/>
      <path id="Tracé_8317" data-name="Tracé 8317" d="M225.23,696.12,468.69,549.05a19.09,19.09,0,0,1,24.28,3.82L711.16,803.8a2.63,2.63,0,0,1-2.55,4.29L226.02,700.93a2.62,2.62,0,0,1-.79-4.81Z" fill="#e3e5f1"/>
    </g>
  </g>
</svg>
