<svg xmlns="http://www.w3.org/2000/svg" width="551.184" height="430.588" viewBox="0 0 551.184 430.588">
  <g id="Groupe_4541" data-name="Groupe 4541" transform="translate(-189.883)" opacity="0.4">
    <path id="Tracé_8391" data-name="Tracé 8391" d="M439.8,154H207.034a4.316,4.316,0,0,1-4.31-4.31V91.949a4.316,4.316,0,0,1,4.31-4.31H439.8a4.316,4.316,0,0,1,4.31,4.31v57.74A4.316,4.316,0,0,1,439.8,154ZM207.034,89.363a2.589,2.589,0,0,0-2.586,2.586v57.74a2.59,2.59,0,0,0,2.586,2.586H439.8a2.59,2.59,0,0,0,2.586-2.586V91.949a2.589,2.589,0,0,0-2.586-2.586Z" transform="translate(-0.296 -2.019)" fill="#3f3d56"/>
    <path id="Tracé_8392" data-name="Tracé 8392" d="M285.6,107.352a2.926,2.926,0,0,0,0,5.853H423.558a2.926,2.926,0,0,0,0-5.853Z" transform="translate(-2.138 -2.473)" fill="#e6e6e6"/>
    <path id="Tracé_8393" data-name="Tracé 8393" d="M285.6,125.325a2.926,2.926,0,0,0,0,5.853h59.366a2.926,2.926,0,1,0,.007-5.853H285.6Z" transform="translate(-2.138 -2.887)" fill="#e6e6e6"/>
    <path id="Tracé_8394" data-name="Tracé 8394" d="M339.416,363.49H235.962a4.316,4.316,0,0,1-4.31-4.31V251.438a4.316,4.316,0,0,1,4.31-4.311H339.416a4.316,4.316,0,0,1,4.31,4.311V359.18A4.316,4.316,0,0,1,339.416,363.49ZM235.962,248.851a2.59,2.59,0,0,0-2.586,2.586V359.18a2.589,2.589,0,0,0,2.586,2.586H339.416A2.589,2.589,0,0,0,342,359.18V251.438a2.59,2.59,0,0,0-2.586-2.587Z" transform="translate(-0.962 -5.693)" fill="#3f3d56"/>
    <path id="Tracé_8395" data-name="Tracé 8395" d="M258.559,269.87a2.926,2.926,0,0,0,0,5.853h59.365a2.926,2.926,0,0,0,0-5.853Z" transform="translate(-1.515 -6.217)" fill="#e6e6e6"/>
    <path id="Tracé_8396" data-name="Tracé 8396" d="M258.559,287.518a2.926,2.926,0,1,0-.007,5.853h59.372a2.926,2.926,0,1,0,0-5.853Z" transform="translate(-1.515 -6.624)" fill="#e6e6e6"/>
    <path id="Tracé_8397" data-name="Tracé 8397" d="M288.577,342.623A18.421,18.421,0,1,1,307,324.2h0A18.442,18.442,0,0,1,288.577,342.623Z" transform="translate(-1.849 -7.045)" fill="#a5cf4b"/>
    <path id="Tracé_8398" data-name="Tracé 8398" d="M515.324,0H618.777a4.316,4.316,0,0,1,4.31,4.31V112.053a4.316,4.316,0,0,1-4.31,4.31H515.324a4.315,4.315,0,0,1-4.31-4.31V4.31A4.315,4.315,0,0,1,515.324,0ZM618.777,114.639a2.589,2.589,0,0,0,2.586-2.586V4.31a2.588,2.588,0,0,0-2.586-2.586H515.324a2.589,2.589,0,0,0-2.587,2.586V112.053a2.59,2.59,0,0,0,2.587,2.586Z" transform="translate(-7.398)" fill="#3f3d56"/>
    <path id="Tracé_8399" data-name="Tracé 8399" d="M597.285,96.227a2.926,2.926,0,0,0,.007-5.853H537.92a2.926,2.926,0,1,0-.007,5.853h59.372Z" transform="translate(-7.951 -2.082)" fill="#e6e6e6"/>
    <path id="Tracé_8400" data-name="Tracé 8400" d="M597.285,78.578a2.926,2.926,0,0,0,.007-5.853H537.92a2.926,2.926,0,1,0-.007,5.853h59.372Z" transform="translate(-7.951 -1.675)" fill="#e6e6e6"/>
    <path id="Tracé_8401" data-name="Tracé 8401" d="M567.938,22.742a18.421,18.421,0,1,1-18.421,18.421h0A18.441,18.441,0,0,1,567.938,22.742Z" transform="translate(-8.285 -0.524)" fill="#a5cf4b"/>
    <path id="Tracé_8402" data-name="Tracé 8402" d="M204.035,227.374a147.471,147.471,0,0,1,62.433-28.222,145.326,145.326,0,0,1,68.9,3.541,146.985,146.985,0,0,1,32.154,13.932c10.316,6.03,19.637,13.454,28.605,21.313,9.085,7.962,17.872,16.279,27.356,23.775a153.259,153.259,0,0,0,95.355,33.544q4.3.007,8.586-.236c1.549-.086,1.56-2.509,0-2.423a150.786,150.786,0,0,1-98.572-29.786c-9.83-7.351-18.806-15.755-27.968-23.9-8.884-7.9-18.005-15.577-28.084-21.92A148.36,148.36,0,0,0,209,220.726c-2.274,1.582-4.5,3.235-6.681,4.936-1.229.956.5,2.66,1.713,1.713Z" transform="translate(-0.277 -4.473)" fill="#3f3d56"/>
    <circle id="Ellipse_240" data-name="Ellipse 240" cx="12.589" cy="12.589" r="12.589" transform="translate(189.883 209.432)" fill="#3f3d56"/>
    <circle id="Ellipse_241" data-name="Ellipse 241" cx="12.589" cy="12.589" r="12.589" transform="translate(658.216 376.579)" fill="#3f3d56"/>
    <path id="Tracé_8403" data-name="Tracé 8403" d="M744.706,322.217H539.293a4.314,4.314,0,0,1-4.31-4.31V211.027a4.314,4.314,0,0,1,4.31-4.31H744.706a4.316,4.316,0,0,1,4.31,4.31v106.88A4.316,4.316,0,0,1,744.706,322.217ZM539.293,208.441a2.589,2.589,0,0,0-2.587,2.586v106.88a2.589,2.589,0,0,0,2.587,2.586H744.706a2.589,2.589,0,0,0,2.586-2.586V211.027a2.589,2.589,0,0,0-2.586-2.586Z" transform="translate(-7.95 -4.762)" fill="#3f3d56"/>
    <circle id="Ellipse_242" data-name="Ellipse 242" cx="17.559" cy="17.559" r="17.559" transform="translate(548.227 222.258)" fill="#a5cf4b"/>
    <circle id="Ellipse_243" data-name="Ellipse 243" cx="11.559" cy="11.559" r="11.559" transform="translate(420.227 370.258)" fill="#a5cf4b"/>
    <path id="Tracé_8404" data-name="Tracé 8404" d="M616.09,233.49a2.926,2.926,0,0,0-.007,5.853H726.7a2.926,2.926,0,0,0,0-5.853H616.09Z" transform="translate(-9.751 -5.379)" fill="#e6e6e6"/>
    <path id="Tracé_8405" data-name="Tracé 8405" d="M616.09,251.462a2.926,2.926,0,0,0-.007,5.853h59.372a2.926,2.926,0,0,0,0-5.853Z" transform="translate(-9.751 -5.793)" fill="#e6e6e6"/>
    <path id="Tracé_8406" data-name="Tracé 8406" d="M560.769,280.2c-2.226,0-4.037,1.313-4.037,2.926s1.811,2.927,4.037,2.927h162.99c2.226,0,4.037-1.313,4.037-2.927s-1.811-2.926-4.037-2.926Z" transform="translate(-8.451 -6.455)" fill="#e6e6e6"/>
    <path id="Tracé_8411" data-name="Tracé 8411" d="M558.542,280.2c-1,0-1.81,1.313-1.81,2.926s.812,2.927,1.81,2.927h73.1c1,0,1.81-1.313,1.81-2.927s-.812-2.926-1.81-2.926Z" transform="translate(-136.451 118.545)" fill="#e6e6e6"/>
    <path id="Tracé_8413" data-name="Tracé 8413" d="M557.734,280.2c-.553,0-1,1.313-1,2.926s.45,2.927,1,2.927h40.477c.553,0,1-1.313,1-2.927s-.45-2.926-1-2.926Z" transform="translate(-102.451 94.545)" fill="#e6e6e6"/>
    <path id="Tracé_8414" data-name="Tracé 8414" d="M557.411,280.2c-.374,0-.679,1.313-.679,2.926s.3,2.927.679,2.927h27.4c.374,0,.678-1.313.678-2.927s-.3-2.926-.678-2.926Z" transform="translate(-102.451 104.545)" fill="#e6e6e6"/>
    <path id="Tracé_8407" data-name="Tracé 8407" d="M560.769,298.169c-2.226,0-4.037,1.313-4.037,2.926s1.811,2.926,4.037,2.926h162.99c2.226,0,4.037-1.313,4.037-2.926s-1.811-2.926-4.037-2.926Z" transform="translate(-8.451 -6.869)" fill="#e6e6e6"/>
    <path id="Tracé_8412" data-name="Tracé 8412" d="M558.542,298.169c-1,0-1.81,1.313-1.81,2.926s.812,2.926,1.81,2.926h73.1c1,0,1.81-1.313,1.81-2.926s-.812-2.926-1.81-2.926Z" transform="translate(-136.451 112.131)" fill="#e6e6e6"/>
    <path id="Tracé_8408" data-name="Tracé 8408" d="M522.449,409.971c11.589-5.026,24.528-.644,35.45,3.989,5.625,2.387,11.191,4.934,17.013,6.818a96.953,96.953,0,0,0,15,3.554,105.942,105.942,0,0,0,30.812.189,107.608,107.608,0,0,0,29.737-8.646A100.548,100.548,0,0,0,676.2,399.049q1.462-1.32,2.869-2.7c1.115-1.092-.6-2.8-1.714-1.713a97.666,97.666,0,0,1-25.106,17.723,105.149,105.149,0,0,1-29.168,9.37,103.023,103.023,0,0,1-30.737.531,96.831,96.831,0,0,1-15.05-3.272,159.427,159.427,0,0,1-16.61-6.451c-11.025-4.735-23.274-9.371-35.389-6.106a29.494,29.494,0,0,0-4.064,1.451c-1.426.619-.194,2.706,1.222,2.092Z" transform="translate(-7.619 -9.083)" fill="#3f3d56"/>
    <path id="Tracé_8410" data-name="Tracé 8410" d="M515.463,439.177H412.01a4.315,4.315,0,0,1-4.31-4.31v-57.74a4.315,4.315,0,0,1,4.31-4.31H515.463a4.316,4.316,0,0,1,4.31,4.31v57.74A4.316,4.316,0,0,1,515.463,439.177ZM412.01,374.54a2.589,2.589,0,0,0-2.587,2.586v57.74a2.59,2.59,0,0,0,2.587,2.586H515.463a2.589,2.589,0,0,0,2.586-2.586v-57.74a2.588,2.588,0,0,0-2.586-2.586Z" transform="translate(-5.018 -8.589)" fill="#3f3d56"/>
  </g>
</svg>
